0
SECTION
2
ENTITIES
0
CIRCLE
10
109.125000
20
13.000000
40
2.000000
62
7
0
CIRCLE
10
218.250000
20
13.000000
40
2.000000
62
7
0
CIRCLE
10
327.375000
20
13.000000
40
2.000000
62
7
0
CIRCLE
10
436.500000
20
13.000000
40
2.000000
62
7
0
CIRCLE
10
545.625000
20
13.000000
40
2.000000
62
7
0
CIRCLE
10
654.750000
20
13.000000
40
2.000000
62
7
0
CIRCLE
10
763.875000
20
13.000000
40
2.000000
62
7
0
LINE
10
104.625000
20
60.000000
11
104.625000
21
70.000000
62
7
0
LINE
10
104.625000
20
70.000000
11
113.625000
21
70.000000
62
7
0
LINE
10
113.625000
20
70.000000
11
113.625000
21
60.000000
62
7
0
LINE
10
113.625000
20
60.000000
11
104.625000
21
60.000000
62
7
0
LINE
10
104.625000
20
80.000000
11
104.625000
21
90.000000
62
7
0
LINE
10
104.625000
20
90.000000
11
113.625000
21
90.000000
62
7
0
LINE
10
113.625000
20
90.000000
11
113.625000
21
80.000000
62
7
0
LINE
10
113.625000
20
80.000000
11
104.625000
21
80.000000
62
7
0
LINE
10
104.625000
20
100.000000
11
104.625000
21
110.000000
62
7
0
LINE
10
104.625000
20
110.000000
11
113.625000
21
110.000000
62
7
0
LINE
10
113.625000
20
110.000000
11
113.625000
21
100.000000
62
7
0
LINE
10
113.625000
20
100.000000
11
104.625000
21
100.000000
62
7
0
LINE
10
104.625000
20
120.000000
11
104.625000
21
130.000000
62
7
0
LINE
10
104.625000
20
130.000000
11
113.625000
21
130.000000
62
7
0
LINE
10
113.625000
20
130.000000
11
113.625000
21
120.000000
62
7
0
LINE
10
113.625000
20
120.000000
11
104.625000
21
120.000000
62
7
0
LINE
10
104.625000
20
140.000000
11
104.625000
21
150.000000
62
7
0
LINE
10
104.625000
20
150.000000
11
113.625000
21
150.000000
62
7
0
LINE
10
113.625000
20
150.000000
11
113.625000
21
140.000000
62
7
0
LINE
10
113.625000
20
140.000000
11
104.625000
21
140.000000
62
7
0
LINE
10
104.625000
20
160.000000
11
104.625000
21
170.000000
62
7
0
LINE
10
104.625000
20
170.000000
11
113.625000
21
170.000000
62
7
0
LINE
10
113.625000
20
170.000000
11
113.625000
21
160.000000
62
7
0
LINE
10
113.625000
20
160.000000
11
104.625000
21
160.000000
62
7
0
LINE
10
104.625000
20
180.000000
11
104.625000
21
190.000000
62
7
0
LINE
10
104.625000
20
190.000000
11
113.625000
21
190.000000
62
7
0
LINE
10
113.625000
20
190.000000
11
113.625000
21
180.000000
62
7
0
LINE
10
113.625000
20
180.000000
11
104.625000
21
180.000000
62
7
0
LINE
10
104.625000
20
200.000000
11
104.625000
21
210.000000
62
7
0
LINE
10
104.625000
20
210.000000
11
113.625000
21
210.000000
62
7
0
LINE
10
113.625000
20
210.000000
11
113.625000
21
200.000000
62
7
0
LINE
10
113.625000
20
200.000000
11
104.625000
21
200.000000
62
7
0
LINE
10
104.625000
20
220.000000
11
104.625000
21
230.000000
62
7
0
LINE
10
104.625000
20
230.000000
11
113.625000
21
230.000000
62
7
0
LINE
10
113.625000
20
230.000000
11
113.625000
21
220.000000
62
7
0
LINE
10
113.625000
20
220.000000
11
104.625000
21
220.000000
62
7
0
LINE
10
104.625000
20
240.000000
11
104.625000
21
250.000000
62
7
0
LINE
10
104.625000
20
250.000000
11
113.625000
21
250.000000
62
7
0
LINE
10
113.625000
20
250.000000
11
113.625000
21
240.000000
62
7
0
LINE
10
113.625000
20
240.000000
11
104.625000
21
240.000000
62
7
0
LINE
10
322.875000
20
60.000000
11
322.875000
21
70.000000
62
7
0
LINE
10
322.875000
20
70.000000
11
331.875000
21
70.000000
62
7
0
LINE
10
331.875000
20
70.000000
11
331.875000
21
60.000000
62
7
0
LINE
10
331.875000
20
60.000000
11
322.875000
21
60.000000
62
7
0
LINE
10
322.875000
20
80.000000
11
322.875000
21
90.000000
62
7
0
LINE
10
322.875000
20
90.000000
11
331.875000
21
90.000000
62
7
0
LINE
10
331.875000
20
90.000000
11
331.875000
21
80.000000
62
7
0
LINE
10
331.875000
20
80.000000
11
322.875000
21
80.000000
62
7
0
LINE
10
322.875000
20
100.000000
11
322.875000
21
110.000000
62
7
0
LINE
10
322.875000
20
110.000000
11
331.875000
21
110.000000
62
7
0
LINE
10
331.875000
20
110.000000
11
331.875000
21
100.000000
62
7
0
LINE
10
331.875000
20
100.000000
11
322.875000
21
100.000000
62
7
0
LINE
10
322.875000
20
120.000000
11
322.875000
21
130.000000
62
7
0
LINE
10
322.875000
20
130.000000
11
331.875000
21
130.000000
62
7
0
LINE
10
331.875000
20
130.000000
11
331.875000
21
120.000000
62
7
0
LINE
10
331.875000
20
120.000000
11
322.875000
21
120.000000
62
7
0
LINE
10
322.875000
20
140.000000
11
322.875000
21
150.000000
62
7
0
LINE
10
322.875000
20
150.000000
11
331.875000
21
150.000000
62
7
0
LINE
10
331.875000
20
150.000000
11
331.875000
21
140.000000
62
7
0
LINE
10
331.875000
20
140.000000
11
322.875000
21
140.000000
62
7
0
LINE
10
322.875000
20
160.000000
11
322.875000
21
170.000000
62
7
0
LINE
10
322.875000
20
170.000000
11
331.875000
21
170.000000
62
7
0
LINE
10
331.875000
20
170.000000
11
331.875000
21
160.000000
62
7
0
LINE
10
331.875000
20
160.000000
11
322.875000
21
160.000000
62
7
0
LINE
10
322.875000
20
180.000000
11
322.875000
21
190.000000
62
7
0
LINE
10
322.875000
20
190.000000
11
331.875000
21
190.000000
62
7
0
LINE
10
331.875000
20
190.000000
11
331.875000
21
180.000000
62
7
0
LINE
10
331.875000
20
180.000000
11
322.875000
21
180.000000
62
7
0
LINE
10
322.875000
20
200.000000
11
322.875000
21
210.000000
62
7
0
LINE
10
322.875000
20
210.000000
11
331.875000
21
210.000000
62
7
0
LINE
10
331.875000
20
210.000000
11
331.875000
21
200.000000
62
7
0
LINE
10
331.875000
20
200.000000
11
322.875000
21
200.000000
62
7
0
LINE
10
322.875000
20
220.000000
11
322.875000
21
230.000000
62
7
0
LINE
10
322.875000
20
230.000000
11
331.875000
21
230.000000
62
7
0
LINE
10
331.875000
20
230.000000
11
331.875000
21
220.000000
62
7
0
LINE
10
331.875000
20
220.000000
11
322.875000
21
220.000000
62
7
0
LINE
10
322.875000
20
240.000000
11
322.875000
21
250.000000
62
7
0
LINE
10
322.875000
20
250.000000
11
331.875000
21
250.000000
62
7
0
LINE
10
331.875000
20
250.000000
11
331.875000
21
240.000000
62
7
0
LINE
10
331.875000
20
240.000000
11
322.875000
21
240.000000
62
7
0
LINE
10
541.125000
20
60.000000
11
541.125000
21
70.000000
62
7
0
LINE
10
541.125000
20
70.000000
11
550.125000
21
70.000000
62
7
0
LINE
10
550.125000
20
70.000000
11
550.125000
21
60.000000
62
7
0
LINE
10
550.125000
20
60.000000
11
541.125000
21
60.000000
62
7
0
LINE
10
541.125000
20
80.000000
11
541.125000
21
90.000000
62
7
0
LINE
10
541.125000
20
90.000000
11
550.125000
21
90.000000
62
7
0
LINE
10
550.125000
20
90.000000
11
550.125000
21
80.000000
62
7
0
LINE
10
550.125000
20
80.000000
11
541.125000
21
80.000000
62
7
0
LINE
10
541.125000
20
100.000000
11
541.125000
21
110.000000
62
7
0
LINE
10
541.125000
20
110.000000
11
550.125000
21
110.000000
62
7
0
LINE
10
550.125000
20
110.000000
11
550.125000
21
100.000000
62
7
0
LINE
10
550.125000
20
100.000000
11
541.125000
21
100.000000
62
7
0
LINE
10
541.125000
20
120.000000
11
541.125000
21
130.000000
62
7
0
LINE
10
541.125000
20
130.000000
11
550.125000
21
130.000000
62
7
0
LINE
10
550.125000
20
130.000000
11
550.125000
21
120.000000
62
7
0
LINE
10
550.125000
20
120.000000
11
541.125000
21
120.000000
62
7
0
LINE
10
541.125000
20
140.000000
11
541.125000
21
150.000000
62
7
0
LINE
10
541.125000
20
150.000000
11
550.125000
21
150.000000
62
7
0
LINE
10
550.125000
20
150.000000
11
550.125000
21
140.000000
62
7
0
LINE
10
550.125000
20
140.000000
11
541.125000
21
140.000000
62
7
0
LINE
10
541.125000
20
160.000000
11
541.125000
21
170.000000
62
7
0
LINE
10
541.125000
20
170.000000
11
550.125000
21
170.000000
62
7
0
LINE
10
550.125000
20
170.000000
11
550.125000
21
160.000000
62
7
0
LINE
10
550.125000
20
160.000000
11
541.125000
21
160.000000
62
7
0
LINE
10
541.125000
20
180.000000
11
541.125000
21
190.000000
62
7
0
LINE
10
541.125000
20
190.000000
11
550.125000
21
190.000000
62
7
0
LINE
10
550.125000
20
190.000000
11
550.125000
21
180.000000
62
7
0
LINE
10
550.125000
20
180.000000
11
541.125000
21
180.000000
62
7
0
LINE
10
541.125000
20
200.000000
11
541.125000
21
210.000000
62
7
0
LINE
10
541.125000
20
210.000000
11
550.125000
21
210.000000
62
7
0
LINE
10
550.125000
20
210.000000
11
550.125000
21
200.000000
62
7
0
LINE
10
550.125000
20
200.000000
11
541.125000
21
200.000000
62
7
0
LINE
10
541.125000
20
220.000000
11
541.125000
21
230.000000
62
7
0
LINE
10
541.125000
20
230.000000
11
550.125000
21
230.000000
62
7
0
LINE
10
550.125000
20
230.000000
11
550.125000
21
220.000000
62
7
0
LINE
10
550.125000
20
220.000000
11
541.125000
21
220.000000
62
7
0
LINE
10
541.125000
20
240.000000
11
541.125000
21
250.000000
62
7
0
LINE
10
541.125000
20
250.000000
11
550.125000
21
250.000000
62
7
0
LINE
10
550.125000
20
250.000000
11
550.125000
21
240.000000
62
7
0
LINE
10
550.125000
20
240.000000
11
541.125000
21
240.000000
62
7
0
LINE
10
759.375000
20
60.000000
11
759.375000
21
70.000000
62
7
0
LINE
10
759.375000
20
70.000000
11
768.375000
21
70.000000
62
7
0
LINE
10
768.375000
20
70.000000
11
768.375000
21
60.000000
62
7
0
LINE
10
768.375000
20
60.000000
11
759.375000
21
60.000000
62
7
0
LINE
10
759.375000
20
80.000000
11
759.375000
21
90.000000
62
7
0
LINE
10
759.375000
20
90.000000
11
768.375000
21
90.000000
62
7
0
LINE
10
768.375000
20
90.000000
11
768.375000
21
80.000000
62
7
0
LINE
10
768.375000
20
80.000000
11
759.375000
21
80.000000
62
7
0
LINE
10
759.375000
20
100.000000
11
759.375000
21
110.000000
62
7
0
LINE
10
759.375000
20
110.000000
11
768.375000
21
110.000000
62
7
0
LINE
10
768.375000
20
110.000000
11
768.375000
21
100.000000
62
7
0
LINE
10
768.375000
20
100.000000
11
759.375000
21
100.000000
62
7
0
LINE
10
759.375000
20
120.000000
11
759.375000
21
130.000000
62
7
0
LINE
10
759.375000
20
130.000000
11
768.375000
21
130.000000
62
7
0
LINE
10
768.375000
20
130.000000
11
768.375000
21
120.000000
62
7
0
LINE
10
768.375000
20
120.000000
11
759.375000
21
120.000000
62
7
0
LINE
10
759.375000
20
140.000000
11
759.375000
21
150.000000
62
7
0
LINE
10
759.375000
20
150.000000
11
768.375000
21
150.000000
62
7
0
LINE
10
768.375000
20
150.000000
11
768.375000
21
140.000000
62
7
0
LINE
10
768.375000
20
140.000000
11
759.375000
21
140.000000
62
7
0
LINE
10
759.375000
20
160.000000
11
759.375000
21
170.000000
62
7
0
LINE
10
759.375000
20
170.000000
11
768.375000
21
170.000000
62
7
0
LINE
10
768.375000
20
170.000000
11
768.375000
21
160.000000
62
7
0
LINE
10
768.375000
20
160.000000
11
759.375000
21
160.000000
62
7
0
LINE
10
759.375000
20
180.000000
11
759.375000
21
190.000000
62
7
0
LINE
10
759.375000
20
190.000000
11
768.375000
21
190.000000
62
7
0
LINE
10
768.375000
20
190.000000
11
768.375000
21
180.000000
62
7
0
LINE
10
768.375000
20
180.000000
11
759.375000
21
180.000000
62
7
0
LINE
10
759.375000
20
200.000000
11
759.375000
21
210.000000
62
7
0
LINE
10
759.375000
20
210.000000
11
768.375000
21
210.000000
62
7
0
LINE
10
768.375000
20
210.000000
11
768.375000
21
200.000000
62
7
0
LINE
10
768.375000
20
200.000000
11
759.375000
21
200.000000
62
7
0
LINE
10
759.375000
20
220.000000
11
759.375000
21
230.000000
62
7
0
LINE
10
759.375000
20
230.000000
11
768.375000
21
230.000000
62
7
0
LINE
10
768.375000
20
230.000000
11
768.375000
21
220.000000
62
7
0
LINE
10
768.375000
20
220.000000
11
759.375000
21
220.000000
62
7
0
LINE
10
759.375000
20
240.000000
11
759.375000
21
250.000000
62
7
0
LINE
10
759.375000
20
250.000000
11
768.375000
21
250.000000
62
7
0
LINE
10
768.375000
20
250.000000
11
768.375000
21
240.000000
62
7
0
LINE
10
768.375000
20
240.000000
11
759.375000
21
240.000000
62
7
0
LINE
10
0.000000
20
40.000000
11
9.000000
21
40.000000
62
7
0
LINE
10
9.000000
20
40.000000
11
9.000000
21
49.000000
62
7
0
LINE
10
9.000000
20
49.000000
11
18.000000
21
49.000000
62
7
0
LINE
10
18.000000
20
49.000000
11
18.000000
21
40.000000
62
7
0
LINE
10
18.000000
20
40.000000
11
27.000000
21
40.000000
62
7
0
LINE
10
27.000000
20
40.000000
11
27.000000
21
49.000000
62
7
0
LINE
10
27.000000
20
49.000000
11
36.000000
21
49.000000
62
7
0
LINE
10
36.000000
20
49.000000
11
36.000000
21
40.000000
62
7
0
LINE
10
36.000000
20
40.000000
11
45.000000
21
40.000000
62
7
0
LINE
10
45.000000
20
40.000000
11
45.000000
21
49.000000
62
7
0
LINE
10
45.000000
20
49.000000
11
54.000000
21
49.000000
62
7
0
LINE
10
54.000000
20
49.000000
11
54.000000
21
40.000000
62
7
0
LINE
10
54.000000
20
40.000000
11
63.000000
21
40.000000
62
7
0
LINE
10
63.000000
20
40.000000
11
63.000000
21
49.000000
62
7
0
LINE
10
63.000000
20
49.000000
11
72.000000
21
49.000000
62
7
0
LINE
10
72.000000
20
49.000000
11
72.000000
21
40.000000
62
7
0
LINE
10
72.000000
20
40.000000
11
81.000000
21
40.000000
62
7
0
LINE
10
81.000000
20
40.000000
11
81.000000
21
49.000000
62
7
0
LINE
10
81.000000
20
49.000000
11
90.000000
21
49.000000
62
7
0
LINE
10
90.000000
20
49.000000
11
90.000000
21
40.000000
62
7
0
LINE
10
90.000000
20
40.000000
11
99.000000
21
40.000000
62
7
0
LINE
10
99.000000
20
40.000000
11
99.000000
21
49.000000
62
7
0
LINE
10
99.000000
20
49.000000
11
108.000000
21
49.000000
62
7
0
LINE
10
108.000000
20
49.000000
11
108.000000
21
40.000000
62
7
0
LINE
10
108.000000
20
40.000000
11
117.000000
21
40.000000
62
7
0
LINE
10
117.000000
20
40.000000
11
117.000000
21
49.000000
62
7
0
LINE
10
117.000000
20
49.000000
11
126.000000
21
49.000000
62
7
0
LINE
10
126.000000
20
49.000000
11
126.000000
21
40.000000
62
7
0
LINE
10
126.000000
20
40.000000
11
135.000000
21
40.000000
62
7
0
LINE
10
135.000000
20
40.000000
11
135.000000
21
49.000000
62
7
0
LINE
10
135.000000
20
49.000000
11
144.000000
21
49.000000
62
7
0
LINE
10
144.000000
20
49.000000
11
144.000000
21
40.000000
62
7
0
LINE
10
144.000000
20
40.000000
11
153.000000
21
40.000000
62
7
0
LINE
10
153.000000
20
40.000000
11
153.000000
21
49.000000
62
7
0
LINE
10
153.000000
20
49.000000
11
162.000000
21
49.000000
62
7
0
LINE
10
162.000000
20
49.000000
11
162.000000
21
40.000000
62
7
0
LINE
10
162.000000
20
40.000000
11
171.000000
21
40.000000
62
7
0
LINE
10
171.000000
20
40.000000
11
171.000000
21
49.000000
62
7
0
LINE
10
171.000000
20
49.000000
11
180.000000
21
49.000000
62
7
0
LINE
10
180.000000
20
49.000000
11
180.000000
21
40.000000
62
7
0
LINE
10
180.000000
20
40.000000
11
189.000000
21
40.000000
62
7
0
LINE
10
189.000000
20
40.000000
11
189.000000
21
49.000000
62
7
0
LINE
10
189.000000
20
49.000000
11
198.000000
21
49.000000
62
7
0
LINE
10
198.000000
20
49.000000
11
198.000000
21
40.000000
62
7
0
LINE
10
198.000000
20
40.000000
11
207.000000
21
40.000000
62
7
0
LINE
10
207.000000
20
40.000000
11
207.000000
21
49.000000
62
7
0
LINE
10
207.000000
20
49.000000
11
216.000000
21
49.000000
62
7
0
LINE
10
216.000000
20
49.000000
11
216.000000
21
40.000000
62
7
0
LINE
10
216.000000
20
40.000000
11
225.000000
21
40.000000
62
7
0
LINE
10
225.000000
20
40.000000
11
225.000000
21
49.000000
62
7
0
LINE
10
225.000000
20
49.000000
11
234.000000
21
49.000000
62
7
0
LINE
10
234.000000
20
49.000000
11
234.000000
21
40.000000
62
7
0
LINE
10
234.000000
20
40.000000
11
243.000000
21
40.000000
62
7
0
LINE
10
243.000000
20
40.000000
11
243.000000
21
49.000000
62
7
0
LINE
10
243.000000
20
49.000000
11
252.000000
21
49.000000
62
7
0
LINE
10
252.000000
20
49.000000
11
252.000000
21
40.000000
62
7
0
LINE
10
252.000000
20
40.000000
11
261.000000
21
40.000000
62
7
0
LINE
10
261.000000
20
40.000000
11
261.000000
21
49.000000
62
7
0
LINE
10
261.000000
20
49.000000
11
270.000000
21
49.000000
62
7
0
LINE
10
270.000000
20
49.000000
11
270.000000
21
40.000000
62
7
0
LINE
10
270.000000
20
40.000000
11
279.000000
21
40.000000
62
7
0
LINE
10
279.000000
20
40.000000
11
279.000000
21
49.000000
62
7
0
LINE
10
279.000000
20
49.000000
11
288.000000
21
49.000000
62
7
0
LINE
10
288.000000
20
49.000000
11
288.000000
21
40.000000
62
7
0
LINE
10
288.000000
20
40.000000
11
297.000000
21
40.000000
62
7
0
LINE
10
297.000000
20
40.000000
11
297.000000
21
49.000000
62
7
0
LINE
10
297.000000
20
49.000000
11
306.000000
21
49.000000
62
7
0
LINE
10
306.000000
20
49.000000
11
306.000000
21
40.000000
62
7
0
LINE
10
306.000000
20
40.000000
11
315.000000
21
40.000000
62
7
0
LINE
10
315.000000
20
40.000000
11
315.000000
21
49.000000
62
7
0
LINE
10
315.000000
20
49.000000
11
324.000000
21
49.000000
62
7
0
LINE
10
324.000000
20
49.000000
11
324.000000
21
40.000000
62
7
0
LINE
10
324.000000
20
40.000000
11
333.000000
21
40.000000
62
7
0
LINE
10
333.000000
20
40.000000
11
333.000000
21
49.000000
62
7
0
LINE
10
333.000000
20
49.000000
11
342.000000
21
49.000000
62
7
0
LINE
10
342.000000
20
49.000000
11
342.000000
21
40.000000
62
7
0
LINE
10
342.000000
20
40.000000
11
351.000000
21
40.000000
62
7
0
LINE
10
351.000000
20
40.000000
11
351.000000
21
49.000000
62
7
0
LINE
10
351.000000
20
49.000000
11
360.000000
21
49.000000
62
7
0
LINE
10
360.000000
20
49.000000
11
360.000000
21
40.000000
62
7
0
LINE
10
360.000000
20
40.000000
11
369.000000
21
40.000000
62
7
0
LINE
10
369.000000
20
40.000000
11
369.000000
21
49.000000
62
7
0
LINE
10
369.000000
20
49.000000
11
378.000000
21
49.000000
62
7
0
LINE
10
378.000000
20
49.000000
11
378.000000
21
40.000000
62
7
0
LINE
10
378.000000
20
40.000000
11
387.000000
21
40.000000
62
7
0
LINE
10
387.000000
20
40.000000
11
387.000000
21
49.000000
62
7
0
LINE
10
387.000000
20
49.000000
11
396.000000
21
49.000000
62
7
0
LINE
10
396.000000
20
49.000000
11
396.000000
21
40.000000
62
7
0
LINE
10
396.000000
20
40.000000
11
405.000000
21
40.000000
62
7
0
LINE
10
405.000000
20
40.000000
11
405.000000
21
49.000000
62
7
0
LINE
10
405.000000
20
49.000000
11
414.000000
21
49.000000
62
7
0
LINE
10
414.000000
20
49.000000
11
414.000000
21
40.000000
62
7
0
LINE
10
414.000000
20
40.000000
11
423.000000
21
40.000000
62
7
0
LINE
10
423.000000
20
40.000000
11
423.000000
21
49.000000
62
7
0
LINE
10
423.000000
20
49.000000
11
432.000000
21
49.000000
62
7
0
LINE
10
432.000000
20
49.000000
11
432.000000
21
40.000000
62
7
0
LINE
10
432.000000
20
40.000000
11
441.000000
21
40.000000
62
7
0
LINE
10
441.000000
20
40.000000
11
441.000000
21
49.000000
62
7
0
LINE
10
441.000000
20
49.000000
11
450.000000
21
49.000000
62
7
0
LINE
10
450.000000
20
49.000000
11
450.000000
21
40.000000
62
7
0
LINE
10
450.000000
20
40.000000
11
459.000000
21
40.000000
62
7
0
LINE
10
459.000000
20
40.000000
11
459.000000
21
49.000000
62
7
0
LINE
10
459.000000
20
49.000000
11
468.000000
21
49.000000
62
7
0
LINE
10
468.000000
20
49.000000
11
468.000000
21
40.000000
62
7
0
LINE
10
468.000000
20
40.000000
11
477.000000
21
40.000000
62
7
0
LINE
10
477.000000
20
40.000000
11
477.000000
21
49.000000
62
7
0
LINE
10
477.000000
20
49.000000
11
486.000000
21
49.000000
62
7
0
LINE
10
486.000000
20
49.000000
11
486.000000
21
40.000000
62
7
0
LINE
10
486.000000
20
40.000000
11
495.000000
21
40.000000
62
7
0
LINE
10
495.000000
20
40.000000
11
495.000000
21
49.000000
62
7
0
LINE
10
495.000000
20
49.000000
11
504.000000
21
49.000000
62
7
0
LINE
10
504.000000
20
49.000000
11
504.000000
21
40.000000
62
7
0
LINE
10
504.000000
20
40.000000
11
513.000000
21
40.000000
62
7
0
LINE
10
513.000000
20
40.000000
11
513.000000
21
49.000000
62
7
0
LINE
10
513.000000
20
49.000000
11
522.000000
21
49.000000
62
7
0
LINE
10
522.000000
20
49.000000
11
522.000000
21
40.000000
62
7
0
LINE
10
522.000000
20
40.000000
11
531.000000
21
40.000000
62
7
0
LINE
10
531.000000
20
40.000000
11
531.000000
21
49.000000
62
7
0
LINE
10
531.000000
20
49.000000
11
540.000000
21
49.000000
62
7
0
LINE
10
540.000000
20
49.000000
11
540.000000
21
40.000000
62
7
0
LINE
10
540.000000
20
40.000000
11
549.000000
21
40.000000
62
7
0
LINE
10
549.000000
20
40.000000
11
549.000000
21
49.000000
62
7
0
LINE
10
549.000000
20
49.000000
11
558.000000
21
49.000000
62
7
0
LINE
10
558.000000
20
49.000000
11
558.000000
21
40.000000
62
7
0
LINE
10
558.000000
20
40.000000
11
567.000000
21
40.000000
62
7
0
LINE
10
567.000000
20
40.000000
11
567.000000
21
49.000000
62
7
0
LINE
10
567.000000
20
49.000000
11
576.000000
21
49.000000
62
7
0
LINE
10
576.000000
20
49.000000
11
576.000000
21
40.000000
62
7
0
LINE
10
576.000000
20
40.000000
11
585.000000
21
40.000000
62
7
0
LINE
10
585.000000
20
40.000000
11
585.000000
21
49.000000
62
7
0
LINE
10
585.000000
20
49.000000
11
594.000000
21
49.000000
62
7
0
LINE
10
594.000000
20
49.000000
11
594.000000
21
40.000000
62
7
0
LINE
10
594.000000
20
40.000000
11
603.000000
21
40.000000
62
7
0
LINE
10
603.000000
20
40.000000
11
603.000000
21
49.000000
62
7
0
LINE
10
603.000000
20
49.000000
11
612.000000
21
49.000000
62
7
0
LINE
10
612.000000
20
49.000000
11
612.000000
21
40.000000
62
7
0
LINE
10
612.000000
20
40.000000
11
621.000000
21
40.000000
62
7
0
LINE
10
621.000000
20
40.000000
11
621.000000
21
49.000000
62
7
0
LINE
10
621.000000
20
49.000000
11
630.000000
21
49.000000
62
7
0
LINE
10
630.000000
20
49.000000
11
630.000000
21
40.000000
62
7
0
LINE
10
630.000000
20
40.000000
11
639.000000
21
40.000000
62
7
0
LINE
10
639.000000
20
40.000000
11
639.000000
21
49.000000
62
7
0
LINE
10
639.000000
20
49.000000
11
648.000000
21
49.000000
62
7
0
LINE
10
648.000000
20
49.000000
11
648.000000
21
40.000000
62
7
0
LINE
10
648.000000
20
40.000000
11
657.000000
21
40.000000
62
7
0
LINE
10
657.000000
20
40.000000
11
657.000000
21
49.000000
62
7
0
LINE
10
657.000000
20
49.000000
11
666.000000
21
49.000000
62
7
0
LINE
10
666.000000
20
49.000000
11
666.000000
21
40.000000
62
7
0
LINE
10
666.000000
20
40.000000
11
675.000000
21
40.000000
62
7
0
LINE
10
675.000000
20
40.000000
11
675.000000
21
49.000000
62
7
0
LINE
10
675.000000
20
49.000000
11
684.000000
21
49.000000
62
7
0
LINE
10
684.000000
20
49.000000
11
684.000000
21
40.000000
62
7
0
LINE
10
684.000000
20
40.000000
11
693.000000
21
40.000000
62
7
0
LINE
10
693.000000
20
40.000000
11
693.000000
21
49.000000
62
7
0
LINE
10
693.000000
20
49.000000
11
702.000000
21
49.000000
62
7
0
LINE
10
702.000000
20
49.000000
11
702.000000
21
40.000000
62
7
0
LINE
10
702.000000
20
40.000000
11
711.000000
21
40.000000
62
7
0
LINE
10
711.000000
20
40.000000
11
711.000000
21
49.000000
62
7
0
LINE
10
711.000000
20
49.000000
11
720.000000
21
49.000000
62
7
0
LINE
10
720.000000
20
49.000000
11
720.000000
21
40.000000
62
7
0
LINE
10
720.000000
20
40.000000
11
729.000000
21
40.000000
62
7
0
LINE
10
729.000000
20
40.000000
11
729.000000
21
49.000000
62
7
0
LINE
10
729.000000
20
49.000000
11
738.000000
21
49.000000
62
7
0
LINE
10
738.000000
20
49.000000
11
738.000000
21
40.000000
62
7
0
LINE
10
738.000000
20
40.000000
11
747.000000
21
40.000000
62
7
0
LINE
10
747.000000
20
40.000000
11
747.000000
21
49.000000
62
7
0
LINE
10
747.000000
20
49.000000
11
756.000000
21
49.000000
62
7
0
LINE
10
756.000000
20
49.000000
11
756.000000
21
40.000000
62
7
0
LINE
10
756.000000
20
40.000000
11
765.000000
21
40.000000
62
7
0
LINE
10
765.000000
20
40.000000
11
765.000000
21
49.000000
62
7
0
LINE
10
765.000000
20
49.000000
11
774.000000
21
49.000000
62
7
0
LINE
10
774.000000
20
49.000000
11
774.000000
21
40.000000
62
7
0
LINE
10
774.000000
20
40.000000
11
783.000000
21
40.000000
62
7
0
LINE
10
783.000000
20
40.000000
11
783.000000
21
49.000000
62
7
0
LINE
10
783.000000
20
49.000000
11
792.000000
21
49.000000
62
7
0
LINE
10
792.000000
20
49.000000
11
792.000000
21
40.000000
62
7
0
LINE
10
792.000000
20
40.000000
11
801.000000
21
40.000000
62
7
0
LINE
10
801.000000
20
40.000000
11
801.000000
21
49.000000
62
7
0
LINE
10
801.000000
20
49.000000
11
810.000000
21
49.000000
62
7
0
LINE
10
810.000000
20
49.000000
11
810.000000
21
40.000000
62
7
0
LINE
10
810.000000
20
40.000000
11
819.000000
21
40.000000
62
7
0
LINE
10
819.000000
20
40.000000
11
819.000000
21
49.000000
62
7
0
LINE
10
819.000000
20
49.000000
11
828.000000
21
49.000000
62
7
0
LINE
10
828.000000
20
49.000000
11
828.000000
21
40.000000
62
7
0
LINE
10
828.000000
20
40.000000
11
837.000000
21
40.000000
62
7
0
LINE
10
837.000000
20
40.000000
11
837.000000
21
49.000000
62
7
0
LINE
10
837.000000
20
49.000000
11
846.000000
21
49.000000
62
7
0
LINE
10
846.000000
20
49.000000
11
846.000000
21
40.000000
62
7
0
LINE
10
846.000000
20
40.000000
11
855.000000
21
40.000000
62
7
0
LINE
10
855.000000
20
40.000000
11
855.000000
21
49.000000
62
7
0
LINE
10
855.000000
20
49.000000
11
864.000000
21
49.000000
62
7
0
LINE
10
864.000000
20
49.000000
11
864.000000
21
40.000000
62
7
0
LINE
10
864.000000
20
40.000000
11
873.000000
21
40.000000
62
7
0
LINE
10
0.000000
20
0.000000
11
0.000000
21
379.000000
62
7
0
LINE
10
0.000000
20
379.000000
11
873.000000
21
379.000000
62
7
0
LINE
10
873.000000
20
379.000000
11
873.000000
21
0.000000
62
7
0
LINE
10
873.000000
20
0.000000
11
0.000000
21
0.000000
62
7
0
ARC
10
15.000000
20
15.000000
40
15.000000
50
180.000000
51
270.000000
62
7
0
ARC
10
858.000000
20
15.000000
40
15.000000
50
270.000000
51
0.000000
62
7
0
ARC
10
858.000000
20
364.000000
40
15.000000
50
0.000000
51
90.000000
62
7
0
ARC
10
15.000000
20
364.000000
40
15.000000
50
90.000000
51
180.000000
62
7
0
ENDSEC
0
EOF
