0
SECTION
2
ENTITIES
0
CIRCLE
10
109.214996
20
13.360000
40
2.000000
62
7
0
CIRCLE
10
218.429993
20
13.360000
40
2.000000
62
7
0
CIRCLE
10
327.644989
20
13.360000
40
2.000000
62
7
0
CIRCLE
10
436.859985
20
13.360000
40
2.000000
62
7
0
CIRCLE
10
546.074951
20
13.360000
40
2.000000
62
7
0
CIRCLE
10
655.289917
20
13.360000
40
2.000000
62
7
0
CIRCLE
10
764.505005
20
13.360000
40
2.000000
62
7
0
LINE
10
104.534996
20
60.000000
11
104.534996
21
70.000000
62
7
0
LINE
10
104.534996
20
70.000000
11
113.894997
21
70.000000
62
7
0
LINE
10
113.894997
20
70.000000
11
113.894997
21
60.000000
62
7
0
LINE
10
113.894997
20
60.000000
11
104.534996
21
60.000000
62
7
0
LINE
10
104.534996
20
80.000000
11
104.534996
21
90.000000
62
7
0
LINE
10
104.534996
20
90.000000
11
113.894997
21
90.000000
62
7
0
LINE
10
113.894997
20
90.000000
11
113.894997
21
80.000000
62
7
0
LINE
10
113.894997
20
80.000000
11
104.534996
21
80.000000
62
7
0
LINE
10
104.534996
20
100.000000
11
104.534996
21
110.000000
62
7
0
LINE
10
104.534996
20
110.000000
11
113.894997
21
110.000000
62
7
0
LINE
10
113.894997
20
110.000000
11
113.894997
21
100.000000
62
7
0
LINE
10
113.894997
20
100.000000
11
104.534996
21
100.000000
62
7
0
LINE
10
104.534996
20
120.000000
11
104.534996
21
130.000000
62
7
0
LINE
10
104.534996
20
130.000000
11
113.894997
21
130.000000
62
7
0
LINE
10
113.894997
20
130.000000
11
113.894997
21
120.000000
62
7
0
LINE
10
113.894997
20
120.000000
11
104.534996
21
120.000000
62
7
0
LINE
10
104.534996
20
140.000000
11
104.534996
21
150.000000
62
7
0
LINE
10
104.534996
20
150.000000
11
113.894997
21
150.000000
62
7
0
LINE
10
113.894997
20
150.000000
11
113.894997
21
140.000000
62
7
0
LINE
10
113.894997
20
140.000000
11
104.534996
21
140.000000
62
7
0
LINE
10
104.534996
20
160.000000
11
104.534996
21
170.000000
62
7
0
LINE
10
104.534996
20
170.000000
11
113.894997
21
170.000000
62
7
0
LINE
10
113.894997
20
170.000000
11
113.894997
21
160.000000
62
7
0
LINE
10
113.894997
20
160.000000
11
104.534996
21
160.000000
62
7
0
LINE
10
104.534996
20
180.000000
11
104.534996
21
190.000000
62
7
0
LINE
10
104.534996
20
190.000000
11
113.894997
21
190.000000
62
7
0
LINE
10
113.894997
20
190.000000
11
113.894997
21
180.000000
62
7
0
LINE
10
113.894997
20
180.000000
11
104.534996
21
180.000000
62
7
0
LINE
10
104.534996
20
200.000000
11
104.534996
21
210.000000
62
7
0
LINE
10
104.534996
20
210.000000
11
113.894997
21
210.000000
62
7
0
LINE
10
113.894997
20
210.000000
11
113.894997
21
200.000000
62
7
0
LINE
10
113.894997
20
200.000000
11
104.534996
21
200.000000
62
7
0
LINE
10
104.534996
20
220.000000
11
104.534996
21
230.000000
62
7
0
LINE
10
104.534996
20
230.000000
11
113.894997
21
230.000000
62
7
0
LINE
10
113.894997
20
230.000000
11
113.894997
21
220.000000
62
7
0
LINE
10
113.894997
20
220.000000
11
104.534996
21
220.000000
62
7
0
LINE
10
104.534996
20
240.000000
11
104.534996
21
250.000000
62
7
0
LINE
10
104.534996
20
250.000000
11
113.894997
21
250.000000
62
7
0
LINE
10
113.894997
20
250.000000
11
113.894997
21
240.000000
62
7
0
LINE
10
113.894997
20
240.000000
11
104.534996
21
240.000000
62
7
0
LINE
10
322.964996
20
60.000000
11
322.964996
21
70.000000
62
7
0
LINE
10
322.964996
20
70.000000
11
332.324982
21
70.000000
62
7
0
LINE
10
332.324982
20
70.000000
11
332.324982
21
60.000000
62
7
0
LINE
10
332.324982
20
60.000000
11
322.964996
21
60.000000
62
7
0
LINE
10
322.964996
20
80.000000
11
322.964996
21
90.000000
62
7
0
LINE
10
322.964996
20
90.000000
11
332.324982
21
90.000000
62
7
0
LINE
10
332.324982
20
90.000000
11
332.324982
21
80.000000
62
7
0
LINE
10
332.324982
20
80.000000
11
322.964996
21
80.000000
62
7
0
LINE
10
322.964996
20
100.000000
11
322.964996
21
110.000000
62
7
0
LINE
10
322.964996
20
110.000000
11
332.324982
21
110.000000
62
7
0
LINE
10
332.324982
20
110.000000
11
332.324982
21
100.000000
62
7
0
LINE
10
332.324982
20
100.000000
11
322.964996
21
100.000000
62
7
0
LINE
10
322.964996
20
120.000000
11
322.964996
21
130.000000
62
7
0
LINE
10
322.964996
20
130.000000
11
332.324982
21
130.000000
62
7
0
LINE
10
332.324982
20
130.000000
11
332.324982
21
120.000000
62
7
0
LINE
10
332.324982
20
120.000000
11
322.964996
21
120.000000
62
7
0
LINE
10
322.964996
20
140.000000
11
322.964996
21
150.000000
62
7
0
LINE
10
322.964996
20
150.000000
11
332.324982
21
150.000000
62
7
0
LINE
10
332.324982
20
150.000000
11
332.324982
21
140.000000
62
7
0
LINE
10
332.324982
20
140.000000
11
322.964996
21
140.000000
62
7
0
LINE
10
322.964996
20
160.000000
11
322.964996
21
170.000000
62
7
0
LINE
10
322.964996
20
170.000000
11
332.324982
21
170.000000
62
7
0
LINE
10
332.324982
20
170.000000
11
332.324982
21
160.000000
62
7
0
LINE
10
332.324982
20
160.000000
11
322.964996
21
160.000000
62
7
0
LINE
10
322.964996
20
180.000000
11
322.964996
21
190.000000
62
7
0
LINE
10
322.964996
20
190.000000
11
332.324982
21
190.000000
62
7
0
LINE
10
332.324982
20
190.000000
11
332.324982
21
180.000000
62
7
0
LINE
10
332.324982
20
180.000000
11
322.964996
21
180.000000
62
7
0
LINE
10
322.964996
20
200.000000
11
322.964996
21
210.000000
62
7
0
LINE
10
322.964996
20
210.000000
11
332.324982
21
210.000000
62
7
0
LINE
10
332.324982
20
210.000000
11
332.324982
21
200.000000
62
7
0
LINE
10
332.324982
20
200.000000
11
322.964996
21
200.000000
62
7
0
LINE
10
322.964996
20
220.000000
11
322.964996
21
230.000000
62
7
0
LINE
10
322.964996
20
230.000000
11
332.324982
21
230.000000
62
7
0
LINE
10
332.324982
20
230.000000
11
332.324982
21
220.000000
62
7
0
LINE
10
332.324982
20
220.000000
11
322.964996
21
220.000000
62
7
0
LINE
10
322.964996
20
240.000000
11
322.964996
21
250.000000
62
7
0
LINE
10
322.964996
20
250.000000
11
332.324982
21
250.000000
62
7
0
LINE
10
332.324982
20
250.000000
11
332.324982
21
240.000000
62
7
0
LINE
10
332.324982
20
240.000000
11
322.964996
21
240.000000
62
7
0
LINE
10
541.394958
20
60.000000
11
541.394958
21
70.000000
62
7
0
LINE
10
541.394958
20
70.000000
11
550.755005
21
70.000000
62
7
0
LINE
10
550.755005
20
70.000000
11
550.755005
21
60.000000
62
7
0
LINE
10
550.755005
20
60.000000
11
541.394958
21
60.000000
62
7
0
LINE
10
541.394958
20
80.000000
11
541.394958
21
90.000000
62
7
0
LINE
10
541.394958
20
90.000000
11
550.755005
21
90.000000
62
7
0
LINE
10
550.755005
20
90.000000
11
550.755005
21
80.000000
62
7
0
LINE
10
550.755005
20
80.000000
11
541.394958
21
80.000000
62
7
0
LINE
10
541.394958
20
100.000000
11
541.394958
21
110.000000
62
7
0
LINE
10
541.394958
20
110.000000
11
550.755005
21
110.000000
62
7
0
LINE
10
550.755005
20
110.000000
11
550.755005
21
100.000000
62
7
0
LINE
10
550.755005
20
100.000000
11
541.394958
21
100.000000
62
7
0
LINE
10
541.394958
20
120.000000
11
541.394958
21
130.000000
62
7
0
LINE
10
541.394958
20
130.000000
11
550.755005
21
130.000000
62
7
0
LINE
10
550.755005
20
130.000000
11
550.755005
21
120.000000
62
7
0
LINE
10
550.755005
20
120.000000
11
541.394958
21
120.000000
62
7
0
LINE
10
541.394958
20
140.000000
11
541.394958
21
150.000000
62
7
0
LINE
10
541.394958
20
150.000000
11
550.755005
21
150.000000
62
7
0
LINE
10
550.755005
20
150.000000
11
550.755005
21
140.000000
62
7
0
LINE
10
550.755005
20
140.000000
11
541.394958
21
140.000000
62
7
0
LINE
10
541.394958
20
160.000000
11
541.394958
21
170.000000
62
7
0
LINE
10
541.394958
20
170.000000
11
550.755005
21
170.000000
62
7
0
LINE
10
550.755005
20
170.000000
11
550.755005
21
160.000000
62
7
0
LINE
10
550.755005
20
160.000000
11
541.394958
21
160.000000
62
7
0
LINE
10
541.394958
20
180.000000
11
541.394958
21
190.000000
62
7
0
LINE
10
541.394958
20
190.000000
11
550.755005
21
190.000000
62
7
0
LINE
10
550.755005
20
190.000000
11
550.755005
21
180.000000
62
7
0
LINE
10
550.755005
20
180.000000
11
541.394958
21
180.000000
62
7
0
LINE
10
541.394958
20
200.000000
11
541.394958
21
210.000000
62
7
0
LINE
10
541.394958
20
210.000000
11
550.755005
21
210.000000
62
7
0
LINE
10
550.755005
20
210.000000
11
550.755005
21
200.000000
62
7
0
LINE
10
550.755005
20
200.000000
11
541.394958
21
200.000000
62
7
0
LINE
10
541.394958
20
220.000000
11
541.394958
21
230.000000
62
7
0
LINE
10
541.394958
20
230.000000
11
550.755005
21
230.000000
62
7
0
LINE
10
550.755005
20
230.000000
11
550.755005
21
220.000000
62
7
0
LINE
10
550.755005
20
220.000000
11
541.394958
21
220.000000
62
7
0
LINE
10
541.394958
20
240.000000
11
541.394958
21
250.000000
62
7
0
LINE
10
541.394958
20
250.000000
11
550.755005
21
250.000000
62
7
0
LINE
10
550.755005
20
250.000000
11
550.755005
21
240.000000
62
7
0
LINE
10
550.755005
20
240.000000
11
541.394958
21
240.000000
62
7
0
LINE
10
759.825012
20
60.000000
11
759.825012
21
70.000000
62
7
0
LINE
10
759.825012
20
70.000000
11
769.184937
21
70.000000
62
7
0
LINE
10
769.184937
20
70.000000
11
769.184937
21
60.000000
62
7
0
LINE
10
769.184937
20
60.000000
11
759.825012
21
60.000000
62
7
0
LINE
10
759.825012
20
80.000000
11
759.825012
21
90.000000
62
7
0
LINE
10
759.825012
20
90.000000
11
769.184937
21
90.000000
62
7
0
LINE
10
769.184937
20
90.000000
11
769.184937
21
80.000000
62
7
0
LINE
10
769.184937
20
80.000000
11
759.825012
21
80.000000
62
7
0
LINE
10
759.825012
20
100.000000
11
759.825012
21
110.000000
62
7
0
LINE
10
759.825012
20
110.000000
11
769.184937
21
110.000000
62
7
0
LINE
10
769.184937
20
110.000000
11
769.184937
21
100.000000
62
7
0
LINE
10
769.184937
20
100.000000
11
759.825012
21
100.000000
62
7
0
LINE
10
759.825012
20
120.000000
11
759.825012
21
130.000000
62
7
0
LINE
10
759.825012
20
130.000000
11
769.184937
21
130.000000
62
7
0
LINE
10
769.184937
20
130.000000
11
769.184937
21
120.000000
62
7
0
LINE
10
769.184937
20
120.000000
11
759.825012
21
120.000000
62
7
0
LINE
10
759.825012
20
140.000000
11
759.825012
21
150.000000
62
7
0
LINE
10
759.825012
20
150.000000
11
769.184937
21
150.000000
62
7
0
LINE
10
769.184937
20
150.000000
11
769.184937
21
140.000000
62
7
0
LINE
10
769.184937
20
140.000000
11
759.825012
21
140.000000
62
7
0
LINE
10
759.825012
20
160.000000
11
759.825012
21
170.000000
62
7
0
LINE
10
759.825012
20
170.000000
11
769.184937
21
170.000000
62
7
0
LINE
10
769.184937
20
170.000000
11
769.184937
21
160.000000
62
7
0
LINE
10
769.184937
20
160.000000
11
759.825012
21
160.000000
62
7
0
LINE
10
759.825012
20
180.000000
11
759.825012
21
190.000000
62
7
0
LINE
10
759.825012
20
190.000000
11
769.184937
21
190.000000
62
7
0
LINE
10
769.184937
20
190.000000
11
769.184937
21
180.000000
62
7
0
LINE
10
769.184937
20
180.000000
11
759.825012
21
180.000000
62
7
0
LINE
10
759.825012
20
200.000000
11
759.825012
21
210.000000
62
7
0
LINE
10
759.825012
20
210.000000
11
769.184937
21
210.000000
62
7
0
LINE
10
769.184937
20
210.000000
11
769.184937
21
200.000000
62
7
0
LINE
10
769.184937
20
200.000000
11
759.825012
21
200.000000
62
7
0
LINE
10
759.825012
20
220.000000
11
759.825012
21
230.000000
62
7
0
LINE
10
759.825012
20
230.000000
11
769.184937
21
230.000000
62
7
0
LINE
10
769.184937
20
230.000000
11
769.184937
21
220.000000
62
7
0
LINE
10
769.184937
20
220.000000
11
759.825012
21
220.000000
62
7
0
LINE
10
759.825012
20
240.000000
11
759.825012
21
250.000000
62
7
0
LINE
10
759.825012
20
250.000000
11
769.184937
21
250.000000
62
7
0
LINE
10
769.184937
20
250.000000
11
769.184937
21
240.000000
62
7
0
LINE
10
769.184937
20
240.000000
11
759.825012
21
240.000000
62
7
0
LINE
10
0.000000
20
40.000000
11
9.394838
21
40.000000
62
7
0
LINE
10
9.394838
20
40.000000
11
9.394838
21
49.360001
62
7
0
LINE
10
9.394838
20
49.360001
11
18.789677
21
49.360001
62
7
0
LINE
10
18.789677
20
49.360001
11
18.789677
21
40.000000
62
7
0
LINE
10
18.789677
20
40.000000
11
28.184515
21
40.000000
62
7
0
LINE
10
28.184515
20
40.000000
11
28.184515
21
49.360001
62
7
0
LINE
10
28.184515
20
49.360001
11
37.579353
21
49.360001
62
7
0
LINE
10
37.579353
20
49.360001
11
37.579353
21
40.000000
62
7
0
LINE
10
37.579353
20
40.000000
11
46.974190
21
40.000000
62
7
0
LINE
10
46.974190
20
40.000000
11
46.974190
21
49.360001
62
7
0
LINE
10
46.974190
20
49.360001
11
56.369026
21
49.360001
62
7
0
LINE
10
56.369026
20
49.360001
11
56.369026
21
40.000000
62
7
0
LINE
10
56.369026
20
40.000000
11
65.763863
21
40.000000
62
7
0
LINE
10
65.763863
20
40.000000
11
65.763863
21
49.360001
62
7
0
LINE
10
65.763863
20
49.360001
11
75.158699
21
49.360001
62
7
0
LINE
10
75.158699
20
49.360001
11
75.158699
21
40.000000
62
7
0
LINE
10
75.158699
20
40.000000
11
84.553535
21
40.000000
62
7
0
LINE
10
84.553535
20
40.000000
11
84.553535
21
49.360001
62
7
0
LINE
10
84.553535
20
49.360001
11
93.948372
21
49.360001
62
7
0
LINE
10
93.948372
20
49.360001
11
93.948372
21
40.000000
62
7
0
LINE
10
93.948372
20
40.000000
11
103.343208
21
40.000000
62
7
0
LINE
10
103.343208
20
40.000000
11
103.343208
21
49.360001
62
7
0
LINE
10
103.343208
20
49.360001
11
112.738045
21
49.360001
62
7
0
LINE
10
112.738045
20
49.360001
11
112.738045
21
40.000000
62
7
0
LINE
10
112.738045
20
40.000000
11
122.132881
21
40.000000
62
7
0
LINE
10
122.132881
20
40.000000
11
122.132881
21
49.360001
62
7
0
LINE
10
122.132881
20
49.360001
11
131.527725
21
49.360001
62
7
0
LINE
10
131.527725
20
49.360001
11
131.527725
21
40.000000
62
7
0
LINE
10
131.527725
20
40.000000
11
140.922562
21
40.000000
62
7
0
LINE
10
140.922562
20
40.000000
11
140.922562
21
49.360001
62
7
0
LINE
10
140.922562
20
49.360001
11
150.317398
21
49.360001
62
7
0
LINE
10
150.317398
20
49.360001
11
150.317398
21
40.000000
62
7
0
LINE
10
150.317398
20
40.000000
11
159.712234
21
40.000000
62
7
0
LINE
10
159.712234
20
40.000000
11
159.712234
21
49.360001
62
7
0
LINE
10
159.712234
20
49.360001
11
169.107071
21
49.360001
62
7
0
LINE
10
169.107071
20
49.360001
11
169.107071
21
40.000000
62
7
0
LINE
10
169.107071
20
40.000000
11
178.501907
21
40.000000
62
7
0
LINE
10
178.501907
20
40.000000
11
178.501907
21
49.360001
62
7
0
LINE
10
178.501907
20
49.360001
11
187.896744
21
49.360001
62
7
0
LINE
10
187.896744
20
49.360001
11
187.896744
21
40.000000
62
7
0
LINE
10
187.896744
20
40.000000
11
197.291580
21
40.000000
62
7
0
LINE
10
197.291580
20
40.000000
11
197.291580
21
49.360001
62
7
0
LINE
10
197.291580
20
49.360001
11
206.686417
21
49.360001
62
7
0
LINE
10
206.686417
20
49.360001
11
206.686417
21
40.000000
62
7
0
LINE
10
206.686417
20
40.000000
11
216.081253
21
40.000000
62
7
0
LINE
10
216.081253
20
40.000000
11
216.081253
21
49.360001
62
7
0
LINE
10
216.081253
20
49.360001
11
225.476089
21
49.360001
62
7
0
LINE
10
225.476089
20
49.360001
11
225.476089
21
40.000000
62
7
0
LINE
10
225.476089
20
40.000000
11
234.870926
21
40.000000
62
7
0
LINE
10
234.870926
20
40.000000
11
234.870926
21
49.360001
62
7
0
LINE
10
234.870926
20
49.360001
11
244.265762
21
49.360001
62
7
0
LINE
10
244.265762
20
49.360001
11
244.265762
21
40.000000
62
7
0
LINE
10
244.265762
20
40.000000
11
253.660599
21
40.000000
62
7
0
LINE
10
253.660599
20
40.000000
11
253.660599
21
49.360001
62
7
0
LINE
10
253.660599
20
49.360001
11
263.055450
21
49.360001
62
7
0
LINE
10
263.055450
20
49.360001
11
263.055450
21
40.000000
62
7
0
LINE
10
263.055450
20
40.000000
11
272.450287
21
40.000000
62
7
0
LINE
10
272.450287
20
40.000000
11
272.450287
21
49.360001
62
7
0
LINE
10
272.450287
20
49.360001
11
281.845123
21
49.360001
62
7
0
LINE
10
281.845123
20
49.360001
11
281.845123
21
40.000000
62
7
0
LINE
10
281.845123
20
40.000000
11
291.239960
21
40.000000
62
7
0
LINE
10
291.239960
20
40.000000
11
291.239960
21
49.360001
62
7
0
LINE
10
291.239960
20
49.360001
11
300.634796
21
49.360001
62
7
0
LINE
10
300.634796
20
49.360001
11
300.634796
21
40.000000
62
7
0
LINE
10
300.634796
20
40.000000
11
310.029633
21
40.000000
62
7
0
LINE
10
310.029633
20
40.000000
11
310.029633
21
49.360001
62
7
0
LINE
10
310.029633
20
49.360001
11
319.424469
21
49.360001
62
7
0
LINE
10
319.424469
20
49.360001
11
319.424469
21
40.000000
62
7
0
LINE
10
319.424469
20
40.000000
11
328.819305
21
40.000000
62
7
0
LINE
10
328.819305
20
40.000000
11
328.819305
21
49.360001
62
7
0
LINE
10
328.819305
20
49.360001
11
338.214142
21
49.360001
62
7
0
LINE
10
338.214142
20
49.360001
11
338.214142
21
40.000000
62
7
0
LINE
10
338.214142
20
40.000000
11
347.608978
21
40.000000
62
7
0
LINE
10
347.608978
20
40.000000
11
347.608978
21
49.360001
62
7
0
LINE
10
347.608978
20
49.360001
11
357.003815
21
49.360001
62
7
0
LINE
10
357.003815
20
49.360001
11
357.003815
21
40.000000
62
7
0
LINE
10
357.003815
20
40.000000
11
366.398651
21
40.000000
62
7
0
LINE
10
366.398651
20
40.000000
11
366.398651
21
49.360001
62
7
0
LINE
10
366.398651
20
49.360001
11
375.793488
21
49.360001
62
7
0
LINE
10
375.793488
20
49.360001
11
375.793488
21
40.000000
62
7
0
LINE
10
375.793488
20
40.000000
11
385.188324
21
40.000000
62
7
0
LINE
10
385.188324
20
40.000000
11
385.188324
21
49.360001
62
7
0
LINE
10
385.188324
20
49.360001
11
394.583160
21
49.360001
62
7
0
LINE
10
394.583160
20
49.360001
11
394.583160
21
40.000000
62
7
0
LINE
10
394.583160
20
40.000000
11
403.977997
21
40.000000
62
7
0
LINE
10
403.977997
20
40.000000
11
403.977997
21
49.360001
62
7
0
LINE
10
403.977997
20
49.360001
11
413.372833
21
49.360001
62
7
0
LINE
10
413.372833
20
49.360001
11
413.372833
21
40.000000
62
7
0
LINE
10
413.372833
20
40.000000
11
422.767670
21
40.000000
62
7
0
LINE
10
422.767670
20
40.000000
11
422.767670
21
49.360001
62
7
0
LINE
10
422.767670
20
49.360001
11
432.162506
21
49.360001
62
7
0
LINE
10
432.162506
20
49.360001
11
432.162506
21
40.000000
62
7
0
LINE
10
432.162506
20
40.000000
11
441.557343
21
40.000000
62
7
0
LINE
10
441.557343
20
40.000000
11
441.557343
21
49.360001
62
7
0
LINE
10
441.557343
20
49.360001
11
450.952179
21
49.360001
62
7
0
LINE
10
450.952179
20
49.360001
11
450.952179
21
40.000000
62
7
0
LINE
10
450.952179
20
40.000000
11
460.347015
21
40.000000
62
7
0
LINE
10
460.347015
20
40.000000
11
460.347015
21
49.360001
62
7
0
LINE
10
460.347015
20
49.360001
11
469.741852
21
49.360001
62
7
0
LINE
10
469.741852
20
49.360001
11
469.741852
21
40.000000
62
7
0
LINE
10
469.741852
20
40.000000
11
479.136688
21
40.000000
62
7
0
LINE
10
479.136688
20
40.000000
11
479.136688
21
49.360001
62
7
0
LINE
10
479.136688
20
49.360001
11
488.531525
21
49.360001
62
7
0
LINE
10
488.531525
20
49.360001
11
488.531525
21
40.000000
62
7
0
LINE
10
488.531525
20
40.000000
11
497.926361
21
40.000000
62
7
0
LINE
10
497.926361
20
40.000000
11
497.926361
21
49.360001
62
7
0
LINE
10
497.926361
20
49.360001
11
507.321198
21
49.360001
62
7
0
LINE
10
507.321198
20
49.360001
11
507.321198
21
40.000000
62
7
0
LINE
10
507.321198
20
40.000000
11
516.716064
21
40.000000
62
7
0
LINE
10
516.716064
20
40.000000
11
516.716064
21
49.360001
62
7
0
LINE
10
516.716064
20
49.360001
11
526.110901
21
49.360001
62
7
0
LINE
10
526.110901
20
49.360001
11
526.110901
21
40.000000
62
7
0
LINE
10
526.110901
20
40.000000
11
535.505737
21
40.000000
62
7
0
LINE
10
535.505737
20
40.000000
11
535.505737
21
49.360001
62
7
0
LINE
10
535.505737
20
49.360001
11
544.900574
21
49.360001
62
7
0
LINE
10
544.900574
20
49.360001
11
544.900574
21
40.000000
62
7
0
LINE
10
544.900574
20
40.000000
11
554.295410
21
40.000000
62
7
0
LINE
10
554.295410
20
40.000000
11
554.295410
21
49.360001
62
7
0
LINE
10
554.295410
20
49.360001
11
563.690247
21
49.360001
62
7
0
LINE
10
563.690247
20
49.360001
11
563.690247
21
40.000000
62
7
0
LINE
10
563.690247
20
40.000000
11
573.085083
21
40.000000
62
7
0
LINE
10
573.085083
20
40.000000
11
573.085083
21
49.360001
62
7
0
LINE
10
573.085083
20
49.360001
11
582.479919
21
49.360001
62
7
0
LINE
10
582.479919
20
49.360001
11
582.479919
21
40.000000
62
7
0
LINE
10
582.479919
20
40.000000
11
591.874756
21
40.000000
62
7
0
LINE
10
591.874756
20
40.000000
11
591.874756
21
49.360001
62
7
0
LINE
10
591.874756
20
49.360001
11
601.269592
21
49.360001
62
7
0
LINE
10
601.269592
20
49.360001
11
601.269592
21
40.000000
62
7
0
LINE
10
601.269592
20
40.000000
11
610.664429
21
40.000000
62
7
0
LINE
10
610.664429
20
40.000000
11
610.664429
21
49.360001
62
7
0
LINE
10
610.664429
20
49.360001
11
620.059265
21
49.360001
62
7
0
LINE
10
620.059265
20
49.360001
11
620.059265
21
40.000000
62
7
0
LINE
10
620.059265
20
40.000000
11
629.454102
21
40.000000
62
7
0
LINE
10
629.454102
20
40.000000
11
629.454102
21
49.360001
62
7
0
LINE
10
629.454102
20
49.360001
11
638.848938
21
49.360001
62
7
0
LINE
10
638.848938
20
49.360001
11
638.848938
21
40.000000
62
7
0
LINE
10
638.848938
20
40.000000
11
648.243774
21
40.000000
62
7
0
LINE
10
648.243774
20
40.000000
11
648.243774
21
49.360001
62
7
0
LINE
10
648.243774
20
49.360001
11
657.638611
21
49.360001
62
7
0
LINE
10
657.638611
20
49.360001
11
657.638611
21
40.000000
62
7
0
LINE
10
657.638611
20
40.000000
11
667.033447
21
40.000000
62
7
0
LINE
10
667.033447
20
40.000000
11
667.033447
21
49.360001
62
7
0
LINE
10
667.033447
20
49.360001
11
676.428284
21
49.360001
62
7
0
LINE
10
676.428284
20
49.360001
11
676.428284
21
40.000000
62
7
0
LINE
10
676.428284
20
40.000000
11
685.823120
21
40.000000
62
7
0
LINE
10
685.823120
20
40.000000
11
685.823120
21
49.360001
62
7
0
LINE
10
685.823120
20
49.360001
11
695.217957
21
49.360001
62
7
0
LINE
10
695.217957
20
49.360001
11
695.217957
21
40.000000
62
7
0
LINE
10
695.217957
20
40.000000
11
704.612793
21
40.000000
62
7
0
LINE
10
704.612793
20
40.000000
11
704.612793
21
49.360001
62
7
0
LINE
10
704.612793
20
49.360001
11
714.007629
21
49.360001
62
7
0
LINE
10
714.007629
20
49.360001
11
714.007629
21
40.000000
62
7
0
LINE
10
714.007629
20
40.000000
11
723.402466
21
40.000000
62
7
0
LINE
10
723.402466
20
40.000000
11
723.402466
21
49.360001
62
7
0
LINE
10
723.402466
20
49.360001
11
732.797302
21
49.360001
62
7
0
LINE
10
732.797302
20
49.360001
11
732.797302
21
40.000000
62
7
0
LINE
10
732.797302
20
40.000000
11
742.192139
21
40.000000
62
7
0
LINE
10
742.192139
20
40.000000
11
742.192139
21
49.360001
62
7
0
LINE
10
742.192139
20
49.360001
11
751.586975
21
49.360001
62
7
0
LINE
10
751.586975
20
49.360001
11
751.586975
21
40.000000
62
7
0
LINE
10
751.586975
20
40.000000
11
760.981812
21
40.000000
62
7
0
LINE
10
760.981812
20
40.000000
11
760.981812
21
49.360001
62
7
0
LINE
10
760.981812
20
49.360001
11
770.376648
21
49.360001
62
7
0
LINE
10
770.376648
20
49.360001
11
770.376648
21
40.000000
62
7
0
LINE
10
770.376648
20
40.000000
11
779.771484
21
40.000000
62
7
0
LINE
10
779.771484
20
40.000000
11
779.771484
21
49.360001
62
7
0
LINE
10
779.771484
20
49.360001
11
789.166321
21
49.360001
62
7
0
LINE
10
789.166321
20
49.360001
11
789.166321
21
40.000000
62
7
0
LINE
10
789.166321
20
40.000000
11
798.561157
21
40.000000
62
7
0
LINE
10
798.561157
20
40.000000
11
798.561157
21
49.360001
62
7
0
LINE
10
798.561157
20
49.360001
11
807.955994
21
49.360001
62
7
0
LINE
10
807.955994
20
49.360001
11
807.955994
21
40.000000
62
7
0
LINE
10
807.955994
20
40.000000
11
817.350830
21
40.000000
62
7
0
LINE
10
817.350830
20
40.000000
11
817.350830
21
49.360001
62
7
0
LINE
10
817.350830
20
49.360001
11
826.745667
21
49.360001
62
7
0
LINE
10
826.745667
20
49.360001
11
826.745667
21
40.000000
62
7
0
LINE
10
826.745667
20
40.000000
11
836.140503
21
40.000000
62
7
0
LINE
10
836.140503
20
40.000000
11
836.140503
21
49.360001
62
7
0
LINE
10
836.140503
20
49.360001
11
845.535339
21
49.360001
62
7
0
LINE
10
845.535339
20
49.360001
11
845.535339
21
40.000000
62
7
0
LINE
10
845.535339
20
40.000000
11
854.930176
21
40.000000
62
7
0
LINE
10
854.930176
20
40.000000
11
854.930176
21
49.360001
62
7
0
LINE
10
854.930176
20
49.360001
11
864.325012
21
49.360001
62
7
0
LINE
10
864.325012
20
49.360001
11
864.325012
21
40.000000
62
7
0
LINE
10
864.325012
20
40.000000
11
873.719849
21
40.000000
62
7
0
LINE
10
0.000000
20
0.000000
11
0.000000
21
379.359985
62
7
0
LINE
10
0.000000
20
379.359985
11
873.719971
21
379.359985
62
7
0
LINE
10
873.719971
20
379.359985
11
873.719971
21
0.000000
62
7
0
LINE
10
873.719971
20
0.000000
11
0.000000
21
0.000000
62
7
0
ARC
10
15.000000
20
15.000000
40
15.000000
50
180.000000
51
270.000000
62
7
0
ARC
10
858.719971
20
15.000000
40
15.000000
50
270.000000
51
0.000000
62
7
0
ARC
10
858.719971
20
364.359985
40
15.000000
50
0.000000
51
90.000000
62
7
0
ARC
10
15.000000
20
364.359985
40
15.000000
50
90.000000
51
180.000000
62
7
0
ENDSEC
0
EOF
