0
SECTION
2
ENTITIES
0
LINE
10
1.000000
20
8.000000
11
0.000000
21
10.000000
62
7
0
LINE
10
0.000000
20
10.000000
11
0.000000
21
0.000000
62
7
0
LINE
10
0.000000
20
0.000000
11
10.000000
21
0.000000
62
7
0
LINE
10
10.000000
20
0.000000
11
8.000000
21
1.000000
62
7
0
TEXT
  5
6C
100
AcDbEntity0
  8
0
  6
ByLayer
 62
  256
370
   -1
100
AcDbText
 10
89.000000
 20
0.000000
 30
0
 40
5.000000
  1
X
 50
0
 41
1
 51
0
  7
iso3098
 71
    0
210
0
220
0
230
1
0
TEXT
  5
6C
100
AcDbEntity0
  8
0
  6
ByLayer
 62
  256
370
   -1
100
AcDbText
 10
0.000000
 20
88.000000
 30
0
 40
5.000000
  1
Y
 50
0
 41
1
 51
0
  7
iso3098
 71
    0
210
0
220
0
230
1
0
LINE
10
44.459999
20
53.820000
11
35.099998
21
53.820000
62
7
0
LINE
10
35.099998
20
53.820000
11
35.099998
21
44.459999
62
7
0
LINE
10
35.099998
20
44.459999
11
25.739998
21
44.459999
62
7
0
LINE
10
25.739998
20
44.459999
11
25.739998
21
53.820000
62
7
0
LINE
10
25.739998
20
53.820000
11
16.379997
21
53.820000
62
7
0
LINE
10
16.379997
20
53.820000
11
16.379997
21
44.459999
62
7
0
LINE
10
16.379997
20
44.459999
11
7.019998
21
44.459999
62
7
0
LINE
10
44.459999
20
44.459999
11
63.180000
21
44.459999
62
7
0
LINE
10
63.180000
20
44.459999
11
63.180000
21
53.820000
62
7
0
LINE
10
63.180000
20
53.820000
11
72.540001
21
53.820000
62
7
0
LINE
10
72.540001
20
53.820000
11
72.540001
21
44.459999
62
7
0
LINE
10
72.540001
20
44.459999
11
81.900002
21
44.459999
62
7
0
LINE
10
81.900002
20
44.459999
11
81.900002
21
53.820000
62
7
0
LINE
10
81.900002
20
53.820000
11
91.260002
21
53.820000
62
7
0
LINE
10
44.459999
20
44.459999
11
44.459999
21
35.099998
62
7
0
LINE
10
44.459999
20
35.099998
11
53.820000
21
35.099998
62
7
0
LINE
10
53.820000
20
35.099998
11
53.820000
21
25.739998
62
7
0
LINE
10
53.820000
20
25.739998
11
44.459999
21
25.739998
62
7
0
LINE
10
44.459999
20
25.739998
11
44.459999
21
16.379997
62
7
0
LINE
10
44.459999
20
16.379997
11
53.820000
21
16.379997
62
7
0
LINE
10
53.820000
20
16.379997
11
53.820000
21
7.019998
62
7
0
LINE
10
44.459999
20
44.459999
11
44.459999
21
63.180000
62
7
0
LINE
10
44.459999
20
63.180000
11
53.820000
21
63.180000
62
7
0
LINE
10
53.820000
20
63.180000
11
53.820000
21
72.540001
62
7
0
LINE
10
53.820000
20
72.540001
11
44.459999
21
72.540001
62
7
0
LINE
10
44.459999
20
72.540001
11
44.459999
21
81.900002
62
7
0
LINE
10
44.459999
20
81.900002
11
53.820000
21
81.900002
62
7
0
LINE
10
53.820000
20
81.900002
11
53.820000
21
91.260002
62
7
0
ARC
10
21.060001
20
21.060001
40
14.039999
50
180.000000
51
270.000000
62
7
0
ARC
10
21.060001
20
77.220001
40
14.039999
50
90.000000
51
180.000000
62
7
0
ARC
10
77.220001
20
77.220001
40
14.039999
50
0.000000
51
90.000000
62
7
0
ARC
10
77.220001
20
21.060001
40
14.039999
50
270.000000
51
360.000000
62
7
0
ARC
10
21.060001
20
21.060001
40
21.059999
50
180.000000
51
270.000000
62
7
0
ARC
10
21.060001
20
77.220001
40
21.059999
50
90.000000
51
180.000000
62
7
0
ARC
10
77.220001
20
77.220001
40
21.059999
50
0.000000
51
90.000000
62
7
0
ARC
10
77.220001
20
21.060001
40
21.059999
50
270.000000
51
360.000000
62
7
0
LINE
10
21.060001
20
7.020000
11
77.220001
21
7.020000
62
7
0
LINE
10
91.259995
20
21.060001
11
91.259995
21
77.220001
62
7
0
LINE
10
77.220001
20
91.259995
11
21.060001
21
91.259995
62
7
0
LINE
10
7.020000
20
77.220001
11
7.020000
21
21.060001
62
7
0
LINE
10
21.060001
20
0.000000
11
77.220001
21
0.000000
62
7
0
LINE
10
98.279999
20
21.060001
11
98.279999
21
77.220001
62
7
0
LINE
10
77.220001
20
98.279999
11
21.060001
21
98.279999
62
7
0
LINE
10
0.000000
20
77.220001
11
0.000000
21
21.060001
62
7
0
CIRCLE
10
25.740000
20
72.540001
40
7.500000
62
7
0
CIRCLE
10
11.740000
20
72.540001
40
1.000000
62
7
0
CIRCLE
10
39.739998
20
72.540001
40
1.000000
62
7
0
LINE
10
24.740000
20
72.540001
11
26.740000
21
72.540001
62
7
0
LINE
10
25.740000
20
71.540001
11
25.740000
21
73.540001
62
7
0
CIRCLE
10
11.770000
20
25.740000
40
1.000000
62
7
0
LINE
10
18.490000
20
18.490000
11
32.989998
21
18.490000
62
7
0
LINE
10
32.989998
20
18.490000
11
32.989998
21
32.989998
62
7
0
LINE
10
32.989998
20
32.989998
11
18.490000
21
32.989998
62
7
0
LINE
10
18.490000
20
32.989998
11
18.490000
21
18.490000
62
7
0
LINE
10
24.740000
20
25.740000
11
26.740000
21
25.740000
62
7
0
LINE
10
25.740000
20
24.740000
11
25.740000
21
26.740000
62
7
0
CIRCLE
10
39.709999
20
25.740000
40
1.000000
62
7
0
ARC
10
72.540001
20
72.540001
40
7.500000
50
0.000000
51
180.000000
62
7
0
LINE
10
65.040001
20
72.540001
11
80.040001
21
72.540001
62
7
0
LINE
10
63.980492
20
28.521152
11
67.249931
21
18.458847
62
7
0
LINE
10
67.249931
20
18.458847
11
77.830070
21
18.458847
62
7
0
LINE
10
77.830070
20
18.458847
11
81.099510
21
28.521152
62
7
0
LINE
10
81.099510
20
28.521152
11
72.540001
21
34.739998
62
7
0
LINE
10
72.540001
20
34.739998
11
63.980492
21
28.521152
62
7
0
LINE
10
71.540001
20
25.740000
11
73.540001
21
25.740000
62
7
0
LINE
10
72.540001
20
24.740000
11
72.540001
21
26.740000
62
7
0
ENDSEC
0
EOF
