0
SECTION
2
ENTITIES
0
LINE
10
1.000000
20
8.000000
11
0.000000
21
10.000000
62
7
0
LINE
10
0.000000
20
10.000000
11
0.000000
21
0.000000
62
7
0
LINE
10
0.000000
20
0.000000
11
10.000000
21
0.000000
62
7
0
LINE
10
10.000000
20
0.000000
11
8.000000
21
1.000000
62
7
0
TEXT
  5
6C
100
AcDbEntity0
  8
0
  6
ByLayer
 62
  256
370
   -1
100
AcDbText
 10
89.000000
 20
0.000000
 30
0
 40
5.000000
  1
X
 50
0
 41
1
 51
0
  7
iso3098
 71
    0
210
0
220
0
230
1
0
TEXT
  5
6C
100
AcDbEntity0
  8
0
  6
ByLayer
 62
  256
370
   -1
100
AcDbText
 10
0.000000
 20
88.000000
 30
0
 40
5.000000
  1
Y
 50
0
 41
1
 51
0
  7
iso3098
 71
    0
210
0
220
0
230
1
0
LINE
10
42.750000
20
51.750000
11
33.750000
21
51.750000
62
7
0
LINE
10
33.750000
20
51.750000
11
33.750000
21
42.750000
62
7
0
LINE
10
33.750000
20
42.750000
11
24.750000
21
42.750000
62
7
0
LINE
10
24.750000
20
42.750000
11
24.750000
21
51.750000
62
7
0
LINE
10
24.750000
20
51.750000
11
15.750000
21
51.750000
62
7
0
LINE
10
15.750000
20
51.750000
11
15.750000
21
42.750000
62
7
0
LINE
10
15.750000
20
42.750000
11
6.750000
21
42.750000
62
7
0
LINE
10
42.750000
20
42.750000
11
60.750000
21
42.750000
62
7
0
LINE
10
60.750000
20
42.750000
11
60.750000
21
51.750000
62
7
0
LINE
10
60.750000
20
51.750000
11
69.750000
21
51.750000
62
7
0
LINE
10
69.750000
20
51.750000
11
69.750000
21
42.750000
62
7
0
LINE
10
69.750000
20
42.750000
11
78.750000
21
42.750000
62
7
0
LINE
10
78.750000
20
42.750000
11
78.750000
21
51.750000
62
7
0
LINE
10
78.750000
20
51.750000
11
87.750000
21
51.750000
62
7
0
LINE
10
42.750000
20
42.750000
11
42.750000
21
33.750000
62
7
0
LINE
10
42.750000
20
33.750000
11
51.750000
21
33.750000
62
7
0
LINE
10
51.750000
20
33.750000
11
51.750000
21
24.750000
62
7
0
LINE
10
51.750000
20
24.750000
11
42.750000
21
24.750000
62
7
0
LINE
10
42.750000
20
24.750000
11
42.750000
21
15.750000
62
7
0
LINE
10
42.750000
20
15.750000
11
51.750000
21
15.750000
62
7
0
LINE
10
51.750000
20
15.750000
11
51.750000
21
6.750000
62
7
0
LINE
10
42.750000
20
42.750000
11
42.750000
21
60.750000
62
7
0
LINE
10
42.750000
20
60.750000
11
51.750000
21
60.750000
62
7
0
LINE
10
51.750000
20
60.750000
11
51.750000
21
69.750000
62
7
0
LINE
10
51.750000
20
69.750000
11
42.750000
21
69.750000
62
7
0
LINE
10
42.750000
20
69.750000
11
42.750000
21
78.750000
62
7
0
LINE
10
42.750000
20
78.750000
11
51.750000
21
78.750000
62
7
0
LINE
10
51.750000
20
78.750000
11
51.750000
21
87.750000
62
7
0
ARC
10
20.250000
20
20.250000
40
13.500000
50
180.000000
51
270.000000
62
7
0
ARC
10
20.250000
20
74.250000
40
13.500000
50
90.000000
51
180.000000
62
7
0
ARC
10
74.250000
20
74.250000
40
13.500000
50
0.000000
51
90.000000
62
7
0
ARC
10
74.250000
20
20.250000
40
13.500000
50
270.000000
51
360.000000
62
7
0
ARC
10
20.250000
20
20.250000
40
20.250000
50
180.000000
51
270.000000
62
7
0
ARC
10
20.250000
20
74.250000
40
20.250000
50
90.000000
51
180.000000
62
7
0
ARC
10
74.250000
20
74.250000
40
20.250000
50
0.000000
51
90.000000
62
7
0
ARC
10
74.250000
20
20.250000
40
20.250000
50
270.000000
51
360.000000
62
7
0
LINE
10
20.250000
20
6.750000
11
74.250000
21
6.750000
62
7
0
LINE
10
87.750000
20
20.250000
11
87.750000
21
74.250000
62
7
0
LINE
10
74.250000
20
87.750000
11
20.250000
21
87.750000
62
7
0
LINE
10
6.750000
20
74.250000
11
6.750000
21
20.250000
62
7
0
LINE
10
20.250000
20
0.000000
11
74.250000
21
0.000000
62
7
0
LINE
10
94.500000
20
20.250000
11
94.500000
21
74.250000
62
7
0
LINE
10
74.250000
20
94.500000
11
20.250000
21
94.500000
62
7
0
LINE
10
0.000000
20
74.250000
11
0.000000
21
20.250000
62
7
0
CIRCLE
10
24.750000
20
69.750000
40
7.500000
62
7
0
CIRCLE
10
10.750000
20
69.750000
40
1.000000
62
7
0
CIRCLE
10
38.750000
20
69.750000
40
1.000000
62
7
0
LINE
10
23.750000
20
69.750000
11
25.750000
21
69.750000
62
7
0
LINE
10
24.750000
20
68.750000
11
24.750000
21
70.750000
62
7
0
CIRCLE
10
10.780000
20
24.750000
40
1.000000
62
7
0
LINE
10
16.250000
20
16.250000
11
33.250000
21
16.250000
62
7
0
LINE
10
33.250000
20
16.250000
11
33.250000
21
33.250000
62
7
0
LINE
10
33.250000
20
33.250000
11
16.250000
21
33.250000
62
7
0
LINE
10
16.250000
20
33.250000
11
16.250000
21
16.250000
62
7
0
LINE
10
23.750000
20
24.750000
11
25.750000
21
24.750000
62
7
0
LINE
10
24.750000
20
23.750000
11
24.750000
21
25.750000
62
7
0
CIRCLE
10
38.720001
20
24.750000
40
1.000000
62
7
0
ARC
10
69.750000
20
69.750000
40
7.500000
50
0.000000
51
180.000000
62
7
0
LINE
10
62.250000
20
69.750000
11
77.250000
21
69.750000
62
7
0
LINE
10
61.190491
20
27.531153
11
64.459930
21
17.468847
62
7
0
LINE
10
64.459930
20
17.468847
11
75.040070
21
17.468847
62
7
0
LINE
10
75.040070
20
17.468847
11
78.309509
21
27.531153
62
7
0
LINE
10
78.309509
20
27.531153
11
69.750000
21
33.750000
62
7
0
LINE
10
69.750000
20
33.750000
11
61.190491
21
27.531153
62
7
0
LINE
10
68.750000
20
24.750000
11
70.750000
21
24.750000
62
7
0
LINE
10
69.750000
20
23.750000
11
69.750000
21
25.750000
62
7
0
ENDSEC
0
EOF
