0
SECTION
2
ENTITIES
0
CIRCLE
10
67.759979
20
15.500000
40
1.000000
62
7
0
LINE
10
74.479980
20
8.250000
11
88.979980
21
8.250000
62
7
0
LINE
10
88.979980
20
8.250000
11
88.979980
21
22.750000
62
7
0
LINE
10
88.979980
20
22.750000
11
74.479980
21
22.750000
62
7
0
LINE
10
74.479980
20
22.750000
11
74.479980
21
8.250000
62
7
0
LINE
10
80.729980
20
15.500000
11
82.729980
21
15.500000
62
7
0
LINE
10
81.729980
20
14.500000
11
81.729980
21
16.500000
62
7
0
CIRCLE
10
95.699982
20
15.500000
40
1.000000
62
7
0
LINE
10
102.419983
20
8.250000
11
116.919983
21
8.250000
62
7
0
LINE
10
116.919983
20
8.250000
11
116.919983
21
22.750000
62
7
0
LINE
10
116.919983
20
22.750000
11
102.419983
21
22.750000
62
7
0
LINE
10
102.419983
20
22.750000
11
102.419983
21
8.250000
62
7
0
LINE
10
108.669983
20
15.500000
11
110.669983
21
15.500000
62
7
0
LINE
10
109.669983
20
14.500000
11
109.669983
21
16.500000
62
7
0
CIRCLE
10
123.639984
20
15.500000
40
1.000000
62
7
0
LINE
10
130.359985
20
8.250000
11
144.859985
21
8.250000
62
7
0
LINE
10
144.859985
20
8.250000
11
144.859985
21
22.750000
62
7
0
LINE
10
144.859985
20
22.750000
11
130.359985
21
22.750000
62
7
0
LINE
10
130.359985
20
22.750000
11
130.359985
21
8.250000
62
7
0
LINE
10
136.609985
20
15.500000
11
138.609985
21
15.500000
62
7
0
LINE
10
137.609985
20
14.500000
11
137.609985
21
16.500000
62
7
0
CIRCLE
10
151.579987
20
15.500000
40
1.000000
62
7
0
LINE
10
158.299988
20
8.250000
11
172.799988
21
8.250000
62
7
0
LINE
10
172.799988
20
8.250000
11
172.799988
21
22.750000
62
7
0
LINE
10
172.799988
20
22.750000
11
158.299988
21
22.750000
62
7
0
LINE
10
158.299988
20
22.750000
11
158.299988
21
8.250000
62
7
0
LINE
10
164.549988
20
15.500000
11
166.549988
21
15.500000
62
7
0
LINE
10
165.549988
20
14.500000
11
165.549988
21
16.500000
62
7
0
CIRCLE
10
179.519989
20
15.500000
40
1.000000
62
7
0
LINE
10
186.239990
20
8.250000
11
200.739990
21
8.250000
62
7
0
LINE
10
200.739990
20
8.250000
11
200.739990
21
22.750000
62
7
0
LINE
10
200.739990
20
22.750000
11
186.239990
21
22.750000
62
7
0
LINE
10
186.239990
20
22.750000
11
186.239990
21
8.250000
62
7
0
LINE
10
192.489990
20
15.500000
11
194.489990
21
15.500000
62
7
0
LINE
10
193.489990
20
14.500000
11
193.489990
21
16.500000
62
7
0
CIRCLE
10
207.459991
20
15.500000
40
1.000000
62
7
0
LINE
10
214.179993
20
8.250000
11
228.679993
21
8.250000
62
7
0
LINE
10
228.679993
20
8.250000
11
228.679993
21
22.750000
62
7
0
LINE
10
228.679993
20
22.750000
11
214.179993
21
22.750000
62
7
0
LINE
10
214.179993
20
22.750000
11
214.179993
21
8.250000
62
7
0
LINE
10
220.429993
20
15.500000
11
222.429993
21
15.500000
62
7
0
LINE
10
221.429993
20
14.500000
11
221.429993
21
16.500000
62
7
0
CIRCLE
10
235.399979
20
15.500000
40
1.000000
62
7
0
LINE
10
242.119980
20
8.250000
11
256.619995
21
8.250000
62
7
0
LINE
10
256.619995
20
8.250000
11
256.619995
21
22.750000
62
7
0
LINE
10
256.619995
20
22.750000
11
242.119980
21
22.750000
62
7
0
LINE
10
242.119980
20
22.750000
11
242.119980
21
8.250000
62
7
0
LINE
10
248.369980
20
15.500000
11
250.369980
21
15.500000
62
7
0
LINE
10
249.369980
20
14.500000
11
249.369980
21
16.500000
62
7
0
CIRCLE
10
263.339966
20
15.500000
40
1.000000
62
7
0
LINE
10
270.059967
20
8.250000
11
284.559967
21
8.250000
62
7
0
LINE
10
284.559967
20
8.250000
11
284.559967
21
22.750000
62
7
0
LINE
10
284.559967
20
22.750000
11
270.059967
21
22.750000
62
7
0
LINE
10
270.059967
20
22.750000
11
270.059967
21
8.250000
62
7
0
LINE
10
276.309967
20
15.500000
11
278.309967
21
15.500000
62
7
0
LINE
10
277.309967
20
14.500000
11
277.309967
21
16.500000
62
7
0
CIRCLE
10
291.279968
20
15.500000
40
1.000000
62
7
0
LINE
10
297.999969
20
8.250000
11
312.499969
21
8.250000
62
7
0
LINE
10
312.499969
20
8.250000
11
312.499969
21
22.750000
62
7
0
LINE
10
312.499969
20
22.750000
11
297.999969
21
22.750000
62
7
0
LINE
10
297.999969
20
22.750000
11
297.999969
21
8.250000
62
7
0
LINE
10
304.249969
20
15.500000
11
306.249969
21
15.500000
62
7
0
LINE
10
305.249969
20
14.500000
11
305.249969
21
16.500000
62
7
0
CIRCLE
10
319.219971
20
15.500000
40
1.000000
62
7
0
LINE
10
325.939972
20
8.250000
11
340.439972
21
8.250000
62
7
0
LINE
10
340.439972
20
8.250000
11
340.439972
21
22.750000
62
7
0
LINE
10
340.439972
20
22.750000
11
325.939972
21
22.750000
62
7
0
LINE
10
325.939972
20
22.750000
11
325.939972
21
8.250000
62
7
0
LINE
10
332.189972
20
15.500000
11
334.189972
21
15.500000
62
7
0
LINE
10
333.189972
20
14.500000
11
333.189972
21
16.500000
62
7
0
CIRCLE
10
347.159973
20
15.500000
40
1.000000
62
7
0
LINE
10
353.879974
20
8.250000
11
368.379974
21
8.250000
62
7
0
LINE
10
368.379974
20
8.250000
11
368.379974
21
22.750000
62
7
0
LINE
10
368.379974
20
22.750000
11
353.879974
21
22.750000
62
7
0
LINE
10
353.879974
20
22.750000
11
353.879974
21
8.250000
62
7
0
LINE
10
360.129974
20
15.500000
11
362.129974
21
15.500000
62
7
0
LINE
10
361.129974
20
14.500000
11
361.129974
21
16.500000
62
7
0
CIRCLE
10
375.099976
20
15.500000
40
1.000000
62
7
0
LINE
10
381.819977
20
8.250000
11
396.319977
21
8.250000
62
7
0
LINE
10
396.319977
20
8.250000
11
396.319977
21
22.750000
62
7
0
LINE
10
396.319977
20
22.750000
11
381.819977
21
22.750000
62
7
0
LINE
10
381.819977
20
22.750000
11
381.819977
21
8.250000
62
7
0
LINE
10
388.069977
20
15.500000
11
390.069977
21
15.500000
62
7
0
LINE
10
389.069977
20
14.500000
11
389.069977
21
16.500000
62
7
0
CIRCLE
10
403.039978
20
15.500000
40
1.000000
62
7
0
LINE
10
409.759979
20
8.250000
11
424.259979
21
8.250000
62
7
0
LINE
10
424.259979
20
8.250000
11
424.259979
21
22.750000
62
7
0
LINE
10
424.259979
20
22.750000
11
409.759979
21
22.750000
62
7
0
LINE
10
409.759979
20
22.750000
11
409.759979
21
8.250000
62
7
0
LINE
10
416.009979
20
15.500000
11
418.009979
21
15.500000
62
7
0
LINE
10
417.009979
20
14.500000
11
417.009979
21
16.500000
62
7
0
CIRCLE
10
430.979980
20
15.500000
40
1.000000
62
7
0
LINE
10
437.699982
20
8.250000
11
452.199982
21
8.250000
62
7
0
LINE
10
452.199982
20
8.250000
11
452.199982
21
22.750000
62
7
0
LINE
10
452.199982
20
22.750000
11
437.699982
21
22.750000
62
7
0
LINE
10
437.699982
20
22.750000
11
437.699982
21
8.250000
62
7
0
LINE
10
443.949982
20
15.500000
11
445.949982
21
15.500000
62
7
0
LINE
10
444.949982
20
14.500000
11
444.949982
21
16.500000
62
7
0
CIRCLE
10
458.919983
20
15.500000
40
1.000000
62
7
0
LINE
10
465.639984
20
8.250000
11
480.139984
21
8.250000
62
7
0
LINE
10
480.139984
20
8.250000
11
480.139984
21
22.750000
62
7
0
LINE
10
480.139984
20
22.750000
11
465.639984
21
22.750000
62
7
0
LINE
10
465.639984
20
22.750000
11
465.639984
21
8.250000
62
7
0
LINE
10
471.889984
20
15.500000
11
473.889984
21
15.500000
62
7
0
LINE
10
472.889984
20
14.500000
11
472.889984
21
16.500000
62
7
0
CIRCLE
10
486.859985
20
15.500000
40
1.000000
62
7
0
LINE
10
493.579987
20
8.250000
11
508.079987
21
8.250000
62
7
0
LINE
10
508.079987
20
8.250000
11
508.079987
21
22.750000
62
7
0
LINE
10
508.079987
20
22.750000
11
493.579987
21
22.750000
62
7
0
LINE
10
493.579987
20
22.750000
11
493.579987
21
8.250000
62
7
0
LINE
10
499.829987
20
15.500000
11
501.829987
21
15.500000
62
7
0
LINE
10
500.829987
20
14.500000
11
500.829987
21
16.500000
62
7
0
CIRCLE
10
514.799988
20
15.500000
40
1.000000
62
7
0
LINE
10
521.519958
20
8.250000
11
536.019958
21
8.250000
62
7
0
LINE
10
536.019958
20
8.250000
11
536.019958
21
22.750000
62
7
0
LINE
10
536.019958
20
22.750000
11
521.519958
21
22.750000
62
7
0
LINE
10
521.519958
20
22.750000
11
521.519958
21
8.250000
62
7
0
LINE
10
527.769958
20
15.500000
11
529.769958
21
15.500000
62
7
0
LINE
10
528.769958
20
14.500000
11
528.769958
21
16.500000
62
7
0
CIRCLE
10
542.739990
20
15.500000
40
1.000000
62
7
0
LINE
10
549.459961
20
8.250000
11
563.959961
21
8.250000
62
7
0
LINE
10
563.959961
20
8.250000
11
563.959961
21
22.750000
62
7
0
LINE
10
563.959961
20
22.750000
11
549.459961
21
22.750000
62
7
0
LINE
10
549.459961
20
22.750000
11
549.459961
21
8.250000
62
7
0
LINE
10
555.709961
20
15.500000
11
557.709961
21
15.500000
62
7
0
LINE
10
556.709961
20
14.500000
11
556.709961
21
16.500000
62
7
0
CIRCLE
10
570.679993
20
15.500000
40
1.000000
62
7
0
LINE
10
577.399963
20
8.250000
11
591.899963
21
8.250000
62
7
0
LINE
10
591.899963
20
8.250000
11
591.899963
21
22.750000
62
7
0
LINE
10
591.899963
20
22.750000
11
577.399963
21
22.750000
62
7
0
LINE
10
577.399963
20
22.750000
11
577.399963
21
8.250000
62
7
0
LINE
10
583.649963
20
15.500000
11
585.649963
21
15.500000
62
7
0
LINE
10
584.649963
20
14.500000
11
584.649963
21
16.500000
62
7
0
CIRCLE
10
598.619995
20
15.500000
40
1.000000
62
7
0
LINE
10
605.339966
20
8.250000
11
619.839966
21
8.250000
62
7
0
LINE
10
619.839966
20
8.250000
11
619.839966
21
22.750000
62
7
0
LINE
10
619.839966
20
22.750000
11
605.339966
21
22.750000
62
7
0
LINE
10
605.339966
20
22.750000
11
605.339966
21
8.250000
62
7
0
LINE
10
611.589966
20
15.500000
11
613.589966
21
15.500000
62
7
0
LINE
10
612.589966
20
14.500000
11
612.589966
21
16.500000
62
7
0
CIRCLE
10
626.559998
20
15.500000
40
1.000000
62
7
0
LINE
10
633.279968
20
8.250000
11
647.779968
21
8.250000
62
7
0
LINE
10
647.779968
20
8.250000
11
647.779968
21
22.750000
62
7
0
LINE
10
647.779968
20
22.750000
11
633.279968
21
22.750000
62
7
0
LINE
10
633.279968
20
22.750000
11
633.279968
21
8.250000
62
7
0
LINE
10
639.529968
20
15.500000
11
641.529968
21
15.500000
62
7
0
LINE
10
640.529968
20
14.500000
11
640.529968
21
16.500000
62
7
0
CIRCLE
10
654.500000
20
15.500000
40
1.000000
62
7
0
LINE
10
661.219971
20
8.250000
11
675.719971
21
8.250000
62
7
0
LINE
10
675.719971
20
8.250000
11
675.719971
21
22.750000
62
7
0
LINE
10
675.719971
20
22.750000
11
661.219971
21
22.750000
62
7
0
LINE
10
661.219971
20
22.750000
11
661.219971
21
8.250000
62
7
0
LINE
10
667.469971
20
15.500000
11
669.469971
21
15.500000
62
7
0
LINE
10
668.469971
20
14.500000
11
668.469971
21
16.500000
62
7
0
CIRCLE
10
682.440002
20
15.500000
40
1.000000
62
7
0
LINE
10
689.159973
20
8.250000
11
703.659973
21
8.250000
62
7
0
LINE
10
703.659973
20
8.250000
11
703.659973
21
22.750000
62
7
0
LINE
10
703.659973
20
22.750000
11
689.159973
21
22.750000
62
7
0
LINE
10
689.159973
20
22.750000
11
689.159973
21
8.250000
62
7
0
LINE
10
695.409973
20
15.500000
11
697.409973
21
15.500000
62
7
0
LINE
10
696.409973
20
14.500000
11
696.409973
21
16.500000
62
7
0
CIRCLE
10
710.380005
20
15.500000
40
1.000000
62
7
0
LINE
10
717.099976
20
8.250000
11
731.599976
21
8.250000
62
7
0
LINE
10
731.599976
20
8.250000
11
731.599976
21
22.750000
62
7
0
LINE
10
731.599976
20
22.750000
11
717.099976
21
22.750000
62
7
0
LINE
10
717.099976
20
22.750000
11
717.099976
21
8.250000
62
7
0
LINE
10
723.349976
20
15.500000
11
725.349976
21
15.500000
62
7
0
LINE
10
724.349976
20
14.500000
11
724.349976
21
16.500000
62
7
0
CIRCLE
10
738.320007
20
15.500000
40
1.000000
62
7
0
LINE
10
745.039978
20
8.250000
11
759.539978
21
8.250000
62
7
0
LINE
10
759.539978
20
8.250000
11
759.539978
21
22.750000
62
7
0
LINE
10
759.539978
20
22.750000
11
745.039978
21
22.750000
62
7
0
LINE
10
745.039978
20
22.750000
11
745.039978
21
8.250000
62
7
0
LINE
10
751.289978
20
15.500000
11
753.289978
21
15.500000
62
7
0
LINE
10
752.289978
20
14.500000
11
752.289978
21
16.500000
62
7
0
CIRCLE
10
766.260010
20
15.500000
40
1.000000
62
7
0
LINE
10
772.979980
20
8.250000
11
787.479980
21
8.250000
62
7
0
LINE
10
787.479980
20
8.250000
11
787.479980
21
22.750000
62
7
0
LINE
10
787.479980
20
22.750000
11
772.979980
21
22.750000
62
7
0
LINE
10
772.979980
20
22.750000
11
772.979980
21
8.250000
62
7
0
LINE
10
779.229980
20
15.500000
11
781.229980
21
15.500000
62
7
0
LINE
10
780.229980
20
14.500000
11
780.229980
21
16.500000
62
7
0
CIRCLE
10
794.199951
20
15.500000
40
1.000000
62
7
0
LINE
10
800.919922
20
8.250000
11
815.419922
21
8.250000
62
7
0
LINE
10
815.419922
20
8.250000
11
815.419922
21
22.750000
62
7
0
LINE
10
815.419922
20
22.750000
11
800.919922
21
22.750000
62
7
0
LINE
10
800.919922
20
22.750000
11
800.919922
21
8.250000
62
7
0
LINE
10
807.169922
20
15.500000
11
809.169922
21
15.500000
62
7
0
LINE
10
808.169922
20
14.500000
11
808.169922
21
16.500000
62
7
0
CIRCLE
10
822.140015
20
15.500000
40
1.000000
62
7
0
LINE
10
828.859985
20
8.250000
11
843.359985
21
8.250000
62
7
0
LINE
10
843.359985
20
8.250000
11
843.359985
21
22.750000
62
7
0
LINE
10
843.359985
20
22.750000
11
828.859985
21
22.750000
62
7
0
LINE
10
828.859985
20
22.750000
11
828.859985
21
8.250000
62
7
0
LINE
10
835.109985
20
15.500000
11
837.109985
21
15.500000
62
7
0
LINE
10
836.109985
20
14.500000
11
836.109985
21
16.500000
62
7
0
CIRCLE
10
850.079956
20
15.500000
40
1.000000
62
7
0
LINE
10
856.799927
20
8.250000
11
871.299927
21
8.250000
62
7
0
LINE
10
871.299927
20
8.250000
11
871.299927
21
22.750000
62
7
0
LINE
10
871.299927
20
22.750000
11
856.799927
21
22.750000
62
7
0
LINE
10
856.799927
20
22.750000
11
856.799927
21
8.250000
62
7
0
LINE
10
863.049927
20
15.500000
11
865.049927
21
15.500000
62
7
0
LINE
10
864.049927
20
14.500000
11
864.049927
21
16.500000
62
7
0
CIRCLE
10
878.020020
20
15.500000
40
1.000000
62
7
0
LINE
10
884.739990
20
8.250000
11
899.239990
21
8.250000
62
7
0
LINE
10
899.239990
20
8.250000
11
899.239990
21
22.750000
62
7
0
LINE
10
899.239990
20
22.750000
11
884.739990
21
22.750000
62
7
0
LINE
10
884.739990
20
22.750000
11
884.739990
21
8.250000
62
7
0
LINE
10
890.989990
20
15.500000
11
892.989990
21
15.500000
62
7
0
LINE
10
891.989990
20
14.500000
11
891.989990
21
16.500000
62
7
0
CIRCLE
10
905.959961
20
15.500000
40
1.000000
62
7
0
CIRCLE
10
86.859985
20
387.719971
40
1.000000
62
7
0
CIRCLE
10
186.859985
20
387.719971
40
1.000000
62
7
0
CIRCLE
10
286.859985
20
387.719971
40
1.000000
62
7
0
CIRCLE
10
386.859985
20
387.719971
40
1.000000
62
7
0
CIRCLE
10
486.859985
20
387.719971
40
1.000000
62
7
0
CIRCLE
10
586.859985
20
387.719971
40
1.000000
62
7
0
CIRCLE
10
686.859985
20
387.719971
40
1.000000
62
7
0
CIRCLE
10
786.859985
20
387.719971
40
1.000000
62
7
0
CIRCLE
10
886.859985
20
387.719971
40
1.000000
62
7
0
CIRCLE
10
60.360001
20
37.360001
40
1.000000
62
7
0
LINE
10
50.000000
20
27.000000
11
50.000000
21
0.000001
62
7
0
LINE
10
50.000000
20
0.000001
11
0.000000
21
0.000001
62
7
0
LINE
10
0.000000
20
0.000001
11
0.000000
21
27.000000
62
7
0
LINE
10
0.000000
20
27.000000
11
50.000000
21
27.000000
62
7
0
CIRCLE
10
913.359985
20
37.360001
40
1.000000
62
7
0
LINE
10
923.719971
20
27.000000
11
923.719971
21
0.000001
62
7
0
LINE
10
923.719971
20
0.000001
11
973.719971
21
0.000001
62
7
0
LINE
10
973.719971
20
0.000001
11
973.719971
21
27.000000
62
7
0
LINE
10
973.719971
20
27.000000
11
923.719971
21
27.000000
62
7
0
CIRCLE
10
60.360001
20
352.359985
40
1.000000
62
7
0
LINE
10
0.000000
20
362.719971
11
50.000000
21
362.719971
62
7
0
LINE
10
50.000000
20
362.719971
11
50.000000
21
412.719971
62
7
0
LINE
10
50.000000
20
412.719971
11
0.000000
21
412.719971
62
7
0
LINE
10
0.000000
20
412.719971
11
0.000000
21
362.719971
62
7
0
LINE
10
0.000001
20
387.719971
11
50.000000
21
387.719971
62
7
0
LINE
10
134.360001
20
371.719971
11
144.360001
21
371.719971
62
7
0
LINE
10
134.360001
20
379.719971
11
144.360001
21
379.719971
62
7
0
ARC
10
134.360001
20
375.719971
40
4.000000
50
90.000000
51
270.000000
62
7
0
ARC
10
144.360001
20
375.719971
40
4.000000
50
270.000000
51
90.000000
62
7
0
CIRCLE
10
913.359985
20
352.359985
40
1.000000
62
7
0
LINE
10
923.719971
20
362.719971
11
973.719971
21
362.719971
62
7
0
LINE
10
973.719971
20
362.719971
11
973.719971
21
412.719971
62
7
0
LINE
10
973.719971
20
412.719971
11
923.719971
21
412.719971
62
7
0
LINE
10
923.719971
20
412.719971
11
923.719971
21
362.719971
62
7
0
LINE
10
923.719971
20
387.719971
11
973.719971
21
387.719971
62
7
0
CIRCLE
10
96.860001
20
108.860001
40
2.000000
62
7
0
CIRCLE
10
96.860001
20
183.360001
40
2.000000
62
7
0
CIRCLE
10
248.360001
20
108.860001
40
2.000000
62
7
0
CIRCLE
10
248.360001
20
183.360001
40
2.000000
62
7
0
CIRCLE
10
385.859985
20
108.860001
40
0.500000
62
7
0
CIRCLE
10
385.859985
20
183.360001
40
0.500000
62
7
0
CIRCLE
10
413.359985
20
108.860001
40
2.000000
62
7
0
CIRCLE
10
413.359985
20
183.360001
40
2.000000
62
7
0
CIRCLE
10
550.359985
20
108.860001
40
2.000000
62
7
0
CIRCLE
10
550.359985
20
183.360001
40
2.000000
62
7
0
CIRCLE
10
730.359985
20
108.860001
40
2.000000
62
7
0
CIRCLE
10
730.359985
20
183.360001
40
2.000000
62
7
0
CIRCLE
10
895.359985
20
108.860001
40
2.000000
62
7
0
CIRCLE
10
895.359985
20
183.360001
40
2.000000
62
7
0
LINE
10
50.000000
20
27.000000
11
69.202637
21
27.000000
62
7
0
LINE
10
69.202637
20
27.000000
11
69.202637
21
36.360001
62
7
0
LINE
10
69.202637
20
36.360001
11
78.803955
21
36.360001
62
7
0
LINE
10
78.803955
20
36.360001
11
78.803955
21
27.000000
62
7
0
LINE
10
78.803955
20
27.000000
11
88.405273
21
27.000000
62
7
0
LINE
10
88.405273
20
27.000000
11
88.405273
21
36.360001
62
7
0
LINE
10
88.405273
20
36.360001
11
98.006592
21
36.360001
62
7
0
LINE
10
98.006592
20
36.360001
11
98.006592
21
27.000000
62
7
0
LINE
10
98.006592
20
27.000000
11
107.607910
21
27.000000
62
7
0
LINE
10
107.607910
20
27.000000
11
107.607910
21
36.360001
62
7
0
LINE
10
107.607910
20
36.360001
11
117.209229
21
36.360001
62
7
0
LINE
10
117.209229
20
36.360001
11
117.209229
21
27.000000
62
7
0
LINE
10
117.209229
20
27.000000
11
126.810547
21
27.000000
62
7
0
LINE
10
126.810547
20
27.000000
11
126.810547
21
36.360001
62
7
0
LINE
10
126.810547
20
36.360001
11
136.411865
21
36.360001
62
7
0
LINE
10
136.411865
20
36.360001
11
136.411865
21
27.000000
62
7
0
LINE
10
136.411865
20
27.000000
11
146.013184
21
27.000000
62
7
0
LINE
10
146.013184
20
27.000000
11
146.013184
21
36.360001
62
7
0
LINE
10
146.013184
20
36.360001
11
155.614502
21
36.360001
62
7
0
LINE
10
155.614502
20
36.360001
11
155.614502
21
27.000000
62
7
0
LINE
10
155.614502
20
27.000000
11
165.215820
21
27.000000
62
7
0
LINE
10
165.215820
20
27.000000
11
165.215820
21
36.360001
62
7
0
LINE
10
165.215820
20
36.360001
11
174.817139
21
36.360001
62
7
0
LINE
10
174.817139
20
36.360001
11
174.817139
21
27.000000
62
7
0
LINE
10
174.817139
20
27.000000
11
184.418457
21
27.000000
62
7
0
LINE
10
184.418457
20
27.000000
11
184.418457
21
36.360001
62
7
0
LINE
10
184.418457
20
36.360001
11
194.019775
21
36.360001
62
7
0
LINE
10
194.019775
20
36.360001
11
194.019775
21
27.000000
62
7
0
LINE
10
194.019775
20
27.000000
11
203.621094
21
27.000000
62
7
0
LINE
10
203.621094
20
27.000000
11
203.621094
21
36.360001
62
7
0
LINE
10
203.621094
20
36.360001
11
213.222412
21
36.360001
62
7
0
LINE
10
213.222412
20
36.360001
11
213.222412
21
27.000000
62
7
0
LINE
10
213.222412
20
27.000000
11
222.823730
21
27.000000
62
7
0
LINE
10
222.823730
20
27.000000
11
222.823730
21
36.360001
62
7
0
LINE
10
222.823730
20
36.360001
11
232.425049
21
36.360001
62
7
0
LINE
10
232.425049
20
36.360001
11
232.425049
21
27.000000
62
7
0
LINE
10
232.425049
20
27.000000
11
242.026367
21
27.000000
62
7
0
LINE
10
242.026367
20
27.000000
11
242.026367
21
36.360001
62
7
0
LINE
10
242.026367
20
36.360001
11
251.627686
21
36.360001
62
7
0
LINE
10
251.627686
20
36.360001
11
251.627686
21
27.000000
62
7
0
LINE
10
251.627686
20
27.000000
11
261.229004
21
27.000000
62
7
0
LINE
10
261.229004
20
27.000000
11
261.229004
21
36.360001
62
7
0
LINE
10
261.229004
20
36.360001
11
270.830322
21
36.360001
62
7
0
LINE
10
270.830322
20
36.360001
11
270.830322
21
27.000000
62
7
0
LINE
10
270.830322
20
27.000000
11
280.431641
21
27.000000
62
7
0
LINE
10
280.431641
20
27.000000
11
280.431641
21
36.360001
62
7
0
LINE
10
280.431641
20
36.360001
11
290.032959
21
36.360001
62
7
0
LINE
10
290.032959
20
36.360001
11
290.032959
21
27.000000
62
7
0
LINE
10
290.032959
20
27.000000
11
299.634277
21
27.000000
62
7
0
LINE
10
299.634277
20
27.000000
11
299.634277
21
36.360001
62
7
0
LINE
10
299.634277
20
36.360001
11
309.235596
21
36.360001
62
7
0
LINE
10
309.235596
20
36.360001
11
309.235596
21
27.000000
62
7
0
LINE
10
309.235596
20
27.000000
11
318.836914
21
27.000000
62
7
0
LINE
10
318.836914
20
27.000000
11
318.836914
21
36.360001
62
7
0
LINE
10
318.836914
20
36.360001
11
328.438232
21
36.360001
62
7
0
LINE
10
328.438232
20
36.360001
11
328.438232
21
27.000000
62
7
0
LINE
10
328.438232
20
27.000000
11
338.039551
21
27.000000
62
7
0
LINE
10
338.039551
20
27.000000
11
338.039551
21
36.360001
62
7
0
LINE
10
338.039551
20
36.360001
11
347.640869
21
36.360001
62
7
0
LINE
10
347.640869
20
36.360001
11
347.640869
21
27.000000
62
7
0
LINE
10
347.640869
20
27.000000
11
357.242188
21
27.000000
62
7
0
LINE
10
357.242188
20
27.000000
11
357.242188
21
36.360001
62
7
0
LINE
10
357.242188
20
36.360001
11
366.843506
21
36.360001
62
7
0
LINE
10
366.843506
20
36.360001
11
366.843506
21
27.000000
62
7
0
LINE
10
366.843506
20
27.000000
11
376.444824
21
27.000000
62
7
0
LINE
10
376.444824
20
27.000000
11
376.444824
21
36.360001
62
7
0
LINE
10
376.444824
20
36.360001
11
386.046143
21
36.360001
62
7
0
LINE
10
386.046143
20
36.360001
11
386.046143
21
27.000000
62
7
0
LINE
10
386.046143
20
27.000000
11
395.647461
21
27.000000
62
7
0
LINE
10
395.647461
20
27.000000
11
395.647461
21
36.360001
62
7
0
LINE
10
395.647461
20
36.360001
11
405.248779
21
36.360001
62
7
0
LINE
10
405.248779
20
36.360001
11
405.248779
21
27.000000
62
7
0
LINE
10
405.248779
20
27.000000
11
414.850098
21
27.000000
62
7
0
LINE
10
414.850098
20
27.000000
11
414.850098
21
36.360001
62
7
0
LINE
10
414.850098
20
36.360001
11
424.451416
21
36.360001
62
7
0
LINE
10
424.451416
20
36.360001
11
424.451416
21
27.000000
62
7
0
LINE
10
424.451416
20
27.000000
11
434.052734
21
27.000000
62
7
0
LINE
10
434.052734
20
27.000000
11
434.052734
21
36.360001
62
7
0
LINE
10
434.052734
20
36.360001
11
443.654053
21
36.360001
62
7
0
LINE
10
443.654053
20
36.360001
11
443.654053
21
27.000000
62
7
0
LINE
10
443.654053
20
27.000000
11
453.255371
21
27.000000
62
7
0
LINE
10
453.255371
20
27.000000
11
453.255371
21
36.360001
62
7
0
LINE
10
453.255371
20
36.360001
11
462.856689
21
36.360001
62
7
0
LINE
10
462.856689
20
36.360001
11
462.856689
21
27.000000
62
7
0
LINE
10
462.856689
20
27.000000
11
472.458008
21
27.000000
62
7
0
LINE
10
472.458008
20
27.000000
11
472.458008
21
36.360001
62
7
0
LINE
10
472.458008
20
36.360001
11
482.059326
21
36.360001
62
7
0
LINE
10
482.059326
20
36.360001
11
482.059326
21
27.000000
62
7
0
LINE
10
482.059326
20
27.000000
11
491.660645
21
27.000000
62
7
0
LINE
10
491.660645
20
27.000000
11
491.660645
21
36.360001
62
7
0
LINE
10
491.660645
20
36.360001
11
501.261963
21
36.360001
62
7
0
LINE
10
501.261963
20
36.360001
11
501.261963
21
27.000000
62
7
0
LINE
10
501.261963
20
27.000000
11
510.863281
21
27.000000
62
7
0
LINE
10
510.863281
20
27.000000
11
510.863281
21
36.360001
62
7
0
LINE
10
510.863281
20
36.360001
11
520.464600
21
36.360001
62
7
0
LINE
10
520.464600
20
36.360001
11
520.464600
21
27.000000
62
7
0
LINE
10
520.464600
20
27.000000
11
530.065918
21
27.000000
62
7
0
LINE
10
530.065918
20
27.000000
11
530.065918
21
36.360001
62
7
0
LINE
10
530.065918
20
36.360001
11
539.667236
21
36.360001
62
7
0
LINE
10
539.667236
20
36.360001
11
539.667236
21
27.000000
62
7
0
LINE
10
539.667236
20
27.000000
11
549.268555
21
27.000000
62
7
0
LINE
10
549.268555
20
27.000000
11
549.268555
21
36.360001
62
7
0
LINE
10
549.268555
20
36.360001
11
558.869873
21
36.360001
62
7
0
LINE
10
558.869873
20
36.360001
11
558.869873
21
27.000000
62
7
0
LINE
10
558.869873
20
27.000000
11
568.471191
21
27.000000
62
7
0
LINE
10
568.471191
20
27.000000
11
568.471191
21
36.360001
62
7
0
LINE
10
568.471191
20
36.360001
11
578.072510
21
36.360001
62
7
0
LINE
10
578.072510
20
36.360001
11
578.072510
21
27.000000
62
7
0
LINE
10
578.072510
20
27.000000
11
587.673828
21
27.000000
62
7
0
LINE
10
587.673828
20
27.000000
11
587.673828
21
36.360001
62
7
0
LINE
10
587.673828
20
36.360001
11
597.275146
21
36.360001
62
7
0
LINE
10
597.275146
20
36.360001
11
597.275146
21
27.000000
62
7
0
LINE
10
597.275146
20
27.000000
11
606.876465
21
27.000000
62
7
0
LINE
10
606.876465
20
27.000000
11
606.876465
21
36.360001
62
7
0
LINE
10
606.876465
20
36.360001
11
616.477783
21
36.360001
62
7
0
LINE
10
616.477783
20
36.360001
11
616.477783
21
27.000000
62
7
0
LINE
10
616.477783
20
27.000000
11
626.079102
21
27.000000
62
7
0
LINE
10
626.079102
20
27.000000
11
626.079102
21
36.360001
62
7
0
LINE
10
626.079102
20
36.360001
11
635.680420
21
36.360001
62
7
0
LINE
10
635.680420
20
36.360001
11
635.680420
21
27.000000
62
7
0
LINE
10
635.680420
20
27.000000
11
645.281738
21
27.000000
62
7
0
LINE
10
645.281738
20
27.000000
11
645.281738
21
36.360001
62
7
0
LINE
10
645.281738
20
36.360001
11
654.883057
21
36.360001
62
7
0
LINE
10
654.883057
20
36.360001
11
654.883057
21
27.000000
62
7
0
LINE
10
654.883057
20
27.000000
11
664.484375
21
27.000000
62
7
0
LINE
10
664.484375
20
27.000000
11
664.484375
21
36.360001
62
7
0
LINE
10
664.484375
20
36.360001
11
674.085693
21
36.360001
62
7
0
LINE
10
674.085693
20
36.360001
11
674.085693
21
27.000000
62
7
0
LINE
10
674.085693
20
27.000000
11
683.687012
21
27.000000
62
7
0
LINE
10
683.687012
20
27.000000
11
683.687012
21
36.360001
62
7
0
LINE
10
683.687012
20
36.360001
11
693.288330
21
36.360001
62
7
0
LINE
10
693.288330
20
36.360001
11
693.288330
21
27.000000
62
7
0
LINE
10
693.288330
20
27.000000
11
702.889648
21
27.000000
62
7
0
LINE
10
702.889648
20
27.000000
11
702.889648
21
36.360001
62
7
0
LINE
10
702.889648
20
36.360001
11
712.490967
21
36.360001
62
7
0
LINE
10
712.490967
20
36.360001
11
712.490967
21
27.000000
62
7
0
LINE
10
712.490967
20
27.000000
11
722.092285
21
27.000000
62
7
0
LINE
10
722.092285
20
27.000000
11
722.092285
21
36.360001
62
7
0
LINE
10
722.092285
20
36.360001
11
731.693604
21
36.360001
62
7
0
LINE
10
731.693604
20
36.360001
11
731.693604
21
27.000000
62
7
0
LINE
10
731.693604
20
27.000000
11
741.294922
21
27.000000
62
7
0
LINE
10
741.294922
20
27.000000
11
741.294922
21
36.360001
62
7
0
LINE
10
741.294922
20
36.360001
11
750.896240
21
36.360001
62
7
0
LINE
10
750.896240
20
36.360001
11
750.896240
21
27.000000
62
7
0
LINE
10
750.896240
20
27.000000
11
760.497559
21
27.000000
62
7
0
LINE
10
760.497559
20
27.000000
11
760.497559
21
36.360001
62
7
0
LINE
10
760.497559
20
36.360001
11
770.098877
21
36.360001
62
7
0
LINE
10
770.098877
20
36.360001
11
770.098877
21
27.000000
62
7
0
LINE
10
770.098877
20
27.000000
11
779.700195
21
27.000000
62
7
0
LINE
10
779.700195
20
27.000000
11
779.700195
21
36.360001
62
7
0
LINE
10
779.700195
20
36.360001
11
789.301514
21
36.360001
62
7
0
LINE
10
789.301514
20
36.360001
11
789.301514
21
27.000000
62
7
0
LINE
10
789.301514
20
27.000000
11
798.902832
21
27.000000
62
7
0
LINE
10
798.902832
20
27.000000
11
798.902832
21
36.360001
62
7
0
LINE
10
798.902832
20
36.360001
11
808.504150
21
36.360001
62
7
0
LINE
10
808.504150
20
36.360001
11
808.504150
21
27.000000
62
7
0
LINE
10
808.504150
20
27.000000
11
818.105469
21
27.000000
62
7
0
LINE
10
818.105469
20
27.000000
11
818.105469
21
36.360001
62
7
0
LINE
10
818.105469
20
36.360001
11
827.706787
21
36.360001
62
7
0
LINE
10
827.706787
20
36.360001
11
827.706787
21
27.000000
62
7
0
LINE
10
827.706787
20
27.000000
11
837.308105
21
27.000000
62
7
0
LINE
10
837.308105
20
27.000000
11
837.308105
21
36.360001
62
7
0
LINE
10
837.308105
20
36.360001
11
846.909424
21
36.360001
62
7
0
LINE
10
846.909424
20
36.360001
11
846.909424
21
27.000000
62
7
0
LINE
10
846.909424
20
27.000000
11
856.510742
21
27.000000
62
7
0
LINE
10
856.510742
20
27.000000
11
856.510742
21
36.360001
62
7
0
LINE
10
856.510742
20
36.360001
11
866.112061
21
36.360001
62
7
0
LINE
10
866.112061
20
36.360001
11
866.112061
21
27.000000
62
7
0
LINE
10
866.112061
20
27.000000
11
875.713379
21
27.000000
62
7
0
LINE
10
875.713379
20
27.000000
11
875.713379
21
36.360001
62
7
0
LINE
10
875.713379
20
36.360001
11
885.314697
21
36.360001
62
7
0
LINE
10
885.314697
20
36.360001
11
885.314697
21
27.000000
62
7
0
LINE
10
885.314697
20
27.000000
11
894.916016
21
27.000000
62
7
0
LINE
10
894.916016
20
27.000000
11
894.916016
21
36.360001
62
7
0
LINE
10
894.916016
20
36.360001
11
904.517334
21
36.360001
62
7
0
LINE
10
904.517334
20
36.360001
11
904.517334
21
27.000000
62
7
0
LINE
10
904.517334
20
27.000000
11
923.719971
21
27.000000
62
7
0
LINE
10
923.719971
20
27.000000
11
923.719971
21
18.000000
62
7
0
LINE
10
923.719971
20
18.000000
11
914.359985
21
18.000000
62
7
0
LINE
10
914.359985
20
18.000000
11
914.359985
21
9.000000
62
7
0
LINE
10
914.359985
20
9.000000
11
923.719971
21
9.000000
62
7
0
LINE
10
923.719971
20
9.000000
11
923.719971
21
0.000000
62
7
0
LINE
10
923.719971
20
0.000001
11
50.000000
21
0.000001
62
7
0
LINE
10
50.000000
20
0.000001
11
50.000000
21
9.000001
62
7
0
LINE
10
50.000000
20
9.000001
11
59.360001
21
9.000001
62
7
0
LINE
10
59.360001
20
9.000001
11
59.360001
21
18.000000
62
7
0
LINE
10
59.360001
20
18.000000
11
50.000000
21
18.000000
62
7
0
LINE
10
50.000000
20
18.000000
11
50.000000
21
27.000000
62
7
0
LINE
10
50.000000
20
27.000000
11
50.000000
21
47.346664
62
7
0
LINE
10
50.000000
20
47.346664
11
59.360001
21
47.346664
62
7
0
LINE
10
59.360001
20
47.346664
11
59.360001
21
57.519997
62
7
0
LINE
10
59.360001
20
57.519997
11
50.000000
21
57.519997
62
7
0
LINE
10
50.000000
20
57.519997
11
50.000000
21
67.693329
62
7
0
LINE
10
50.000000
20
67.693329
11
59.360001
21
67.693329
62
7
0
LINE
10
59.360001
20
67.693329
11
59.360001
21
77.866661
62
7
0
LINE
10
59.360001
20
77.866661
11
50.000000
21
77.866661
62
7
0
LINE
10
50.000000
20
77.866661
11
50.000000
21
88.039993
62
7
0
LINE
10
50.000000
20
88.039993
11
59.360001
21
88.039993
62
7
0
LINE
10
59.360001
20
88.039993
11
59.360001
21
98.213326
62
7
0
LINE
10
59.360001
20
98.213326
11
50.000000
21
98.213326
62
7
0
LINE
10
50.000000
20
98.213326
11
50.000000
21
108.386658
62
7
0
LINE
10
50.000000
20
108.386658
11
59.360001
21
108.386658
62
7
0
LINE
10
59.360001
20
108.386658
11
59.360001
21
118.559990
62
7
0
LINE
10
59.360001
20
118.559990
11
50.000000
21
118.559990
62
7
0
LINE
10
50.000000
20
118.559990
11
50.000000
21
128.733322
62
7
0
LINE
10
50.000000
20
128.733322
11
59.360001
21
128.733322
62
7
0
LINE
10
59.360001
20
128.733322
11
59.360001
21
138.906662
62
7
0
LINE
10
59.360001
20
138.906662
11
50.000000
21
138.906662
62
7
0
LINE
10
50.000000
20
138.906662
11
50.000000
21
149.080002
62
7
0
LINE
10
50.000000
20
149.080002
11
59.360001
21
149.080002
62
7
0
LINE
10
59.360001
20
149.080002
11
59.360001
21
159.253342
62
7
0
LINE
10
59.360001
20
159.253342
11
50.000000
21
159.253342
62
7
0
LINE
10
50.000000
20
159.253342
11
50.000000
21
169.426682
62
7
0
LINE
10
50.000000
20
169.426682
11
59.360001
21
169.426682
62
7
0
LINE
10
59.360001
20
169.426682
11
59.360001
21
179.600021
62
7
0
LINE
10
59.360001
20
179.600021
11
50.000000
21
179.600021
62
7
0
LINE
10
50.000000
20
179.600021
11
50.000000
21
189.773361
62
7
0
LINE
10
50.000000
20
189.773361
11
59.360001
21
189.773361
62
7
0
LINE
10
59.360001
20
189.773361
11
59.360001
21
199.946701
62
7
0
LINE
10
59.360001
20
199.946701
11
50.000000
21
199.946701
62
7
0
LINE
10
50.000000
20
199.946701
11
50.000000
21
210.120041
62
7
0
LINE
10
50.000000
20
210.120041
11
59.360001
21
210.120041
62
7
0
LINE
10
59.360001
20
210.120041
11
59.360001
21
220.293381
62
7
0
LINE
10
59.360001
20
220.293381
11
50.000000
21
220.293381
62
7
0
LINE
10
50.000000
20
220.293381
11
50.000000
21
230.466721
62
7
0
LINE
10
50.000000
20
230.466721
11
59.360001
21
230.466721
62
7
0
LINE
10
59.360001
20
230.466721
11
59.360001
21
240.640060
62
7
0
LINE
10
59.360001
20
240.640060
11
50.000000
21
240.640060
62
7
0
LINE
10
50.000000
20
240.640060
11
50.000000
21
250.813400
62
7
0
LINE
10
50.000000
20
250.813400
11
59.360001
21
250.813400
62
7
0
LINE
10
59.360001
20
250.813400
11
59.360001
21
260.986725
62
7
0
LINE
10
59.360001
20
260.986725
11
50.000000
21
260.986725
62
7
0
LINE
10
50.000000
20
260.986725
11
50.000000
21
271.160065
62
7
0
LINE
10
50.000000
20
271.160065
11
59.360001
21
271.160065
62
7
0
LINE
10
59.360001
20
271.160065
11
59.360001
21
281.333405
62
7
0
LINE
10
59.360001
20
281.333405
11
50.000000
21
281.333405
62
7
0
LINE
10
50.000000
20
281.333405
11
50.000000
21
291.506744
62
7
0
LINE
10
50.000000
20
291.506744
11
59.360001
21
291.506744
62
7
0
LINE
10
59.360001
20
291.506744
11
59.360001
21
301.680084
62
7
0
LINE
10
59.360001
20
301.680084
11
50.000000
21
301.680084
62
7
0
LINE
10
50.000000
20
301.680084
11
50.000000
21
311.853424
62
7
0
LINE
10
50.000000
20
311.853424
11
59.360001
21
311.853424
62
7
0
LINE
10
59.360001
20
311.853424
11
59.360001
21
322.026764
62
7
0
LINE
10
59.360001
20
322.026764
11
50.000000
21
322.026764
62
7
0
LINE
10
50.000000
20
322.026764
11
50.000000
21
332.200104
62
7
0
LINE
10
50.000000
20
332.200104
11
59.360001
21
332.200104
62
7
0
LINE
10
59.360001
20
332.200104
11
59.360001
21
342.373444
62
7
0
LINE
10
59.360001
20
342.373444
11
50.000000
21
342.373444
62
7
0
LINE
10
50.000000
20
342.373444
11
50.000000
21
362.720123
62
7
0
LINE
10
50.000000
20
362.719971
11
69.202637
21
362.719971
62
7
0
LINE
10
69.202637
20
362.719971
11
69.202637
21
353.359985
62
7
0
LINE
10
69.202637
20
353.359985
11
78.803955
21
353.359985
62
7
0
LINE
10
78.803955
20
353.359985
11
78.803955
21
362.719971
62
7
0
LINE
10
78.803955
20
362.719971
11
88.405273
21
362.719971
62
7
0
LINE
10
88.405273
20
362.719971
11
88.405273
21
353.359985
62
7
0
LINE
10
88.405273
20
353.359985
11
98.006592
21
353.359985
62
7
0
LINE
10
98.006592
20
353.359985
11
98.006592
21
362.719971
62
7
0
LINE
10
98.006592
20
362.719971
11
107.607910
21
362.719971
62
7
0
LINE
10
107.607910
20
362.719971
11
107.607910
21
353.359985
62
7
0
LINE
10
107.607910
20
353.359985
11
117.209229
21
353.359985
62
7
0
LINE
10
117.209229
20
353.359985
11
117.209229
21
362.719971
62
7
0
LINE
10
117.209229
20
362.719971
11
126.810547
21
362.719971
62
7
0
LINE
10
126.810547
20
362.719971
11
126.810547
21
353.359985
62
7
0
LINE
10
126.810547
20
353.359985
11
136.411865
21
353.359985
62
7
0
LINE
10
136.411865
20
353.359985
11
136.411865
21
362.719971
62
7
0
LINE
10
136.411865
20
362.719971
11
146.013184
21
362.719971
62
7
0
LINE
10
146.013184
20
362.719971
11
146.013184
21
353.359985
62
7
0
LINE
10
146.013184
20
353.359985
11
155.614502
21
353.359985
62
7
0
LINE
10
155.614502
20
353.359985
11
155.614502
21
362.719971
62
7
0
LINE
10
155.614502
20
362.719971
11
165.215820
21
362.719971
62
7
0
LINE
10
165.215820
20
362.719971
11
165.215820
21
353.359985
62
7
0
LINE
10
165.215820
20
353.359985
11
174.817139
21
353.359985
62
7
0
LINE
10
174.817139
20
353.359985
11
174.817139
21
362.719971
62
7
0
LINE
10
174.817139
20
362.719971
11
184.418457
21
362.719971
62
7
0
LINE
10
184.418457
20
362.719971
11
184.418457
21
353.359985
62
7
0
LINE
10
184.418457
20
353.359985
11
194.019775
21
353.359985
62
7
0
LINE
10
194.019775
20
353.359985
11
194.019775
21
362.719971
62
7
0
LINE
10
194.019775
20
362.719971
11
203.621094
21
362.719971
62
7
0
LINE
10
203.621094
20
362.719971
11
203.621094
21
353.359985
62
7
0
LINE
10
203.621094
20
353.359985
11
213.222412
21
353.359985
62
7
0
LINE
10
213.222412
20
353.359985
11
213.222412
21
362.719971
62
7
0
LINE
10
213.222412
20
362.719971
11
222.823730
21
362.719971
62
7
0
LINE
10
222.823730
20
362.719971
11
222.823730
21
353.359985
62
7
0
LINE
10
222.823730
20
353.359985
11
232.425049
21
353.359985
62
7
0
LINE
10
232.425049
20
353.359985
11
232.425049
21
362.719971
62
7
0
LINE
10
232.425049
20
362.719971
11
242.026367
21
362.719971
62
7
0
LINE
10
242.026367
20
362.719971
11
242.026367
21
353.359985
62
7
0
LINE
10
242.026367
20
353.359985
11
251.627686
21
353.359985
62
7
0
LINE
10
251.627686
20
353.359985
11
251.627686
21
362.719971
62
7
0
LINE
10
251.627686
20
362.719971
11
261.229004
21
362.719971
62
7
0
LINE
10
261.229004
20
362.719971
11
261.229004
21
353.359985
62
7
0
LINE
10
261.229004
20
353.359985
11
270.830322
21
353.359985
62
7
0
LINE
10
270.830322
20
353.359985
11
270.830322
21
362.719971
62
7
0
LINE
10
270.830322
20
362.719971
11
280.431641
21
362.719971
62
7
0
LINE
10
280.431641
20
362.719971
11
280.431641
21
353.359985
62
7
0
LINE
10
280.431641
20
353.359985
11
290.032959
21
353.359985
62
7
0
LINE
10
290.032959
20
353.359985
11
290.032959
21
362.719971
62
7
0
LINE
10
290.032959
20
362.719971
11
299.634277
21
362.719971
62
7
0
LINE
10
299.634277
20
362.719971
11
299.634277
21
353.359985
62
7
0
LINE
10
299.634277
20
353.359985
11
309.235596
21
353.359985
62
7
0
LINE
10
309.235596
20
353.359985
11
309.235596
21
362.719971
62
7
0
LINE
10
309.235596
20
362.719971
11
318.836914
21
362.719971
62
7
0
LINE
10
318.836914
20
362.719971
11
318.836914
21
353.359985
62
7
0
LINE
10
318.836914
20
353.359985
11
328.438232
21
353.359985
62
7
0
LINE
10
328.438232
20
353.359985
11
328.438232
21
362.719971
62
7
0
LINE
10
328.438232
20
362.719971
11
338.039551
21
362.719971
62
7
0
LINE
10
338.039551
20
362.719971
11
338.039551
21
353.359985
62
7
0
LINE
10
338.039551
20
353.359985
11
347.640869
21
353.359985
62
7
0
LINE
10
347.640869
20
353.359985
11
347.640869
21
362.719971
62
7
0
LINE
10
347.640869
20
362.719971
11
357.242188
21
362.719971
62
7
0
LINE
10
357.242188
20
362.719971
11
357.242188
21
353.359985
62
7
0
LINE
10
357.242188
20
353.359985
11
366.843506
21
353.359985
62
7
0
LINE
10
366.843506
20
353.359985
11
366.843506
21
362.719971
62
7
0
LINE
10
366.843506
20
362.719971
11
376.444824
21
362.719971
62
7
0
LINE
10
376.444824
20
362.719971
11
376.444824
21
353.359985
62
7
0
LINE
10
376.444824
20
353.359985
11
386.046143
21
353.359985
62
7
0
LINE
10
386.046143
20
353.359985
11
386.046143
21
362.719971
62
7
0
LINE
10
386.046143
20
362.719971
11
395.647461
21
362.719971
62
7
0
LINE
10
395.647461
20
362.719971
11
395.647461
21
353.359985
62
7
0
LINE
10
395.647461
20
353.359985
11
405.248779
21
353.359985
62
7
0
LINE
10
405.248779
20
353.359985
11
405.248779
21
362.719971
62
7
0
LINE
10
405.248779
20
362.719971
11
414.850098
21
362.719971
62
7
0
LINE
10
414.850098
20
362.719971
11
414.850098
21
353.359985
62
7
0
LINE
10
414.850098
20
353.359985
11
424.451416
21
353.359985
62
7
0
LINE
10
424.451416
20
353.359985
11
424.451416
21
362.719971
62
7
0
LINE
10
424.451416
20
362.719971
11
434.052734
21
362.719971
62
7
0
LINE
10
434.052734
20
362.719971
11
434.052734
21
353.359985
62
7
0
LINE
10
434.052734
20
353.359985
11
443.654053
21
353.359985
62
7
0
LINE
10
443.654053
20
353.359985
11
443.654053
21
362.719971
62
7
0
LINE
10
443.654053
20
362.719971
11
453.255371
21
362.719971
62
7
0
LINE
10
453.255371
20
362.719971
11
453.255371
21
353.359985
62
7
0
LINE
10
453.255371
20
353.359985
11
462.856689
21
353.359985
62
7
0
LINE
10
462.856689
20
353.359985
11
462.856689
21
362.719971
62
7
0
LINE
10
462.856689
20
362.719971
11
472.458008
21
362.719971
62
7
0
LINE
10
472.458008
20
362.719971
11
472.458008
21
353.359985
62
7
0
LINE
10
472.458008
20
353.359985
11
482.059326
21
353.359985
62
7
0
LINE
10
482.059326
20
353.359985
11
482.059326
21
362.719971
62
7
0
LINE
10
482.059326
20
362.719971
11
491.660645
21
362.719971
62
7
0
LINE
10
491.660645
20
362.719971
11
491.660645
21
353.359985
62
7
0
LINE
10
491.660645
20
353.359985
11
501.261963
21
353.359985
62
7
0
LINE
10
501.261963
20
353.359985
11
501.261963
21
362.719971
62
7
0
LINE
10
501.261963
20
362.719971
11
510.863281
21
362.719971
62
7
0
LINE
10
510.863281
20
362.719971
11
510.863281
21
353.359985
62
7
0
LINE
10
510.863281
20
353.359985
11
520.464600
21
353.359985
62
7
0
LINE
10
520.464600
20
353.359985
11
520.464600
21
362.719971
62
7
0
LINE
10
520.464600
20
362.719971
11
530.065918
21
362.719971
62
7
0
LINE
10
530.065918
20
362.719971
11
530.065918
21
353.359985
62
7
0
LINE
10
530.065918
20
353.359985
11
539.667236
21
353.359985
62
7
0
LINE
10
539.667236
20
353.359985
11
539.667236
21
362.719971
62
7
0
LINE
10
539.667236
20
362.719971
11
549.268555
21
362.719971
62
7
0
LINE
10
549.268555
20
362.719971
11
549.268555
21
353.359985
62
7
0
LINE
10
549.268555
20
353.359985
11
558.869873
21
353.359985
62
7
0
LINE
10
558.869873
20
353.359985
11
558.869873
21
362.719971
62
7
0
LINE
10
558.869873
20
362.719971
11
568.471191
21
362.719971
62
7
0
LINE
10
568.471191
20
362.719971
11
568.471191
21
353.359985
62
7
0
LINE
10
568.471191
20
353.359985
11
578.072510
21
353.359985
62
7
0
LINE
10
578.072510
20
353.359985
11
578.072510
21
362.719971
62
7
0
LINE
10
578.072510
20
362.719971
11
587.673828
21
362.719971
62
7
0
LINE
10
587.673828
20
362.719971
11
587.673828
21
353.359985
62
7
0
LINE
10
587.673828
20
353.359985
11
597.275146
21
353.359985
62
7
0
LINE
10
597.275146
20
353.359985
11
597.275146
21
362.719971
62
7
0
LINE
10
597.275146
20
362.719971
11
606.876465
21
362.719971
62
7
0
LINE
10
606.876465
20
362.719971
11
606.876465
21
353.359985
62
7
0
LINE
10
606.876465
20
353.359985
11
616.477783
21
353.359985
62
7
0
LINE
10
616.477783
20
353.359985
11
616.477783
21
362.719971
62
7
0
LINE
10
616.477783
20
362.719971
11
626.079102
21
362.719971
62
7
0
LINE
10
626.079102
20
362.719971
11
626.079102
21
353.359985
62
7
0
LINE
10
626.079102
20
353.359985
11
635.680420
21
353.359985
62
7
0
LINE
10
635.680420
20
353.359985
11
635.680420
21
362.719971
62
7
0
LINE
10
635.680420
20
362.719971
11
645.281738
21
362.719971
62
7
0
LINE
10
645.281738
20
362.719971
11
645.281738
21
353.359985
62
7
0
LINE
10
645.281738
20
353.359985
11
654.883057
21
353.359985
62
7
0
LINE
10
654.883057
20
353.359985
11
654.883057
21
362.719971
62
7
0
LINE
10
654.883057
20
362.719971
11
664.484375
21
362.719971
62
7
0
LINE
10
664.484375
20
362.719971
11
664.484375
21
353.359985
62
7
0
LINE
10
664.484375
20
353.359985
11
674.085693
21
353.359985
62
7
0
LINE
10
674.085693
20
353.359985
11
674.085693
21
362.719971
62
7
0
LINE
10
674.085693
20
362.719971
11
683.687012
21
362.719971
62
7
0
LINE
10
683.687012
20
362.719971
11
683.687012
21
353.359985
62
7
0
LINE
10
683.687012
20
353.359985
11
693.288330
21
353.359985
62
7
0
LINE
10
693.288330
20
353.359985
11
693.288330
21
362.719971
62
7
0
LINE
10
693.288330
20
362.719971
11
702.889648
21
362.719971
62
7
0
LINE
10
702.889648
20
362.719971
11
702.889648
21
353.359985
62
7
0
LINE
10
702.889648
20
353.359985
11
712.490967
21
353.359985
62
7
0
LINE
10
712.490967
20
353.359985
11
712.490967
21
362.719971
62
7
0
LINE
10
712.490967
20
362.719971
11
722.092285
21
362.719971
62
7
0
LINE
10
722.092285
20
362.719971
11
722.092285
21
353.359985
62
7
0
LINE
10
722.092285
20
353.359985
11
731.693604
21
353.359985
62
7
0
LINE
10
731.693604
20
353.359985
11
731.693604
21
362.719971
62
7
0
LINE
10
731.693604
20
362.719971
11
741.294922
21
362.719971
62
7
0
LINE
10
741.294922
20
362.719971
11
741.294922
21
353.359985
62
7
0
LINE
10
741.294922
20
353.359985
11
750.896240
21
353.359985
62
7
0
LINE
10
750.896240
20
353.359985
11
750.896240
21
362.719971
62
7
0
LINE
10
750.896240
20
362.719971
11
760.497559
21
362.719971
62
7
0
LINE
10
760.497559
20
362.719971
11
760.497559
21
353.359985
62
7
0
LINE
10
760.497559
20
353.359985
11
770.098877
21
353.359985
62
7
0
LINE
10
770.098877
20
353.359985
11
770.098877
21
362.719971
62
7
0
LINE
10
770.098877
20
362.719971
11
779.700195
21
362.719971
62
7
0
LINE
10
779.700195
20
362.719971
11
779.700195
21
353.359985
62
7
0
LINE
10
779.700195
20
353.359985
11
789.301514
21
353.359985
62
7
0
LINE
10
789.301514
20
353.359985
11
789.301514
21
362.719971
62
7
0
LINE
10
789.301514
20
362.719971
11
798.902832
21
362.719971
62
7
0
LINE
10
798.902832
20
362.719971
11
798.902832
21
353.359985
62
7
0
LINE
10
798.902832
20
353.359985
11
808.504150
21
353.359985
62
7
0
LINE
10
808.504150
20
353.359985
11
808.504150
21
362.719971
62
7
0
LINE
10
808.504150
20
362.719971
11
818.105469
21
362.719971
62
7
0
LINE
10
818.105469
20
362.719971
11
818.105469
21
353.359985
62
7
0
LINE
10
818.105469
20
353.359985
11
827.706787
21
353.359985
62
7
0
LINE
10
827.706787
20
353.359985
11
827.706787
21
362.719971
62
7
0
LINE
10
827.706787
20
362.719971
11
837.308105
21
362.719971
62
7
0
LINE
10
837.308105
20
362.719971
11
837.308105
21
353.359985
62
7
0
LINE
10
837.308105
20
353.359985
11
846.909424
21
353.359985
62
7
0
LINE
10
846.909424
20
353.359985
11
846.909424
21
362.719971
62
7
0
LINE
10
846.909424
20
362.719971
11
856.510742
21
362.719971
62
7
0
LINE
10
856.510742
20
362.719971
11
856.510742
21
353.359985
62
7
0
LINE
10
856.510742
20
353.359985
11
866.112061
21
353.359985
62
7
0
LINE
10
866.112061
20
353.359985
11
866.112061
21
362.719971
62
7
0
LINE
10
866.112061
20
362.719971
11
875.713379
21
362.719971
62
7
0
LINE
10
875.713379
20
362.719971
11
875.713379
21
353.359985
62
7
0
LINE
10
875.713379
20
353.359985
11
885.314697
21
353.359985
62
7
0
LINE
10
885.314697
20
353.359985
11
885.314697
21
362.719971
62
7
0
LINE
10
885.314697
20
362.719971
11
894.916016
21
362.719971
62
7
0
LINE
10
894.916016
20
362.719971
11
894.916016
21
353.359985
62
7
0
LINE
10
894.916016
20
353.359985
11
904.517334
21
353.359985
62
7
0
LINE
10
904.517334
20
353.359985
11
904.517334
21
362.719971
62
7
0
LINE
10
904.517334
20
362.719971
11
923.719971
21
362.719971
62
7
0
LINE
10
923.719971
20
362.719971
11
923.719971
21
342.373291
62
7
0
LINE
10
923.719971
20
342.373291
11
914.359985
21
342.373291
62
7
0
LINE
10
914.359985
20
342.373291
11
914.359985
21
332.199951
62
7
0
LINE
10
914.359985
20
332.199951
11
923.719971
21
332.199951
62
7
0
LINE
10
923.719971
20
332.199951
11
923.719971
21
322.026611
62
7
0
LINE
10
923.719971
20
322.026611
11
914.359985
21
322.026611
62
7
0
LINE
10
914.359985
20
322.026611
11
914.359985
21
311.853271
62
7
0
LINE
10
914.359985
20
311.853271
11
923.719971
21
311.853271
62
7
0
LINE
10
923.719971
20
311.853271
11
923.719971
21
301.679932
62
7
0
LINE
10
923.719971
20
301.679932
11
914.359985
21
301.679932
62
7
0
LINE
10
914.359985
20
301.679932
11
914.359985
21
291.506592
62
7
0
LINE
10
914.359985
20
291.506592
11
923.719971
21
291.506592
62
7
0
LINE
10
923.719971
20
291.506592
11
923.719971
21
281.333252
62
7
0
LINE
10
923.719971
20
281.333252
11
914.359985
21
281.333252
62
7
0
LINE
10
914.359985
20
281.333252
11
914.359985
21
271.159912
62
7
0
LINE
10
914.359985
20
271.159912
11
923.719971
21
271.159912
62
7
0
LINE
10
923.719971
20
271.159912
11
923.719971
21
260.986572
62
7
0
LINE
10
923.719971
20
260.986572
11
914.359985
21
260.986572
62
7
0
LINE
10
914.359985
20
260.986572
11
914.359985
21
250.813232
62
7
0
LINE
10
914.359985
20
250.813232
11
923.719971
21
250.813232
62
7
0
LINE
10
923.719971
20
250.813232
11
923.719971
21
240.639893
62
7
0
LINE
10
923.719971
20
240.639893
11
914.359985
21
240.639893
62
7
0
LINE
10
914.359985
20
240.639893
11
914.359985
21
230.466553
62
7
0
LINE
10
914.359985
20
230.466553
11
923.719971
21
230.466553
62
7
0
LINE
10
923.719971
20
230.466553
11
923.719971
21
220.293213
62
7
0
LINE
10
923.719971
20
220.293213
11
914.359985
21
220.293213
62
7
0
LINE
10
914.359985
20
220.293213
11
914.359985
21
210.119873
62
7
0
LINE
10
914.359985
20
210.119873
11
923.719971
21
210.119873
62
7
0
LINE
10
923.719971
20
210.119873
11
923.719971
21
199.946533
62
7
0
LINE
10
923.719971
20
199.946533
11
914.359985
21
199.946533
62
7
0
LINE
10
914.359985
20
199.946533
11
914.359985
21
189.773193
62
7
0
LINE
10
914.359985
20
189.773193
11
923.719971
21
189.773193
62
7
0
LINE
10
923.719971
20
189.773193
11
923.719971
21
179.599854
62
7
0
LINE
10
923.719971
20
179.599854
11
914.359985
21
179.599854
62
7
0
LINE
10
914.359985
20
179.599854
11
914.359985
21
169.426514
62
7
0
LINE
10
914.359985
20
169.426514
11
923.719971
21
169.426514
62
7
0
LINE
10
923.719971
20
169.426514
11
923.719971
21
159.253174
62
7
0
LINE
10
923.719971
20
159.253174
11
914.359985
21
159.253174
62
7
0
LINE
10
914.359985
20
159.253174
11
914.359985
21
149.079834
62
7
0
LINE
10
914.359985
20
149.079834
11
923.719971
21
149.079834
62
7
0
LINE
10
923.719971
20
149.079834
11
923.719971
21
138.906494
62
7
0
LINE
10
923.719971
20
138.906494
11
914.359985
21
138.906494
62
7
0
LINE
10
914.359985
20
138.906494
11
914.359985
21
128.733154
62
7
0
LINE
10
914.359985
20
128.733154
11
923.719971
21
128.733154
62
7
0
LINE
10
923.719971
20
128.733154
11
923.719971
21
118.559822
62
7
0
LINE
10
923.719971
20
118.559822
11
914.359985
21
118.559822
62
7
0
LINE
10
914.359985
20
118.559822
11
914.359985
21
108.386490
62
7
0
LINE
10
914.359985
20
108.386490
11
923.719971
21
108.386490
62
7
0
LINE
10
923.719971
20
108.386490
11
923.719971
21
98.213158
62
7
0
LINE
10
923.719971
20
98.213158
11
914.359985
21
98.213158
62
7
0
LINE
10
914.359985
20
98.213158
11
914.359985
21
88.039825
62
7
0
LINE
10
914.359985
20
88.039825
11
923.719971
21
88.039825
62
7
0
LINE
10
923.719971
20
88.039825
11
923.719971
21
77.866493
62
7
0
LINE
10
923.719971
20
77.866493
11
914.359985
21
77.866493
62
7
0
LINE
10
914.359985
20
77.866493
11
914.359985
21
67.693161
62
7
0
LINE
10
914.359985
20
67.693161
11
923.719971
21
67.693161
62
7
0
LINE
10
923.719971
20
67.693161
11
923.719971
21
57.519829
62
7
0
LINE
10
923.719971
20
57.519829
11
914.359985
21
57.519829
62
7
0
LINE
10
914.359985
20
57.519829
11
914.359985
21
47.346497
62
7
0
LINE
10
914.359985
20
47.346497
11
923.719971
21
47.346497
62
7
0
LINE
10
923.719971
20
47.346497
11
923.719971
21
26.999832
62
7
0
LINE
10
923.719971
20
36.360001
11
932.719971
21
36.360001
62
7
0
LINE
10
932.719971
20
36.360001
11
932.719971
21
27.000000
62
7
0
LINE
10
932.719971
20
27.000000
11
941.719971
21
27.000000
62
7
0
LINE
10
941.719971
20
27.000000
11
941.719971
21
36.360001
62
7
0
LINE
10
941.719971
20
36.360001
11
950.719971
21
36.360001
62
7
0
LINE
10
950.719971
20
36.360001
11
950.719971
21
27.000000
62
7
0
LINE
10
950.719971
20
27.000000
11
968.719971
21
27.000000
62
7
0
LINE
10
973.719971
20
27.000000
11
973.719971
21
172.360001
62
7
0
LINE
10
973.719971
20
172.360001
11
973.719971
21
172.360001
62
7
0
LINE
10
973.719971
20
172.360001
11
973.719971
21
353.359985
62
7
0
LINE
10
973.719971
20
353.359985
11
963.719971
21
353.359985
62
7
0
LINE
10
963.719971
20
353.359985
11
963.719971
21
362.719971
62
7
0
LINE
10
963.719971
20
362.719971
11
953.719971
21
362.719971
62
7
0
LINE
10
953.719971
20
362.719971
11
953.719971
21
353.359985
62
7
0
LINE
10
953.719971
20
353.359985
11
943.719971
21
353.359985
62
7
0
LINE
10
943.719971
20
353.359985
11
943.719971
21
362.719971
62
7
0
LINE
10
943.719971
20
362.719971
11
933.719971
21
362.719971
62
7
0
LINE
10
933.719971
20
362.719971
11
933.719971
21
353.359985
62
7
0
LINE
10
933.719971
20
353.359985
11
923.719971
21
353.359985
62
7
0
LINE
10
923.719971
20
362.719971
11
923.719971
21
372.719971
62
7
0
LINE
10
923.719971
20
372.719971
11
914.359985
21
372.719971
62
7
0
LINE
10
914.359985
20
372.719971
11
914.359985
21
382.719971
62
7
0
LINE
10
914.359985
20
382.719971
11
923.719971
21
382.719971
62
7
0
LINE
10
923.719971
20
382.719971
11
923.719971
21
392.719971
62
7
0
LINE
10
923.719971
20
392.719971
11
914.359985
21
392.719971
62
7
0
LINE
10
914.359985
20
392.719971
11
914.359985
21
402.719971
62
7
0
LINE
10
914.359985
20
402.719971
11
923.719971
21
402.719971
62
7
0
LINE
10
923.719971
20
402.719971
11
923.719971
21
412.719971
62
7
0
LINE
10
923.719971
20
412.719971
11
50.000000
21
412.719971
62
7
0
LINE
10
50.000000
20
412.719971
11
50.000000
21
402.719971
62
7
0
LINE
10
50.000000
20
402.719971
11
59.360001
21
402.719971
62
7
0
LINE
10
59.360001
20
402.719971
11
59.360001
21
392.719971
62
7
0
LINE
10
59.360001
20
392.719971
11
50.000000
21
392.719971
62
7
0
LINE
10
50.000000
20
392.719971
11
50.000000
21
382.719971
62
7
0
LINE
10
50.000000
20
382.719971
11
59.360001
21
382.719971
62
7
0
LINE
10
59.360001
20
382.719971
11
59.360001
21
372.719971
62
7
0
LINE
10
59.360001
20
372.719971
11
50.000000
21
372.719971
62
7
0
LINE
10
50.000000
20
372.719971
11
50.000000
21
362.719971
62
7
0
LINE
10
50.000000
20
353.359985
11
40.000000
21
353.359985
62
7
0
LINE
10
40.000000
20
353.359985
11
40.000000
21
362.719971
62
7
0
LINE
10
40.000000
20
362.719971
11
30.000000
21
362.719971
62
7
0
LINE
10
30.000000
20
362.719971
11
30.000000
21
353.359985
62
7
0
LINE
10
30.000000
20
353.359985
11
20.000000
21
353.359985
62
7
0
LINE
10
20.000000
20
353.359985
11
20.000000
21
362.719971
62
7
0
LINE
10
20.000000
20
362.719971
11
10.000000
21
362.719971
62
7
0
LINE
10
10.000000
20
362.719971
11
10.000000
21
353.359985
62
7
0
LINE
10
10.000000
20
353.359985
11
0.000000
21
353.359985
62
7
0
LINE
10
0.000000
20
353.359985
11
0.000000
21
172.360001
62
7
0
LINE
10
0.000000
20
172.360001
11
0.000000
21
172.360001
62
7
0
LINE
10
0.000000
20
172.360001
11
0.000000
21
27.000000
62
7
0
LINE
10
14.000000
20
27.000000
11
23.000000
21
27.000000
62
7
0
LINE
10
23.000000
20
27.000000
11
23.000000
21
36.360001
62
7
0
LINE
10
23.000000
20
36.360001
11
32.000000
21
36.360001
62
7
0
LINE
10
32.000000
20
36.360001
11
32.000000
21
27.000000
62
7
0
LINE
10
32.000000
20
27.000000
11
41.000000
21
27.000000
62
7
0
LINE
10
41.000000
20
27.000000
11
41.000000
21
36.360001
62
7
0
LINE
10
41.000000
20
36.360001
11
50.000000
21
36.360001
62
7
0
ENDSEC
0
EOF
