0
SECTION
2
ENTITIES
0
CIRCLE
10
67.399994
20
15.500000
40
1.000000
62
7
0
LINE
10
72.869995
20
7.000000
11
89.869995
21
7.000000
62
7
0
LINE
10
89.869995
20
7.000000
11
89.869995
21
24.000000
62
7
0
LINE
10
89.869995
20
24.000000
11
72.869995
21
24.000000
62
7
0
LINE
10
72.869995
20
24.000000
11
72.869995
21
7.000000
62
7
0
LINE
10
80.369995
20
15.500000
11
82.369995
21
15.500000
62
7
0
LINE
10
81.369995
20
14.500000
11
81.369995
21
16.500000
62
7
0
CIRCLE
10
95.339996
20
15.500000
40
1.000000
62
7
0
LINE
10
100.809998
20
7.000000
11
117.809998
21
7.000000
62
7
0
LINE
10
117.809998
20
7.000000
11
117.809998
21
24.000000
62
7
0
LINE
10
117.809998
20
24.000000
11
100.809998
21
24.000000
62
7
0
LINE
10
100.809998
20
24.000000
11
100.809998
21
7.000000
62
7
0
LINE
10
108.309998
20
15.500000
11
110.309998
21
15.500000
62
7
0
LINE
10
109.309998
20
14.500000
11
109.309998
21
16.500000
62
7
0
CIRCLE
10
123.279999
20
15.500000
40
1.000000
62
7
0
LINE
10
128.750000
20
7.000000
11
145.750000
21
7.000000
62
7
0
LINE
10
145.750000
20
7.000000
11
145.750000
21
24.000000
62
7
0
LINE
10
145.750000
20
24.000000
11
128.750000
21
24.000000
62
7
0
LINE
10
128.750000
20
24.000000
11
128.750000
21
7.000000
62
7
0
LINE
10
136.250000
20
15.500000
11
138.250000
21
15.500000
62
7
0
LINE
10
137.250000
20
14.500000
11
137.250000
21
16.500000
62
7
0
CIRCLE
10
151.220001
20
15.500000
40
1.000000
62
7
0
LINE
10
156.690002
20
7.000000
11
173.690002
21
7.000000
62
7
0
LINE
10
173.690002
20
7.000000
11
173.690002
21
24.000000
62
7
0
LINE
10
173.690002
20
24.000000
11
156.690002
21
24.000000
62
7
0
LINE
10
156.690002
20
24.000000
11
156.690002
21
7.000000
62
7
0
LINE
10
164.190002
20
15.500000
11
166.190002
21
15.500000
62
7
0
LINE
10
165.190002
20
14.500000
11
165.190002
21
16.500000
62
7
0
CIRCLE
10
179.160004
20
15.500000
40
1.000000
62
7
0
LINE
10
184.630005
20
7.000000
11
201.630005
21
7.000000
62
7
0
LINE
10
201.630005
20
7.000000
11
201.630005
21
24.000000
62
7
0
LINE
10
201.630005
20
24.000000
11
184.630005
21
24.000000
62
7
0
LINE
10
184.630005
20
24.000000
11
184.630005
21
7.000000
62
7
0
LINE
10
192.130005
20
15.500000
11
194.130005
21
15.500000
62
7
0
LINE
10
193.130005
20
14.500000
11
193.130005
21
16.500000
62
7
0
CIRCLE
10
207.100006
20
15.500000
40
1.000000
62
7
0
LINE
10
212.570007
20
7.000000
11
229.570007
21
7.000000
62
7
0
LINE
10
229.570007
20
7.000000
11
229.570007
21
24.000000
62
7
0
LINE
10
229.570007
20
24.000000
11
212.570007
21
24.000000
62
7
0
LINE
10
212.570007
20
24.000000
11
212.570007
21
7.000000
62
7
0
LINE
10
220.070007
20
15.500000
11
222.070007
21
15.500000
62
7
0
LINE
10
221.070007
20
14.500000
11
221.070007
21
16.500000
62
7
0
CIRCLE
10
235.039993
20
15.500000
40
1.000000
62
7
0
LINE
10
240.509995
20
7.000000
11
257.510010
21
7.000000
62
7
0
LINE
10
257.510010
20
7.000000
11
257.510010
21
24.000000
62
7
0
LINE
10
257.510010
20
24.000000
11
240.509995
21
24.000000
62
7
0
LINE
10
240.509995
20
24.000000
11
240.509995
21
7.000000
62
7
0
LINE
10
248.009995
20
15.500000
11
250.009995
21
15.500000
62
7
0
LINE
10
249.009995
20
14.500000
11
249.009995
21
16.500000
62
7
0
CIRCLE
10
262.979980
20
15.500000
40
1.000000
62
7
0
LINE
10
268.449982
20
7.000000
11
285.449982
21
7.000000
62
7
0
LINE
10
285.449982
20
7.000000
11
285.449982
21
24.000000
62
7
0
LINE
10
285.449982
20
24.000000
11
268.449982
21
24.000000
62
7
0
LINE
10
268.449982
20
24.000000
11
268.449982
21
7.000000
62
7
0
LINE
10
275.949982
20
15.500000
11
277.949982
21
15.500000
62
7
0
LINE
10
276.949982
20
14.500000
11
276.949982
21
16.500000
62
7
0
CIRCLE
10
290.919983
20
15.500000
40
1.000000
62
7
0
LINE
10
296.389984
20
7.000000
11
313.389984
21
7.000000
62
7
0
LINE
10
313.389984
20
7.000000
11
313.389984
21
24.000000
62
7
0
LINE
10
313.389984
20
24.000000
11
296.389984
21
24.000000
62
7
0
LINE
10
296.389984
20
24.000000
11
296.389984
21
7.000000
62
7
0
LINE
10
303.889984
20
15.500000
11
305.889984
21
15.500000
62
7
0
LINE
10
304.889984
20
14.500000
11
304.889984
21
16.500000
62
7
0
CIRCLE
10
318.859985
20
15.500000
40
1.000000
62
7
0
LINE
10
324.329987
20
7.000000
11
341.329987
21
7.000000
62
7
0
LINE
10
341.329987
20
7.000000
11
341.329987
21
24.000000
62
7
0
LINE
10
341.329987
20
24.000000
11
324.329987
21
24.000000
62
7
0
LINE
10
324.329987
20
24.000000
11
324.329987
21
7.000000
62
7
0
LINE
10
331.829987
20
15.500000
11
333.829987
21
15.500000
62
7
0
LINE
10
332.829987
20
14.500000
11
332.829987
21
16.500000
62
7
0
CIRCLE
10
346.799988
20
15.500000
40
1.000000
62
7
0
LINE
10
352.269989
20
7.000000
11
369.269989
21
7.000000
62
7
0
LINE
10
369.269989
20
7.000000
11
369.269989
21
24.000000
62
7
0
LINE
10
369.269989
20
24.000000
11
352.269989
21
24.000000
62
7
0
LINE
10
352.269989
20
24.000000
11
352.269989
21
7.000000
62
7
0
LINE
10
359.769989
20
15.500000
11
361.769989
21
15.500000
62
7
0
LINE
10
360.769989
20
14.500000
11
360.769989
21
16.500000
62
7
0
CIRCLE
10
374.739990
20
15.500000
40
1.000000
62
7
0
LINE
10
380.209991
20
7.000000
11
397.209991
21
7.000000
62
7
0
LINE
10
397.209991
20
7.000000
11
397.209991
21
24.000000
62
7
0
LINE
10
397.209991
20
24.000000
11
380.209991
21
24.000000
62
7
0
LINE
10
380.209991
20
24.000000
11
380.209991
21
7.000000
62
7
0
LINE
10
387.709991
20
15.500000
11
389.709991
21
15.500000
62
7
0
LINE
10
388.709991
20
14.500000
11
388.709991
21
16.500000
62
7
0
CIRCLE
10
402.679993
20
15.500000
40
1.000000
62
7
0
LINE
10
408.149994
20
7.000000
11
425.149994
21
7.000000
62
7
0
LINE
10
425.149994
20
7.000000
11
425.149994
21
24.000000
62
7
0
LINE
10
425.149994
20
24.000000
11
408.149994
21
24.000000
62
7
0
LINE
10
408.149994
20
24.000000
11
408.149994
21
7.000000
62
7
0
LINE
10
415.649994
20
15.500000
11
417.649994
21
15.500000
62
7
0
LINE
10
416.649994
20
14.500000
11
416.649994
21
16.500000
62
7
0
CIRCLE
10
430.619995
20
15.500000
40
1.000000
62
7
0
LINE
10
436.089996
20
7.000000
11
453.089996
21
7.000000
62
7
0
LINE
10
453.089996
20
7.000000
11
453.089996
21
24.000000
62
7
0
LINE
10
453.089996
20
24.000000
11
436.089996
21
24.000000
62
7
0
LINE
10
436.089996
20
24.000000
11
436.089996
21
7.000000
62
7
0
LINE
10
443.589996
20
15.500000
11
445.589996
21
15.500000
62
7
0
LINE
10
444.589996
20
14.500000
11
444.589996
21
16.500000
62
7
0
CIRCLE
10
458.559998
20
15.500000
40
1.000000
62
7
0
LINE
10
464.029999
20
7.000000
11
481.029999
21
7.000000
62
7
0
LINE
10
481.029999
20
7.000000
11
481.029999
21
24.000000
62
7
0
LINE
10
481.029999
20
24.000000
11
464.029999
21
24.000000
62
7
0
LINE
10
464.029999
20
24.000000
11
464.029999
21
7.000000
62
7
0
LINE
10
471.529999
20
15.500000
11
473.529999
21
15.500000
62
7
0
LINE
10
472.529999
20
14.500000
11
472.529999
21
16.500000
62
7
0
CIRCLE
10
486.500000
20
15.500000
40
1.000000
62
7
0
LINE
10
491.970001
20
7.000000
11
508.970001
21
7.000000
62
7
0
LINE
10
508.970001
20
7.000000
11
508.970001
21
24.000000
62
7
0
LINE
10
508.970001
20
24.000000
11
491.970001
21
24.000000
62
7
0
LINE
10
491.970001
20
24.000000
11
491.970001
21
7.000000
62
7
0
LINE
10
499.470001
20
15.500000
11
501.470001
21
15.500000
62
7
0
LINE
10
500.470001
20
14.500000
11
500.470001
21
16.500000
62
7
0
CIRCLE
10
514.440002
20
15.500000
40
1.000000
62
7
0
LINE
10
519.909973
20
7.000000
11
536.909973
21
7.000000
62
7
0
LINE
10
536.909973
20
7.000000
11
536.909973
21
24.000000
62
7
0
LINE
10
536.909973
20
24.000000
11
519.909973
21
24.000000
62
7
0
LINE
10
519.909973
20
24.000000
11
519.909973
21
7.000000
62
7
0
LINE
10
527.409973
20
15.500000
11
529.409973
21
15.500000
62
7
0
LINE
10
528.409973
20
14.500000
11
528.409973
21
16.500000
62
7
0
CIRCLE
10
542.380005
20
15.500000
40
1.000000
62
7
0
LINE
10
547.849976
20
7.000000
11
564.849976
21
7.000000
62
7
0
LINE
10
564.849976
20
7.000000
11
564.849976
21
24.000000
62
7
0
LINE
10
564.849976
20
24.000000
11
547.849976
21
24.000000
62
7
0
LINE
10
547.849976
20
24.000000
11
547.849976
21
7.000000
62
7
0
LINE
10
555.349976
20
15.500000
11
557.349976
21
15.500000
62
7
0
LINE
10
556.349976
20
14.500000
11
556.349976
21
16.500000
62
7
0
CIRCLE
10
570.320007
20
15.500000
40
1.000000
62
7
0
LINE
10
575.789978
20
7.000000
11
592.789978
21
7.000000
62
7
0
LINE
10
592.789978
20
7.000000
11
592.789978
21
24.000000
62
7
0
LINE
10
592.789978
20
24.000000
11
575.789978
21
24.000000
62
7
0
LINE
10
575.789978
20
24.000000
11
575.789978
21
7.000000
62
7
0
LINE
10
583.289978
20
15.500000
11
585.289978
21
15.500000
62
7
0
LINE
10
584.289978
20
14.500000
11
584.289978
21
16.500000
62
7
0
CIRCLE
10
598.260010
20
15.500000
40
1.000000
62
7
0
LINE
10
603.729980
20
7.000000
11
620.729980
21
7.000000
62
7
0
LINE
10
620.729980
20
7.000000
11
620.729980
21
24.000000
62
7
0
LINE
10
620.729980
20
24.000000
11
603.729980
21
24.000000
62
7
0
LINE
10
603.729980
20
24.000000
11
603.729980
21
7.000000
62
7
0
LINE
10
611.229980
20
15.500000
11
613.229980
21
15.500000
62
7
0
LINE
10
612.229980
20
14.500000
11
612.229980
21
16.500000
62
7
0
CIRCLE
10
626.200012
20
15.500000
40
1.000000
62
7
0
LINE
10
631.669983
20
7.000000
11
648.669983
21
7.000000
62
7
0
LINE
10
648.669983
20
7.000000
11
648.669983
21
24.000000
62
7
0
LINE
10
648.669983
20
24.000000
11
631.669983
21
24.000000
62
7
0
LINE
10
631.669983
20
24.000000
11
631.669983
21
7.000000
62
7
0
LINE
10
639.169983
20
15.500000
11
641.169983
21
15.500000
62
7
0
LINE
10
640.169983
20
14.500000
11
640.169983
21
16.500000
62
7
0
CIRCLE
10
654.140015
20
15.500000
40
1.000000
62
7
0
LINE
10
659.609985
20
7.000000
11
676.609985
21
7.000000
62
7
0
LINE
10
676.609985
20
7.000000
11
676.609985
21
24.000000
62
7
0
LINE
10
676.609985
20
24.000000
11
659.609985
21
24.000000
62
7
0
LINE
10
659.609985
20
24.000000
11
659.609985
21
7.000000
62
7
0
LINE
10
667.109985
20
15.500000
11
669.109985
21
15.500000
62
7
0
LINE
10
668.109985
20
14.500000
11
668.109985
21
16.500000
62
7
0
CIRCLE
10
682.080017
20
15.500000
40
1.000000
62
7
0
LINE
10
687.549988
20
7.000000
11
704.549988
21
7.000000
62
7
0
LINE
10
704.549988
20
7.000000
11
704.549988
21
24.000000
62
7
0
LINE
10
704.549988
20
24.000000
11
687.549988
21
24.000000
62
7
0
LINE
10
687.549988
20
24.000000
11
687.549988
21
7.000000
62
7
0
LINE
10
695.049988
20
15.500000
11
697.049988
21
15.500000
62
7
0
LINE
10
696.049988
20
14.500000
11
696.049988
21
16.500000
62
7
0
CIRCLE
10
710.020020
20
15.500000
40
1.000000
62
7
0
LINE
10
715.489990
20
7.000000
11
732.489990
21
7.000000
62
7
0
LINE
10
732.489990
20
7.000000
11
732.489990
21
24.000000
62
7
0
LINE
10
732.489990
20
24.000000
11
715.489990
21
24.000000
62
7
0
LINE
10
715.489990
20
24.000000
11
715.489990
21
7.000000
62
7
0
LINE
10
722.989990
20
15.500000
11
724.989990
21
15.500000
62
7
0
LINE
10
723.989990
20
14.500000
11
723.989990
21
16.500000
62
7
0
CIRCLE
10
737.960022
20
15.500000
40
1.000000
62
7
0
LINE
10
743.429993
20
7.000000
11
760.429993
21
7.000000
62
7
0
LINE
10
760.429993
20
7.000000
11
760.429993
21
24.000000
62
7
0
LINE
10
760.429993
20
24.000000
11
743.429993
21
24.000000
62
7
0
LINE
10
743.429993
20
24.000000
11
743.429993
21
7.000000
62
7
0
LINE
10
750.929993
20
15.500000
11
752.929993
21
15.500000
62
7
0
LINE
10
751.929993
20
14.500000
11
751.929993
21
16.500000
62
7
0
CIRCLE
10
765.900024
20
15.500000
40
1.000000
62
7
0
LINE
10
771.369995
20
7.000000
11
788.369995
21
7.000000
62
7
0
LINE
10
788.369995
20
7.000000
11
788.369995
21
24.000000
62
7
0
LINE
10
788.369995
20
24.000000
11
771.369995
21
24.000000
62
7
0
LINE
10
771.369995
20
24.000000
11
771.369995
21
7.000000
62
7
0
LINE
10
778.869995
20
15.500000
11
780.869995
21
15.500000
62
7
0
LINE
10
779.869995
20
14.500000
11
779.869995
21
16.500000
62
7
0
CIRCLE
10
793.839966
20
15.500000
40
1.000000
62
7
0
LINE
10
799.309937
20
7.000000
11
816.309937
21
7.000000
62
7
0
LINE
10
816.309937
20
7.000000
11
816.309937
21
24.000000
62
7
0
LINE
10
816.309937
20
24.000000
11
799.309937
21
24.000000
62
7
0
LINE
10
799.309937
20
24.000000
11
799.309937
21
7.000000
62
7
0
LINE
10
806.809937
20
15.500000
11
808.809937
21
15.500000
62
7
0
LINE
10
807.809937
20
14.500000
11
807.809937
21
16.500000
62
7
0
CIRCLE
10
821.780029
20
15.500000
40
1.000000
62
7
0
LINE
10
827.250000
20
7.000000
11
844.250000
21
7.000000
62
7
0
LINE
10
844.250000
20
7.000000
11
844.250000
21
24.000000
62
7
0
LINE
10
844.250000
20
24.000000
11
827.250000
21
24.000000
62
7
0
LINE
10
827.250000
20
24.000000
11
827.250000
21
7.000000
62
7
0
LINE
10
834.750000
20
15.500000
11
836.750000
21
15.500000
62
7
0
LINE
10
835.750000
20
14.500000
11
835.750000
21
16.500000
62
7
0
CIRCLE
10
849.719971
20
15.500000
40
1.000000
62
7
0
LINE
10
855.189941
20
7.000000
11
872.189941
21
7.000000
62
7
0
LINE
10
872.189941
20
7.000000
11
872.189941
21
24.000000
62
7
0
LINE
10
872.189941
20
24.000000
11
855.189941
21
24.000000
62
7
0
LINE
10
855.189941
20
24.000000
11
855.189941
21
7.000000
62
7
0
LINE
10
862.689941
20
15.500000
11
864.689941
21
15.500000
62
7
0
LINE
10
863.689941
20
14.500000
11
863.689941
21
16.500000
62
7
0
CIRCLE
10
877.660034
20
15.500000
40
1.000000
62
7
0
LINE
10
883.130005
20
7.000000
11
900.130005
21
7.000000
62
7
0
LINE
10
900.130005
20
7.000000
11
900.130005
21
24.000000
62
7
0
LINE
10
900.130005
20
24.000000
11
883.130005
21
24.000000
62
7
0
LINE
10
883.130005
20
24.000000
11
883.130005
21
7.000000
62
7
0
LINE
10
890.630005
20
15.500000
11
892.630005
21
15.500000
62
7
0
LINE
10
891.630005
20
14.500000
11
891.630005
21
16.500000
62
7
0
CIRCLE
10
905.599976
20
15.500000
40
1.000000
62
7
0
CIRCLE
10
86.500000
20
242.000000
40
1.000000
62
7
0
CIRCLE
10
186.500000
20
242.000000
40
1.000000
62
7
0
CIRCLE
10
286.500000
20
242.000000
40
1.000000
62
7
0
CIRCLE
10
386.500000
20
242.000000
40
1.000000
62
7
0
CIRCLE
10
486.500000
20
242.000000
40
1.000000
62
7
0
CIRCLE
10
586.500000
20
242.000000
40
1.000000
62
7
0
CIRCLE
10
686.500000
20
242.000000
40
1.000000
62
7
0
CIRCLE
10
786.500000
20
242.000000
40
1.000000
62
7
0
CIRCLE
10
886.500000
20
242.000000
40
1.000000
62
7
0
CIRCLE
10
60.000000
20
37.000000
40
1.000000
62
7
0
LINE
10
50.000000
20
27.000000
11
50.000000
21
0.000000
62
7
0
LINE
10
50.000000
20
0.000000
11
0.000000
21
0.000000
62
7
0
LINE
10
0.000000
20
0.000000
11
0.000000
21
27.000000
62
7
0
LINE
10
0.000000
20
27.000000
11
50.000000
21
27.000000
62
7
0
CIRCLE
10
913.000000
20
37.000000
40
1.000000
62
7
0
LINE
10
923.000000
20
27.000000
11
923.000000
21
0.000000
62
7
0
LINE
10
923.000000
20
0.000000
11
973.000000
21
0.000000
62
7
0
LINE
10
973.000000
20
0.000000
11
973.000000
21
27.000000
62
7
0
LINE
10
973.000000
20
27.000000
11
923.000000
21
27.000000
62
7
0
CIRCLE
10
60.000000
20
207.000000
40
1.000000
62
7
0
LINE
10
0.000000
20
217.000000
11
50.000000
21
217.000000
62
7
0
LINE
10
50.000000
20
217.000000
11
50.000000
21
267.000000
62
7
0
LINE
10
50.000000
20
267.000000
11
0.000000
21
267.000000
62
7
0
LINE
10
0.000000
20
267.000000
11
0.000000
21
217.000000
62
7
0
LINE
10
0.000000
20
242.000000
11
50.000000
21
242.000000
62
7
0
LINE
10
134.000000
20
226.000000
11
144.000000
21
226.000000
62
7
0
LINE
10
134.000000
20
234.000000
11
144.000000
21
234.000000
62
7
0
ARC
10
134.000000
20
230.000000
40
4.000000
50
90.000000
51
270.000000
62
7
0
ARC
10
144.000000
20
230.000000
40
4.000000
50
270.000000
51
90.000000
62
7
0
CIRCLE
10
913.000000
20
207.000000
40
1.000000
62
7
0
LINE
10
923.000000
20
217.000000
11
973.000000
21
217.000000
62
7
0
LINE
10
973.000000
20
217.000000
11
973.000000
21
267.000000
62
7
0
LINE
10
973.000000
20
267.000000
11
923.000000
21
267.000000
62
7
0
LINE
10
923.000000
20
267.000000
11
923.000000
21
217.000000
62
7
0
LINE
10
923.000000
20
242.000000
11
973.000000
21
242.000000
62
7
0
CIRCLE
10
96.500000
20
108.500000
40
2.000000
62
7
0
CIRCLE
10
96.500000
20
183.000000
40
2.000000
62
7
0
CIRCLE
10
248.000000
20
108.500000
40
2.000000
62
7
0
CIRCLE
10
248.000000
20
183.000000
40
2.000000
62
7
0
CIRCLE
10
443.000000
20
108.500000
40
2.000000
62
7
0
CIRCLE
10
443.000000
20
183.000000
40
2.000000
62
7
0
CIRCLE
10
550.000000
20
108.500000
40
2.000000
62
7
0
CIRCLE
10
550.000000
20
183.000000
40
2.000000
62
7
0
CIRCLE
10
730.000000
20
108.500000
40
2.000000
62
7
0
CIRCLE
10
730.000000
20
183.000000
40
2.000000
62
7
0
CIRCLE
10
895.000000
20
108.500000
40
2.000000
62
7
0
CIRCLE
10
895.000000
20
183.000000
40
2.000000
62
7
0
LINE
10
50.000000
20
27.000000
11
68.378952
21
27.000000
62
7
0
LINE
10
68.378952
20
27.000000
11
68.378952
21
36.000000
62
7
0
LINE
10
68.378952
20
36.000000
11
77.568428
21
36.000000
62
7
0
LINE
10
77.568428
20
36.000000
11
77.568428
21
27.000000
62
7
0
LINE
10
77.568428
20
27.000000
11
86.757904
21
27.000000
62
7
0
LINE
10
86.757904
20
27.000000
11
86.757904
21
36.000000
62
7
0
LINE
10
86.757904
20
36.000000
11
95.947380
21
36.000000
62
7
0
LINE
10
95.947380
20
36.000000
11
95.947380
21
27.000000
62
7
0
LINE
10
95.947380
20
27.000000
11
105.136856
21
27.000000
62
7
0
LINE
10
105.136856
20
27.000000
11
105.136856
21
36.000000
62
7
0
LINE
10
105.136856
20
36.000000
11
114.326332
21
36.000000
62
7
0
LINE
10
114.326332
20
36.000000
11
114.326332
21
27.000000
62
7
0
LINE
10
114.326332
20
27.000000
11
123.515808
21
27.000000
62
7
0
LINE
10
123.515808
20
27.000000
11
123.515808
21
36.000000
62
7
0
LINE
10
123.515808
20
36.000000
11
132.705276
21
36.000000
62
7
0
LINE
10
132.705276
20
36.000000
11
132.705276
21
27.000000
62
7
0
LINE
10
132.705276
20
27.000000
11
141.894745
21
27.000000
62
7
0
LINE
10
141.894745
20
27.000000
11
141.894745
21
36.000000
62
7
0
LINE
10
141.894745
20
36.000000
11
151.084213
21
36.000000
62
7
0
LINE
10
151.084213
20
36.000000
11
151.084213
21
27.000000
62
7
0
LINE
10
151.084213
20
27.000000
11
160.273682
21
27.000000
62
7
0
LINE
10
160.273682
20
27.000000
11
160.273682
21
36.000000
62
7
0
LINE
10
160.273682
20
36.000000
11
169.463150
21
36.000000
62
7
0
LINE
10
169.463150
20
36.000000
11
169.463150
21
27.000000
62
7
0
LINE
10
169.463150
20
27.000000
11
178.652618
21
27.000000
62
7
0
LINE
10
178.652618
20
27.000000
11
178.652618
21
36.000000
62
7
0
LINE
10
178.652618
20
36.000000
11
187.842087
21
36.000000
62
7
0
LINE
10
187.842087
20
36.000000
11
187.842087
21
27.000000
62
7
0
LINE
10
187.842087
20
27.000000
11
197.031555
21
27.000000
62
7
0
LINE
10
197.031555
20
27.000000
11
197.031555
21
36.000000
62
7
0
LINE
10
197.031555
20
36.000000
11
206.221024
21
36.000000
62
7
0
LINE
10
206.221024
20
36.000000
11
206.221024
21
27.000000
62
7
0
LINE
10
206.221024
20
27.000000
11
215.410492
21
27.000000
62
7
0
LINE
10
215.410492
20
27.000000
11
215.410492
21
36.000000
62
7
0
LINE
10
215.410492
20
36.000000
11
224.599960
21
36.000000
62
7
0
LINE
10
224.599960
20
36.000000
11
224.599960
21
27.000000
62
7
0
LINE
10
224.599960
20
27.000000
11
233.789429
21
27.000000
62
7
0
LINE
10
233.789429
20
27.000000
11
233.789429
21
36.000000
62
7
0
LINE
10
233.789429
20
36.000000
11
242.978897
21
36.000000
62
7
0
LINE
10
242.978897
20
36.000000
11
242.978897
21
27.000000
62
7
0
LINE
10
242.978897
20
27.000000
11
252.168365
21
27.000000
62
7
0
LINE
10
252.168365
20
27.000000
11
252.168365
21
36.000000
62
7
0
LINE
10
252.168365
20
36.000000
11
261.357849
21
36.000000
62
7
0
LINE
10
261.357849
20
36.000000
11
261.357849
21
27.000000
62
7
0
LINE
10
261.357849
20
27.000000
11
270.547333
21
27.000000
62
7
0
LINE
10
270.547333
20
27.000000
11
270.547333
21
36.000000
62
7
0
LINE
10
270.547333
20
36.000000
11
279.736816
21
36.000000
62
7
0
LINE
10
279.736816
20
36.000000
11
279.736816
21
27.000000
62
7
0
LINE
10
279.736816
20
27.000000
11
288.926300
21
27.000000
62
7
0
LINE
10
288.926300
20
27.000000
11
288.926300
21
36.000000
62
7
0
LINE
10
288.926300
20
36.000000
11
298.115784
21
36.000000
62
7
0
LINE
10
298.115784
20
36.000000
11
298.115784
21
27.000000
62
7
0
LINE
10
298.115784
20
27.000000
11
307.305267
21
27.000000
62
7
0
LINE
10
307.305267
20
27.000000
11
307.305267
21
36.000000
62
7
0
LINE
10
307.305267
20
36.000000
11
316.494751
21
36.000000
62
7
0
LINE
10
316.494751
20
36.000000
11
316.494751
21
27.000000
62
7
0
LINE
10
316.494751
20
27.000000
11
325.684235
21
27.000000
62
7
0
LINE
10
325.684235
20
27.000000
11
325.684235
21
36.000000
62
7
0
LINE
10
325.684235
20
36.000000
11
334.873718
21
36.000000
62
7
0
LINE
10
334.873718
20
36.000000
11
334.873718
21
27.000000
62
7
0
LINE
10
334.873718
20
27.000000
11
344.063202
21
27.000000
62
7
0
LINE
10
344.063202
20
27.000000
11
344.063202
21
36.000000
62
7
0
LINE
10
344.063202
20
36.000000
11
353.252686
21
36.000000
62
7
0
LINE
10
353.252686
20
36.000000
11
353.252686
21
27.000000
62
7
0
LINE
10
353.252686
20
27.000000
11
362.442169
21
27.000000
62
7
0
LINE
10
362.442169
20
27.000000
11
362.442169
21
36.000000
62
7
0
LINE
10
362.442169
20
36.000000
11
371.631653
21
36.000000
62
7
0
LINE
10
371.631653
20
36.000000
11
371.631653
21
27.000000
62
7
0
LINE
10
371.631653
20
27.000000
11
380.821136
21
27.000000
62
7
0
LINE
10
380.821136
20
27.000000
11
380.821136
21
36.000000
62
7
0
LINE
10
380.821136
20
36.000000
11
390.010620
21
36.000000
62
7
0
LINE
10
390.010620
20
36.000000
11
390.010620
21
27.000000
62
7
0
LINE
10
390.010620
20
27.000000
11
399.200104
21
27.000000
62
7
0
LINE
10
399.200104
20
27.000000
11
399.200104
21
36.000000
62
7
0
LINE
10
399.200104
20
36.000000
11
408.389587
21
36.000000
62
7
0
LINE
10
408.389587
20
36.000000
11
408.389587
21
27.000000
62
7
0
LINE
10
408.389587
20
27.000000
11
417.579071
21
27.000000
62
7
0
LINE
10
417.579071
20
27.000000
11
417.579071
21
36.000000
62
7
0
LINE
10
417.579071
20
36.000000
11
426.768555
21
36.000000
62
7
0
LINE
10
426.768555
20
36.000000
11
426.768555
21
27.000000
62
7
0
LINE
10
426.768555
20
27.000000
11
435.958038
21
27.000000
62
7
0
LINE
10
435.958038
20
27.000000
11
435.958038
21
36.000000
62
7
0
LINE
10
435.958038
20
36.000000
11
445.147522
21
36.000000
62
7
0
LINE
10
445.147522
20
36.000000
11
445.147522
21
27.000000
62
7
0
LINE
10
445.147522
20
27.000000
11
454.337006
21
27.000000
62
7
0
LINE
10
454.337006
20
27.000000
11
454.337006
21
36.000000
62
7
0
LINE
10
454.337006
20
36.000000
11
463.526489
21
36.000000
62
7
0
LINE
10
463.526489
20
36.000000
11
463.526489
21
27.000000
62
7
0
LINE
10
463.526489
20
27.000000
11
472.715973
21
27.000000
62
7
0
LINE
10
472.715973
20
27.000000
11
472.715973
21
36.000000
62
7
0
LINE
10
472.715973
20
36.000000
11
481.905457
21
36.000000
62
7
0
LINE
10
481.905457
20
36.000000
11
481.905457
21
27.000000
62
7
0
LINE
10
481.905457
20
27.000000
11
491.094940
21
27.000000
62
7
0
LINE
10
491.094940
20
27.000000
11
491.094940
21
36.000000
62
7
0
LINE
10
491.094940
20
36.000000
11
500.284424
21
36.000000
62
7
0
LINE
10
500.284424
20
36.000000
11
500.284424
21
27.000000
62
7
0
LINE
10
500.284424
20
27.000000
11
509.473907
21
27.000000
62
7
0
LINE
10
509.473907
20
27.000000
11
509.473907
21
36.000000
62
7
0
LINE
10
509.473907
20
36.000000
11
518.663391
21
36.000000
62
7
0
LINE
10
518.663391
20
36.000000
11
518.663391
21
27.000000
62
7
0
LINE
10
518.663391
20
27.000000
11
527.852844
21
27.000000
62
7
0
LINE
10
527.852844
20
27.000000
11
527.852844
21
36.000000
62
7
0
LINE
10
527.852844
20
36.000000
11
537.042297
21
36.000000
62
7
0
LINE
10
537.042297
20
36.000000
11
537.042297
21
27.000000
62
7
0
LINE
10
537.042297
20
27.000000
11
546.231750
21
27.000000
62
7
0
LINE
10
546.231750
20
27.000000
11
546.231750
21
36.000000
62
7
0
LINE
10
546.231750
20
36.000000
11
555.421204
21
36.000000
62
7
0
LINE
10
555.421204
20
36.000000
11
555.421204
21
27.000000
62
7
0
LINE
10
555.421204
20
27.000000
11
564.610657
21
27.000000
62
7
0
LINE
10
564.610657
20
27.000000
11
564.610657
21
36.000000
62
7
0
LINE
10
564.610657
20
36.000000
11
573.800110
21
36.000000
62
7
0
LINE
10
573.800110
20
36.000000
11
573.800110
21
27.000000
62
7
0
LINE
10
573.800110
20
27.000000
11
582.989563
21
27.000000
62
7
0
LINE
10
582.989563
20
27.000000
11
582.989563
21
36.000000
62
7
0
LINE
10
582.989563
20
36.000000
11
592.179016
21
36.000000
62
7
0
LINE
10
592.179016
20
36.000000
11
592.179016
21
27.000000
62
7
0
LINE
10
592.179016
20
27.000000
11
601.368469
21
27.000000
62
7
0
LINE
10
601.368469
20
27.000000
11
601.368469
21
36.000000
62
7
0
LINE
10
601.368469
20
36.000000
11
610.557922
21
36.000000
62
7
0
LINE
10
610.557922
20
36.000000
11
610.557922
21
27.000000
62
7
0
LINE
10
610.557922
20
27.000000
11
619.747375
21
27.000000
62
7
0
LINE
10
619.747375
20
27.000000
11
619.747375
21
36.000000
62
7
0
LINE
10
619.747375
20
36.000000
11
628.936829
21
36.000000
62
7
0
LINE
10
628.936829
20
36.000000
11
628.936829
21
27.000000
62
7
0
LINE
10
628.936829
20
27.000000
11
638.126282
21
27.000000
62
7
0
LINE
10
638.126282
20
27.000000
11
638.126282
21
36.000000
62
7
0
LINE
10
638.126282
20
36.000000
11
647.315735
21
36.000000
62
7
0
LINE
10
647.315735
20
36.000000
11
647.315735
21
27.000000
62
7
0
LINE
10
647.315735
20
27.000000
11
656.505188
21
27.000000
62
7
0
LINE
10
656.505188
20
27.000000
11
656.505188
21
36.000000
62
7
0
LINE
10
656.505188
20
36.000000
11
665.694641
21
36.000000
62
7
0
LINE
10
665.694641
20
36.000000
11
665.694641
21
27.000000
62
7
0
LINE
10
665.694641
20
27.000000
11
674.884094
21
27.000000
62
7
0
LINE
10
674.884094
20
27.000000
11
674.884094
21
36.000000
62
7
0
LINE
10
674.884094
20
36.000000
11
684.073547
21
36.000000
62
7
0
LINE
10
684.073547
20
36.000000
11
684.073547
21
27.000000
62
7
0
LINE
10
684.073547
20
27.000000
11
693.263000
21
27.000000
62
7
0
LINE
10
693.263000
20
27.000000
11
693.263000
21
36.000000
62
7
0
LINE
10
693.263000
20
36.000000
11
702.452454
21
36.000000
62
7
0
LINE
10
702.452454
20
36.000000
11
702.452454
21
27.000000
62
7
0
LINE
10
702.452454
20
27.000000
11
711.641907
21
27.000000
62
7
0
LINE
10
711.641907
20
27.000000
11
711.641907
21
36.000000
62
7
0
LINE
10
711.641907
20
36.000000
11
720.831360
21
36.000000
62
7
0
LINE
10
720.831360
20
36.000000
11
720.831360
21
27.000000
62
7
0
LINE
10
720.831360
20
27.000000
11
730.020813
21
27.000000
62
7
0
LINE
10
730.020813
20
27.000000
11
730.020813
21
36.000000
62
7
0
LINE
10
730.020813
20
36.000000
11
739.210266
21
36.000000
62
7
0
LINE
10
739.210266
20
36.000000
11
739.210266
21
27.000000
62
7
0
LINE
10
739.210266
20
27.000000
11
748.399719
21
27.000000
62
7
0
LINE
10
748.399719
20
27.000000
11
748.399719
21
36.000000
62
7
0
LINE
10
748.399719
20
36.000000
11
757.589172
21
36.000000
62
7
0
LINE
10
757.589172
20
36.000000
11
757.589172
21
27.000000
62
7
0
LINE
10
757.589172
20
27.000000
11
766.778625
21
27.000000
62
7
0
LINE
10
766.778625
20
27.000000
11
766.778625
21
36.000000
62
7
0
LINE
10
766.778625
20
36.000000
11
775.968079
21
36.000000
62
7
0
LINE
10
775.968079
20
36.000000
11
775.968079
21
27.000000
62
7
0
LINE
10
775.968079
20
27.000000
11
785.157532
21
27.000000
62
7
0
LINE
10
785.157532
20
27.000000
11
785.157532
21
36.000000
62
7
0
LINE
10
785.157532
20
36.000000
11
794.346985
21
36.000000
62
7
0
LINE
10
794.346985
20
36.000000
11
794.346985
21
27.000000
62
7
0
LINE
10
794.346985
20
27.000000
11
803.536438
21
27.000000
62
7
0
LINE
10
803.536438
20
27.000000
11
803.536438
21
36.000000
62
7
0
LINE
10
803.536438
20
36.000000
11
812.725891
21
36.000000
62
7
0
LINE
10
812.725891
20
36.000000
11
812.725891
21
27.000000
62
7
0
LINE
10
812.725891
20
27.000000
11
821.915344
21
27.000000
62
7
0
LINE
10
821.915344
20
27.000000
11
821.915344
21
36.000000
62
7
0
LINE
10
821.915344
20
36.000000
11
831.104797
21
36.000000
62
7
0
LINE
10
831.104797
20
36.000000
11
831.104797
21
27.000000
62
7
0
LINE
10
831.104797
20
27.000000
11
840.294250
21
27.000000
62
7
0
LINE
10
840.294250
20
27.000000
11
840.294250
21
36.000000
62
7
0
LINE
10
840.294250
20
36.000000
11
849.483704
21
36.000000
62
7
0
LINE
10
849.483704
20
36.000000
11
849.483704
21
27.000000
62
7
0
LINE
10
849.483704
20
27.000000
11
858.673157
21
27.000000
62
7
0
LINE
10
858.673157
20
27.000000
11
858.673157
21
36.000000
62
7
0
LINE
10
858.673157
20
36.000000
11
867.862610
21
36.000000
62
7
0
LINE
10
867.862610
20
36.000000
11
867.862610
21
27.000000
62
7
0
LINE
10
867.862610
20
27.000000
11
877.052063
21
27.000000
62
7
0
LINE
10
877.052063
20
27.000000
11
877.052063
21
36.000000
62
7
0
LINE
10
877.052063
20
36.000000
11
886.241516
21
36.000000
62
7
0
LINE
10
886.241516
20
36.000000
11
886.241516
21
27.000000
62
7
0
LINE
10
886.241516
20
27.000000
11
895.430969
21
27.000000
62
7
0
LINE
10
895.430969
20
27.000000
11
895.430969
21
36.000000
62
7
0
LINE
10
895.430969
20
36.000000
11
904.620422
21
36.000000
62
7
0
LINE
10
904.620422
20
36.000000
11
904.620422
21
27.000000
62
7
0
LINE
10
904.620422
20
27.000000
11
922.999329
21
27.000000
62
7
0
LINE
10
923.000000
20
27.000000
11
923.000000
21
18.000000
62
7
0
LINE
10
923.000000
20
18.000000
11
914.000000
21
18.000000
62
7
0
LINE
10
914.000000
20
18.000000
11
914.000000
21
9.000000
62
7
0
LINE
10
914.000000
20
9.000000
11
923.000000
21
9.000000
62
7
0
LINE
10
923.000000
20
9.000000
11
923.000000
21
0.000000
62
7
0
LINE
10
923.000000
20
0.000000
11
50.000000
21
0.000000
62
7
0
LINE
10
50.000000
20
0.000000
11
50.000000
21
9.000000
62
7
0
LINE
10
50.000000
20
9.000000
11
59.000000
21
9.000000
62
7
0
LINE
10
59.000000
20
9.000000
11
59.000000
21
18.000000
62
7
0
LINE
10
59.000000
20
18.000000
11
50.000000
21
18.000000
62
7
0
LINE
10
50.000000
20
18.000000
11
50.000000
21
27.000000
62
7
0
LINE
10
50.000000
20
27.000000
11
50.000000
21
47.000000
62
7
0
LINE
10
50.000000
20
47.000000
11
59.000000
21
47.000000
62
7
0
LINE
10
59.000000
20
47.000000
11
59.000000
21
57.000000
62
7
0
LINE
10
59.000000
20
57.000000
11
50.000000
21
57.000000
62
7
0
LINE
10
50.000000
20
57.000000
11
50.000000
21
67.000000
62
7
0
LINE
10
50.000000
20
67.000000
11
59.000000
21
67.000000
62
7
0
LINE
10
59.000000
20
67.000000
11
59.000000
21
77.000000
62
7
0
LINE
10
59.000000
20
77.000000
11
50.000000
21
77.000000
62
7
0
LINE
10
50.000000
20
77.000000
11
50.000000
21
87.000000
62
7
0
LINE
10
50.000000
20
87.000000
11
59.000000
21
87.000000
62
7
0
LINE
10
59.000000
20
87.000000
11
59.000000
21
97.000000
62
7
0
LINE
10
59.000000
20
97.000000
11
50.000000
21
97.000000
62
7
0
LINE
10
50.000000
20
97.000000
11
50.000000
21
107.000000
62
7
0
LINE
10
50.000000
20
107.000000
11
59.000000
21
107.000000
62
7
0
LINE
10
59.000000
20
107.000000
11
59.000000
21
117.000000
62
7
0
LINE
10
59.000000
20
117.000000
11
50.000000
21
117.000000
62
7
0
LINE
10
50.000000
20
117.000000
11
50.000000
21
127.000000
62
7
0
LINE
10
50.000000
20
127.000000
11
59.000000
21
127.000000
62
7
0
LINE
10
59.000000
20
127.000000
11
59.000000
21
137.000000
62
7
0
LINE
10
59.000000
20
137.000000
11
50.000000
21
137.000000
62
7
0
LINE
10
50.000000
20
137.000000
11
50.000000
21
147.000000
62
7
0
LINE
10
50.000000
20
147.000000
11
59.000000
21
147.000000
62
7
0
LINE
10
59.000000
20
147.000000
11
59.000000
21
157.000000
62
7
0
LINE
10
59.000000
20
157.000000
11
50.000000
21
157.000000
62
7
0
LINE
10
50.000000
20
157.000000
11
50.000000
21
167.000000
62
7
0
LINE
10
50.000000
20
167.000000
11
59.000000
21
167.000000
62
7
0
LINE
10
59.000000
20
167.000000
11
59.000000
21
177.000000
62
7
0
LINE
10
59.000000
20
177.000000
11
50.000000
21
177.000000
62
7
0
LINE
10
50.000000
20
177.000000
11
50.000000
21
187.000000
62
7
0
LINE
10
50.000000
20
187.000000
11
59.000000
21
187.000000
62
7
0
LINE
10
59.000000
20
187.000000
11
59.000000
21
197.000000
62
7
0
LINE
10
59.000000
20
197.000000
11
50.000000
21
197.000000
62
7
0
LINE
10
50.000000
20
197.000000
11
50.000000
21
217.000000
62
7
0
LINE
10
50.000000
20
217.000000
11
68.378952
21
217.000000
62
7
0
LINE
10
68.378952
20
217.000000
11
68.378952
21
208.000000
62
7
0
LINE
10
68.378952
20
208.000000
11
77.568428
21
208.000000
62
7
0
LINE
10
77.568428
20
208.000000
11
77.568428
21
217.000000
62
7
0
LINE
10
77.568428
20
217.000000
11
86.757904
21
217.000000
62
7
0
LINE
10
86.757904
20
217.000000
11
86.757904
21
208.000000
62
7
0
LINE
10
86.757904
20
208.000000
11
95.947380
21
208.000000
62
7
0
LINE
10
95.947380
20
208.000000
11
95.947380
21
217.000000
62
7
0
LINE
10
95.947380
20
217.000000
11
105.136856
21
217.000000
62
7
0
LINE
10
105.136856
20
217.000000
11
105.136856
21
208.000000
62
7
0
LINE
10
105.136856
20
208.000000
11
114.326332
21
208.000000
62
7
0
LINE
10
114.326332
20
208.000000
11
114.326332
21
217.000000
62
7
0
LINE
10
114.326332
20
217.000000
11
123.515808
21
217.000000
62
7
0
LINE
10
123.515808
20
217.000000
11
123.515808
21
208.000000
62
7
0
LINE
10
123.515808
20
208.000000
11
132.705276
21
208.000000
62
7
0
LINE
10
132.705276
20
208.000000
11
132.705276
21
217.000000
62
7
0
LINE
10
132.705276
20
217.000000
11
141.894745
21
217.000000
62
7
0
LINE
10
141.894745
20
217.000000
11
141.894745
21
208.000000
62
7
0
LINE
10
141.894745
20
208.000000
11
151.084213
21
208.000000
62
7
0
LINE
10
151.084213
20
208.000000
11
151.084213
21
217.000000
62
7
0
LINE
10
151.084213
20
217.000000
11
160.273682
21
217.000000
62
7
0
LINE
10
160.273682
20
217.000000
11
160.273682
21
208.000000
62
7
0
LINE
10
160.273682
20
208.000000
11
169.463150
21
208.000000
62
7
0
LINE
10
169.463150
20
208.000000
11
169.463150
21
217.000000
62
7
0
LINE
10
169.463150
20
217.000000
11
178.652618
21
217.000000
62
7
0
LINE
10
178.652618
20
217.000000
11
178.652618
21
208.000000
62
7
0
LINE
10
178.652618
20
208.000000
11
187.842087
21
208.000000
62
7
0
LINE
10
187.842087
20
208.000000
11
187.842087
21
217.000000
62
7
0
LINE
10
187.842087
20
217.000000
11
197.031555
21
217.000000
62
7
0
LINE
10
197.031555
20
217.000000
11
197.031555
21
208.000000
62
7
0
LINE
10
197.031555
20
208.000000
11
206.221024
21
208.000000
62
7
0
LINE
10
206.221024
20
208.000000
11
206.221024
21
217.000000
62
7
0
LINE
10
206.221024
20
217.000000
11
215.410492
21
217.000000
62
7
0
LINE
10
215.410492
20
217.000000
11
215.410492
21
208.000000
62
7
0
LINE
10
215.410492
20
208.000000
11
224.599960
21
208.000000
62
7
0
LINE
10
224.599960
20
208.000000
11
224.599960
21
217.000000
62
7
0
LINE
10
224.599960
20
217.000000
11
233.789429
21
217.000000
62
7
0
LINE
10
233.789429
20
217.000000
11
233.789429
21
208.000000
62
7
0
LINE
10
233.789429
20
208.000000
11
242.978897
21
208.000000
62
7
0
LINE
10
242.978897
20
208.000000
11
242.978897
21
217.000000
62
7
0
LINE
10
242.978897
20
217.000000
11
252.168365
21
217.000000
62
7
0
LINE
10
252.168365
20
217.000000
11
252.168365
21
208.000000
62
7
0
LINE
10
252.168365
20
208.000000
11
261.357849
21
208.000000
62
7
0
LINE
10
261.357849
20
208.000000
11
261.357849
21
217.000000
62
7
0
LINE
10
261.357849
20
217.000000
11
270.547333
21
217.000000
62
7
0
LINE
10
270.547333
20
217.000000
11
270.547333
21
208.000000
62
7
0
LINE
10
270.547333
20
208.000000
11
279.736816
21
208.000000
62
7
0
LINE
10
279.736816
20
208.000000
11
279.736816
21
217.000000
62
7
0
LINE
10
279.736816
20
217.000000
11
288.926300
21
217.000000
62
7
0
LINE
10
288.926300
20
217.000000
11
288.926300
21
208.000000
62
7
0
LINE
10
288.926300
20
208.000000
11
298.115784
21
208.000000
62
7
0
LINE
10
298.115784
20
208.000000
11
298.115784
21
217.000000
62
7
0
LINE
10
298.115784
20
217.000000
11
307.305267
21
217.000000
62
7
0
LINE
10
307.305267
20
217.000000
11
307.305267
21
208.000000
62
7
0
LINE
10
307.305267
20
208.000000
11
316.494751
21
208.000000
62
7
0
LINE
10
316.494751
20
208.000000
11
316.494751
21
217.000000
62
7
0
LINE
10
316.494751
20
217.000000
11
325.684235
21
217.000000
62
7
0
LINE
10
325.684235
20
217.000000
11
325.684235
21
208.000000
62
7
0
LINE
10
325.684235
20
208.000000
11
334.873718
21
208.000000
62
7
0
LINE
10
334.873718
20
208.000000
11
334.873718
21
217.000000
62
7
0
LINE
10
334.873718
20
217.000000
11
344.063202
21
217.000000
62
7
0
LINE
10
344.063202
20
217.000000
11
344.063202
21
208.000000
62
7
0
LINE
10
344.063202
20
208.000000
11
353.252686
21
208.000000
62
7
0
LINE
10
353.252686
20
208.000000
11
353.252686
21
217.000000
62
7
0
LINE
10
353.252686
20
217.000000
11
362.442169
21
217.000000
62
7
0
LINE
10
362.442169
20
217.000000
11
362.442169
21
208.000000
62
7
0
LINE
10
362.442169
20
208.000000
11
371.631653
21
208.000000
62
7
0
LINE
10
371.631653
20
208.000000
11
371.631653
21
217.000000
62
7
0
LINE
10
371.631653
20
217.000000
11
380.821136
21
217.000000
62
7
0
LINE
10
380.821136
20
217.000000
11
380.821136
21
208.000000
62
7
0
LINE
10
380.821136
20
208.000000
11
390.010620
21
208.000000
62
7
0
LINE
10
390.010620
20
208.000000
11
390.010620
21
217.000000
62
7
0
LINE
10
390.010620
20
217.000000
11
399.200104
21
217.000000
62
7
0
LINE
10
399.200104
20
217.000000
11
399.200104
21
208.000000
62
7
0
LINE
10
399.200104
20
208.000000
11
408.389587
21
208.000000
62
7
0
LINE
10
408.389587
20
208.000000
11
408.389587
21
217.000000
62
7
0
LINE
10
408.389587
20
217.000000
11
417.579071
21
217.000000
62
7
0
LINE
10
417.579071
20
217.000000
11
417.579071
21
208.000000
62
7
0
LINE
10
417.579071
20
208.000000
11
426.768555
21
208.000000
62
7
0
LINE
10
426.768555
20
208.000000
11
426.768555
21
217.000000
62
7
0
LINE
10
426.768555
20
217.000000
11
435.958038
21
217.000000
62
7
0
LINE
10
435.958038
20
217.000000
11
435.958038
21
208.000000
62
7
0
LINE
10
435.958038
20
208.000000
11
445.147522
21
208.000000
62
7
0
LINE
10
445.147522
20
208.000000
11
445.147522
21
217.000000
62
7
0
LINE
10
445.147522
20
217.000000
11
454.337006
21
217.000000
62
7
0
LINE
10
454.337006
20
217.000000
11
454.337006
21
208.000000
62
7
0
LINE
10
454.337006
20
208.000000
11
463.526489
21
208.000000
62
7
0
LINE
10
463.526489
20
208.000000
11
463.526489
21
217.000000
62
7
0
LINE
10
463.526489
20
217.000000
11
472.715973
21
217.000000
62
7
0
LINE
10
472.715973
20
217.000000
11
472.715973
21
208.000000
62
7
0
LINE
10
472.715973
20
208.000000
11
481.905457
21
208.000000
62
7
0
LINE
10
481.905457
20
208.000000
11
481.905457
21
217.000000
62
7
0
LINE
10
481.905457
20
217.000000
11
491.094940
21
217.000000
62
7
0
LINE
10
491.094940
20
217.000000
11
491.094940
21
208.000000
62
7
0
LINE
10
491.094940
20
208.000000
11
500.284424
21
208.000000
62
7
0
LINE
10
500.284424
20
208.000000
11
500.284424
21
217.000000
62
7
0
LINE
10
500.284424
20
217.000000
11
509.473907
21
217.000000
62
7
0
LINE
10
509.473907
20
217.000000
11
509.473907
21
208.000000
62
7
0
LINE
10
509.473907
20
208.000000
11
518.663391
21
208.000000
62
7
0
LINE
10
518.663391
20
208.000000
11
518.663391
21
217.000000
62
7
0
LINE
10
518.663391
20
217.000000
11
527.852844
21
217.000000
62
7
0
LINE
10
527.852844
20
217.000000
11
527.852844
21
208.000000
62
7
0
LINE
10
527.852844
20
208.000000
11
537.042297
21
208.000000
62
7
0
LINE
10
537.042297
20
208.000000
11
537.042297
21
217.000000
62
7
0
LINE
10
537.042297
20
217.000000
11
546.231750
21
217.000000
62
7
0
LINE
10
546.231750
20
217.000000
11
546.231750
21
208.000000
62
7
0
LINE
10
546.231750
20
208.000000
11
555.421204
21
208.000000
62
7
0
LINE
10
555.421204
20
208.000000
11
555.421204
21
217.000000
62
7
0
LINE
10
555.421204
20
217.000000
11
564.610657
21
217.000000
62
7
0
LINE
10
564.610657
20
217.000000
11
564.610657
21
208.000000
62
7
0
LINE
10
564.610657
20
208.000000
11
573.800110
21
208.000000
62
7
0
LINE
10
573.800110
20
208.000000
11
573.800110
21
217.000000
62
7
0
LINE
10
573.800110
20
217.000000
11
582.989563
21
217.000000
62
7
0
LINE
10
582.989563
20
217.000000
11
582.989563
21
208.000000
62
7
0
LINE
10
582.989563
20
208.000000
11
592.179016
21
208.000000
62
7
0
LINE
10
592.179016
20
208.000000
11
592.179016
21
217.000000
62
7
0
LINE
10
592.179016
20
217.000000
11
601.368469
21
217.000000
62
7
0
LINE
10
601.368469
20
217.000000
11
601.368469
21
208.000000
62
7
0
LINE
10
601.368469
20
208.000000
11
610.557922
21
208.000000
62
7
0
LINE
10
610.557922
20
208.000000
11
610.557922
21
217.000000
62
7
0
LINE
10
610.557922
20
217.000000
11
619.747375
21
217.000000
62
7
0
LINE
10
619.747375
20
217.000000
11
619.747375
21
208.000000
62
7
0
LINE
10
619.747375
20
208.000000
11
628.936829
21
208.000000
62
7
0
LINE
10
628.936829
20
208.000000
11
628.936829
21
217.000000
62
7
0
LINE
10
628.936829
20
217.000000
11
638.126282
21
217.000000
62
7
0
LINE
10
638.126282
20
217.000000
11
638.126282
21
208.000000
62
7
0
LINE
10
638.126282
20
208.000000
11
647.315735
21
208.000000
62
7
0
LINE
10
647.315735
20
208.000000
11
647.315735
21
217.000000
62
7
0
LINE
10
647.315735
20
217.000000
11
656.505188
21
217.000000
62
7
0
LINE
10
656.505188
20
217.000000
11
656.505188
21
208.000000
62
7
0
LINE
10
656.505188
20
208.000000
11
665.694641
21
208.000000
62
7
0
LINE
10
665.694641
20
208.000000
11
665.694641
21
217.000000
62
7
0
LINE
10
665.694641
20
217.000000
11
674.884094
21
217.000000
62
7
0
LINE
10
674.884094
20
217.000000
11
674.884094
21
208.000000
62
7
0
LINE
10
674.884094
20
208.000000
11
684.073547
21
208.000000
62
7
0
LINE
10
684.073547
20
208.000000
11
684.073547
21
217.000000
62
7
0
LINE
10
684.073547
20
217.000000
11
693.263000
21
217.000000
62
7
0
LINE
10
693.263000
20
217.000000
11
693.263000
21
208.000000
62
7
0
LINE
10
693.263000
20
208.000000
11
702.452454
21
208.000000
62
7
0
LINE
10
702.452454
20
208.000000
11
702.452454
21
217.000000
62
7
0
LINE
10
702.452454
20
217.000000
11
711.641907
21
217.000000
62
7
0
LINE
10
711.641907
20
217.000000
11
711.641907
21
208.000000
62
7
0
LINE
10
711.641907
20
208.000000
11
720.831360
21
208.000000
62
7
0
LINE
10
720.831360
20
208.000000
11
720.831360
21
217.000000
62
7
0
LINE
10
720.831360
20
217.000000
11
730.020813
21
217.000000
62
7
0
LINE
10
730.020813
20
217.000000
11
730.020813
21
208.000000
62
7
0
LINE
10
730.020813
20
208.000000
11
739.210266
21
208.000000
62
7
0
LINE
10
739.210266
20
208.000000
11
739.210266
21
217.000000
62
7
0
LINE
10
739.210266
20
217.000000
11
748.399719
21
217.000000
62
7
0
LINE
10
748.399719
20
217.000000
11
748.399719
21
208.000000
62
7
0
LINE
10
748.399719
20
208.000000
11
757.589172
21
208.000000
62
7
0
LINE
10
757.589172
20
208.000000
11
757.589172
21
217.000000
62
7
0
LINE
10
757.589172
20
217.000000
11
766.778625
21
217.000000
62
7
0
LINE
10
766.778625
20
217.000000
11
766.778625
21
208.000000
62
7
0
LINE
10
766.778625
20
208.000000
11
775.968079
21
208.000000
62
7
0
LINE
10
775.968079
20
208.000000
11
775.968079
21
217.000000
62
7
0
LINE
10
775.968079
20
217.000000
11
785.157532
21
217.000000
62
7
0
LINE
10
785.157532
20
217.000000
11
785.157532
21
208.000000
62
7
0
LINE
10
785.157532
20
208.000000
11
794.346985
21
208.000000
62
7
0
LINE
10
794.346985
20
208.000000
11
794.346985
21
217.000000
62
7
0
LINE
10
794.346985
20
217.000000
11
803.536438
21
217.000000
62
7
0
LINE
10
803.536438
20
217.000000
11
803.536438
21
208.000000
62
7
0
LINE
10
803.536438
20
208.000000
11
812.725891
21
208.000000
62
7
0
LINE
10
812.725891
20
208.000000
11
812.725891
21
217.000000
62
7
0
LINE
10
812.725891
20
217.000000
11
821.915344
21
217.000000
62
7
0
LINE
10
821.915344
20
217.000000
11
821.915344
21
208.000000
62
7
0
LINE
10
821.915344
20
208.000000
11
831.104797
21
208.000000
62
7
0
LINE
10
831.104797
20
208.000000
11
831.104797
21
217.000000
62
7
0
LINE
10
831.104797
20
217.000000
11
840.294250
21
217.000000
62
7
0
LINE
10
840.294250
20
217.000000
11
840.294250
21
208.000000
62
7
0
LINE
10
840.294250
20
208.000000
11
849.483704
21
208.000000
62
7
0
LINE
10
849.483704
20
208.000000
11
849.483704
21
217.000000
62
7
0
LINE
10
849.483704
20
217.000000
11
858.673157
21
217.000000
62
7
0
LINE
10
858.673157
20
217.000000
11
858.673157
21
208.000000
62
7
0
LINE
10
858.673157
20
208.000000
11
867.862610
21
208.000000
62
7
0
LINE
10
867.862610
20
208.000000
11
867.862610
21
217.000000
62
7
0
LINE
10
867.862610
20
217.000000
11
877.052063
21
217.000000
62
7
0
LINE
10
877.052063
20
217.000000
11
877.052063
21
208.000000
62
7
0
LINE
10
877.052063
20
208.000000
11
886.241516
21
208.000000
62
7
0
LINE
10
886.241516
20
208.000000
11
886.241516
21
217.000000
62
7
0
LINE
10
886.241516
20
217.000000
11
895.430969
21
217.000000
62
7
0
LINE
10
895.430969
20
217.000000
11
895.430969
21
208.000000
62
7
0
LINE
10
895.430969
20
208.000000
11
904.620422
21
208.000000
62
7
0
LINE
10
904.620422
20
208.000000
11
904.620422
21
217.000000
62
7
0
LINE
10
904.620422
20
217.000000
11
922.999329
21
217.000000
62
7
0
LINE
10
923.000000
20
217.000000
11
923.000000
21
197.000000
62
7
0
LINE
10
923.000000
20
197.000000
11
914.000000
21
197.000000
62
7
0
LINE
10
914.000000
20
197.000000
11
914.000000
21
187.000000
62
7
0
LINE
10
914.000000
20
187.000000
11
923.000000
21
187.000000
62
7
0
LINE
10
923.000000
20
187.000000
11
923.000000
21
177.000000
62
7
0
LINE
10
923.000000
20
177.000000
11
914.000000
21
177.000000
62
7
0
LINE
10
914.000000
20
177.000000
11
914.000000
21
167.000000
62
7
0
LINE
10
914.000000
20
167.000000
11
923.000000
21
167.000000
62
7
0
LINE
10
923.000000
20
167.000000
11
923.000000
21
157.000000
62
7
0
LINE
10
923.000000
20
157.000000
11
914.000000
21
157.000000
62
7
0
LINE
10
914.000000
20
157.000000
11
914.000000
21
147.000000
62
7
0
LINE
10
914.000000
20
147.000000
11
923.000000
21
147.000000
62
7
0
LINE
10
923.000000
20
147.000000
11
923.000000
21
137.000000
62
7
0
LINE
10
923.000000
20
137.000000
11
914.000000
21
137.000000
62
7
0
LINE
10
914.000000
20
137.000000
11
914.000000
21
127.000000
62
7
0
LINE
10
914.000000
20
127.000000
11
923.000000
21
127.000000
62
7
0
LINE
10
923.000000
20
127.000000
11
923.000000
21
117.000000
62
7
0
LINE
10
923.000000
20
117.000000
11
914.000000
21
117.000000
62
7
0
LINE
10
914.000000
20
117.000000
11
914.000000
21
107.000000
62
7
0
LINE
10
914.000000
20
107.000000
11
923.000000
21
107.000000
62
7
0
LINE
10
923.000000
20
107.000000
11
923.000000
21
97.000000
62
7
0
LINE
10
923.000000
20
97.000000
11
914.000000
21
97.000000
62
7
0
LINE
10
914.000000
20
97.000000
11
914.000000
21
87.000000
62
7
0
LINE
10
914.000000
20
87.000000
11
923.000000
21
87.000000
62
7
0
LINE
10
923.000000
20
87.000000
11
923.000000
21
77.000000
62
7
0
LINE
10
923.000000
20
77.000000
11
914.000000
21
77.000000
62
7
0
LINE
10
914.000000
20
77.000000
11
914.000000
21
67.000000
62
7
0
LINE
10
914.000000
20
67.000000
11
923.000000
21
67.000000
62
7
0
LINE
10
923.000000
20
67.000000
11
923.000000
21
57.000000
62
7
0
LINE
10
923.000000
20
57.000000
11
914.000000
21
57.000000
62
7
0
LINE
10
914.000000
20
57.000000
11
914.000000
21
47.000000
62
7
0
LINE
10
914.000000
20
47.000000
11
923.000000
21
47.000000
62
7
0
LINE
10
923.000000
20
47.000000
11
923.000000
21
27.000000
62
7
0
LINE
10
923.000000
20
36.000000
11
932.000000
21
36.000000
62
7
0
LINE
10
932.000000
20
36.000000
11
932.000000
21
27.000000
62
7
0
LINE
10
932.000000
20
27.000000
11
941.000000
21
27.000000
62
7
0
LINE
10
941.000000
20
27.000000
11
941.000000
21
36.000000
62
7
0
LINE
10
941.000000
20
36.000000
11
950.000000
21
36.000000
62
7
0
LINE
10
950.000000
20
36.000000
11
950.000000
21
27.000000
62
7
0
LINE
10
950.000000
20
27.000000
11
968.000000
21
27.000000
62
7
0
LINE
10
973.000000
20
27.000000
11
973.000000
21
172.000000
62
7
0
LINE
10
973.000000
20
172.000000
11
973.000000
21
172.000000
62
7
0
LINE
10
973.000000
20
172.000000
11
973.000000
21
208.000000
62
7
0
LINE
10
973.000000
20
208.000000
11
963.000000
21
208.000000
62
7
0
LINE
10
963.000000
20
208.000000
11
963.000000
21
217.000000
62
7
0
LINE
10
963.000000
20
217.000000
11
953.000000
21
217.000000
62
7
0
LINE
10
953.000000
20
217.000000
11
953.000000
21
208.000000
62
7
0
LINE
10
953.000000
20
208.000000
11
943.000000
21
208.000000
62
7
0
LINE
10
943.000000
20
208.000000
11
943.000000
21
217.000000
62
7
0
LINE
10
943.000000
20
217.000000
11
933.000000
21
217.000000
62
7
0
LINE
10
933.000000
20
217.000000
11
933.000000
21
208.000000
62
7
0
LINE
10
933.000000
20
208.000000
11
923.000000
21
208.000000
62
7
0
LINE
10
923.000000
20
217.000000
11
923.000000
21
227.000000
62
7
0
LINE
10
923.000000
20
227.000000
11
914.000000
21
227.000000
62
7
0
LINE
10
914.000000
20
227.000000
11
914.000000
21
237.000000
62
7
0
LINE
10
914.000000
20
237.000000
11
923.000000
21
237.000000
62
7
0
LINE
10
923.000000
20
237.000000
11
923.000000
21
247.000000
62
7
0
LINE
10
923.000000
20
247.000000
11
914.000000
21
247.000000
62
7
0
LINE
10
914.000000
20
247.000000
11
914.000000
21
257.000000
62
7
0
LINE
10
914.000000
20
257.000000
11
923.000000
21
257.000000
62
7
0
LINE
10
923.000000
20
257.000000
11
923.000000
21
267.000000
62
7
0
LINE
10
914.000000
20
360.000000
11
914.000000
21
370.000000
62
7
0
LINE
10
914.000000
20
370.000000
11
923.000000
21
370.000000
62
7
0
LINE
10
923.000000
20
370.000000
11
923.000000
21
380.000000
62
7
0
LINE
10
923.000000
20
380.000000
11
914.000000
21
380.000000
62
7
0
LINE
10
914.000000
20
380.000000
11
914.000000
21
390.000000
62
7
0
LINE
10
914.000000
20
390.000000
11
923.000000
21
390.000000
62
7
0
LINE
10
923.000000
20
390.000000
11
923.000000
21
400.000000
62
7
0
LINE
10
923.000000
20
400.000000
11
914.000000
21
400.000000
62
7
0
LINE
10
914.000000
20
400.000000
11
914.000000
21
410.000000
62
7
0
LINE
10
923.000000
20
317.000000
11
923.000000
21
334.200012
62
7
0
LINE
10
923.000000
20
334.200012
11
914.000000
21
334.200012
62
7
0
LINE
10
914.000000
20
334.200012
11
914.000000
21
342.800018
62
7
0
LINE
10
914.000000
20
342.800018
11
923.000000
21
342.800018
62
7
0
LINE
10
923.000000
20
342.800018
11
923.000000
21
360.000031
62
7
0
LINE
10
923.000000
20
360.000000
11
923.000000
21
410.000000
62
7
0
LINE
10
973.000000
20
410.000000
11
973.000000
21
317.000000
62
7
0
LINE
10
923.000000
20
267.000000
11
923.000000
21
317.000000
62
7
0
LINE
10
923.000000
20
317.000000
11
973.000000
21
317.000000
62
7
0
LINE
10
973.000000
20
317.000000
11
973.000000
21
267.000000
62
7
0
LINE
10
973.000000
20
267.000000
11
923.000000
21
267.000000
62
7
0
LINE
10
923.000000
20
317.000000
11
904.621094
21
317.000000
62
7
0
LINE
10
904.621094
20
317.000000
11
904.621094
21
326.000000
62
7
0
LINE
10
904.621094
20
326.000000
11
895.431641
21
326.000000
62
7
0
LINE
10
895.431641
20
326.000000
11
895.431641
21
317.000000
62
7
0
LINE
10
895.431641
20
317.000000
11
886.242188
21
317.000000
62
7
0
LINE
10
886.242188
20
317.000000
11
886.242188
21
326.000000
62
7
0
LINE
10
886.242188
20
326.000000
11
877.052734
21
326.000000
62
7
0
LINE
10
877.052734
20
326.000000
11
877.052734
21
317.000000
62
7
0
LINE
10
877.052734
20
317.000000
11
867.863281
21
317.000000
62
7
0
LINE
10
867.863281
20
317.000000
11
867.863281
21
326.000000
62
7
0
LINE
10
867.863281
20
326.000000
11
858.673828
21
326.000000
62
7
0
LINE
10
858.673828
20
326.000000
11
858.673828
21
317.000000
62
7
0
LINE
10
858.673828
20
317.000000
11
849.484375
21
317.000000
62
7
0
LINE
10
849.484375
20
317.000000
11
849.484375
21
326.000000
62
7
0
LINE
10
849.484375
20
326.000000
11
840.294922
21
326.000000
62
7
0
LINE
10
840.294922
20
326.000000
11
840.294922
21
317.000000
62
7
0
LINE
10
840.294922
20
317.000000
11
831.105469
21
317.000000
62
7
0
LINE
10
831.105469
20
317.000000
11
831.105469
21
326.000000
62
7
0
LINE
10
831.105469
20
326.000000
11
821.916016
21
326.000000
62
7
0
LINE
10
821.916016
20
326.000000
11
821.916016
21
317.000000
62
7
0
LINE
10
821.916016
20
317.000000
11
812.726562
21
317.000000
62
7
0
LINE
10
812.726562
20
317.000000
11
812.726562
21
326.000000
62
7
0
LINE
10
812.726562
20
326.000000
11
803.537109
21
326.000000
62
7
0
LINE
10
803.537109
20
326.000000
11
803.537109
21
317.000000
62
7
0
LINE
10
803.537109
20
317.000000
11
794.347656
21
317.000000
62
7
0
LINE
10
794.347656
20
317.000000
11
794.347656
21
326.000000
62
7
0
LINE
10
794.347656
20
326.000000
11
785.158203
21
326.000000
62
7
0
LINE
10
785.158203
20
326.000000
11
785.158203
21
317.000000
62
7
0
LINE
10
785.158203
20
317.000000
11
775.968750
21
317.000000
62
7
0
LINE
10
775.968750
20
317.000000
11
775.968750
21
326.000000
62
7
0
LINE
10
775.968750
20
326.000000
11
766.779297
21
326.000000
62
7
0
LINE
10
766.779297
20
326.000000
11
766.779297
21
317.000000
62
7
0
LINE
10
766.779297
20
317.000000
11
757.589844
21
317.000000
62
7
0
LINE
10
757.589844
20
317.000000
11
757.589844
21
326.000000
62
7
0
LINE
10
757.589844
20
326.000000
11
748.400391
21
326.000000
62
7
0
LINE
10
748.400391
20
326.000000
11
748.400391
21
317.000000
62
7
0
LINE
10
748.400391
20
317.000000
11
739.210938
21
317.000000
62
7
0
LINE
10
739.210938
20
317.000000
11
739.210938
21
326.000000
62
7
0
LINE
10
739.210938
20
326.000000
11
730.021484
21
326.000000
62
7
0
LINE
10
730.021484
20
326.000000
11
730.021484
21
317.000000
62
7
0
LINE
10
730.021484
20
317.000000
11
720.832031
21
317.000000
62
7
0
LINE
10
720.832031
20
317.000000
11
720.832031
21
326.000000
62
7
0
LINE
10
720.832031
20
326.000000
11
711.642578
21
326.000000
62
7
0
LINE
10
711.642578
20
326.000000
11
711.642578
21
317.000000
62
7
0
LINE
10
711.642578
20
317.000000
11
702.453125
21
317.000000
62
7
0
LINE
10
702.453125
20
317.000000
11
702.453125
21
326.000000
62
7
0
LINE
10
702.453125
20
326.000000
11
693.263672
21
326.000000
62
7
0
LINE
10
693.263672
20
326.000000
11
693.263672
21
317.000000
62
7
0
LINE
10
693.263672
20
317.000000
11
684.074219
21
317.000000
62
7
0
LINE
10
684.074219
20
317.000000
11
684.074219
21
326.000000
62
7
0
LINE
10
684.074219
20
326.000000
11
674.884766
21
326.000000
62
7
0
LINE
10
674.884766
20
326.000000
11
674.884766
21
317.000000
62
7
0
LINE
10
674.884766
20
317.000000
11
665.695312
21
317.000000
62
7
0
LINE
10
665.695312
20
317.000000
11
665.695312
21
326.000000
62
7
0
LINE
10
665.695312
20
326.000000
11
656.505859
21
326.000000
62
7
0
LINE
10
656.505859
20
326.000000
11
656.505859
21
317.000000
62
7
0
LINE
10
656.505859
20
317.000000
11
647.316406
21
317.000000
62
7
0
LINE
10
647.316406
20
317.000000
11
647.316406
21
326.000000
62
7
0
LINE
10
647.316406
20
326.000000
11
638.126953
21
326.000000
62
7
0
LINE
10
638.126953
20
326.000000
11
638.126953
21
317.000000
62
7
0
LINE
10
638.126953
20
317.000000
11
628.937500
21
317.000000
62
7
0
LINE
10
628.937500
20
317.000000
11
628.937500
21
326.000000
62
7
0
LINE
10
628.937500
20
326.000000
11
619.748047
21
326.000000
62
7
0
LINE
10
619.748047
20
326.000000
11
619.748047
21
317.000000
62
7
0
LINE
10
619.748047
20
317.000000
11
610.558594
21
317.000000
62
7
0
LINE
10
610.558594
20
317.000000
11
610.558594
21
326.000000
62
7
0
LINE
10
610.558594
20
326.000000
11
601.369141
21
326.000000
62
7
0
LINE
10
601.369141
20
326.000000
11
601.369141
21
317.000000
62
7
0
LINE
10
601.369141
20
317.000000
11
592.179688
21
317.000000
62
7
0
LINE
10
592.179688
20
317.000000
11
592.179688
21
326.000000
62
7
0
LINE
10
592.179688
20
326.000000
11
582.990234
21
326.000000
62
7
0
LINE
10
582.990234
20
326.000000
11
582.990234
21
317.000000
62
7
0
LINE
10
582.990234
20
317.000000
11
573.800781
21
317.000000
62
7
0
LINE
10
573.800781
20
317.000000
11
573.800781
21
326.000000
62
7
0
LINE
10
573.800781
20
326.000000
11
564.611328
21
326.000000
62
7
0
LINE
10
564.611328
20
326.000000
11
564.611328
21
317.000000
62
7
0
LINE
10
564.611328
20
317.000000
11
555.421875
21
317.000000
62
7
0
LINE
10
555.421875
20
317.000000
11
555.421875
21
326.000000
62
7
0
LINE
10
555.421875
20
326.000000
11
546.232422
21
326.000000
62
7
0
LINE
10
546.232422
20
326.000000
11
546.232422
21
317.000000
62
7
0
LINE
10
546.232422
20
317.000000
11
537.042969
21
317.000000
62
7
0
LINE
10
537.042969
20
317.000000
11
537.042969
21
326.000000
62
7
0
LINE
10
537.042969
20
326.000000
11
527.853516
21
326.000000
62
7
0
LINE
10
527.853516
20
326.000000
11
527.853516
21
317.000000
62
7
0
LINE
10
527.853516
20
317.000000
11
518.664062
21
317.000000
62
7
0
LINE
10
518.664062
20
317.000000
11
518.664062
21
326.000000
62
7
0
LINE
10
518.664062
20
326.000000
11
509.474579
21
326.000000
62
7
0
LINE
10
509.474579
20
326.000000
11
509.474579
21
317.000000
62
7
0
LINE
10
509.474579
20
317.000000
11
500.285095
21
317.000000
62
7
0
LINE
10
500.285095
20
317.000000
11
500.285095
21
326.000000
62
7
0
LINE
10
500.285095
20
326.000000
11
491.095612
21
326.000000
62
7
0
LINE
10
491.095612
20
326.000000
11
491.095612
21
317.000000
62
7
0
LINE
10
491.095612
20
317.000000
11
481.906128
21
317.000000
62
7
0
LINE
10
481.906128
20
317.000000
11
481.906128
21
326.000000
62
7
0
LINE
10
481.906128
20
326.000000
11
472.716644
21
326.000000
62
7
0
LINE
10
472.716644
20
326.000000
11
472.716644
21
317.000000
62
7
0
LINE
10
472.716644
20
317.000000
11
463.527161
21
317.000000
62
7
0
LINE
10
463.527161
20
317.000000
11
463.527161
21
326.000000
62
7
0
LINE
10
463.527161
20
326.000000
11
454.337677
21
326.000000
62
7
0
LINE
10
454.337677
20
326.000000
11
454.337677
21
317.000000
62
7
0
LINE
10
454.337677
20
317.000000
11
445.148193
21
317.000000
62
7
0
LINE
10
445.148193
20
317.000000
11
445.148193
21
326.000000
62
7
0
LINE
10
445.148193
20
326.000000
11
435.958710
21
326.000000
62
7
0
LINE
10
435.958710
20
326.000000
11
435.958710
21
317.000000
62
7
0
LINE
10
435.958710
20
317.000000
11
426.769226
21
317.000000
62
7
0
LINE
10
426.769226
20
317.000000
11
426.769226
21
326.000000
62
7
0
LINE
10
426.769226
20
326.000000
11
417.579742
21
326.000000
62
7
0
LINE
10
417.579742
20
326.000000
11
417.579742
21
317.000000
62
7
0
LINE
10
417.579742
20
317.000000
11
408.390259
21
317.000000
62
7
0
LINE
10
408.390259
20
317.000000
11
408.390259
21
326.000000
62
7
0
LINE
10
408.390259
20
326.000000
11
399.200775
21
326.000000
62
7
0
LINE
10
399.200775
20
326.000000
11
399.200775
21
317.000000
62
7
0
LINE
10
399.200775
20
317.000000
11
390.011292
21
317.000000
62
7
0
LINE
10
390.011292
20
317.000000
11
390.011292
21
326.000000
62
7
0
LINE
10
390.011292
20
326.000000
11
380.821808
21
326.000000
62
7
0
LINE
10
380.821808
20
326.000000
11
380.821808
21
317.000000
62
7
0
LINE
10
380.821808
20
317.000000
11
371.632324
21
317.000000
62
7
0
LINE
10
371.632324
20
317.000000
11
371.632324
21
326.000000
62
7
0
LINE
10
371.632324
20
326.000000
11
362.442841
21
326.000000
62
7
0
LINE
10
362.442841
20
326.000000
11
362.442841
21
317.000000
62
7
0
LINE
10
362.442841
20
317.000000
11
353.253357
21
317.000000
62
7
0
LINE
10
353.253357
20
317.000000
11
353.253357
21
326.000000
62
7
0
LINE
10
353.253357
20
326.000000
11
344.063873
21
326.000000
62
7
0
LINE
10
344.063873
20
326.000000
11
344.063873
21
317.000000
62
7
0
LINE
10
344.063873
20
317.000000
11
334.874390
21
317.000000
62
7
0
LINE
10
334.874390
20
317.000000
11
334.874390
21
326.000000
62
7
0
LINE
10
334.874390
20
326.000000
11
325.684906
21
326.000000
62
7
0
LINE
10
325.684906
20
326.000000
11
325.684906
21
317.000000
62
7
0
LINE
10
325.684906
20
317.000000
11
316.495422
21
317.000000
62
7
0
LINE
10
316.495422
20
317.000000
11
316.495422
21
326.000000
62
7
0
LINE
10
316.495422
20
326.000000
11
307.305939
21
326.000000
62
7
0
LINE
10
307.305939
20
326.000000
11
307.305939
21
317.000000
62
7
0
LINE
10
307.305939
20
317.000000
11
298.116455
21
317.000000
62
7
0
LINE
10
298.116455
20
317.000000
11
298.116455
21
326.000000
62
7
0
LINE
10
298.116455
20
326.000000
11
288.926971
21
326.000000
62
7
0
LINE
10
288.926971
20
326.000000
11
288.926971
21
317.000000
62
7
0
LINE
10
288.926971
20
317.000000
11
279.737488
21
317.000000
62
7
0
LINE
10
279.737488
20
317.000000
11
279.737488
21
326.000000
62
7
0
LINE
10
279.737488
20
326.000000
11
270.548004
21
326.000000
62
7
0
LINE
10
270.548004
20
326.000000
11
270.548004
21
317.000000
62
7
0
LINE
10
270.548004
20
317.000000
11
261.358521
21
317.000000
62
7
0
LINE
10
261.358521
20
317.000000
11
261.358521
21
326.000000
62
7
0
LINE
10
261.358521
20
326.000000
11
252.169052
21
326.000000
62
7
0
LINE
10
252.169052
20
326.000000
11
252.169052
21
317.000000
62
7
0
LINE
10
252.169052
20
317.000000
11
242.979584
21
317.000000
62
7
0
LINE
10
242.979584
20
317.000000
11
242.979584
21
326.000000
62
7
0
LINE
10
242.979584
20
326.000000
11
233.790115
21
326.000000
62
7
0
LINE
10
233.790115
20
326.000000
11
233.790115
21
317.000000
62
7
0
LINE
10
233.790115
20
317.000000
11
224.600647
21
317.000000
62
7
0
LINE
10
224.600647
20
317.000000
11
224.600647
21
326.000000
62
7
0
LINE
10
224.600647
20
326.000000
11
215.411179
21
326.000000
62
7
0
LINE
10
215.411179
20
326.000000
11
215.411179
21
317.000000
62
7
0
LINE
10
215.411179
20
317.000000
11
206.221710
21
317.000000
62
7
0
LINE
10
206.221710
20
317.000000
11
206.221710
21
326.000000
62
7
0
LINE
10
206.221710
20
326.000000
11
197.032242
21
326.000000
62
7
0
LINE
10
197.032242
20
326.000000
11
197.032242
21
317.000000
62
7
0
LINE
10
197.032242
20
317.000000
11
187.842773
21
317.000000
62
7
0
LINE
10
187.842773
20
317.000000
11
187.842773
21
326.000000
62
7
0
LINE
10
187.842773
20
326.000000
11
178.653305
21
326.000000
62
7
0
LINE
10
178.653305
20
326.000000
11
178.653305
21
317.000000
62
7
0
LINE
10
178.653305
20
317.000000
11
169.463837
21
317.000000
62
7
0
LINE
10
169.463837
20
317.000000
11
169.463837
21
326.000000
62
7
0
LINE
10
169.463837
20
326.000000
11
160.274368
21
326.000000
62
7
0
LINE
10
160.274368
20
326.000000
11
160.274368
21
317.000000
62
7
0
LINE
10
160.274368
20
317.000000
11
151.084900
21
317.000000
62
7
0
LINE
10
151.084900
20
317.000000
11
151.084900
21
326.000000
62
7
0
LINE
10
151.084900
20
326.000000
11
141.895432
21
326.000000
62
7
0
LINE
10
141.895432
20
326.000000
11
141.895432
21
317.000000
62
7
0
LINE
10
141.895432
20
317.000000
11
132.705963
21
317.000000
62
7
0
LINE
10
132.705963
20
317.000000
11
132.705963
21
326.000000
62
7
0
LINE
10
132.705963
20
326.000000
11
123.516487
21
326.000000
62
7
0
LINE
10
123.516487
20
326.000000
11
123.516487
21
317.000000
62
7
0
LINE
10
123.516487
20
317.000000
11
114.327011
21
317.000000
62
7
0
LINE
10
114.327011
20
317.000000
11
114.327011
21
326.000000
62
7
0
LINE
10
114.327011
20
326.000000
11
105.137535
21
326.000000
62
7
0
LINE
10
105.137535
20
326.000000
11
105.137535
21
317.000000
62
7
0
LINE
10
105.137535
20
317.000000
11
95.948059
21
317.000000
62
7
0
LINE
10
95.948059
20
317.000000
11
95.948059
21
326.000000
62
7
0
LINE
10
95.948059
20
326.000000
11
86.758583
21
326.000000
62
7
0
LINE
10
86.758583
20
326.000000
11
86.758583
21
317.000000
62
7
0
LINE
10
86.758583
20
317.000000
11
77.569107
21
317.000000
62
7
0
LINE
10
77.569107
20
317.000000
11
77.569107
21
326.000000
62
7
0
LINE
10
77.569107
20
326.000000
11
68.379631
21
326.000000
62
7
0
LINE
10
68.379631
20
326.000000
11
68.379631
21
317.000000
62
7
0
LINE
10
68.379631
20
317.000000
11
50.000679
21
317.000000
62
7
0
LINE
10
50.000000
20
360.000000
11
68.378952
21
360.000000
62
7
0
LINE
10
68.378952
20
360.000000
11
68.378952
21
351.000000
62
7
0
LINE
10
68.378952
20
351.000000
11
77.568428
21
351.000000
62
7
0
LINE
10
77.568428
20
351.000000
11
77.568428
21
360.000000
62
7
0
LINE
10
77.568428
20
360.000000
11
86.757904
21
360.000000
62
7
0
LINE
10
86.757904
20
360.000000
11
86.757904
21
351.000000
62
7
0
LINE
10
86.757904
20
351.000000
11
95.947380
21
351.000000
62
7
0
LINE
10
95.947380
20
351.000000
11
95.947380
21
360.000000
62
7
0
LINE
10
95.947380
20
360.000000
11
105.136856
21
360.000000
62
7
0
LINE
10
105.136856
20
360.000000
11
105.136856
21
351.000000
62
7
0
LINE
10
105.136856
20
351.000000
11
114.326332
21
351.000000
62
7
0
LINE
10
114.326332
20
351.000000
11
114.326332
21
360.000000
62
7
0
LINE
10
114.326332
20
360.000000
11
123.515808
21
360.000000
62
7
0
LINE
10
123.515808
20
360.000000
11
123.515808
21
351.000000
62
7
0
LINE
10
123.515808
20
351.000000
11
132.705276
21
351.000000
62
7
0
LINE
10
132.705276
20
351.000000
11
132.705276
21
360.000000
62
7
0
LINE
10
132.705276
20
360.000000
11
141.894745
21
360.000000
62
7
0
LINE
10
141.894745
20
360.000000
11
141.894745
21
351.000000
62
7
0
LINE
10
141.894745
20
351.000000
11
151.084213
21
351.000000
62
7
0
LINE
10
151.084213
20
351.000000
11
151.084213
21
360.000000
62
7
0
LINE
10
151.084213
20
360.000000
11
160.273682
21
360.000000
62
7
0
LINE
10
160.273682
20
360.000000
11
160.273682
21
351.000000
62
7
0
LINE
10
160.273682
20
351.000000
11
169.463150
21
351.000000
62
7
0
LINE
10
169.463150
20
351.000000
11
169.463150
21
360.000000
62
7
0
LINE
10
169.463150
20
360.000000
11
178.652618
21
360.000000
62
7
0
LINE
10
178.652618
20
360.000000
11
178.652618
21
351.000000
62
7
0
LINE
10
178.652618
20
351.000000
11
187.842087
21
351.000000
62
7
0
LINE
10
187.842087
20
351.000000
11
187.842087
21
360.000000
62
7
0
LINE
10
187.842087
20
360.000000
11
197.031555
21
360.000000
62
7
0
LINE
10
197.031555
20
360.000000
11
197.031555
21
351.000000
62
7
0
LINE
10
197.031555
20
351.000000
11
206.221024
21
351.000000
62
7
0
LINE
10
206.221024
20
351.000000
11
206.221024
21
360.000000
62
7
0
LINE
10
206.221024
20
360.000000
11
215.410492
21
360.000000
62
7
0
LINE
10
215.410492
20
360.000000
11
215.410492
21
351.000000
62
7
0
LINE
10
215.410492
20
351.000000
11
224.599960
21
351.000000
62
7
0
LINE
10
224.599960
20
351.000000
11
224.599960
21
360.000000
62
7
0
LINE
10
224.599960
20
360.000000
11
233.789429
21
360.000000
62
7
0
LINE
10
233.789429
20
360.000000
11
233.789429
21
351.000000
62
7
0
LINE
10
233.789429
20
351.000000
11
242.978897
21
351.000000
62
7
0
LINE
10
242.978897
20
351.000000
11
242.978897
21
360.000000
62
7
0
LINE
10
242.978897
20
360.000000
11
252.168365
21
360.000000
62
7
0
LINE
10
252.168365
20
360.000000
11
252.168365
21
351.000000
62
7
0
LINE
10
252.168365
20
351.000000
11
261.357849
21
351.000000
62
7
0
LINE
10
261.357849
20
351.000000
11
261.357849
21
360.000000
62
7
0
LINE
10
261.357849
20
360.000000
11
270.547333
21
360.000000
62
7
0
LINE
10
270.547333
20
360.000000
11
270.547333
21
351.000000
62
7
0
LINE
10
270.547333
20
351.000000
11
279.736816
21
351.000000
62
7
0
LINE
10
279.736816
20
351.000000
11
279.736816
21
360.000000
62
7
0
LINE
10
279.736816
20
360.000000
11
288.926300
21
360.000000
62
7
0
LINE
10
288.926300
20
360.000000
11
288.926300
21
351.000000
62
7
0
LINE
10
288.926300
20
351.000000
11
298.115784
21
351.000000
62
7
0
LINE
10
298.115784
20
351.000000
11
298.115784
21
360.000000
62
7
0
LINE
10
298.115784
20
360.000000
11
307.305267
21
360.000000
62
7
0
LINE
10
307.305267
20
360.000000
11
307.305267
21
351.000000
62
7
0
LINE
10
307.305267
20
351.000000
11
316.494751
21
351.000000
62
7
0
LINE
10
316.494751
20
351.000000
11
316.494751
21
360.000000
62
7
0
LINE
10
316.494751
20
360.000000
11
325.684235
21
360.000000
62
7
0
LINE
10
325.684235
20
360.000000
11
325.684235
21
351.000000
62
7
0
LINE
10
325.684235
20
351.000000
11
334.873718
21
351.000000
62
7
0
LINE
10
334.873718
20
351.000000
11
334.873718
21
360.000000
62
7
0
LINE
10
334.873718
20
360.000000
11
344.063202
21
360.000000
62
7
0
LINE
10
344.063202
20
360.000000
11
344.063202
21
351.000000
62
7
0
LINE
10
344.063202
20
351.000000
11
353.252686
21
351.000000
62
7
0
LINE
10
353.252686
20
351.000000
11
353.252686
21
360.000000
62
7
0
LINE
10
353.252686
20
360.000000
11
362.442169
21
360.000000
62
7
0
LINE
10
362.442169
20
360.000000
11
362.442169
21
351.000000
62
7
0
LINE
10
362.442169
20
351.000000
11
371.631653
21
351.000000
62
7
0
LINE
10
371.631653
20
351.000000
11
371.631653
21
360.000000
62
7
0
LINE
10
371.631653
20
360.000000
11
380.821136
21
360.000000
62
7
0
LINE
10
380.821136
20
360.000000
11
380.821136
21
351.000000
62
7
0
LINE
10
380.821136
20
351.000000
11
390.010620
21
351.000000
62
7
0
LINE
10
390.010620
20
351.000000
11
390.010620
21
360.000000
62
7
0
LINE
10
390.010620
20
360.000000
11
399.200104
21
360.000000
62
7
0
LINE
10
399.200104
20
360.000000
11
399.200104
21
351.000000
62
7
0
LINE
10
399.200104
20
351.000000
11
408.389587
21
351.000000
62
7
0
LINE
10
408.389587
20
351.000000
11
408.389587
21
360.000000
62
7
0
LINE
10
408.389587
20
360.000000
11
417.579071
21
360.000000
62
7
0
LINE
10
417.579071
20
360.000000
11
417.579071
21
351.000000
62
7
0
LINE
10
417.579071
20
351.000000
11
426.768555
21
351.000000
62
7
0
LINE
10
426.768555
20
351.000000
11
426.768555
21
360.000000
62
7
0
LINE
10
426.768555
20
360.000000
11
435.958038
21
360.000000
62
7
0
LINE
10
435.958038
20
360.000000
11
435.958038
21
351.000000
62
7
0
LINE
10
435.958038
20
351.000000
11
445.147522
21
351.000000
62
7
0
LINE
10
445.147522
20
351.000000
11
445.147522
21
360.000000
62
7
0
LINE
10
445.147522
20
360.000000
11
454.337006
21
360.000000
62
7
0
LINE
10
454.337006
20
360.000000
11
454.337006
21
351.000000
62
7
0
LINE
10
454.337006
20
351.000000
11
463.526489
21
351.000000
62
7
0
LINE
10
463.526489
20
351.000000
11
463.526489
21
360.000000
62
7
0
LINE
10
463.526489
20
360.000000
11
472.715973
21
360.000000
62
7
0
LINE
10
472.715973
20
360.000000
11
472.715973
21
351.000000
62
7
0
LINE
10
472.715973
20
351.000000
11
481.905457
21
351.000000
62
7
0
LINE
10
481.905457
20
351.000000
11
481.905457
21
360.000000
62
7
0
LINE
10
481.905457
20
360.000000
11
491.094940
21
360.000000
62
7
0
LINE
10
491.094940
20
360.000000
11
491.094940
21
351.000000
62
7
0
LINE
10
491.094940
20
351.000000
11
500.284424
21
351.000000
62
7
0
LINE
10
500.284424
20
351.000000
11
500.284424
21
360.000000
62
7
0
LINE
10
500.284424
20
360.000000
11
509.473907
21
360.000000
62
7
0
LINE
10
509.473907
20
360.000000
11
509.473907
21
351.000000
62
7
0
LINE
10
509.473907
20
351.000000
11
518.663391
21
351.000000
62
7
0
LINE
10
518.663391
20
351.000000
11
518.663391
21
360.000000
62
7
0
LINE
10
518.663391
20
360.000000
11
527.852844
21
360.000000
62
7
0
LINE
10
527.852844
20
360.000000
11
527.852844
21
351.000000
62
7
0
LINE
10
527.852844
20
351.000000
11
537.042297
21
351.000000
62
7
0
LINE
10
537.042297
20
351.000000
11
537.042297
21
360.000000
62
7
0
LINE
10
537.042297
20
360.000000
11
546.231750
21
360.000000
62
7
0
LINE
10
546.231750
20
360.000000
11
546.231750
21
351.000000
62
7
0
LINE
10
546.231750
20
351.000000
11
555.421204
21
351.000000
62
7
0
LINE
10
555.421204
20
351.000000
11
555.421204
21
360.000000
62
7
0
LINE
10
555.421204
20
360.000000
11
564.610657
21
360.000000
62
7
0
LINE
10
564.610657
20
360.000000
11
564.610657
21
351.000000
62
7
0
LINE
10
564.610657
20
351.000000
11
573.800110
21
351.000000
62
7
0
LINE
10
573.800110
20
351.000000
11
573.800110
21
360.000000
62
7
0
LINE
10
573.800110
20
360.000000
11
582.989563
21
360.000000
62
7
0
LINE
10
582.989563
20
360.000000
11
582.989563
21
351.000000
62
7
0
LINE
10
582.989563
20
351.000000
11
592.179016
21
351.000000
62
7
0
LINE
10
592.179016
20
351.000000
11
592.179016
21
360.000000
62
7
0
LINE
10
592.179016
20
360.000000
11
601.368469
21
360.000000
62
7
0
LINE
10
601.368469
20
360.000000
11
601.368469
21
351.000000
62
7
0
LINE
10
601.368469
20
351.000000
11
610.557922
21
351.000000
62
7
0
LINE
10
610.557922
20
351.000000
11
610.557922
21
360.000000
62
7
0
LINE
10
610.557922
20
360.000000
11
619.747375
21
360.000000
62
7
0
LINE
10
619.747375
20
360.000000
11
619.747375
21
351.000000
62
7
0
LINE
10
619.747375
20
351.000000
11
628.936829
21
351.000000
62
7
0
LINE
10
628.936829
20
351.000000
11
628.936829
21
360.000000
62
7
0
LINE
10
628.936829
20
360.000000
11
638.126282
21
360.000000
62
7
0
LINE
10
638.126282
20
360.000000
11
638.126282
21
351.000000
62
7
0
LINE
10
638.126282
20
351.000000
11
647.315735
21
351.000000
62
7
0
LINE
10
647.315735
20
351.000000
11
647.315735
21
360.000000
62
7
0
LINE
10
647.315735
20
360.000000
11
656.505188
21
360.000000
62
7
0
LINE
10
656.505188
20
360.000000
11
656.505188
21
351.000000
62
7
0
LINE
10
656.505188
20
351.000000
11
665.694641
21
351.000000
62
7
0
LINE
10
665.694641
20
351.000000
11
665.694641
21
360.000000
62
7
0
LINE
10
665.694641
20
360.000000
11
674.884094
21
360.000000
62
7
0
LINE
10
674.884094
20
360.000000
11
674.884094
21
351.000000
62
7
0
LINE
10
674.884094
20
351.000000
11
684.073547
21
351.000000
62
7
0
LINE
10
684.073547
20
351.000000
11
684.073547
21
360.000000
62
7
0
LINE
10
684.073547
20
360.000000
11
693.263000
21
360.000000
62
7
0
LINE
10
693.263000
20
360.000000
11
693.263000
21
351.000000
62
7
0
LINE
10
693.263000
20
351.000000
11
702.452454
21
351.000000
62
7
0
LINE
10
702.452454
20
351.000000
11
702.452454
21
360.000000
62
7
0
LINE
10
702.452454
20
360.000000
11
711.641907
21
360.000000
62
7
0
LINE
10
711.641907
20
360.000000
11
711.641907
21
351.000000
62
7
0
LINE
10
711.641907
20
351.000000
11
720.831360
21
351.000000
62
7
0
LINE
10
720.831360
20
351.000000
11
720.831360
21
360.000000
62
7
0
LINE
10
720.831360
20
360.000000
11
730.020813
21
360.000000
62
7
0
LINE
10
730.020813
20
360.000000
11
730.020813
21
351.000000
62
7
0
LINE
10
730.020813
20
351.000000
11
739.210266
21
351.000000
62
7
0
LINE
10
739.210266
20
351.000000
11
739.210266
21
360.000000
62
7
0
LINE
10
739.210266
20
360.000000
11
748.399719
21
360.000000
62
7
0
LINE
10
748.399719
20
360.000000
11
748.399719
21
351.000000
62
7
0
LINE
10
748.399719
20
351.000000
11
757.589172
21
351.000000
62
7
0
LINE
10
757.589172
20
351.000000
11
757.589172
21
360.000000
62
7
0
LINE
10
757.589172
20
360.000000
11
766.778625
21
360.000000
62
7
0
LINE
10
766.778625
20
360.000000
11
766.778625
21
351.000000
62
7
0
LINE
10
766.778625
20
351.000000
11
775.968079
21
351.000000
62
7
0
LINE
10
775.968079
20
351.000000
11
775.968079
21
360.000000
62
7
0
LINE
10
775.968079
20
360.000000
11
785.157532
21
360.000000
62
7
0
LINE
10
785.157532
20
360.000000
11
785.157532
21
351.000000
62
7
0
LINE
10
785.157532
20
351.000000
11
794.346985
21
351.000000
62
7
0
LINE
10
794.346985
20
351.000000
11
794.346985
21
360.000000
62
7
0
LINE
10
794.346985
20
360.000000
11
803.536438
21
360.000000
62
7
0
LINE
10
803.536438
20
360.000000
11
803.536438
21
351.000000
62
7
0
LINE
10
803.536438
20
351.000000
11
812.725891
21
351.000000
62
7
0
LINE
10
812.725891
20
351.000000
11
812.725891
21
360.000000
62
7
0
LINE
10
812.725891
20
360.000000
11
821.915344
21
360.000000
62
7
0
LINE
10
821.915344
20
360.000000
11
821.915344
21
351.000000
62
7
0
LINE
10
821.915344
20
351.000000
11
831.104797
21
351.000000
62
7
0
LINE
10
831.104797
20
351.000000
11
831.104797
21
360.000000
62
7
0
LINE
10
831.104797
20
360.000000
11
840.294250
21
360.000000
62
7
0
LINE
10
840.294250
20
360.000000
11
840.294250
21
351.000000
62
7
0
LINE
10
840.294250
20
351.000000
11
849.483704
21
351.000000
62
7
0
LINE
10
849.483704
20
351.000000
11
849.483704
21
360.000000
62
7
0
LINE
10
849.483704
20
360.000000
11
858.673157
21
360.000000
62
7
0
LINE
10
858.673157
20
360.000000
11
858.673157
21
351.000000
62
7
0
LINE
10
858.673157
20
351.000000
11
867.862610
21
351.000000
62
7
0
LINE
10
867.862610
20
351.000000
11
867.862610
21
360.000000
62
7
0
LINE
10
867.862610
20
360.000000
11
877.052063
21
360.000000
62
7
0
LINE
10
877.052063
20
360.000000
11
877.052063
21
351.000000
62
7
0
LINE
10
877.052063
20
351.000000
11
886.241516
21
351.000000
62
7
0
LINE
10
886.241516
20
351.000000
11
886.241516
21
360.000000
62
7
0
LINE
10
886.241516
20
360.000000
11
895.430969
21
360.000000
62
7
0
LINE
10
895.430969
20
360.000000
11
895.430969
21
351.000000
62
7
0
LINE
10
895.430969
20
351.000000
11
904.620422
21
351.000000
62
7
0
LINE
10
904.620422
20
351.000000
11
904.620422
21
360.000000
62
7
0
LINE
10
904.620422
20
360.000000
11
922.999329
21
360.000000
62
7
0
LINE
10
973.000000
20
410.000000
11
0.000000
21
410.000000
62
7
0
LINE
10
59.000000
20
360.000000
11
59.000000
21
370.000000
62
7
0
LINE
10
59.000000
20
370.000000
11
50.000000
21
370.000000
62
7
0
LINE
10
50.000000
20
370.000000
11
50.000000
21
380.000000
62
7
0
LINE
10
50.000000
20
380.000000
11
59.000000
21
380.000000
62
7
0
LINE
10
59.000000
20
380.000000
11
59.000000
21
390.000000
62
7
0
LINE
10
59.000000
20
390.000000
11
50.000000
21
390.000000
62
7
0
LINE
10
50.000000
20
390.000000
11
50.000000
21
400.000000
62
7
0
LINE
10
50.000000
20
400.000000
11
59.000000
21
400.000000
62
7
0
LINE
10
59.000000
20
400.000000
11
59.000000
21
410.000000
62
7
0
LINE
10
50.000000
20
317.000000
11
50.000000
21
334.200012
62
7
0
LINE
10
50.000000
20
334.200012
11
59.000000
21
334.200012
62
7
0
LINE
10
59.000000
20
334.200012
11
59.000000
21
342.800018
62
7
0
LINE
10
59.000000
20
342.800018
11
50.000000
21
342.800018
62
7
0
LINE
10
50.000000
20
342.800018
11
50.000000
21
360.000031
62
7
0
LINE
10
50.000000
20
360.000000
11
50.000000
21
410.000000
62
7
0
LINE
10
0.000000
20
410.000000
11
0.000000
21
317.000000
62
7
0
LINE
10
50.000000
20
267.000000
11
50.000000
21
317.000000
62
7
0
LINE
10
50.000000
20
317.000000
11
0.000000
21
317.000000
62
7
0
LINE
10
0.000000
20
317.000000
11
0.000000
21
267.000000
62
7
0
LINE
10
0.000000
20
267.000000
11
50.000000
21
267.000000
62
7
0
LINE
10
50.000000
20
317.000000
11
40.000000
21
317.000000
62
7
0
LINE
10
40.000000
20
317.000000
11
40.000000
21
326.000000
62
7
0
LINE
10
40.000000
20
326.000000
11
30.000000
21
326.000000
62
7
0
LINE
10
30.000000
20
326.000000
11
30.000000
21
317.000000
62
7
0
LINE
10
30.000000
20
317.000000
11
20.000000
21
317.000000
62
7
0
LINE
10
20.000000
20
317.000000
11
20.000000
21
326.000000
62
7
0
LINE
10
20.000000
20
326.000000
11
10.000000
21
326.000000
62
7
0
LINE
10
10.000000
20
326.000000
11
10.000000
21
317.000000
62
7
0
LINE
10
10.000000
20
317.000000
11
0.000000
21
317.000000
62
7
0
LINE
10
50.000000
20
351.000000
11
0.000000
21
351.000000
62
7
0
LINE
10
50.000000
20
376.000000
11
0.000000
21
376.000000
62
7
0
LINE
10
50.000000
20
385.000000
11
0.000000
21
385.000000
62
7
0
LINE
10
20.500000
20
410.000000
11
20.500000
21
405.000000
62
7
0
LINE
10
20.500000
20
405.000000
11
29.500000
21
405.000000
62
7
0
LINE
10
29.500000
20
405.000000
11
29.500000
21
400.000000
62
7
0
LINE
10
29.500000
20
400.000000
11
20.500000
21
400.000000
62
7
0
LINE
10
20.500000
20
400.000000
11
20.500000
21
395.000000
62
7
0
LINE
10
20.500000
20
395.000000
11
29.500000
21
395.000000
62
7
0
LINE
10
29.500000
20
395.000000
11
29.500000
21
390.000000
62
7
0
LINE
10
29.500000
20
390.000000
11
20.500000
21
390.000000
62
7
0
LINE
10
20.500000
20
390.000000
11
20.500000
21
385.000000
62
7
0
LINE
10
144.309998
20
395.000000
11
144.309998
21
375.000000
62
7
0
LINE
10
144.309998
20
375.000000
11
68.309998
21
375.000000
62
7
0
LINE
10
68.309998
20
375.000000
11
68.309998
21
395.000000
62
7
0
LINE
10
68.309998
20
395.000000
11
144.309998
21
395.000000
62
7
0
CIRCLE
10
148.309998
20
395.000000
40
1.000000
62
7
0
CIRCLE
10
64.309998
20
395.000000
40
1.000000
62
7
0
CIRCLE
10
64.309998
20
375.000000
40
1.000000
62
7
0
CIRCLE
10
148.309998
20
375.000000
40
1.000000
62
7
0
LINE
10
227.130005
20
397.500000
11
227.130005
21
372.500000
62
7
0
LINE
10
227.130005
20
372.500000
11
155.130005
21
372.500000
62
7
0
LINE
10
155.130005
20
372.500000
11
155.130005
21
397.500000
62
7
0
LINE
10
155.130005
20
397.500000
11
227.130005
21
397.500000
62
7
0
CIRCLE
10
228.630005
20
400.500000
40
1.000000
62
7
0
CIRCLE
10
153.630005
20
400.500000
40
1.000000
62
7
0
CIRCLE
10
153.630005
20
369.500000
40
1.000000
62
7
0
CIRCLE
10
228.630005
20
369.500000
40
1.000000
62
7
0
CIRCLE
10
235.039993
20
385.000000
40
1.000000
62
7
0
LINE
10
240.509995
20
376.500000
11
257.510010
21
376.500000
62
7
0
LINE
10
257.510010
20
376.500000
11
257.510010
21
393.500000
62
7
0
LINE
10
257.510010
20
393.500000
11
240.509995
21
393.500000
62
7
0
LINE
10
240.509995
20
393.500000
11
240.509995
21
376.500000
62
7
0
LINE
10
248.009995
20
385.000000
11
250.009995
21
385.000000
62
7
0
LINE
10
249.009995
20
384.000000
11
249.009995
21
386.000000
62
7
0
CIRCLE
10
262.979980
20
385.000000
40
1.000000
62
7
0
LINE
10
268.449982
20
376.500000
11
285.449982
21
376.500000
62
7
0
LINE
10
285.449982
20
376.500000
11
285.449982
21
393.500000
62
7
0
LINE
10
285.449982
20
393.500000
11
268.449982
21
393.500000
62
7
0
LINE
10
268.449982
20
393.500000
11
268.449982
21
376.500000
62
7
0
LINE
10
275.949982
20
385.000000
11
277.949982
21
385.000000
62
7
0
LINE
10
276.949982
20
384.000000
11
276.949982
21
386.000000
62
7
0
CIRCLE
10
290.919983
20
385.000000
40
1.000000
62
7
0
LINE
10
296.389984
20
376.500000
11
313.389984
21
376.500000
62
7
0
LINE
10
313.389984
20
376.500000
11
313.389984
21
393.500000
62
7
0
LINE
10
313.389984
20
393.500000
11
296.389984
21
393.500000
62
7
0
LINE
10
296.389984
20
393.500000
11
296.389984
21
376.500000
62
7
0
LINE
10
303.889984
20
385.000000
11
305.889984
21
385.000000
62
7
0
LINE
10
304.889984
20
384.000000
11
304.889984
21
386.000000
62
7
0
CIRCLE
10
318.859985
20
385.000000
40
1.000000
62
7
0
LINE
10
324.329987
20
376.500000
11
341.329987
21
376.500000
62
7
0
LINE
10
341.329987
20
376.500000
11
341.329987
21
393.500000
62
7
0
LINE
10
341.329987
20
393.500000
11
324.329987
21
393.500000
62
7
0
LINE
10
324.329987
20
393.500000
11
324.329987
21
376.500000
62
7
0
LINE
10
331.829987
20
385.000000
11
333.829987
21
385.000000
62
7
0
LINE
10
332.829987
20
384.000000
11
332.829987
21
386.000000
62
7
0
CIRCLE
10
346.799988
20
385.000000
40
1.000000
62
7
0
LINE
10
352.269989
20
376.500000
11
369.269989
21
376.500000
62
7
0
LINE
10
369.269989
20
376.500000
11
369.269989
21
393.500000
62
7
0
LINE
10
369.269989
20
393.500000
11
352.269989
21
393.500000
62
7
0
LINE
10
352.269989
20
393.500000
11
352.269989
21
376.500000
62
7
0
LINE
10
359.769989
20
385.000000
11
361.769989
21
385.000000
62
7
0
LINE
10
360.769989
20
384.000000
11
360.769989
21
386.000000
62
7
0
CIRCLE
10
374.739990
20
385.000000
40
1.000000
62
7
0
LINE
10
380.209991
20
376.500000
11
397.209991
21
376.500000
62
7
0
LINE
10
397.209991
20
376.500000
11
397.209991
21
393.500000
62
7
0
LINE
10
397.209991
20
393.500000
11
380.209991
21
393.500000
62
7
0
LINE
10
380.209991
20
393.500000
11
380.209991
21
376.500000
62
7
0
LINE
10
387.709991
20
385.000000
11
389.709991
21
385.000000
62
7
0
LINE
10
388.709991
20
384.000000
11
388.709991
21
386.000000
62
7
0
CIRCLE
10
402.679993
20
385.000000
40
1.000000
62
7
0
LINE
10
408.149994
20
376.500000
11
425.149994
21
376.500000
62
7
0
LINE
10
425.149994
20
376.500000
11
425.149994
21
393.500000
62
7
0
LINE
10
425.149994
20
393.500000
11
408.149994
21
393.500000
62
7
0
LINE
10
408.149994
20
393.500000
11
408.149994
21
376.500000
62
7
0
LINE
10
415.649994
20
385.000000
11
417.649994
21
385.000000
62
7
0
LINE
10
416.649994
20
384.000000
11
416.649994
21
386.000000
62
7
0
CIRCLE
10
430.619995
20
385.000000
40
1.000000
62
7
0
LINE
10
436.089996
20
376.500000
11
453.089996
21
376.500000
62
7
0
LINE
10
453.089996
20
376.500000
11
453.089996
21
393.500000
62
7
0
LINE
10
453.089996
20
393.500000
11
436.089996
21
393.500000
62
7
0
LINE
10
436.089996
20
393.500000
11
436.089996
21
376.500000
62
7
0
LINE
10
443.589996
20
385.000000
11
445.589996
21
385.000000
62
7
0
LINE
10
444.589996
20
384.000000
11
444.589996
21
386.000000
62
7
0
CIRCLE
10
458.559998
20
385.000000
40
1.000000
62
7
0
LINE
10
464.029999
20
376.500000
11
481.029999
21
376.500000
62
7
0
LINE
10
481.029999
20
376.500000
11
481.029999
21
393.500000
62
7
0
LINE
10
481.029999
20
393.500000
11
464.029999
21
393.500000
62
7
0
LINE
10
464.029999
20
393.500000
11
464.029999
21
376.500000
62
7
0
LINE
10
471.529999
20
385.000000
11
473.529999
21
385.000000
62
7
0
LINE
10
472.529999
20
384.000000
11
472.529999
21
386.000000
62
7
0
CIRCLE
10
486.500000
20
385.000000
40
1.000000
62
7
0
LINE
10
491.970001
20
376.500000
11
508.970001
21
376.500000
62
7
0
LINE
10
508.970001
20
376.500000
11
508.970001
21
393.500000
62
7
0
LINE
10
508.970001
20
393.500000
11
491.970001
21
393.500000
62
7
0
LINE
10
491.970001
20
393.500000
11
491.970001
21
376.500000
62
7
0
LINE
10
499.470001
20
385.000000
11
501.470001
21
385.000000
62
7
0
LINE
10
500.470001
20
384.000000
11
500.470001
21
386.000000
62
7
0
CIRCLE
10
514.440002
20
385.000000
40
1.000000
62
7
0
LINE
10
519.909973
20
376.500000
11
536.909973
21
376.500000
62
7
0
LINE
10
536.909973
20
376.500000
11
536.909973
21
393.500000
62
7
0
LINE
10
536.909973
20
393.500000
11
519.909973
21
393.500000
62
7
0
LINE
10
519.909973
20
393.500000
11
519.909973
21
376.500000
62
7
0
LINE
10
527.409973
20
385.000000
11
529.409973
21
385.000000
62
7
0
LINE
10
528.409973
20
384.000000
11
528.409973
21
386.000000
62
7
0
CIRCLE
10
542.380005
20
385.000000
40
1.000000
62
7
0
LINE
10
547.849976
20
376.500000
11
564.849976
21
376.500000
62
7
0
LINE
10
564.849976
20
376.500000
11
564.849976
21
393.500000
62
7
0
LINE
10
564.849976
20
393.500000
11
547.849976
21
393.500000
62
7
0
LINE
10
547.849976
20
393.500000
11
547.849976
21
376.500000
62
7
0
LINE
10
555.349976
20
385.000000
11
557.349976
21
385.000000
62
7
0
LINE
10
556.349976
20
384.000000
11
556.349976
21
386.000000
62
7
0
CIRCLE
10
570.320007
20
385.000000
40
1.000000
62
7
0
LINE
10
575.789978
20
376.500000
11
592.789978
21
376.500000
62
7
0
LINE
10
592.789978
20
376.500000
11
592.789978
21
393.500000
62
7
0
LINE
10
592.789978
20
393.500000
11
575.789978
21
393.500000
62
7
0
LINE
10
575.789978
20
393.500000
11
575.789978
21
376.500000
62
7
0
LINE
10
583.289978
20
385.000000
11
585.289978
21
385.000000
62
7
0
LINE
10
584.289978
20
384.000000
11
584.289978
21
386.000000
62
7
0
CIRCLE
10
598.260010
20
385.000000
40
1.000000
62
7
0
LINE
10
603.729980
20
376.500000
11
620.729980
21
376.500000
62
7
0
LINE
10
620.729980
20
376.500000
11
620.729980
21
393.500000
62
7
0
LINE
10
620.729980
20
393.500000
11
603.729980
21
393.500000
62
7
0
LINE
10
603.729980
20
393.500000
11
603.729980
21
376.500000
62
7
0
LINE
10
611.229980
20
385.000000
11
613.229980
21
385.000000
62
7
0
LINE
10
612.229980
20
384.000000
11
612.229980
21
386.000000
62
7
0
CIRCLE
10
626.200012
20
385.000000
40
1.000000
62
7
0
LINE
10
631.669983
20
376.500000
11
648.669983
21
376.500000
62
7
0
LINE
10
648.669983
20
376.500000
11
648.669983
21
393.500000
62
7
0
LINE
10
648.669983
20
393.500000
11
631.669983
21
393.500000
62
7
0
LINE
10
631.669983
20
393.500000
11
631.669983
21
376.500000
62
7
0
LINE
10
639.169983
20
385.000000
11
641.169983
21
385.000000
62
7
0
LINE
10
640.169983
20
384.000000
11
640.169983
21
386.000000
62
7
0
CIRCLE
10
654.140015
20
385.000000
40
1.000000
62
7
0
LINE
10
659.609985
20
376.500000
11
676.609985
21
376.500000
62
7
0
LINE
10
676.609985
20
376.500000
11
676.609985
21
393.500000
62
7
0
LINE
10
676.609985
20
393.500000
11
659.609985
21
393.500000
62
7
0
LINE
10
659.609985
20
393.500000
11
659.609985
21
376.500000
62
7
0
LINE
10
667.109985
20
385.000000
11
669.109985
21
385.000000
62
7
0
LINE
10
668.109985
20
384.000000
11
668.109985
21
386.000000
62
7
0
CIRCLE
10
682.080017
20
385.000000
40
1.000000
62
7
0
LINE
10
687.549988
20
376.500000
11
704.549988
21
376.500000
62
7
0
LINE
10
704.549988
20
376.500000
11
704.549988
21
393.500000
62
7
0
LINE
10
704.549988
20
393.500000
11
687.549988
21
393.500000
62
7
0
LINE
10
687.549988
20
393.500000
11
687.549988
21
376.500000
62
7
0
LINE
10
695.049988
20
385.000000
11
697.049988
21
385.000000
62
7
0
LINE
10
696.049988
20
384.000000
11
696.049988
21
386.000000
62
7
0
CIRCLE
10
710.020020
20
385.000000
40
1.000000
62
7
0
LINE
10
715.489990
20
376.500000
11
732.489990
21
376.500000
62
7
0
LINE
10
732.489990
20
376.500000
11
732.489990
21
393.500000
62
7
0
LINE
10
732.489990
20
393.500000
11
715.489990
21
393.500000
62
7
0
LINE
10
715.489990
20
393.500000
11
715.489990
21
376.500000
62
7
0
LINE
10
722.989990
20
385.000000
11
724.989990
21
385.000000
62
7
0
LINE
10
723.989990
20
384.000000
11
723.989990
21
386.000000
62
7
0
CIRCLE
10
737.959961
20
385.000000
40
1.000000
62
7
0
LINE
10
818.869995
20
397.500000
11
818.869995
21
372.500000
62
7
0
LINE
10
818.869995
20
372.500000
11
746.869995
21
372.500000
62
7
0
LINE
10
746.869995
20
372.500000
11
746.869995
21
397.500000
62
7
0
LINE
10
746.869995
20
397.500000
11
818.869995
21
397.500000
62
7
0
CIRCLE
10
820.369995
20
400.500000
40
1.000000
62
7
0
CIRCLE
10
745.369995
20
400.500000
40
1.000000
62
7
0
CIRCLE
10
745.369995
20
369.500000
40
1.000000
62
7
0
CIRCLE
10
820.369995
20
369.500000
40
1.000000
62
7
0
LINE
10
902.689941
20
397.500000
11
902.689941
21
372.500000
62
7
0
LINE
10
902.689941
20
372.500000
11
830.689941
21
372.500000
62
7
0
LINE
10
830.689941
20
372.500000
11
830.689941
21
397.500000
62
7
0
LINE
10
830.689941
20
397.500000
11
902.689941
21
397.500000
62
7
0
CIRCLE
10
904.189941
20
400.500000
40
1.000000
62
7
0
CIRCLE
10
829.189941
20
400.500000
40
1.000000
62
7
0
CIRCLE
10
829.189941
20
369.500000
40
1.000000
62
7
0
CIRCLE
10
904.189941
20
369.500000
40
1.000000
62
7
0
LINE
10
923.000000
20
317.000000
11
933.000000
21
317.000000
62
7
0
LINE
10
933.000000
20
317.000000
11
933.000000
21
326.000000
62
7
0
LINE
10
933.000000
20
326.000000
11
943.000000
21
326.000000
62
7
0
LINE
10
943.000000
20
326.000000
11
943.000000
21
317.000000
62
7
0
LINE
10
943.000000
20
317.000000
11
953.000000
21
317.000000
62
7
0
LINE
10
953.000000
20
317.000000
11
953.000000
21
326.000000
62
7
0
LINE
10
953.000000
20
326.000000
11
963.000000
21
326.000000
62
7
0
LINE
10
963.000000
20
326.000000
11
963.000000
21
317.000000
62
7
0
LINE
10
963.000000
20
317.000000
11
973.000000
21
317.000000
62
7
0
LINE
10
923.000000
20
351.000000
11
973.000000
21
351.000000
62
7
0
LINE
10
923.000000
20
376.000000
11
973.000000
21
376.000000
62
7
0
LINE
10
923.000000
20
385.000000
11
973.000000
21
385.000000
62
7
0
LINE
10
952.500000
20
410.000000
11
952.500000
21
405.000000
62
7
0
LINE
10
952.500000
20
405.000000
11
943.500000
21
405.000000
62
7
0
LINE
10
943.500000
20
405.000000
11
943.500000
21
400.000000
62
7
0
LINE
10
943.500000
20
400.000000
11
952.500000
21
400.000000
62
7
0
LINE
10
952.500000
20
400.000000
11
952.500000
21
395.000000
62
7
0
LINE
10
952.500000
20
395.000000
11
943.500000
21
395.000000
62
7
0
LINE
10
943.500000
20
395.000000
11
943.500000
21
390.000000
62
7
0
LINE
10
943.500000
20
390.000000
11
952.500000
21
390.000000
62
7
0
LINE
10
952.500000
20
390.000000
11
952.500000
21
385.000000
62
7
0
LINE
10
50.000000
20
267.000000
11
50.000000
21
257.000000
62
7
0
LINE
10
50.000000
20
257.000000
11
59.000000
21
257.000000
62
7
0
LINE
10
59.000000
20
257.000000
11
59.000000
21
247.000000
62
7
0
LINE
10
59.000000
20
247.000000
11
50.000000
21
247.000000
62
7
0
LINE
10
50.000000
20
247.000000
11
50.000000
21
237.000000
62
7
0
LINE
10
50.000000
20
237.000000
11
59.000000
21
237.000000
62
7
0
LINE
10
59.000000
20
237.000000
11
59.000000
21
227.000000
62
7
0
LINE
10
59.000000
20
227.000000
11
50.000000
21
227.000000
62
7
0
LINE
10
50.000000
20
227.000000
11
50.000000
21
217.000000
62
7
0
LINE
10
50.000000
20
208.000000
11
40.000000
21
208.000000
62
7
0
LINE
10
40.000000
20
208.000000
11
40.000000
21
217.000000
62
7
0
LINE
10
40.000000
20
217.000000
11
30.000000
21
217.000000
62
7
0
LINE
10
30.000000
20
217.000000
11
30.000000
21
208.000000
62
7
0
LINE
10
30.000000
20
208.000000
11
20.000000
21
208.000000
62
7
0
LINE
10
20.000000
20
208.000000
11
20.000000
21
217.000000
62
7
0
LINE
10
20.000000
20
217.000000
11
10.000000
21
217.000000
62
7
0
LINE
10
10.000000
20
217.000000
11
10.000000
21
208.000000
62
7
0
LINE
10
10.000000
20
208.000000
11
0.000000
21
208.000000
62
7
0
LINE
10
0.000000
20
208.000000
11
0.000000
21
172.000000
62
7
0
LINE
10
0.000000
20
172.000000
11
0.000000
21
172.000000
62
7
0
LINE
10
0.000000
20
172.000000
11
0.000000
21
27.000000
62
7
0
LINE
10
14.000000
20
27.000000
11
23.000000
21
27.000000
62
7
0
LINE
10
23.000000
20
27.000000
11
23.000000
21
36.000000
62
7
0
LINE
10
23.000000
20
36.000000
11
32.000000
21
36.000000
62
7
0
LINE
10
32.000000
20
36.000000
11
32.000000
21
27.000000
62
7
0
LINE
10
32.000000
20
27.000000
11
41.000000
21
27.000000
62
7
0
LINE
10
41.000000
20
27.000000
11
41.000000
21
36.000000
62
7
0
LINE
10
41.000000
20
36.000000
11
50.000000
21
36.000000
62
7
0
CIRCLE
10
70.000000
20
484.000000
40
1.600000
62
7
0
CIRCLE
10
70.000000
20
484.000000
40
4.000000
62
7
0
CIRCLE
10
55.000000
20
492.000000
40
1.600000
62
7
0
CIRCLE
10
55.000000
20
492.000000
40
4.000000
62
7
0
CIRCLE
10
166.000000
20
450.000000
40
1.350000
62
7
0
CIRCLE
10
166.000000
20
450.000000
40
4.000000
62
7
0
CIRCLE
10
145.000000
20
458.000000
40
1.350000
62
7
0
CIRCLE
10
145.000000
20
458.000000
40
4.000000
62
7
0
CIRCLE
10
120.000000
20
466.000000
40
1.350000
62
7
0
CIRCLE
10
120.000000
20
466.000000
40
4.000000
62
7
0
CIRCLE
10
78.000000
20
484.000000
40
1.600000
62
7
0
CIRCLE
10
78.000000
20
484.000000
40
4.000000
62
7
0
CIRCLE
10
63.000000
20
492.000000
40
1.600000
62
7
0
CIRCLE
10
63.000000
20
492.000000
40
4.000000
62
7
0
CIRCLE
10
174.000000
20
450.000000
40
1.350000
62
7
0
CIRCLE
10
174.000000
20
450.000000
40
4.000000
62
7
0
CIRCLE
10
153.000000
20
458.000000
40
1.350000
62
7
0
CIRCLE
10
153.000000
20
458.000000
40
4.000000
62
7
0
CIRCLE
10
128.000000
20
466.000000
40
1.350000
62
7
0
CIRCLE
10
128.000000
20
466.000000
40
4.000000
62
7
0
CIRCLE
10
86.000000
20
484.000000
40
1.600000
62
7
0
CIRCLE
10
86.000000
20
484.000000
40
4.000000
62
7
0
CIRCLE
10
71.000000
20
492.000000
40
1.600000
62
7
0
CIRCLE
10
71.000000
20
492.000000
40
4.000000
62
7
0
CIRCLE
10
182.000000
20
450.000000
40
1.350000
62
7
0
CIRCLE
10
182.000000
20
450.000000
40
4.000000
62
7
0
CIRCLE
10
161.000000
20
458.000000
40
1.350000
62
7
0
CIRCLE
10
161.000000
20
458.000000
40
4.000000
62
7
0
CIRCLE
10
136.000000
20
466.000000
40
1.350000
62
7
0
CIRCLE
10
136.000000
20
466.000000
40
4.000000
62
7
0
CIRCLE
10
94.000000
20
484.000000
40
1.600000
62
7
0
CIRCLE
10
94.000000
20
484.000000
40
4.000000
62
7
0
CIRCLE
10
79.000000
20
492.000000
40
1.600000
62
7
0
CIRCLE
10
79.000000
20
492.000000
40
4.000000
62
7
0
CIRCLE
10
190.000000
20
450.000000
40
1.350000
62
7
0
CIRCLE
10
190.000000
20
450.000000
40
4.000000
62
7
0
CIRCLE
10
169.000000
20
458.000000
40
1.350000
62
7
0
CIRCLE
10
169.000000
20
458.000000
40
4.000000
62
7
0
CIRCLE
10
144.000000
20
466.000000
40
1.350000
62
7
0
CIRCLE
10
144.000000
20
466.000000
40
4.000000
62
7
0
CIRCLE
10
87.000000
20
492.000000
40
1.600000
62
7
0
CIRCLE
10
87.000000
20
492.000000
40
4.000000
62
7
0
CIRCLE
10
177.000000
20
458.000000
40
1.350000
62
7
0
CIRCLE
10
177.000000
20
458.000000
40
4.000000
62
7
0
CIRCLE
10
152.000000
20
466.000000
40
1.350000
62
7
0
CIRCLE
10
152.000000
20
466.000000
40
4.000000
62
7
0
CIRCLE
10
95.000000
20
492.000000
40
1.600000
62
7
0
CIRCLE
10
95.000000
20
492.000000
40
4.000000
62
7
0
CIRCLE
10
185.000000
20
458.000000
40
1.350000
62
7
0
CIRCLE
10
185.000000
20
458.000000
40
4.000000
62
7
0
CIRCLE
10
160.000000
20
466.000000
40
1.350000
62
7
0
CIRCLE
10
160.000000
20
466.000000
40
4.000000
62
7
0
CIRCLE
10
193.000000
20
458.000000
40
1.350000
62
7
0
CIRCLE
10
193.000000
20
458.000000
40
4.000000
62
7
0
CIRCLE
10
168.000000
20
466.000000
40
1.350000
62
7
0
CIRCLE
10
168.000000
20
466.000000
40
4.000000
62
7
0
CIRCLE
10
176.000000
20
466.000000
40
1.350000
62
7
0
CIRCLE
10
176.000000
20
466.000000
40
4.000000
62
7
0
CIRCLE
10
184.000000
20
466.000000
40
1.350000
62
7
0
CIRCLE
10
184.000000
20
466.000000
40
4.000000
62
7
0
CIRCLE
10
192.000000
20
466.000000
40
1.350000
62
7
0
CIRCLE
10
192.000000
20
466.000000
40
4.000000
62
7
0
LINE
10
0.000000
20
430.000000
11
10.204372
21
458.742310
62
7
0
LINE
10
10.204372
20
458.742310
11
47.899216
21
445.359528
62
7
0
LINE
10
47.899216
20
445.359528
11
50.910339
21
453.840881
62
7
0
LINE
10
50.910339
20
453.840881
11
13.215499
21
467.223663
62
7
0
LINE
10
13.215499
20
467.223663
11
23.419872
21
495.965973
62
7
0
LINE
10
23.419872
20
495.965973
11
189.936829
21
436.847534
62
7
0
LINE
10
0.000000
20
410.000000
11
10.000000
21
410.000000
62
7
0
LINE
10
10.000000
20
410.000000
11
10.000000
21
419.000000
62
7
0
LINE
10
10.000000
20
419.000000
11
20.000000
21
419.000000
62
7
0
LINE
10
20.000000
20
419.000000
11
20.000000
21
410.000000
62
7
0
LINE
10
20.000000
20
410.000000
11
30.000000
21
410.000000
62
7
0
LINE
10
30.000000
20
410.000000
11
30.000000
21
419.000000
62
7
0
LINE
10
30.000000
20
419.000000
11
40.000000
21
419.000000
62
7
0
LINE
10
40.000000
20
419.000000
11
40.000000
21
410.000000
62
7
0
LINE
10
40.000000
20
410.000000
11
50.000000
21
410.000000
62
7
0
LINE
10
50.000000
20
410.000000
11
50.000000
21
419.000000
62
7
0
LINE
10
50.000000
20
419.000000
11
60.000000
21
419.000000
62
7
0
LINE
10
60.000000
20
419.000000
11
60.000000
21
410.000000
62
7
0
LINE
10
60.000000
20
410.000000
11
70.000000
21
410.000000
62
7
0
LINE
10
70.000000
20
410.000000
11
70.000000
21
419.000000
62
7
0
LINE
10
70.000000
20
419.000000
11
80.000000
21
419.000000
62
7
0
LINE
10
80.000000
20
419.000000
11
80.000000
21
410.000000
62
7
0
LINE
10
80.000000
20
410.000000
11
90.000000
21
410.000000
62
7
0
LINE
10
90.000000
20
410.000000
11
90.000000
21
419.000000
62
7
0
LINE
10
90.000000
20
419.000000
11
100.000000
21
419.000000
62
7
0
LINE
10
100.000000
20
419.000000
11
100.000000
21
410.000000
62
7
0
LINE
10
100.000000
20
410.000000
11
110.000000
21
410.000000
62
7
0
LINE
10
110.000000
20
410.000000
11
110.000000
21
419.000000
62
7
0
LINE
10
110.000000
20
419.000000
11
120.000000
21
419.000000
62
7
0
LINE
10
120.000000
20
419.000000
11
120.000000
21
410.000000
62
7
0
LINE
10
120.000000
20
410.000000
11
130.000000
21
410.000000
62
7
0
LINE
10
130.000000
20
410.000000
11
130.000000
21
419.000000
62
7
0
LINE
10
130.000000
20
419.000000
11
140.000000
21
419.000000
62
7
0
LINE
10
140.000000
20
419.000000
11
140.000000
21
410.000000
62
7
0
LINE
10
140.000000
20
410.000000
11
150.000000
21
410.000000
62
7
0
LINE
10
150.000000
20
410.000000
11
150.000000
21
419.000000
62
7
0
LINE
10
150.000000
20
419.000000
11
160.000000
21
419.000000
62
7
0
LINE
10
160.000000
20
419.000000
11
160.000000
21
410.000000
62
7
0
LINE
10
160.000000
20
410.000000
11
170.000000
21
410.000000
62
7
0
LINE
10
170.000000
20
410.000000
11
170.000000
21
419.000000
62
7
0
LINE
10
170.000000
20
419.000000
11
180.000000
21
419.000000
62
7
0
LINE
10
180.000000
20
419.000000
11
180.000000
21
410.000000
62
7
0
LINE
10
180.000000
20
410.000000
11
190.000000
21
410.000000
62
7
0
LINE
10
190.000000
20
410.000000
11
190.000000
21
437.100006
62
7
0
LINE
10
0.000000
20
410.000000
11
0.000000
21
430.000000
62
7
0
LINE
10
100.000000
20
470.000000
11
100.000000
21
495.000000
62
7
0
LINE
10
100.000000
20
495.000000
11
200.000000
21
495.000000
62
7
0
LINE
10
200.000000
20
495.000000
11
200.000000
21
470.000000
62
7
0
LINE
10
200.000000
20
470.000000
11
100.000000
21
470.000000
62
7
0
LINE
10
170.500000
20
470.000000
11
170.500000
21
475.000000
62
7
0
LINE
10
170.500000
20
475.000000
11
179.500000
21
475.000000
62
7
0
LINE
10
179.500000
20
475.000000
11
179.500000
21
480.000000
62
7
0
LINE
10
179.500000
20
480.000000
11
170.500000
21
480.000000
62
7
0
LINE
10
170.500000
20
480.000000
11
170.500000
21
485.000000
62
7
0
LINE
10
170.500000
20
485.000000
11
179.500000
21
485.000000
62
7
0
LINE
10
179.500000
20
485.000000
11
179.500000
21
490.000000
62
7
0
LINE
10
179.500000
20
490.000000
11
170.500000
21
490.000000
62
7
0
LINE
10
170.500000
20
490.000000
11
170.500000
21
495.000000
62
7
0
LINE
10
150.000000
20
470.000000
11
150.000000
21
495.000000
62
7
0
LINE
10
100.000000
20
474.000000
11
125.000000
21
474.000000
62
7
0
LINE
10
125.000000
20
474.000000
11
125.000000
21
474.500000
62
7
0
LINE
10
125.000000
20
474.500000
11
150.000000
21
474.500000
62
7
0
LINE
10
100.000000
20
479.500000
11
150.000000
21
479.500000
62
7
0
LINE
10
100.000000
20
485.500000
11
125.000000
21
485.500000
62
7
0
LINE
10
125.000000
20
485.500000
11
125.000000
21
486.000000
62
7
0
LINE
10
125.000000
20
486.000000
11
150.000000
21
486.000000
62
7
0
LINE
10
100.000000
20
493.000000
11
150.000000
21
493.000000
62
7
0
CIRCLE
10
260.000000
20
484.000000
40
1.600000
62
7
0
CIRCLE
10
260.000000
20
484.000000
40
4.000000
62
7
0
CIRCLE
10
245.000000
20
492.000000
40
1.600000
62
7
0
CIRCLE
10
245.000000
20
492.000000
40
4.000000
62
7
0
CIRCLE
10
356.000000
20
450.000000
40
1.350000
62
7
0
CIRCLE
10
356.000000
20
450.000000
40
4.000000
62
7
0
CIRCLE
10
335.000000
20
458.000000
40
1.350000
62
7
0
CIRCLE
10
335.000000
20
458.000000
40
4.000000
62
7
0
CIRCLE
10
310.000000
20
466.000000
40
1.350000
62
7
0
CIRCLE
10
310.000000
20
466.000000
40
4.000000
62
7
0
CIRCLE
10
268.000000
20
484.000000
40
1.600000
62
7
0
CIRCLE
10
268.000000
20
484.000000
40
4.000000
62
7
0
CIRCLE
10
253.000000
20
492.000000
40
1.600000
62
7
0
CIRCLE
10
253.000000
20
492.000000
40
4.000000
62
7
0
CIRCLE
10
364.000000
20
450.000000
40
1.350000
62
7
0
CIRCLE
10
364.000000
20
450.000000
40
4.000000
62
7
0
CIRCLE
10
343.000000
20
458.000000
40
1.350000
62
7
0
CIRCLE
10
343.000000
20
458.000000
40
4.000000
62
7
0
CIRCLE
10
318.000000
20
466.000000
40
1.350000
62
7
0
CIRCLE
10
318.000000
20
466.000000
40
4.000000
62
7
0
CIRCLE
10
276.000000
20
484.000000
40
1.600000
62
7
0
CIRCLE
10
276.000000
20
484.000000
40
4.000000
62
7
0
CIRCLE
10
261.000000
20
492.000000
40
1.600000
62
7
0
CIRCLE
10
261.000000
20
492.000000
40
4.000000
62
7
0
CIRCLE
10
372.000000
20
450.000000
40
1.350000
62
7
0
CIRCLE
10
372.000000
20
450.000000
40
4.000000
62
7
0
CIRCLE
10
351.000000
20
458.000000
40
1.350000
62
7
0
CIRCLE
10
351.000000
20
458.000000
40
4.000000
62
7
0
CIRCLE
10
326.000000
20
466.000000
40
1.350000
62
7
0
CIRCLE
10
326.000000
20
466.000000
40
4.000000
62
7
0
CIRCLE
10
284.000000
20
484.000000
40
1.600000
62
7
0
CIRCLE
10
284.000000
20
484.000000
40
4.000000
62
7
0
CIRCLE
10
269.000000
20
492.000000
40
1.600000
62
7
0
CIRCLE
10
269.000000
20
492.000000
40
4.000000
62
7
0
CIRCLE
10
380.000000
20
450.000000
40
1.350000
62
7
0
CIRCLE
10
380.000000
20
450.000000
40
4.000000
62
7
0
CIRCLE
10
359.000000
20
458.000000
40
1.350000
62
7
0
CIRCLE
10
359.000000
20
458.000000
40
4.000000
62
7
0
CIRCLE
10
334.000000
20
466.000000
40
1.350000
62
7
0
CIRCLE
10
334.000000
20
466.000000
40
4.000000
62
7
0
CIRCLE
10
277.000000
20
492.000000
40
1.600000
62
7
0
CIRCLE
10
277.000000
20
492.000000
40
4.000000
62
7
0
CIRCLE
10
367.000000
20
458.000000
40
1.350000
62
7
0
CIRCLE
10
367.000000
20
458.000000
40
4.000000
62
7
0
CIRCLE
10
342.000000
20
466.000000
40
1.350000
62
7
0
CIRCLE
10
342.000000
20
466.000000
40
4.000000
62
7
0
CIRCLE
10
285.000000
20
492.000000
40
1.600000
62
7
0
CIRCLE
10
285.000000
20
492.000000
40
4.000000
62
7
0
CIRCLE
10
375.000000
20
458.000000
40
1.350000
62
7
0
CIRCLE
10
375.000000
20
458.000000
40
4.000000
62
7
0
CIRCLE
10
350.000000
20
466.000000
40
1.350000
62
7
0
CIRCLE
10
350.000000
20
466.000000
40
4.000000
62
7
0
CIRCLE
10
383.000000
20
458.000000
40
1.350000
62
7
0
CIRCLE
10
383.000000
20
458.000000
40
4.000000
62
7
0
CIRCLE
10
358.000000
20
466.000000
40
1.350000
62
7
0
CIRCLE
10
358.000000
20
466.000000
40
4.000000
62
7
0
CIRCLE
10
366.000000
20
466.000000
40
1.350000
62
7
0
CIRCLE
10
366.000000
20
466.000000
40
4.000000
62
7
0
CIRCLE
10
374.000000
20
466.000000
40
1.350000
62
7
0
CIRCLE
10
374.000000
20
466.000000
40
4.000000
62
7
0
CIRCLE
10
382.000000
20
466.000000
40
1.350000
62
7
0
CIRCLE
10
382.000000
20
466.000000
40
4.000000
62
7
0
LINE
10
190.000000
20
430.000000
11
200.204376
21
458.742310
62
7
0
LINE
10
200.204376
20
458.742310
11
237.899216
21
445.359528
62
7
0
LINE
10
237.899216
20
445.359528
11
240.910339
21
453.840881
62
7
0
LINE
10
240.910339
20
453.840881
11
203.215500
21
467.223663
62
7
0
LINE
10
203.215500
20
467.223663
11
213.419876
21
495.965973
62
7
0
LINE
10
213.419876
20
495.965973
11
379.936829
21
436.847534
62
7
0
LINE
10
190.000000
20
410.000000
11
200.000000
21
410.000000
62
7
0
LINE
10
200.000000
20
410.000000
11
200.000000
21
419.000000
62
7
0
LINE
10
200.000000
20
419.000000
11
210.000000
21
419.000000
62
7
0
LINE
10
210.000000
20
419.000000
11
210.000000
21
410.000000
62
7
0
LINE
10
210.000000
20
410.000000
11
220.000000
21
410.000000
62
7
0
LINE
10
220.000000
20
410.000000
11
220.000000
21
419.000000
62
7
0
LINE
10
220.000000
20
419.000000
11
230.000000
21
419.000000
62
7
0
LINE
10
230.000000
20
419.000000
11
230.000000
21
410.000000
62
7
0
LINE
10
230.000000
20
410.000000
11
240.000000
21
410.000000
62
7
0
LINE
10
240.000000
20
410.000000
11
240.000000
21
419.000000
62
7
0
LINE
10
240.000000
20
419.000000
11
250.000000
21
419.000000
62
7
0
LINE
10
250.000000
20
419.000000
11
250.000000
21
410.000000
62
7
0
LINE
10
250.000000
20
410.000000
11
260.000000
21
410.000000
62
7
0
LINE
10
260.000000
20
410.000000
11
260.000000
21
419.000000
62
7
0
LINE
10
260.000000
20
419.000000
11
270.000000
21
419.000000
62
7
0
LINE
10
270.000000
20
419.000000
11
270.000000
21
410.000000
62
7
0
LINE
10
270.000000
20
410.000000
11
280.000000
21
410.000000
62
7
0
LINE
10
280.000000
20
410.000000
11
280.000000
21
419.000000
62
7
0
LINE
10
280.000000
20
419.000000
11
290.000000
21
419.000000
62
7
0
LINE
10
290.000000
20
419.000000
11
290.000000
21
410.000000
62
7
0
LINE
10
290.000000
20
410.000000
11
300.000000
21
410.000000
62
7
0
LINE
10
300.000000
20
410.000000
11
300.000000
21
419.000000
62
7
0
LINE
10
300.000000
20
419.000000
11
310.000000
21
419.000000
62
7
0
LINE
10
310.000000
20
419.000000
11
310.000000
21
410.000000
62
7
0
LINE
10
310.000000
20
410.000000
11
320.000000
21
410.000000
62
7
0
LINE
10
320.000000
20
410.000000
11
320.000000
21
419.000000
62
7
0
LINE
10
320.000000
20
419.000000
11
330.000000
21
419.000000
62
7
0
LINE
10
330.000000
20
419.000000
11
330.000000
21
410.000000
62
7
0
LINE
10
330.000000
20
410.000000
11
340.000000
21
410.000000
62
7
0
LINE
10
340.000000
20
410.000000
11
340.000000
21
419.000000
62
7
0
LINE
10
340.000000
20
419.000000
11
350.000000
21
419.000000
62
7
0
LINE
10
350.000000
20
419.000000
11
350.000000
21
410.000000
62
7
0
LINE
10
350.000000
20
410.000000
11
360.000000
21
410.000000
62
7
0
LINE
10
360.000000
20
410.000000
11
360.000000
21
419.000000
62
7
0
LINE
10
360.000000
20
419.000000
11
370.000000
21
419.000000
62
7
0
LINE
10
370.000000
20
419.000000
11
370.000000
21
410.000000
62
7
0
LINE
10
370.000000
20
410.000000
11
380.000000
21
410.000000
62
7
0
LINE
10
380.000000
20
410.000000
11
380.000000
21
437.100006
62
7
0
LINE
10
190.000000
20
410.000000
11
190.000000
21
430.000000
62
7
0
LINE
10
290.000000
20
470.000000
11
290.000000
21
495.000000
62
7
0
LINE
10
290.000000
20
495.000000
11
390.000000
21
495.000000
62
7
0
LINE
10
390.000000
20
495.000000
11
390.000000
21
470.000000
62
7
0
LINE
10
390.000000
20
470.000000
11
290.000000
21
470.000000
62
7
0
LINE
10
360.500000
20
470.000000
11
360.500000
21
475.000000
62
7
0
LINE
10
360.500000
20
475.000000
11
369.500000
21
475.000000
62
7
0
LINE
10
369.500000
20
475.000000
11
369.500000
21
480.000000
62
7
0
LINE
10
369.500000
20
480.000000
11
360.500000
21
480.000000
62
7
0
LINE
10
360.500000
20
480.000000
11
360.500000
21
485.000000
62
7
0
LINE
10
360.500000
20
485.000000
11
369.500000
21
485.000000
62
7
0
LINE
10
369.500000
20
485.000000
11
369.500000
21
490.000000
62
7
0
LINE
10
369.500000
20
490.000000
11
360.500000
21
490.000000
62
7
0
LINE
10
360.500000
20
490.000000
11
360.500000
21
495.000000
62
7
0
LINE
10
340.000000
20
470.000000
11
340.000000
21
495.000000
62
7
0
CIRCLE
10
450.000000
20
484.000000
40
1.600000
62
7
0
CIRCLE
10
450.000000
20
484.000000
40
4.000000
62
7
0
CIRCLE
10
435.000000
20
492.000000
40
1.600000
62
7
0
CIRCLE
10
435.000000
20
492.000000
40
4.000000
62
7
0
CIRCLE
10
546.000000
20
450.000000
40
1.350000
62
7
0
CIRCLE
10
546.000000
20
450.000000
40
4.000000
62
7
0
CIRCLE
10
525.000000
20
458.000000
40
1.350000
62
7
0
CIRCLE
10
525.000000
20
458.000000
40
4.000000
62
7
0
CIRCLE
10
500.000000
20
466.000000
40
1.350000
62
7
0
CIRCLE
10
500.000000
20
466.000000
40
4.000000
62
7
0
CIRCLE
10
458.000000
20
484.000000
40
1.600000
62
7
0
CIRCLE
10
458.000000
20
484.000000
40
4.000000
62
7
0
CIRCLE
10
443.000000
20
492.000000
40
1.600000
62
7
0
CIRCLE
10
443.000000
20
492.000000
40
4.000000
62
7
0
CIRCLE
10
554.000000
20
450.000000
40
1.350000
62
7
0
CIRCLE
10
554.000000
20
450.000000
40
4.000000
62
7
0
CIRCLE
10
533.000000
20
458.000000
40
1.350000
62
7
0
CIRCLE
10
533.000000
20
458.000000
40
4.000000
62
7
0
CIRCLE
10
508.000000
20
466.000000
40
1.350000
62
7
0
CIRCLE
10
508.000000
20
466.000000
40
4.000000
62
7
0
CIRCLE
10
466.000000
20
484.000000
40
1.600000
62
7
0
CIRCLE
10
466.000000
20
484.000000
40
4.000000
62
7
0
CIRCLE
10
451.000000
20
492.000000
40
1.600000
62
7
0
CIRCLE
10
451.000000
20
492.000000
40
4.000000
62
7
0
CIRCLE
10
562.000000
20
450.000000
40
1.350000
62
7
0
CIRCLE
10
562.000000
20
450.000000
40
4.000000
62
7
0
CIRCLE
10
541.000000
20
458.000000
40
1.350000
62
7
0
CIRCLE
10
541.000000
20
458.000000
40
4.000000
62
7
0
CIRCLE
10
516.000000
20
466.000000
40
1.350000
62
7
0
CIRCLE
10
516.000000
20
466.000000
40
4.000000
62
7
0
CIRCLE
10
474.000000
20
484.000000
40
1.600000
62
7
0
CIRCLE
10
474.000000
20
484.000000
40
4.000000
62
7
0
CIRCLE
10
459.000000
20
492.000000
40
1.600000
62
7
0
CIRCLE
10
459.000000
20
492.000000
40
4.000000
62
7
0
CIRCLE
10
570.000000
20
450.000000
40
1.350000
62
7
0
CIRCLE
10
570.000000
20
450.000000
40
4.000000
62
7
0
CIRCLE
10
549.000000
20
458.000000
40
1.350000
62
7
0
CIRCLE
10
549.000000
20
458.000000
40
4.000000
62
7
0
CIRCLE
10
524.000000
20
466.000000
40
1.350000
62
7
0
CIRCLE
10
524.000000
20
466.000000
40
4.000000
62
7
0
CIRCLE
10
467.000000
20
492.000000
40
1.600000
62
7
0
CIRCLE
10
467.000000
20
492.000000
40
4.000000
62
7
0
CIRCLE
10
557.000000
20
458.000000
40
1.350000
62
7
0
CIRCLE
10
557.000000
20
458.000000
40
4.000000
62
7
0
CIRCLE
10
532.000000
20
466.000000
40
1.350000
62
7
0
CIRCLE
10
532.000000
20
466.000000
40
4.000000
62
7
0
CIRCLE
10
475.000000
20
492.000000
40
1.600000
62
7
0
CIRCLE
10
475.000000
20
492.000000
40
4.000000
62
7
0
CIRCLE
10
565.000000
20
458.000000
40
1.350000
62
7
0
CIRCLE
10
565.000000
20
458.000000
40
4.000000
62
7
0
CIRCLE
10
540.000000
20
466.000000
40
1.350000
62
7
0
CIRCLE
10
540.000000
20
466.000000
40
4.000000
62
7
0
CIRCLE
10
573.000000
20
458.000000
40
1.350000
62
7
0
CIRCLE
10
573.000000
20
458.000000
40
4.000000
62
7
0
CIRCLE
10
548.000000
20
466.000000
40
1.350000
62
7
0
CIRCLE
10
548.000000
20
466.000000
40
4.000000
62
7
0
CIRCLE
10
556.000000
20
466.000000
40
1.350000
62
7
0
CIRCLE
10
556.000000
20
466.000000
40
4.000000
62
7
0
CIRCLE
10
564.000000
20
466.000000
40
1.350000
62
7
0
CIRCLE
10
564.000000
20
466.000000
40
4.000000
62
7
0
CIRCLE
10
572.000000
20
466.000000
40
1.350000
62
7
0
CIRCLE
10
572.000000
20
466.000000
40
4.000000
62
7
0
LINE
10
380.000000
20
430.000000
11
390.204376
21
458.742310
62
7
0
LINE
10
390.204376
20
458.742310
11
427.899200
21
445.359528
62
7
0
LINE
10
427.899200
20
445.359528
11
430.910339
21
453.840881
62
7
0
LINE
10
430.910339
20
453.840881
11
393.215485
21
467.223663
62
7
0
LINE
10
393.215485
20
467.223663
11
403.419861
21
495.965973
62
7
0
LINE
10
403.419861
20
495.965973
11
569.936829
21
436.847534
62
7
0
LINE
10
380.000000
20
410.000000
11
390.000000
21
410.000000
62
7
0
LINE
10
390.000000
20
410.000000
11
390.000000
21
419.000000
62
7
0
LINE
10
390.000000
20
419.000000
11
400.000000
21
419.000000
62
7
0
LINE
10
400.000000
20
419.000000
11
400.000000
21
410.000000
62
7
0
LINE
10
400.000000
20
410.000000
11
410.000000
21
410.000000
62
7
0
LINE
10
410.000000
20
410.000000
11
410.000000
21
419.000000
62
7
0
LINE
10
410.000000
20
419.000000
11
420.000000
21
419.000000
62
7
0
LINE
10
420.000000
20
419.000000
11
420.000000
21
410.000000
62
7
0
LINE
10
420.000000
20
410.000000
11
430.000000
21
410.000000
62
7
0
LINE
10
430.000000
20
410.000000
11
430.000000
21
419.000000
62
7
0
LINE
10
430.000000
20
419.000000
11
440.000000
21
419.000000
62
7
0
LINE
10
440.000000
20
419.000000
11
440.000000
21
410.000000
62
7
0
LINE
10
440.000000
20
410.000000
11
450.000000
21
410.000000
62
7
0
LINE
10
450.000000
20
410.000000
11
450.000000
21
419.000000
62
7
0
LINE
10
450.000000
20
419.000000
11
460.000000
21
419.000000
62
7
0
LINE
10
460.000000
20
419.000000
11
460.000000
21
410.000000
62
7
0
LINE
10
460.000000
20
410.000000
11
470.000000
21
410.000000
62
7
0
LINE
10
470.000000
20
410.000000
11
470.000000
21
419.000000
62
7
0
LINE
10
470.000000
20
419.000000
11
480.000000
21
419.000000
62
7
0
LINE
10
480.000000
20
419.000000
11
480.000000
21
410.000000
62
7
0
LINE
10
480.000000
20
410.000000
11
490.000000
21
410.000000
62
7
0
LINE
10
490.000000
20
410.000000
11
490.000000
21
419.000000
62
7
0
LINE
10
490.000000
20
419.000000
11
500.000000
21
419.000000
62
7
0
LINE
10
500.000000
20
419.000000
11
500.000000
21
410.000000
62
7
0
LINE
10
500.000000
20
410.000000
11
510.000000
21
410.000000
62
7
0
LINE
10
510.000000
20
410.000000
11
510.000000
21
419.000000
62
7
0
LINE
10
510.000000
20
419.000000
11
520.000000
21
419.000000
62
7
0
LINE
10
520.000000
20
419.000000
11
520.000000
21
410.000000
62
7
0
LINE
10
520.000000
20
410.000000
11
530.000000
21
410.000000
62
7
0
LINE
10
530.000000
20
410.000000
11
530.000000
21
419.000000
62
7
0
LINE
10
530.000000
20
419.000000
11
540.000000
21
419.000000
62
7
0
LINE
10
540.000000
20
419.000000
11
540.000000
21
410.000000
62
7
0
LINE
10
540.000000
20
410.000000
11
550.000000
21
410.000000
62
7
0
LINE
10
550.000000
20
410.000000
11
550.000000
21
419.000000
62
7
0
LINE
10
550.000000
20
419.000000
11
560.000000
21
419.000000
62
7
0
LINE
10
560.000000
20
419.000000
11
560.000000
21
410.000000
62
7
0
LINE
10
560.000000
20
410.000000
11
570.000000
21
410.000000
62
7
0
LINE
10
570.000000
20
410.000000
11
570.000000
21
437.100006
62
7
0
LINE
10
380.000000
20
410.000000
11
380.000000
21
430.000000
62
7
0
LINE
10
480.000000
20
470.000000
11
480.000000
21
495.000000
62
7
0
LINE
10
480.000000
20
495.000000
11
580.000000
21
495.000000
62
7
0
LINE
10
580.000000
20
495.000000
11
580.000000
21
470.000000
62
7
0
LINE
10
580.000000
20
470.000000
11
480.000000
21
470.000000
62
7
0
LINE
10
550.500000
20
470.000000
11
550.500000
21
475.000000
62
7
0
LINE
10
550.500000
20
475.000000
11
559.500000
21
475.000000
62
7
0
LINE
10
559.500000
20
475.000000
11
559.500000
21
480.000000
62
7
0
LINE
10
559.500000
20
480.000000
11
550.500000
21
480.000000
62
7
0
LINE
10
550.500000
20
480.000000
11
550.500000
21
485.000000
62
7
0
LINE
10
550.500000
20
485.000000
11
559.500000
21
485.000000
62
7
0
LINE
10
559.500000
20
485.000000
11
559.500000
21
490.000000
62
7
0
LINE
10
559.500000
20
490.000000
11
550.500000
21
490.000000
62
7
0
LINE
10
550.500000
20
490.000000
11
550.500000
21
495.000000
62
7
0
LINE
10
530.000000
20
470.000000
11
530.000000
21
495.000000
62
7
0
CIRCLE
10
640.000000
20
484.000000
40
1.600000
62
7
0
CIRCLE
10
640.000000
20
484.000000
40
4.000000
62
7
0
CIRCLE
10
625.000000
20
492.000000
40
1.600000
62
7
0
CIRCLE
10
625.000000
20
492.000000
40
4.000000
62
7
0
CIRCLE
10
736.000000
20
450.000000
40
1.350000
62
7
0
CIRCLE
10
736.000000
20
450.000000
40
4.000000
62
7
0
CIRCLE
10
715.000000
20
458.000000
40
1.350000
62
7
0
CIRCLE
10
715.000000
20
458.000000
40
4.000000
62
7
0
CIRCLE
10
690.000000
20
466.000000
40
1.350000
62
7
0
CIRCLE
10
690.000000
20
466.000000
40
4.000000
62
7
0
CIRCLE
10
648.000000
20
484.000000
40
1.600000
62
7
0
CIRCLE
10
648.000000
20
484.000000
40
4.000000
62
7
0
CIRCLE
10
633.000000
20
492.000000
40
1.600000
62
7
0
CIRCLE
10
633.000000
20
492.000000
40
4.000000
62
7
0
CIRCLE
10
744.000000
20
450.000000
40
1.350000
62
7
0
CIRCLE
10
744.000000
20
450.000000
40
4.000000
62
7
0
CIRCLE
10
723.000000
20
458.000000
40
1.350000
62
7
0
CIRCLE
10
723.000000
20
458.000000
40
4.000000
62
7
0
CIRCLE
10
698.000000
20
466.000000
40
1.350000
62
7
0
CIRCLE
10
698.000000
20
466.000000
40
4.000000
62
7
0
CIRCLE
10
656.000000
20
484.000000
40
1.600000
62
7
0
CIRCLE
10
656.000000
20
484.000000
40
4.000000
62
7
0
CIRCLE
10
641.000000
20
492.000000
40
1.600000
62
7
0
CIRCLE
10
641.000000
20
492.000000
40
4.000000
62
7
0
CIRCLE
10
752.000000
20
450.000000
40
1.350000
62
7
0
CIRCLE
10
752.000000
20
450.000000
40
4.000000
62
7
0
CIRCLE
10
731.000000
20
458.000000
40
1.350000
62
7
0
CIRCLE
10
731.000000
20
458.000000
40
4.000000
62
7
0
CIRCLE
10
706.000000
20
466.000000
40
1.350000
62
7
0
CIRCLE
10
706.000000
20
466.000000
40
4.000000
62
7
0
CIRCLE
10
664.000000
20
484.000000
40
1.600000
62
7
0
CIRCLE
10
664.000000
20
484.000000
40
4.000000
62
7
0
CIRCLE
10
649.000000
20
492.000000
40
1.600000
62
7
0
CIRCLE
10
649.000000
20
492.000000
40
4.000000
62
7
0
CIRCLE
10
760.000000
20
450.000000
40
1.350000
62
7
0
CIRCLE
10
760.000000
20
450.000000
40
4.000000
62
7
0
CIRCLE
10
739.000000
20
458.000000
40
1.350000
62
7
0
CIRCLE
10
739.000000
20
458.000000
40
4.000000
62
7
0
CIRCLE
10
714.000000
20
466.000000
40
1.350000
62
7
0
CIRCLE
10
714.000000
20
466.000000
40
4.000000
62
7
0
CIRCLE
10
657.000000
20
492.000000
40
1.600000
62
7
0
CIRCLE
10
657.000000
20
492.000000
40
4.000000
62
7
0
CIRCLE
10
747.000000
20
458.000000
40
1.350000
62
7
0
CIRCLE
10
747.000000
20
458.000000
40
4.000000
62
7
0
CIRCLE
10
722.000000
20
466.000000
40
1.350000
62
7
0
CIRCLE
10
722.000000
20
466.000000
40
4.000000
62
7
0
CIRCLE
10
665.000000
20
492.000000
40
1.600000
62
7
0
CIRCLE
10
665.000000
20
492.000000
40
4.000000
62
7
0
CIRCLE
10
755.000000
20
458.000000
40
1.350000
62
7
0
CIRCLE
10
755.000000
20
458.000000
40
4.000000
62
7
0
CIRCLE
10
730.000000
20
466.000000
40
1.350000
62
7
0
CIRCLE
10
730.000000
20
466.000000
40
4.000000
62
7
0
CIRCLE
10
763.000000
20
458.000000
40
1.350000
62
7
0
CIRCLE
10
763.000000
20
458.000000
40
4.000000
62
7
0
CIRCLE
10
738.000000
20
466.000000
40
1.350000
62
7
0
CIRCLE
10
738.000000
20
466.000000
40
4.000000
62
7
0
CIRCLE
10
746.000000
20
466.000000
40
1.350000
62
7
0
CIRCLE
10
746.000000
20
466.000000
40
4.000000
62
7
0
CIRCLE
10
754.000000
20
466.000000
40
1.350000
62
7
0
CIRCLE
10
754.000000
20
466.000000
40
4.000000
62
7
0
CIRCLE
10
762.000000
20
466.000000
40
1.350000
62
7
0
CIRCLE
10
762.000000
20
466.000000
40
4.000000
62
7
0
LINE
10
570.000000
20
430.000000
11
580.204346
21
458.742310
62
7
0
LINE
10
580.204346
20
458.742310
11
617.899231
21
445.359528
62
7
0
LINE
10
617.899231
20
445.359528
11
620.910339
21
453.840881
62
7
0
LINE
10
620.910339
20
453.840881
11
583.215515
21
467.223663
62
7
0
LINE
10
583.215515
20
467.223663
11
593.419861
21
495.965973
62
7
0
LINE
10
593.419861
20
495.965973
11
759.936829
21
436.847534
62
7
0
LINE
10
570.000000
20
410.000000
11
580.000000
21
410.000000
62
7
0
LINE
10
580.000000
20
410.000000
11
580.000000
21
419.000000
62
7
0
LINE
10
580.000000
20
419.000000
11
590.000000
21
419.000000
62
7
0
LINE
10
590.000000
20
419.000000
11
590.000000
21
410.000000
62
7
0
LINE
10
590.000000
20
410.000000
11
600.000000
21
410.000000
62
7
0
LINE
10
600.000000
20
410.000000
11
600.000000
21
419.000000
62
7
0
LINE
10
600.000000
20
419.000000
11
610.000000
21
419.000000
62
7
0
LINE
10
610.000000
20
419.000000
11
610.000000
21
410.000000
62
7
0
LINE
10
610.000000
20
410.000000
11
620.000000
21
410.000000
62
7
0
LINE
10
620.000000
20
410.000000
11
620.000000
21
419.000000
62
7
0
LINE
10
620.000000
20
419.000000
11
630.000000
21
419.000000
62
7
0
LINE
10
630.000000
20
419.000000
11
630.000000
21
410.000000
62
7
0
LINE
10
630.000000
20
410.000000
11
640.000000
21
410.000000
62
7
0
LINE
10
640.000000
20
410.000000
11
640.000000
21
419.000000
62
7
0
LINE
10
640.000000
20
419.000000
11
650.000000
21
419.000000
62
7
0
LINE
10
650.000000
20
419.000000
11
650.000000
21
410.000000
62
7
0
LINE
10
650.000000
20
410.000000
11
660.000000
21
410.000000
62
7
0
LINE
10
660.000000
20
410.000000
11
660.000000
21
419.000000
62
7
0
LINE
10
660.000000
20
419.000000
11
670.000000
21
419.000000
62
7
0
LINE
10
670.000000
20
419.000000
11
670.000000
21
410.000000
62
7
0
LINE
10
670.000000
20
410.000000
11
680.000000
21
410.000000
62
7
0
LINE
10
680.000000
20
410.000000
11
680.000000
21
419.000000
62
7
0
LINE
10
680.000000
20
419.000000
11
690.000000
21
419.000000
62
7
0
LINE
10
690.000000
20
419.000000
11
690.000000
21
410.000000
62
7
0
LINE
10
690.000000
20
410.000000
11
700.000000
21
410.000000
62
7
0
LINE
10
700.000000
20
410.000000
11
700.000000
21
419.000000
62
7
0
LINE
10
700.000000
20
419.000000
11
710.000000
21
419.000000
62
7
0
LINE
10
710.000000
20
419.000000
11
710.000000
21
410.000000
62
7
0
LINE
10
710.000000
20
410.000000
11
720.000000
21
410.000000
62
7
0
LINE
10
720.000000
20
410.000000
11
720.000000
21
419.000000
62
7
0
LINE
10
720.000000
20
419.000000
11
730.000000
21
419.000000
62
7
0
LINE
10
730.000000
20
419.000000
11
730.000000
21
410.000000
62
7
0
LINE
10
730.000000
20
410.000000
11
740.000000
21
410.000000
62
7
0
LINE
10
740.000000
20
410.000000
11
740.000000
21
419.000000
62
7
0
LINE
10
740.000000
20
419.000000
11
750.000000
21
419.000000
62
7
0
LINE
10
750.000000
20
419.000000
11
750.000000
21
410.000000
62
7
0
LINE
10
750.000000
20
410.000000
11
760.000000
21
410.000000
62
7
0
LINE
10
760.000000
20
410.000000
11
760.000000
21
437.100006
62
7
0
LINE
10
570.000000
20
410.000000
11
570.000000
21
430.000000
62
7
0
LINE
10
670.000000
20
470.000000
11
670.000000
21
495.000000
62
7
0
LINE
10
670.000000
20
495.000000
11
770.000000
21
495.000000
62
7
0
LINE
10
770.000000
20
495.000000
11
770.000000
21
470.000000
62
7
0
LINE
10
770.000000
20
470.000000
11
670.000000
21
470.000000
62
7
0
LINE
10
740.500000
20
470.000000
11
740.500000
21
475.000000
62
7
0
LINE
10
740.500000
20
475.000000
11
749.500000
21
475.000000
62
7
0
LINE
10
749.500000
20
475.000000
11
749.500000
21
480.000000
62
7
0
LINE
10
749.500000
20
480.000000
11
740.500000
21
480.000000
62
7
0
LINE
10
740.500000
20
480.000000
11
740.500000
21
485.000000
62
7
0
LINE
10
740.500000
20
485.000000
11
749.500000
21
485.000000
62
7
0
LINE
10
749.500000
20
485.000000
11
749.500000
21
490.000000
62
7
0
LINE
10
749.500000
20
490.000000
11
740.500000
21
490.000000
62
7
0
LINE
10
740.500000
20
490.000000
11
740.500000
21
495.000000
62
7
0
LINE
10
720.000000
20
470.000000
11
720.000000
21
495.000000
62
7
0
LINE
10
773.000000
20
410.000000
11
773.000000
21
500.000000
62
7
0
LINE
10
823.000000
20
410.000000
11
823.000000
21
500.000000
62
7
0
LINE
10
873.000000
20
410.000000
11
873.000000
21
500.000000
62
7
0
LINE
10
923.000000
20
410.000000
11
923.000000
21
500.000000
62
7
0
LINE
10
973.000000
20
410.000000
11
973.000000
21
500.000000
62
7
0
LINE
10
773.000000
20
435.000000
11
973.000000
21
435.000000
62
7
0
LINE
10
773.000000
20
460.000000
11
973.000000
21
460.000000
62
7
0
LINE
10
773.000000
20
485.000000
11
973.000000
21
485.000000
62
7
0
LINE
10
773.000000
20
500.000000
11
973.000000
21
500.000000
62
7
0
ENDSEC
0
EOF
