0
SECTION
2
ENTITIES
0
CIRCLE
10
67.399994
20
15.500000
40
1.000000
62
7
0
LINE
10
72.869995
20
7.000000
11
89.869995
21
7.000000
62
7
0
LINE
10
89.869995
20
7.000000
11
89.869995
21
24.000000
62
7
0
LINE
10
89.869995
20
24.000000
11
72.869995
21
24.000000
62
7
0
LINE
10
72.869995
20
24.000000
11
72.869995
21
7.000000
62
7
0
LINE
10
80.369995
20
15.500000
11
82.369995
21
15.500000
62
7
0
LINE
10
81.369995
20
14.500000
11
81.369995
21
16.500000
62
7
0
CIRCLE
10
95.339996
20
15.500000
40
1.000000
62
7
0
LINE
10
100.809998
20
7.000000
11
117.809998
21
7.000000
62
7
0
LINE
10
117.809998
20
7.000000
11
117.809998
21
24.000000
62
7
0
LINE
10
117.809998
20
24.000000
11
100.809998
21
24.000000
62
7
0
LINE
10
100.809998
20
24.000000
11
100.809998
21
7.000000
62
7
0
LINE
10
108.309998
20
15.500000
11
110.309998
21
15.500000
62
7
0
LINE
10
109.309998
20
14.500000
11
109.309998
21
16.500000
62
7
0
CIRCLE
10
123.279999
20
15.500000
40
1.000000
62
7
0
LINE
10
128.750000
20
7.000000
11
145.750000
21
7.000000
62
7
0
LINE
10
145.750000
20
7.000000
11
145.750000
21
24.000000
62
7
0
LINE
10
145.750000
20
24.000000
11
128.750000
21
24.000000
62
7
0
LINE
10
128.750000
20
24.000000
11
128.750000
21
7.000000
62
7
0
LINE
10
136.250000
20
15.500000
11
138.250000
21
15.500000
62
7
0
LINE
10
137.250000
20
14.500000
11
137.250000
21
16.500000
62
7
0
CIRCLE
10
151.220001
20
15.500000
40
1.000000
62
7
0
LINE
10
156.690002
20
7.000000
11
173.690002
21
7.000000
62
7
0
LINE
10
173.690002
20
7.000000
11
173.690002
21
24.000000
62
7
0
LINE
10
173.690002
20
24.000000
11
156.690002
21
24.000000
62
7
0
LINE
10
156.690002
20
24.000000
11
156.690002
21
7.000000
62
7
0
LINE
10
164.190002
20
15.500000
11
166.190002
21
15.500000
62
7
0
LINE
10
165.190002
20
14.500000
11
165.190002
21
16.500000
62
7
0
CIRCLE
10
179.160004
20
15.500000
40
1.000000
62
7
0
LINE
10
184.630005
20
7.000000
11
201.630005
21
7.000000
62
7
0
LINE
10
201.630005
20
7.000000
11
201.630005
21
24.000000
62
7
0
LINE
10
201.630005
20
24.000000
11
184.630005
21
24.000000
62
7
0
LINE
10
184.630005
20
24.000000
11
184.630005
21
7.000000
62
7
0
LINE
10
192.130005
20
15.500000
11
194.130005
21
15.500000
62
7
0
LINE
10
193.130005
20
14.500000
11
193.130005
21
16.500000
62
7
0
CIRCLE
10
207.100006
20
15.500000
40
1.000000
62
7
0
LINE
10
212.570007
20
7.000000
11
229.570007
21
7.000000
62
7
0
LINE
10
229.570007
20
7.000000
11
229.570007
21
24.000000
62
7
0
LINE
10
229.570007
20
24.000000
11
212.570007
21
24.000000
62
7
0
LINE
10
212.570007
20
24.000000
11
212.570007
21
7.000000
62
7
0
LINE
10
220.070007
20
15.500000
11
222.070007
21
15.500000
62
7
0
LINE
10
221.070007
20
14.500000
11
221.070007
21
16.500000
62
7
0
CIRCLE
10
235.039993
20
15.500000
40
1.000000
62
7
0
LINE
10
240.509995
20
7.000000
11
257.510010
21
7.000000
62
7
0
LINE
10
257.510010
20
7.000000
11
257.510010
21
24.000000
62
7
0
LINE
10
257.510010
20
24.000000
11
240.509995
21
24.000000
62
7
0
LINE
10
240.509995
20
24.000000
11
240.509995
21
7.000000
62
7
0
LINE
10
248.009995
20
15.500000
11
250.009995
21
15.500000
62
7
0
LINE
10
249.009995
20
14.500000
11
249.009995
21
16.500000
62
7
0
CIRCLE
10
262.979980
20
15.500000
40
1.000000
62
7
0
LINE
10
268.449982
20
7.000000
11
285.449982
21
7.000000
62
7
0
LINE
10
285.449982
20
7.000000
11
285.449982
21
24.000000
62
7
0
LINE
10
285.449982
20
24.000000
11
268.449982
21
24.000000
62
7
0
LINE
10
268.449982
20
24.000000
11
268.449982
21
7.000000
62
7
0
LINE
10
275.949982
20
15.500000
11
277.949982
21
15.500000
62
7
0
LINE
10
276.949982
20
14.500000
11
276.949982
21
16.500000
62
7
0
CIRCLE
10
290.919983
20
15.500000
40
1.000000
62
7
0
LINE
10
296.389984
20
7.000000
11
313.389984
21
7.000000
62
7
0
LINE
10
313.389984
20
7.000000
11
313.389984
21
24.000000
62
7
0
LINE
10
313.389984
20
24.000000
11
296.389984
21
24.000000
62
7
0
LINE
10
296.389984
20
24.000000
11
296.389984
21
7.000000
62
7
0
LINE
10
303.889984
20
15.500000
11
305.889984
21
15.500000
62
7
0
LINE
10
304.889984
20
14.500000
11
304.889984
21
16.500000
62
7
0
CIRCLE
10
318.859985
20
15.500000
40
1.000000
62
7
0
LINE
10
324.329987
20
7.000000
11
341.329987
21
7.000000
62
7
0
LINE
10
341.329987
20
7.000000
11
341.329987
21
24.000000
62
7
0
LINE
10
341.329987
20
24.000000
11
324.329987
21
24.000000
62
7
0
LINE
10
324.329987
20
24.000000
11
324.329987
21
7.000000
62
7
0
LINE
10
331.829987
20
15.500000
11
333.829987
21
15.500000
62
7
0
LINE
10
332.829987
20
14.500000
11
332.829987
21
16.500000
62
7
0
CIRCLE
10
346.799988
20
15.500000
40
1.000000
62
7
0
LINE
10
352.269989
20
7.000000
11
369.269989
21
7.000000
62
7
0
LINE
10
369.269989
20
7.000000
11
369.269989
21
24.000000
62
7
0
LINE
10
369.269989
20
24.000000
11
352.269989
21
24.000000
62
7
0
LINE
10
352.269989
20
24.000000
11
352.269989
21
7.000000
62
7
0
LINE
10
359.769989
20
15.500000
11
361.769989
21
15.500000
62
7
0
LINE
10
360.769989
20
14.500000
11
360.769989
21
16.500000
62
7
0
CIRCLE
10
374.739990
20
15.500000
40
1.000000
62
7
0
LINE
10
380.209991
20
7.000000
11
397.209991
21
7.000000
62
7
0
LINE
10
397.209991
20
7.000000
11
397.209991
21
24.000000
62
7
0
LINE
10
397.209991
20
24.000000
11
380.209991
21
24.000000
62
7
0
LINE
10
380.209991
20
24.000000
11
380.209991
21
7.000000
62
7
0
LINE
10
387.709991
20
15.500000
11
389.709991
21
15.500000
62
7
0
LINE
10
388.709991
20
14.500000
11
388.709991
21
16.500000
62
7
0
CIRCLE
10
402.679993
20
15.500000
40
1.000000
62
7
0
LINE
10
408.149994
20
7.000000
11
425.149994
21
7.000000
62
7
0
LINE
10
425.149994
20
7.000000
11
425.149994
21
24.000000
62
7
0
LINE
10
425.149994
20
24.000000
11
408.149994
21
24.000000
62
7
0
LINE
10
408.149994
20
24.000000
11
408.149994
21
7.000000
62
7
0
LINE
10
415.649994
20
15.500000
11
417.649994
21
15.500000
62
7
0
LINE
10
416.649994
20
14.500000
11
416.649994
21
16.500000
62
7
0
CIRCLE
10
430.619995
20
15.500000
40
1.000000
62
7
0
LINE
10
436.089996
20
7.000000
11
453.089996
21
7.000000
62
7
0
LINE
10
453.089996
20
7.000000
11
453.089996
21
24.000000
62
7
0
LINE
10
453.089996
20
24.000000
11
436.089996
21
24.000000
62
7
0
LINE
10
436.089996
20
24.000000
11
436.089996
21
7.000000
62
7
0
LINE
10
443.589996
20
15.500000
11
445.589996
21
15.500000
62
7
0
LINE
10
444.589996
20
14.500000
11
444.589996
21
16.500000
62
7
0
CIRCLE
10
458.559998
20
15.500000
40
1.000000
62
7
0
LINE
10
464.029999
20
7.000000
11
481.029999
21
7.000000
62
7
0
LINE
10
481.029999
20
7.000000
11
481.029999
21
24.000000
62
7
0
LINE
10
481.029999
20
24.000000
11
464.029999
21
24.000000
62
7
0
LINE
10
464.029999
20
24.000000
11
464.029999
21
7.000000
62
7
0
LINE
10
471.529999
20
15.500000
11
473.529999
21
15.500000
62
7
0
LINE
10
472.529999
20
14.500000
11
472.529999
21
16.500000
62
7
0
CIRCLE
10
486.500000
20
15.500000
40
1.000000
62
7
0
LINE
10
491.970001
20
7.000000
11
508.970001
21
7.000000
62
7
0
LINE
10
508.970001
20
7.000000
11
508.970001
21
24.000000
62
7
0
LINE
10
508.970001
20
24.000000
11
491.970001
21
24.000000
62
7
0
LINE
10
491.970001
20
24.000000
11
491.970001
21
7.000000
62
7
0
LINE
10
499.470001
20
15.500000
11
501.470001
21
15.500000
62
7
0
LINE
10
500.470001
20
14.500000
11
500.470001
21
16.500000
62
7
0
CIRCLE
10
514.440002
20
15.500000
40
1.000000
62
7
0
LINE
10
519.909973
20
7.000000
11
536.909973
21
7.000000
62
7
0
LINE
10
536.909973
20
7.000000
11
536.909973
21
24.000000
62
7
0
LINE
10
536.909973
20
24.000000
11
519.909973
21
24.000000
62
7
0
LINE
10
519.909973
20
24.000000
11
519.909973
21
7.000000
62
7
0
LINE
10
527.409973
20
15.500000
11
529.409973
21
15.500000
62
7
0
LINE
10
528.409973
20
14.500000
11
528.409973
21
16.500000
62
7
0
CIRCLE
10
542.380005
20
15.500000
40
1.000000
62
7
0
LINE
10
547.849976
20
7.000000
11
564.849976
21
7.000000
62
7
0
LINE
10
564.849976
20
7.000000
11
564.849976
21
24.000000
62
7
0
LINE
10
564.849976
20
24.000000
11
547.849976
21
24.000000
62
7
0
LINE
10
547.849976
20
24.000000
11
547.849976
21
7.000000
62
7
0
LINE
10
555.349976
20
15.500000
11
557.349976
21
15.500000
62
7
0
LINE
10
556.349976
20
14.500000
11
556.349976
21
16.500000
62
7
0
CIRCLE
10
570.320007
20
15.500000
40
1.000000
62
7
0
LINE
10
575.789978
20
7.000000
11
592.789978
21
7.000000
62
7
0
LINE
10
592.789978
20
7.000000
11
592.789978
21
24.000000
62
7
0
LINE
10
592.789978
20
24.000000
11
575.789978
21
24.000000
62
7
0
LINE
10
575.789978
20
24.000000
11
575.789978
21
7.000000
62
7
0
LINE
10
583.289978
20
15.500000
11
585.289978
21
15.500000
62
7
0
LINE
10
584.289978
20
14.500000
11
584.289978
21
16.500000
62
7
0
CIRCLE
10
598.260010
20
15.500000
40
1.000000
62
7
0
LINE
10
603.729980
20
7.000000
11
620.729980
21
7.000000
62
7
0
LINE
10
620.729980
20
7.000000
11
620.729980
21
24.000000
62
7
0
LINE
10
620.729980
20
24.000000
11
603.729980
21
24.000000
62
7
0
LINE
10
603.729980
20
24.000000
11
603.729980
21
7.000000
62
7
0
LINE
10
611.229980
20
15.500000
11
613.229980
21
15.500000
62
7
0
LINE
10
612.229980
20
14.500000
11
612.229980
21
16.500000
62
7
0
CIRCLE
10
626.200012
20
15.500000
40
1.000000
62
7
0
LINE
10
631.669983
20
7.000000
11
648.669983
21
7.000000
62
7
0
LINE
10
648.669983
20
7.000000
11
648.669983
21
24.000000
62
7
0
LINE
10
648.669983
20
24.000000
11
631.669983
21
24.000000
62
7
0
LINE
10
631.669983
20
24.000000
11
631.669983
21
7.000000
62
7
0
LINE
10
639.169983
20
15.500000
11
641.169983
21
15.500000
62
7
0
LINE
10
640.169983
20
14.500000
11
640.169983
21
16.500000
62
7
0
CIRCLE
10
654.140015
20
15.500000
40
1.000000
62
7
0
LINE
10
659.609985
20
7.000000
11
676.609985
21
7.000000
62
7
0
LINE
10
676.609985
20
7.000000
11
676.609985
21
24.000000
62
7
0
LINE
10
676.609985
20
24.000000
11
659.609985
21
24.000000
62
7
0
LINE
10
659.609985
20
24.000000
11
659.609985
21
7.000000
62
7
0
LINE
10
667.109985
20
15.500000
11
669.109985
21
15.500000
62
7
0
LINE
10
668.109985
20
14.500000
11
668.109985
21
16.500000
62
7
0
CIRCLE
10
682.080017
20
15.500000
40
1.000000
62
7
0
LINE
10
687.549988
20
7.000000
11
704.549988
21
7.000000
62
7
0
LINE
10
704.549988
20
7.000000
11
704.549988
21
24.000000
62
7
0
LINE
10
704.549988
20
24.000000
11
687.549988
21
24.000000
62
7
0
LINE
10
687.549988
20
24.000000
11
687.549988
21
7.000000
62
7
0
LINE
10
695.049988
20
15.500000
11
697.049988
21
15.500000
62
7
0
LINE
10
696.049988
20
14.500000
11
696.049988
21
16.500000
62
7
0
CIRCLE
10
710.020020
20
15.500000
40
1.000000
62
7
0
LINE
10
715.489990
20
7.000000
11
732.489990
21
7.000000
62
7
0
LINE
10
732.489990
20
7.000000
11
732.489990
21
24.000000
62
7
0
LINE
10
732.489990
20
24.000000
11
715.489990
21
24.000000
62
7
0
LINE
10
715.489990
20
24.000000
11
715.489990
21
7.000000
62
7
0
LINE
10
722.989990
20
15.500000
11
724.989990
21
15.500000
62
7
0
LINE
10
723.989990
20
14.500000
11
723.989990
21
16.500000
62
7
0
CIRCLE
10
737.960022
20
15.500000
40
1.000000
62
7
0
LINE
10
743.429993
20
7.000000
11
760.429993
21
7.000000
62
7
0
LINE
10
760.429993
20
7.000000
11
760.429993
21
24.000000
62
7
0
LINE
10
760.429993
20
24.000000
11
743.429993
21
24.000000
62
7
0
LINE
10
743.429993
20
24.000000
11
743.429993
21
7.000000
62
7
0
LINE
10
750.929993
20
15.500000
11
752.929993
21
15.500000
62
7
0
LINE
10
751.929993
20
14.500000
11
751.929993
21
16.500000
62
7
0
CIRCLE
10
765.900024
20
15.500000
40
1.000000
62
7
0
LINE
10
771.369995
20
7.000000
11
788.369995
21
7.000000
62
7
0
LINE
10
788.369995
20
7.000000
11
788.369995
21
24.000000
62
7
0
LINE
10
788.369995
20
24.000000
11
771.369995
21
24.000000
62
7
0
LINE
10
771.369995
20
24.000000
11
771.369995
21
7.000000
62
7
0
LINE
10
778.869995
20
15.500000
11
780.869995
21
15.500000
62
7
0
LINE
10
779.869995
20
14.500000
11
779.869995
21
16.500000
62
7
0
CIRCLE
10
793.839966
20
15.500000
40
1.000000
62
7
0
LINE
10
799.309937
20
7.000000
11
816.309937
21
7.000000
62
7
0
LINE
10
816.309937
20
7.000000
11
816.309937
21
24.000000
62
7
0
LINE
10
816.309937
20
24.000000
11
799.309937
21
24.000000
62
7
0
LINE
10
799.309937
20
24.000000
11
799.309937
21
7.000000
62
7
0
LINE
10
806.809937
20
15.500000
11
808.809937
21
15.500000
62
7
0
LINE
10
807.809937
20
14.500000
11
807.809937
21
16.500000
62
7
0
CIRCLE
10
821.780029
20
15.500000
40
1.000000
62
7
0
LINE
10
827.250000
20
7.000000
11
844.250000
21
7.000000
62
7
0
LINE
10
844.250000
20
7.000000
11
844.250000
21
24.000000
62
7
0
LINE
10
844.250000
20
24.000000
11
827.250000
21
24.000000
62
7
0
LINE
10
827.250000
20
24.000000
11
827.250000
21
7.000000
62
7
0
LINE
10
834.750000
20
15.500000
11
836.750000
21
15.500000
62
7
0
LINE
10
835.750000
20
14.500000
11
835.750000
21
16.500000
62
7
0
CIRCLE
10
849.719971
20
15.500000
40
1.000000
62
7
0
LINE
10
855.189941
20
7.000000
11
872.189941
21
7.000000
62
7
0
LINE
10
872.189941
20
7.000000
11
872.189941
21
24.000000
62
7
0
LINE
10
872.189941
20
24.000000
11
855.189941
21
24.000000
62
7
0
LINE
10
855.189941
20
24.000000
11
855.189941
21
7.000000
62
7
0
LINE
10
862.689941
20
15.500000
11
864.689941
21
15.500000
62
7
0
LINE
10
863.689941
20
14.500000
11
863.689941
21
16.500000
62
7
0
CIRCLE
10
877.660034
20
15.500000
40
1.000000
62
7
0
LINE
10
883.130005
20
7.000000
11
900.130005
21
7.000000
62
7
0
LINE
10
900.130005
20
7.000000
11
900.130005
21
24.000000
62
7
0
LINE
10
900.130005
20
24.000000
11
883.130005
21
24.000000
62
7
0
LINE
10
883.130005
20
24.000000
11
883.130005
21
7.000000
62
7
0
LINE
10
890.630005
20
15.500000
11
892.630005
21
15.500000
62
7
0
LINE
10
891.630005
20
14.500000
11
891.630005
21
16.500000
62
7
0
CIRCLE
10
905.599976
20
15.500000
40
1.000000
62
7
0
CIRCLE
10
86.500000
20
378.000000
40
1.000000
62
7
0
CIRCLE
10
186.500000
20
378.000000
40
1.000000
62
7
0
CIRCLE
10
286.500000
20
378.000000
40
1.000000
62
7
0
CIRCLE
10
386.500000
20
378.000000
40
1.000000
62
7
0
CIRCLE
10
486.500000
20
378.000000
40
1.000000
62
7
0
CIRCLE
10
586.500000
20
378.000000
40
1.000000
62
7
0
CIRCLE
10
686.500000
20
378.000000
40
1.000000
62
7
0
CIRCLE
10
786.500000
20
378.000000
40
1.000000
62
7
0
CIRCLE
10
886.500000
20
378.000000
40
1.000000
62
7
0
CIRCLE
10
60.000000
20
37.000000
40
1.000000
62
7
0
LINE
10
50.000000
20
27.000000
11
50.000000
21
0.000000
62
7
0
LINE
10
50.000000
20
0.000000
11
0.000000
21
0.000000
62
7
0
LINE
10
0.000000
20
0.000000
11
0.000000
21
27.000000
62
7
0
LINE
10
0.000000
20
27.000000
11
50.000000
21
27.000000
62
7
0
CIRCLE
10
913.000000
20
37.000000
40
1.000000
62
7
0
LINE
10
923.000000
20
27.000000
11
923.000000
21
0.000000
62
7
0
LINE
10
923.000000
20
0.000000
11
973.000000
21
0.000000
62
7
0
LINE
10
973.000000
20
0.000000
11
973.000000
21
27.000000
62
7
0
LINE
10
973.000000
20
27.000000
11
923.000000
21
27.000000
62
7
0
CIRCLE
10
60.000000
20
343.000000
40
1.000000
62
7
0
LINE
10
0.000000
20
353.000000
11
50.000000
21
353.000000
62
7
0
LINE
10
50.000000
20
353.000000
11
50.000000
21
403.000000
62
7
0
LINE
10
50.000000
20
403.000000
11
0.000000
21
403.000000
62
7
0
LINE
10
0.000000
20
403.000000
11
0.000000
21
353.000000
62
7
0
LINE
10
0.000000
20
378.000000
11
50.000000
21
378.000000
62
7
0
LINE
10
134.000000
20
362.000000
11
144.000000
21
362.000000
62
7
0
LINE
10
134.000000
20
370.000000
11
144.000000
21
370.000000
62
7
0
ARC
10
134.000000
20
366.000000
40
4.000000
50
90.000000
51
270.000000
62
7
0
ARC
10
144.000000
20
366.000000
40
4.000000
50
270.000000
51
90.000000
62
7
0
CIRCLE
10
913.000000
20
343.000000
40
1.000000
62
7
0
LINE
10
923.000000
20
353.000000
11
973.000000
21
353.000000
62
7
0
LINE
10
973.000000
20
353.000000
11
973.000000
21
403.000000
62
7
0
LINE
10
973.000000
20
403.000000
11
923.000000
21
403.000000
62
7
0
LINE
10
923.000000
20
403.000000
11
923.000000
21
353.000000
62
7
0
LINE
10
923.000000
20
378.000000
11
973.000000
21
378.000000
62
7
0
CIRCLE
10
96.500000
20
108.500000
40
2.000000
62
7
0
CIRCLE
10
96.500000
20
183.000000
40
2.000000
62
7
0
CIRCLE
10
248.000000
20
108.500000
40
2.000000
62
7
0
CIRCLE
10
248.000000
20
183.000000
40
2.000000
62
7
0
CIRCLE
10
443.000000
20
108.500000
40
2.000000
62
7
0
CIRCLE
10
443.000000
20
183.000000
40
2.000000
62
7
0
CIRCLE
10
550.000000
20
108.500000
40
2.000000
62
7
0
CIRCLE
10
550.000000
20
183.000000
40
2.000000
62
7
0
CIRCLE
10
730.000000
20
108.500000
40
2.000000
62
7
0
CIRCLE
10
730.000000
20
183.000000
40
2.000000
62
7
0
CIRCLE
10
895.000000
20
108.500000
40
2.000000
62
7
0
CIRCLE
10
895.000000
20
183.000000
40
2.000000
62
7
0
LINE
10
50.000000
20
27.000000
11
68.378952
21
27.000000
62
7
0
LINE
10
68.378952
20
27.000000
11
68.378952
21
36.000000
62
7
0
LINE
10
68.378952
20
36.000000
11
77.568428
21
36.000000
62
7
0
LINE
10
77.568428
20
36.000000
11
77.568428
21
27.000000
62
7
0
LINE
10
77.568428
20
27.000000
11
86.757904
21
27.000000
62
7
0
LINE
10
86.757904
20
27.000000
11
86.757904
21
36.000000
62
7
0
LINE
10
86.757904
20
36.000000
11
95.947380
21
36.000000
62
7
0
LINE
10
95.947380
20
36.000000
11
95.947380
21
27.000000
62
7
0
LINE
10
95.947380
20
27.000000
11
105.136856
21
27.000000
62
7
0
LINE
10
105.136856
20
27.000000
11
105.136856
21
36.000000
62
7
0
LINE
10
105.136856
20
36.000000
11
114.326332
21
36.000000
62
7
0
LINE
10
114.326332
20
36.000000
11
114.326332
21
27.000000
62
7
0
LINE
10
114.326332
20
27.000000
11
123.515808
21
27.000000
62
7
0
LINE
10
123.515808
20
27.000000
11
123.515808
21
36.000000
62
7
0
LINE
10
123.515808
20
36.000000
11
132.705276
21
36.000000
62
7
0
LINE
10
132.705276
20
36.000000
11
132.705276
21
27.000000
62
7
0
LINE
10
132.705276
20
27.000000
11
141.894745
21
27.000000
62
7
0
LINE
10
141.894745
20
27.000000
11
141.894745
21
36.000000
62
7
0
LINE
10
141.894745
20
36.000000
11
151.084213
21
36.000000
62
7
0
LINE
10
151.084213
20
36.000000
11
151.084213
21
27.000000
62
7
0
LINE
10
151.084213
20
27.000000
11
160.273682
21
27.000000
62
7
0
LINE
10
160.273682
20
27.000000
11
160.273682
21
36.000000
62
7
0
LINE
10
160.273682
20
36.000000
11
169.463150
21
36.000000
62
7
0
LINE
10
169.463150
20
36.000000
11
169.463150
21
27.000000
62
7
0
LINE
10
169.463150
20
27.000000
11
178.652618
21
27.000000
62
7
0
LINE
10
178.652618
20
27.000000
11
178.652618
21
36.000000
62
7
0
LINE
10
178.652618
20
36.000000
11
187.842087
21
36.000000
62
7
0
LINE
10
187.842087
20
36.000000
11
187.842087
21
27.000000
62
7
0
LINE
10
187.842087
20
27.000000
11
197.031555
21
27.000000
62
7
0
LINE
10
197.031555
20
27.000000
11
197.031555
21
36.000000
62
7
0
LINE
10
197.031555
20
36.000000
11
206.221024
21
36.000000
62
7
0
LINE
10
206.221024
20
36.000000
11
206.221024
21
27.000000
62
7
0
LINE
10
206.221024
20
27.000000
11
215.410492
21
27.000000
62
7
0
LINE
10
215.410492
20
27.000000
11
215.410492
21
36.000000
62
7
0
LINE
10
215.410492
20
36.000000
11
224.599960
21
36.000000
62
7
0
LINE
10
224.599960
20
36.000000
11
224.599960
21
27.000000
62
7
0
LINE
10
224.599960
20
27.000000
11
233.789429
21
27.000000
62
7
0
LINE
10
233.789429
20
27.000000
11
233.789429
21
36.000000
62
7
0
LINE
10
233.789429
20
36.000000
11
242.978897
21
36.000000
62
7
0
LINE
10
242.978897
20
36.000000
11
242.978897
21
27.000000
62
7
0
LINE
10
242.978897
20
27.000000
11
252.168365
21
27.000000
62
7
0
LINE
10
252.168365
20
27.000000
11
252.168365
21
36.000000
62
7
0
LINE
10
252.168365
20
36.000000
11
261.357849
21
36.000000
62
7
0
LINE
10
261.357849
20
36.000000
11
261.357849
21
27.000000
62
7
0
LINE
10
261.357849
20
27.000000
11
270.547333
21
27.000000
62
7
0
LINE
10
270.547333
20
27.000000
11
270.547333
21
36.000000
62
7
0
LINE
10
270.547333
20
36.000000
11
279.736816
21
36.000000
62
7
0
LINE
10
279.736816
20
36.000000
11
279.736816
21
27.000000
62
7
0
LINE
10
279.736816
20
27.000000
11
288.926300
21
27.000000
62
7
0
LINE
10
288.926300
20
27.000000
11
288.926300
21
36.000000
62
7
0
LINE
10
288.926300
20
36.000000
11
298.115784
21
36.000000
62
7
0
LINE
10
298.115784
20
36.000000
11
298.115784
21
27.000000
62
7
0
LINE
10
298.115784
20
27.000000
11
307.305267
21
27.000000
62
7
0
LINE
10
307.305267
20
27.000000
11
307.305267
21
36.000000
62
7
0
LINE
10
307.305267
20
36.000000
11
316.494751
21
36.000000
62
7
0
LINE
10
316.494751
20
36.000000
11
316.494751
21
27.000000
62
7
0
LINE
10
316.494751
20
27.000000
11
325.684235
21
27.000000
62
7
0
LINE
10
325.684235
20
27.000000
11
325.684235
21
36.000000
62
7
0
LINE
10
325.684235
20
36.000000
11
334.873718
21
36.000000
62
7
0
LINE
10
334.873718
20
36.000000
11
334.873718
21
27.000000
62
7
0
LINE
10
334.873718
20
27.000000
11
344.063202
21
27.000000
62
7
0
LINE
10
344.063202
20
27.000000
11
344.063202
21
36.000000
62
7
0
LINE
10
344.063202
20
36.000000
11
353.252686
21
36.000000
62
7
0
LINE
10
353.252686
20
36.000000
11
353.252686
21
27.000000
62
7
0
LINE
10
353.252686
20
27.000000
11
362.442169
21
27.000000
62
7
0
LINE
10
362.442169
20
27.000000
11
362.442169
21
36.000000
62
7
0
LINE
10
362.442169
20
36.000000
11
371.631653
21
36.000000
62
7
0
LINE
10
371.631653
20
36.000000
11
371.631653
21
27.000000
62
7
0
LINE
10
371.631653
20
27.000000
11
380.821136
21
27.000000
62
7
0
LINE
10
380.821136
20
27.000000
11
380.821136
21
36.000000
62
7
0
LINE
10
380.821136
20
36.000000
11
390.010620
21
36.000000
62
7
0
LINE
10
390.010620
20
36.000000
11
390.010620
21
27.000000
62
7
0
LINE
10
390.010620
20
27.000000
11
399.200104
21
27.000000
62
7
0
LINE
10
399.200104
20
27.000000
11
399.200104
21
36.000000
62
7
0
LINE
10
399.200104
20
36.000000
11
408.389587
21
36.000000
62
7
0
LINE
10
408.389587
20
36.000000
11
408.389587
21
27.000000
62
7
0
LINE
10
408.389587
20
27.000000
11
417.579071
21
27.000000
62
7
0
LINE
10
417.579071
20
27.000000
11
417.579071
21
36.000000
62
7
0
LINE
10
417.579071
20
36.000000
11
426.768555
21
36.000000
62
7
0
LINE
10
426.768555
20
36.000000
11
426.768555
21
27.000000
62
7
0
LINE
10
426.768555
20
27.000000
11
435.958038
21
27.000000
62
7
0
LINE
10
435.958038
20
27.000000
11
435.958038
21
36.000000
62
7
0
LINE
10
435.958038
20
36.000000
11
445.147522
21
36.000000
62
7
0
LINE
10
445.147522
20
36.000000
11
445.147522
21
27.000000
62
7
0
LINE
10
445.147522
20
27.000000
11
454.337006
21
27.000000
62
7
0
LINE
10
454.337006
20
27.000000
11
454.337006
21
36.000000
62
7
0
LINE
10
454.337006
20
36.000000
11
463.526489
21
36.000000
62
7
0
LINE
10
463.526489
20
36.000000
11
463.526489
21
27.000000
62
7
0
LINE
10
463.526489
20
27.000000
11
472.715973
21
27.000000
62
7
0
LINE
10
472.715973
20
27.000000
11
472.715973
21
36.000000
62
7
0
LINE
10
472.715973
20
36.000000
11
481.905457
21
36.000000
62
7
0
LINE
10
481.905457
20
36.000000
11
481.905457
21
27.000000
62
7
0
LINE
10
481.905457
20
27.000000
11
491.094940
21
27.000000
62
7
0
LINE
10
491.094940
20
27.000000
11
491.094940
21
36.000000
62
7
0
LINE
10
491.094940
20
36.000000
11
500.284424
21
36.000000
62
7
0
LINE
10
500.284424
20
36.000000
11
500.284424
21
27.000000
62
7
0
LINE
10
500.284424
20
27.000000
11
509.473907
21
27.000000
62
7
0
LINE
10
509.473907
20
27.000000
11
509.473907
21
36.000000
62
7
0
LINE
10
509.473907
20
36.000000
11
518.663391
21
36.000000
62
7
0
LINE
10
518.663391
20
36.000000
11
518.663391
21
27.000000
62
7
0
LINE
10
518.663391
20
27.000000
11
527.852844
21
27.000000
62
7
0
LINE
10
527.852844
20
27.000000
11
527.852844
21
36.000000
62
7
0
LINE
10
527.852844
20
36.000000
11
537.042297
21
36.000000
62
7
0
LINE
10
537.042297
20
36.000000
11
537.042297
21
27.000000
62
7
0
LINE
10
537.042297
20
27.000000
11
546.231750
21
27.000000
62
7
0
LINE
10
546.231750
20
27.000000
11
546.231750
21
36.000000
62
7
0
LINE
10
546.231750
20
36.000000
11
555.421204
21
36.000000
62
7
0
LINE
10
555.421204
20
36.000000
11
555.421204
21
27.000000
62
7
0
LINE
10
555.421204
20
27.000000
11
564.610657
21
27.000000
62
7
0
LINE
10
564.610657
20
27.000000
11
564.610657
21
36.000000
62
7
0
LINE
10
564.610657
20
36.000000
11
573.800110
21
36.000000
62
7
0
LINE
10
573.800110
20
36.000000
11
573.800110
21
27.000000
62
7
0
LINE
10
573.800110
20
27.000000
11
582.989563
21
27.000000
62
7
0
LINE
10
582.989563
20
27.000000
11
582.989563
21
36.000000
62
7
0
LINE
10
582.989563
20
36.000000
11
592.179016
21
36.000000
62
7
0
LINE
10
592.179016
20
36.000000
11
592.179016
21
27.000000
62
7
0
LINE
10
592.179016
20
27.000000
11
601.368469
21
27.000000
62
7
0
LINE
10
601.368469
20
27.000000
11
601.368469
21
36.000000
62
7
0
LINE
10
601.368469
20
36.000000
11
610.557922
21
36.000000
62
7
0
LINE
10
610.557922
20
36.000000
11
610.557922
21
27.000000
62
7
0
LINE
10
610.557922
20
27.000000
11
619.747375
21
27.000000
62
7
0
LINE
10
619.747375
20
27.000000
11
619.747375
21
36.000000
62
7
0
LINE
10
619.747375
20
36.000000
11
628.936829
21
36.000000
62
7
0
LINE
10
628.936829
20
36.000000
11
628.936829
21
27.000000
62
7
0
LINE
10
628.936829
20
27.000000
11
638.126282
21
27.000000
62
7
0
LINE
10
638.126282
20
27.000000
11
638.126282
21
36.000000
62
7
0
LINE
10
638.126282
20
36.000000
11
647.315735
21
36.000000
62
7
0
LINE
10
647.315735
20
36.000000
11
647.315735
21
27.000000
62
7
0
LINE
10
647.315735
20
27.000000
11
656.505188
21
27.000000
62
7
0
LINE
10
656.505188
20
27.000000
11
656.505188
21
36.000000
62
7
0
LINE
10
656.505188
20
36.000000
11
665.694641
21
36.000000
62
7
0
LINE
10
665.694641
20
36.000000
11
665.694641
21
27.000000
62
7
0
LINE
10
665.694641
20
27.000000
11
674.884094
21
27.000000
62
7
0
LINE
10
674.884094
20
27.000000
11
674.884094
21
36.000000
62
7
0
LINE
10
674.884094
20
36.000000
11
684.073547
21
36.000000
62
7
0
LINE
10
684.073547
20
36.000000
11
684.073547
21
27.000000
62
7
0
LINE
10
684.073547
20
27.000000
11
693.263000
21
27.000000
62
7
0
LINE
10
693.263000
20
27.000000
11
693.263000
21
36.000000
62
7
0
LINE
10
693.263000
20
36.000000
11
702.452454
21
36.000000
62
7
0
LINE
10
702.452454
20
36.000000
11
702.452454
21
27.000000
62
7
0
LINE
10
702.452454
20
27.000000
11
711.641907
21
27.000000
62
7
0
LINE
10
711.641907
20
27.000000
11
711.641907
21
36.000000
62
7
0
LINE
10
711.641907
20
36.000000
11
720.831360
21
36.000000
62
7
0
LINE
10
720.831360
20
36.000000
11
720.831360
21
27.000000
62
7
0
LINE
10
720.831360
20
27.000000
11
730.020813
21
27.000000
62
7
0
LINE
10
730.020813
20
27.000000
11
730.020813
21
36.000000
62
7
0
LINE
10
730.020813
20
36.000000
11
739.210266
21
36.000000
62
7
0
LINE
10
739.210266
20
36.000000
11
739.210266
21
27.000000
62
7
0
LINE
10
739.210266
20
27.000000
11
748.399719
21
27.000000
62
7
0
LINE
10
748.399719
20
27.000000
11
748.399719
21
36.000000
62
7
0
LINE
10
748.399719
20
36.000000
11
757.589172
21
36.000000
62
7
0
LINE
10
757.589172
20
36.000000
11
757.589172
21
27.000000
62
7
0
LINE
10
757.589172
20
27.000000
11
766.778625
21
27.000000
62
7
0
LINE
10
766.778625
20
27.000000
11
766.778625
21
36.000000
62
7
0
LINE
10
766.778625
20
36.000000
11
775.968079
21
36.000000
62
7
0
LINE
10
775.968079
20
36.000000
11
775.968079
21
27.000000
62
7
0
LINE
10
775.968079
20
27.000000
11
785.157532
21
27.000000
62
7
0
LINE
10
785.157532
20
27.000000
11
785.157532
21
36.000000
62
7
0
LINE
10
785.157532
20
36.000000
11
794.346985
21
36.000000
62
7
0
LINE
10
794.346985
20
36.000000
11
794.346985
21
27.000000
62
7
0
LINE
10
794.346985
20
27.000000
11
803.536438
21
27.000000
62
7
0
LINE
10
803.536438
20
27.000000
11
803.536438
21
36.000000
62
7
0
LINE
10
803.536438
20
36.000000
11
812.725891
21
36.000000
62
7
0
LINE
10
812.725891
20
36.000000
11
812.725891
21
27.000000
62
7
0
LINE
10
812.725891
20
27.000000
11
821.915344
21
27.000000
62
7
0
LINE
10
821.915344
20
27.000000
11
821.915344
21
36.000000
62
7
0
LINE
10
821.915344
20
36.000000
11
831.104797
21
36.000000
62
7
0
LINE
10
831.104797
20
36.000000
11
831.104797
21
27.000000
62
7
0
LINE
10
831.104797
20
27.000000
11
840.294250
21
27.000000
62
7
0
LINE
10
840.294250
20
27.000000
11
840.294250
21
36.000000
62
7
0
LINE
10
840.294250
20
36.000000
11
849.483704
21
36.000000
62
7
0
LINE
10
849.483704
20
36.000000
11
849.483704
21
27.000000
62
7
0
LINE
10
849.483704
20
27.000000
11
858.673157
21
27.000000
62
7
0
LINE
10
858.673157
20
27.000000
11
858.673157
21
36.000000
62
7
0
LINE
10
858.673157
20
36.000000
11
867.862610
21
36.000000
62
7
0
LINE
10
867.862610
20
36.000000
11
867.862610
21
27.000000
62
7
0
LINE
10
867.862610
20
27.000000
11
877.052063
21
27.000000
62
7
0
LINE
10
877.052063
20
27.000000
11
877.052063
21
36.000000
62
7
0
LINE
10
877.052063
20
36.000000
11
886.241516
21
36.000000
62
7
0
LINE
10
886.241516
20
36.000000
11
886.241516
21
27.000000
62
7
0
LINE
10
886.241516
20
27.000000
11
895.430969
21
27.000000
62
7
0
LINE
10
895.430969
20
27.000000
11
895.430969
21
36.000000
62
7
0
LINE
10
895.430969
20
36.000000
11
904.620422
21
36.000000
62
7
0
LINE
10
904.620422
20
36.000000
11
904.620422
21
27.000000
62
7
0
LINE
10
904.620422
20
27.000000
11
922.999329
21
27.000000
62
7
0
LINE
10
923.000000
20
27.000000
11
923.000000
21
18.000000
62
7
0
LINE
10
923.000000
20
18.000000
11
914.000000
21
18.000000
62
7
0
LINE
10
914.000000
20
18.000000
11
914.000000
21
9.000000
62
7
0
LINE
10
914.000000
20
9.000000
11
923.000000
21
9.000000
62
7
0
LINE
10
923.000000
20
9.000000
11
923.000000
21
0.000000
62
7
0
LINE
10
923.000000
20
0.000000
11
50.000000
21
0.000000
62
7
0
LINE
10
50.000000
20
0.000000
11
50.000000
21
9.000000
62
7
0
LINE
10
50.000000
20
9.000000
11
59.000000
21
9.000000
62
7
0
LINE
10
59.000000
20
9.000000
11
59.000000
21
18.000000
62
7
0
LINE
10
59.000000
20
18.000000
11
50.000000
21
18.000000
62
7
0
LINE
10
50.000000
20
18.000000
11
50.000000
21
27.000000
62
7
0
LINE
10
50.000000
20
27.000000
11
50.000000
21
45.628571
62
7
0
LINE
10
50.000000
20
45.628571
11
59.000000
21
45.628571
62
7
0
LINE
10
59.000000
20
45.628571
11
59.000000
21
54.942856
62
7
0
LINE
10
59.000000
20
54.942856
11
50.000000
21
54.942856
62
7
0
LINE
10
50.000000
20
54.942856
11
50.000000
21
64.257141
62
7
0
LINE
10
50.000000
20
64.257141
11
59.000000
21
64.257141
62
7
0
LINE
10
59.000000
20
64.257141
11
59.000000
21
73.571426
62
7
0
LINE
10
59.000000
20
73.571426
11
50.000000
21
73.571426
62
7
0
LINE
10
50.000000
20
73.571426
11
50.000000
21
82.885712
62
7
0
LINE
10
50.000000
20
82.885712
11
59.000000
21
82.885712
62
7
0
LINE
10
59.000000
20
82.885712
11
59.000000
21
92.199997
62
7
0
LINE
10
59.000000
20
92.199997
11
50.000000
21
92.199997
62
7
0
LINE
10
50.000000
20
92.199997
11
50.000000
21
101.514282
62
7
0
LINE
10
50.000000
20
101.514282
11
59.000000
21
101.514282
62
7
0
LINE
10
59.000000
20
101.514282
11
59.000000
21
110.828568
62
7
0
LINE
10
59.000000
20
110.828568
11
50.000000
21
110.828568
62
7
0
LINE
10
50.000000
20
110.828568
11
50.000000
21
120.142853
62
7
0
LINE
10
50.000000
20
120.142853
11
59.000000
21
120.142853
62
7
0
LINE
10
59.000000
20
120.142853
11
59.000000
21
129.457138
62
7
0
LINE
10
59.000000
20
129.457138
11
50.000000
21
129.457138
62
7
0
LINE
10
50.000000
20
129.457138
11
50.000000
21
138.771423
62
7
0
LINE
10
50.000000
20
138.771423
11
59.000000
21
138.771423
62
7
0
LINE
10
59.000000
20
138.771423
11
59.000000
21
148.085709
62
7
0
LINE
10
59.000000
20
148.085709
11
50.000000
21
148.085709
62
7
0
LINE
10
50.000000
20
148.085709
11
50.000000
21
157.399994
62
7
0
LINE
10
50.000000
20
157.399994
11
59.000000
21
157.399994
62
7
0
LINE
10
59.000000
20
157.399994
11
59.000000
21
166.714279
62
7
0
LINE
10
59.000000
20
166.714279
11
50.000000
21
166.714279
62
7
0
LINE
10
50.000000
20
166.714279
11
50.000000
21
176.028564
62
7
0
LINE
10
50.000000
20
176.028564
11
59.000000
21
176.028564
62
7
0
LINE
10
59.000000
20
176.028564
11
59.000000
21
185.342850
62
7
0
LINE
10
59.000000
20
185.342850
11
50.000000
21
185.342850
62
7
0
LINE
10
50.000000
20
185.342850
11
50.000000
21
194.657135
62
7
0
LINE
10
50.000000
20
194.657135
11
59.000000
21
194.657135
62
7
0
LINE
10
59.000000
20
194.657135
11
59.000000
21
203.971420
62
7
0
LINE
10
59.000000
20
203.971420
11
50.000000
21
203.971420
62
7
0
LINE
10
50.000000
20
203.971420
11
50.000000
21
213.285706
62
7
0
LINE
10
50.000000
20
213.285706
11
59.000000
21
213.285706
62
7
0
LINE
10
59.000000
20
213.285706
11
59.000000
21
222.599991
62
7
0
LINE
10
59.000000
20
222.599991
11
50.000000
21
222.599991
62
7
0
LINE
10
50.000000
20
222.599991
11
50.000000
21
231.914276
62
7
0
LINE
10
50.000000
20
231.914276
11
59.000000
21
231.914276
62
7
0
LINE
10
59.000000
20
231.914276
11
59.000000
21
241.228561
62
7
0
LINE
10
59.000000
20
241.228561
11
50.000000
21
241.228561
62
7
0
LINE
10
50.000000
20
241.228561
11
50.000000
21
250.542847
62
7
0
LINE
10
50.000000
20
250.542847
11
59.000000
21
250.542847
62
7
0
LINE
10
59.000000
20
250.542847
11
59.000000
21
259.857117
62
7
0
LINE
10
59.000000
20
259.857117
11
50.000000
21
259.857117
62
7
0
LINE
10
50.000000
20
259.857117
11
50.000000
21
269.171387
62
7
0
LINE
10
50.000000
20
269.171387
11
59.000000
21
269.171387
62
7
0
LINE
10
59.000000
20
269.171387
11
59.000000
21
278.485657
62
7
0
LINE
10
59.000000
20
278.485657
11
50.000000
21
278.485657
62
7
0
LINE
10
50.000000
20
278.485657
11
50.000000
21
287.799927
62
7
0
LINE
10
50.000000
20
287.799927
11
59.000000
21
287.799927
62
7
0
LINE
10
59.000000
20
287.799927
11
59.000000
21
297.114197
62
7
0
LINE
10
59.000000
20
297.114197
11
50.000000
21
297.114197
62
7
0
LINE
10
50.000000
20
297.114197
11
50.000000
21
306.428467
62
7
0
LINE
10
50.000000
20
306.428467
11
59.000000
21
306.428467
62
7
0
LINE
10
59.000000
20
306.428467
11
59.000000
21
315.742737
62
7
0
LINE
10
59.000000
20
315.742737
11
50.000000
21
315.742737
62
7
0
LINE
10
50.000000
20
315.742737
11
50.000000
21
325.057007
62
7
0
LINE
10
50.000000
20
325.057007
11
59.000000
21
325.057007
62
7
0
LINE
10
59.000000
20
325.057007
11
59.000000
21
334.371277
62
7
0
LINE
10
59.000000
20
334.371277
11
50.000000
21
334.371277
62
7
0
LINE
10
50.000000
20
334.371277
11
50.000000
21
352.999817
62
7
0
LINE
10
50.000000
20
353.000000
11
68.378952
21
353.000000
62
7
0
LINE
10
68.378952
20
353.000000
11
68.378952
21
344.000000
62
7
0
LINE
10
68.378952
20
344.000000
11
77.568428
21
344.000000
62
7
0
LINE
10
77.568428
20
344.000000
11
77.568428
21
353.000000
62
7
0
LINE
10
77.568428
20
353.000000
11
86.757904
21
353.000000
62
7
0
LINE
10
86.757904
20
353.000000
11
86.757904
21
344.000000
62
7
0
LINE
10
86.757904
20
344.000000
11
95.947380
21
344.000000
62
7
0
LINE
10
95.947380
20
344.000000
11
95.947380
21
353.000000
62
7
0
LINE
10
95.947380
20
353.000000
11
105.136856
21
353.000000
62
7
0
LINE
10
105.136856
20
353.000000
11
105.136856
21
344.000000
62
7
0
LINE
10
105.136856
20
344.000000
11
114.326332
21
344.000000
62
7
0
LINE
10
114.326332
20
344.000000
11
114.326332
21
353.000000
62
7
0
LINE
10
114.326332
20
353.000000
11
123.515808
21
353.000000
62
7
0
LINE
10
123.515808
20
353.000000
11
123.515808
21
344.000000
62
7
0
LINE
10
123.515808
20
344.000000
11
132.705276
21
344.000000
62
7
0
LINE
10
132.705276
20
344.000000
11
132.705276
21
353.000000
62
7
0
LINE
10
132.705276
20
353.000000
11
141.894745
21
353.000000
62
7
0
LINE
10
141.894745
20
353.000000
11
141.894745
21
344.000000
62
7
0
LINE
10
141.894745
20
344.000000
11
151.084213
21
344.000000
62
7
0
LINE
10
151.084213
20
344.000000
11
151.084213
21
353.000000
62
7
0
LINE
10
151.084213
20
353.000000
11
160.273682
21
353.000000
62
7
0
LINE
10
160.273682
20
353.000000
11
160.273682
21
344.000000
62
7
0
LINE
10
160.273682
20
344.000000
11
169.463150
21
344.000000
62
7
0
LINE
10
169.463150
20
344.000000
11
169.463150
21
353.000000
62
7
0
LINE
10
169.463150
20
353.000000
11
178.652618
21
353.000000
62
7
0
LINE
10
178.652618
20
353.000000
11
178.652618
21
344.000000
62
7
0
LINE
10
178.652618
20
344.000000
11
187.842087
21
344.000000
62
7
0
LINE
10
187.842087
20
344.000000
11
187.842087
21
353.000000
62
7
0
LINE
10
187.842087
20
353.000000
11
197.031555
21
353.000000
62
7
0
LINE
10
197.031555
20
353.000000
11
197.031555
21
344.000000
62
7
0
LINE
10
197.031555
20
344.000000
11
206.221024
21
344.000000
62
7
0
LINE
10
206.221024
20
344.000000
11
206.221024
21
353.000000
62
7
0
LINE
10
206.221024
20
353.000000
11
215.410492
21
353.000000
62
7
0
LINE
10
215.410492
20
353.000000
11
215.410492
21
344.000000
62
7
0
LINE
10
215.410492
20
344.000000
11
224.599960
21
344.000000
62
7
0
LINE
10
224.599960
20
344.000000
11
224.599960
21
353.000000
62
7
0
LINE
10
224.599960
20
353.000000
11
233.789429
21
353.000000
62
7
0
LINE
10
233.789429
20
353.000000
11
233.789429
21
344.000000
62
7
0
LINE
10
233.789429
20
344.000000
11
242.978897
21
344.000000
62
7
0
LINE
10
242.978897
20
344.000000
11
242.978897
21
353.000000
62
7
0
LINE
10
242.978897
20
353.000000
11
252.168365
21
353.000000
62
7
0
LINE
10
252.168365
20
353.000000
11
252.168365
21
344.000000
62
7
0
LINE
10
252.168365
20
344.000000
11
261.357849
21
344.000000
62
7
0
LINE
10
261.357849
20
344.000000
11
261.357849
21
353.000000
62
7
0
LINE
10
261.357849
20
353.000000
11
270.547333
21
353.000000
62
7
0
LINE
10
270.547333
20
353.000000
11
270.547333
21
344.000000
62
7
0
LINE
10
270.547333
20
344.000000
11
279.736816
21
344.000000
62
7
0
LINE
10
279.736816
20
344.000000
11
279.736816
21
353.000000
62
7
0
LINE
10
279.736816
20
353.000000
11
288.926300
21
353.000000
62
7
0
LINE
10
288.926300
20
353.000000
11
288.926300
21
344.000000
62
7
0
LINE
10
288.926300
20
344.000000
11
298.115784
21
344.000000
62
7
0
LINE
10
298.115784
20
344.000000
11
298.115784
21
353.000000
62
7
0
LINE
10
298.115784
20
353.000000
11
307.305267
21
353.000000
62
7
0
LINE
10
307.305267
20
353.000000
11
307.305267
21
344.000000
62
7
0
LINE
10
307.305267
20
344.000000
11
316.494751
21
344.000000
62
7
0
LINE
10
316.494751
20
344.000000
11
316.494751
21
353.000000
62
7
0
LINE
10
316.494751
20
353.000000
11
325.684235
21
353.000000
62
7
0
LINE
10
325.684235
20
353.000000
11
325.684235
21
344.000000
62
7
0
LINE
10
325.684235
20
344.000000
11
334.873718
21
344.000000
62
7
0
LINE
10
334.873718
20
344.000000
11
334.873718
21
353.000000
62
7
0
LINE
10
334.873718
20
353.000000
11
344.063202
21
353.000000
62
7
0
LINE
10
344.063202
20
353.000000
11
344.063202
21
344.000000
62
7
0
LINE
10
344.063202
20
344.000000
11
353.252686
21
344.000000
62
7
0
LINE
10
353.252686
20
344.000000
11
353.252686
21
353.000000
62
7
0
LINE
10
353.252686
20
353.000000
11
362.442169
21
353.000000
62
7
0
LINE
10
362.442169
20
353.000000
11
362.442169
21
344.000000
62
7
0
LINE
10
362.442169
20
344.000000
11
371.631653
21
344.000000
62
7
0
LINE
10
371.631653
20
344.000000
11
371.631653
21
353.000000
62
7
0
LINE
10
371.631653
20
353.000000
11
380.821136
21
353.000000
62
7
0
LINE
10
380.821136
20
353.000000
11
380.821136
21
344.000000
62
7
0
LINE
10
380.821136
20
344.000000
11
390.010620
21
344.000000
62
7
0
LINE
10
390.010620
20
344.000000
11
390.010620
21
353.000000
62
7
0
LINE
10
390.010620
20
353.000000
11
399.200104
21
353.000000
62
7
0
LINE
10
399.200104
20
353.000000
11
399.200104
21
344.000000
62
7
0
LINE
10
399.200104
20
344.000000
11
408.389587
21
344.000000
62
7
0
LINE
10
408.389587
20
344.000000
11
408.389587
21
353.000000
62
7
0
LINE
10
408.389587
20
353.000000
11
417.579071
21
353.000000
62
7
0
LINE
10
417.579071
20
353.000000
11
417.579071
21
344.000000
62
7
0
LINE
10
417.579071
20
344.000000
11
426.768555
21
344.000000
62
7
0
LINE
10
426.768555
20
344.000000
11
426.768555
21
353.000000
62
7
0
LINE
10
426.768555
20
353.000000
11
435.958038
21
353.000000
62
7
0
LINE
10
435.958038
20
353.000000
11
435.958038
21
344.000000
62
7
0
LINE
10
435.958038
20
344.000000
11
445.147522
21
344.000000
62
7
0
LINE
10
445.147522
20
344.000000
11
445.147522
21
353.000000
62
7
0
LINE
10
445.147522
20
353.000000
11
454.337006
21
353.000000
62
7
0
LINE
10
454.337006
20
353.000000
11
454.337006
21
344.000000
62
7
0
LINE
10
454.337006
20
344.000000
11
463.526489
21
344.000000
62
7
0
LINE
10
463.526489
20
344.000000
11
463.526489
21
353.000000
62
7
0
LINE
10
463.526489
20
353.000000
11
472.715973
21
353.000000
62
7
0
LINE
10
472.715973
20
353.000000
11
472.715973
21
344.000000
62
7
0
LINE
10
472.715973
20
344.000000
11
481.905457
21
344.000000
62
7
0
LINE
10
481.905457
20
344.000000
11
481.905457
21
353.000000
62
7
0
LINE
10
481.905457
20
353.000000
11
491.094940
21
353.000000
62
7
0
LINE
10
491.094940
20
353.000000
11
491.094940
21
344.000000
62
7
0
LINE
10
491.094940
20
344.000000
11
500.284424
21
344.000000
62
7
0
LINE
10
500.284424
20
344.000000
11
500.284424
21
353.000000
62
7
0
LINE
10
500.284424
20
353.000000
11
509.473907
21
353.000000
62
7
0
LINE
10
509.473907
20
353.000000
11
509.473907
21
344.000000
62
7
0
LINE
10
509.473907
20
344.000000
11
518.663391
21
344.000000
62
7
0
LINE
10
518.663391
20
344.000000
11
518.663391
21
353.000000
62
7
0
LINE
10
518.663391
20
353.000000
11
527.852844
21
353.000000
62
7
0
LINE
10
527.852844
20
353.000000
11
527.852844
21
344.000000
62
7
0
LINE
10
527.852844
20
344.000000
11
537.042297
21
344.000000
62
7
0
LINE
10
537.042297
20
344.000000
11
537.042297
21
353.000000
62
7
0
LINE
10
537.042297
20
353.000000
11
546.231750
21
353.000000
62
7
0
LINE
10
546.231750
20
353.000000
11
546.231750
21
344.000000
62
7
0
LINE
10
546.231750
20
344.000000
11
555.421204
21
344.000000
62
7
0
LINE
10
555.421204
20
344.000000
11
555.421204
21
353.000000
62
7
0
LINE
10
555.421204
20
353.000000
11
564.610657
21
353.000000
62
7
0
LINE
10
564.610657
20
353.000000
11
564.610657
21
344.000000
62
7
0
LINE
10
564.610657
20
344.000000
11
573.800110
21
344.000000
62
7
0
LINE
10
573.800110
20
344.000000
11
573.800110
21
353.000000
62
7
0
LINE
10
573.800110
20
353.000000
11
582.989563
21
353.000000
62
7
0
LINE
10
582.989563
20
353.000000
11
582.989563
21
344.000000
62
7
0
LINE
10
582.989563
20
344.000000
11
592.179016
21
344.000000
62
7
0
LINE
10
592.179016
20
344.000000
11
592.179016
21
353.000000
62
7
0
LINE
10
592.179016
20
353.000000
11
601.368469
21
353.000000
62
7
0
LINE
10
601.368469
20
353.000000
11
601.368469
21
344.000000
62
7
0
LINE
10
601.368469
20
344.000000
11
610.557922
21
344.000000
62
7
0
LINE
10
610.557922
20
344.000000
11
610.557922
21
353.000000
62
7
0
LINE
10
610.557922
20
353.000000
11
619.747375
21
353.000000
62
7
0
LINE
10
619.747375
20
353.000000
11
619.747375
21
344.000000
62
7
0
LINE
10
619.747375
20
344.000000
11
628.936829
21
344.000000
62
7
0
LINE
10
628.936829
20
344.000000
11
628.936829
21
353.000000
62
7
0
LINE
10
628.936829
20
353.000000
11
638.126282
21
353.000000
62
7
0
LINE
10
638.126282
20
353.000000
11
638.126282
21
344.000000
62
7
0
LINE
10
638.126282
20
344.000000
11
647.315735
21
344.000000
62
7
0
LINE
10
647.315735
20
344.000000
11
647.315735
21
353.000000
62
7
0
LINE
10
647.315735
20
353.000000
11
656.505188
21
353.000000
62
7
0
LINE
10
656.505188
20
353.000000
11
656.505188
21
344.000000
62
7
0
LINE
10
656.505188
20
344.000000
11
665.694641
21
344.000000
62
7
0
LINE
10
665.694641
20
344.000000
11
665.694641
21
353.000000
62
7
0
LINE
10
665.694641
20
353.000000
11
674.884094
21
353.000000
62
7
0
LINE
10
674.884094
20
353.000000
11
674.884094
21
344.000000
62
7
0
LINE
10
674.884094
20
344.000000
11
684.073547
21
344.000000
62
7
0
LINE
10
684.073547
20
344.000000
11
684.073547
21
353.000000
62
7
0
LINE
10
684.073547
20
353.000000
11
693.263000
21
353.000000
62
7
0
LINE
10
693.263000
20
353.000000
11
693.263000
21
344.000000
62
7
0
LINE
10
693.263000
20
344.000000
11
702.452454
21
344.000000
62
7
0
LINE
10
702.452454
20
344.000000
11
702.452454
21
353.000000
62
7
0
LINE
10
702.452454
20
353.000000
11
711.641907
21
353.000000
62
7
0
LINE
10
711.641907
20
353.000000
11
711.641907
21
344.000000
62
7
0
LINE
10
711.641907
20
344.000000
11
720.831360
21
344.000000
62
7
0
LINE
10
720.831360
20
344.000000
11
720.831360
21
353.000000
62
7
0
LINE
10
720.831360
20
353.000000
11
730.020813
21
353.000000
62
7
0
LINE
10
730.020813
20
353.000000
11
730.020813
21
344.000000
62
7
0
LINE
10
730.020813
20
344.000000
11
739.210266
21
344.000000
62
7
0
LINE
10
739.210266
20
344.000000
11
739.210266
21
353.000000
62
7
0
LINE
10
739.210266
20
353.000000
11
748.399719
21
353.000000
62
7
0
LINE
10
748.399719
20
353.000000
11
748.399719
21
344.000000
62
7
0
LINE
10
748.399719
20
344.000000
11
757.589172
21
344.000000
62
7
0
LINE
10
757.589172
20
344.000000
11
757.589172
21
353.000000
62
7
0
LINE
10
757.589172
20
353.000000
11
766.778625
21
353.000000
62
7
0
LINE
10
766.778625
20
353.000000
11
766.778625
21
344.000000
62
7
0
LINE
10
766.778625
20
344.000000
11
775.968079
21
344.000000
62
7
0
LINE
10
775.968079
20
344.000000
11
775.968079
21
353.000000
62
7
0
LINE
10
775.968079
20
353.000000
11
785.157532
21
353.000000
62
7
0
LINE
10
785.157532
20
353.000000
11
785.157532
21
344.000000
62
7
0
LINE
10
785.157532
20
344.000000
11
794.346985
21
344.000000
62
7
0
LINE
10
794.346985
20
344.000000
11
794.346985
21
353.000000
62
7
0
LINE
10
794.346985
20
353.000000
11
803.536438
21
353.000000
62
7
0
LINE
10
803.536438
20
353.000000
11
803.536438
21
344.000000
62
7
0
LINE
10
803.536438
20
344.000000
11
812.725891
21
344.000000
62
7
0
LINE
10
812.725891
20
344.000000
11
812.725891
21
353.000000
62
7
0
LINE
10
812.725891
20
353.000000
11
821.915344
21
353.000000
62
7
0
LINE
10
821.915344
20
353.000000
11
821.915344
21
344.000000
62
7
0
LINE
10
821.915344
20
344.000000
11
831.104797
21
344.000000
62
7
0
LINE
10
831.104797
20
344.000000
11
831.104797
21
353.000000
62
7
0
LINE
10
831.104797
20
353.000000
11
840.294250
21
353.000000
62
7
0
LINE
10
840.294250
20
353.000000
11
840.294250
21
344.000000
62
7
0
LINE
10
840.294250
20
344.000000
11
849.483704
21
344.000000
62
7
0
LINE
10
849.483704
20
344.000000
11
849.483704
21
353.000000
62
7
0
LINE
10
849.483704
20
353.000000
11
858.673157
21
353.000000
62
7
0
LINE
10
858.673157
20
353.000000
11
858.673157
21
344.000000
62
7
0
LINE
10
858.673157
20
344.000000
11
867.862610
21
344.000000
62
7
0
LINE
10
867.862610
20
344.000000
11
867.862610
21
353.000000
62
7
0
LINE
10
867.862610
20
353.000000
11
877.052063
21
353.000000
62
7
0
LINE
10
877.052063
20
353.000000
11
877.052063
21
344.000000
62
7
0
LINE
10
877.052063
20
344.000000
11
886.241516
21
344.000000
62
7
0
LINE
10
886.241516
20
344.000000
11
886.241516
21
353.000000
62
7
0
LINE
10
886.241516
20
353.000000
11
895.430969
21
353.000000
62
7
0
LINE
10
895.430969
20
353.000000
11
895.430969
21
344.000000
62
7
0
LINE
10
895.430969
20
344.000000
11
904.620422
21
344.000000
62
7
0
LINE
10
904.620422
20
344.000000
11
904.620422
21
353.000000
62
7
0
LINE
10
904.620422
20
353.000000
11
922.999329
21
353.000000
62
7
0
LINE
10
923.000000
20
353.000000
11
923.000000
21
334.371460
62
7
0
LINE
10
923.000000
20
334.371460
11
914.000000
21
334.371460
62
7
0
LINE
10
914.000000
20
334.371460
11
914.000000
21
325.057190
62
7
0
LINE
10
914.000000
20
325.057190
11
923.000000
21
325.057190
62
7
0
LINE
10
923.000000
20
325.057190
11
923.000000
21
315.742920
62
7
0
LINE
10
923.000000
20
315.742920
11
914.000000
21
315.742920
62
7
0
LINE
10
914.000000
20
315.742920
11
914.000000
21
306.428650
62
7
0
LINE
10
914.000000
20
306.428650
11
923.000000
21
306.428650
62
7
0
LINE
10
923.000000
20
306.428650
11
923.000000
21
297.114380
62
7
0
LINE
10
923.000000
20
297.114380
11
914.000000
21
297.114380
62
7
0
LINE
10
914.000000
20
297.114380
11
914.000000
21
287.800110
62
7
0
LINE
10
914.000000
20
287.800110
11
923.000000
21
287.800110
62
7
0
LINE
10
923.000000
20
287.800110
11
923.000000
21
278.485840
62
7
0
LINE
10
923.000000
20
278.485840
11
914.000000
21
278.485840
62
7
0
LINE
10
914.000000
20
278.485840
11
914.000000
21
269.171570
62
7
0
LINE
10
914.000000
20
269.171570
11
923.000000
21
269.171570
62
7
0
LINE
10
923.000000
20
269.171570
11
923.000000
21
259.857300
62
7
0
LINE
10
923.000000
20
259.857300
11
914.000000
21
259.857300
62
7
0
LINE
10
914.000000
20
259.857300
11
914.000000
21
250.543015
62
7
0
LINE
10
914.000000
20
250.543015
11
923.000000
21
250.543015
62
7
0
LINE
10
923.000000
20
250.543015
11
923.000000
21
241.228729
62
7
0
LINE
10
923.000000
20
241.228729
11
914.000000
21
241.228729
62
7
0
LINE
10
914.000000
20
241.228729
11
914.000000
21
231.914444
62
7
0
LINE
10
914.000000
20
231.914444
11
923.000000
21
231.914444
62
7
0
LINE
10
923.000000
20
231.914444
11
923.000000
21
222.600159
62
7
0
LINE
10
923.000000
20
222.600159
11
914.000000
21
222.600159
62
7
0
LINE
10
914.000000
20
222.600159
11
914.000000
21
213.285873
62
7
0
LINE
10
914.000000
20
213.285873
11
923.000000
21
213.285873
62
7
0
LINE
10
923.000000
20
213.285873
11
923.000000
21
203.971588
62
7
0
LINE
10
923.000000
20
203.971588
11
914.000000
21
203.971588
62
7
0
LINE
10
914.000000
20
203.971588
11
914.000000
21
194.657303
62
7
0
LINE
10
914.000000
20
194.657303
11
923.000000
21
194.657303
62
7
0
LINE
10
923.000000
20
194.657303
11
923.000000
21
185.343018
62
7
0
LINE
10
923.000000
20
185.343018
11
914.000000
21
185.343018
62
7
0
LINE
10
914.000000
20
185.343018
11
914.000000
21
176.028732
62
7
0
LINE
10
914.000000
20
176.028732
11
923.000000
21
176.028732
62
7
0
LINE
10
923.000000
20
176.028732
11
923.000000
21
166.714447
62
7
0
LINE
10
923.000000
20
166.714447
11
914.000000
21
166.714447
62
7
0
LINE
10
914.000000
20
166.714447
11
914.000000
21
157.400162
62
7
0
LINE
10
914.000000
20
157.400162
11
923.000000
21
157.400162
62
7
0
LINE
10
923.000000
20
157.400162
11
923.000000
21
148.085876
62
7
0
LINE
10
923.000000
20
148.085876
11
914.000000
21
148.085876
62
7
0
LINE
10
914.000000
20
148.085876
11
914.000000
21
138.771591
62
7
0
LINE
10
914.000000
20
138.771591
11
923.000000
21
138.771591
62
7
0
LINE
10
923.000000
20
138.771591
11
923.000000
21
129.457306
62
7
0
LINE
10
923.000000
20
129.457306
11
914.000000
21
129.457306
62
7
0
LINE
10
914.000000
20
129.457306
11
914.000000
21
120.143021
62
7
0
LINE
10
914.000000
20
120.143021
11
923.000000
21
120.143021
62
7
0
LINE
10
923.000000
20
120.143021
11
923.000000
21
110.828735
62
7
0
LINE
10
923.000000
20
110.828735
11
914.000000
21
110.828735
62
7
0
LINE
10
914.000000
20
110.828735
11
914.000000
21
101.514450
62
7
0
LINE
10
914.000000
20
101.514450
11
923.000000
21
101.514450
62
7
0
LINE
10
923.000000
20
101.514450
11
923.000000
21
92.200165
62
7
0
LINE
10
923.000000
20
92.200165
11
914.000000
21
92.200165
62
7
0
LINE
10
914.000000
20
92.200165
11
914.000000
21
82.885880
62
7
0
LINE
10
914.000000
20
82.885880
11
923.000000
21
82.885880
62
7
0
LINE
10
923.000000
20
82.885880
11
923.000000
21
73.571594
62
7
0
LINE
10
923.000000
20
73.571594
11
914.000000
21
73.571594
62
7
0
LINE
10
914.000000
20
73.571594
11
914.000000
21
64.257309
62
7
0
LINE
10
914.000000
20
64.257309
11
923.000000
21
64.257309
62
7
0
LINE
10
923.000000
20
64.257309
11
923.000000
21
54.943024
62
7
0
LINE
10
923.000000
20
54.943024
11
914.000000
21
54.943024
62
7
0
LINE
10
914.000000
20
54.943024
11
914.000000
21
45.628738
62
7
0
LINE
10
914.000000
20
45.628738
11
923.000000
21
45.628738
62
7
0
LINE
10
923.000000
20
45.628738
11
923.000000
21
27.000168
62
7
0
LINE
10
923.000000
20
36.000000
11
932.000000
21
36.000000
62
7
0
LINE
10
932.000000
20
36.000000
11
932.000000
21
27.000000
62
7
0
LINE
10
932.000000
20
27.000000
11
941.000000
21
27.000000
62
7
0
LINE
10
941.000000
20
27.000000
11
941.000000
21
36.000000
62
7
0
LINE
10
941.000000
20
36.000000
11
950.000000
21
36.000000
62
7
0
LINE
10
950.000000
20
36.000000
11
950.000000
21
27.000000
62
7
0
LINE
10
950.000000
20
27.000000
11
968.000000
21
27.000000
62
7
0
LINE
10
973.000000
20
27.000000
11
973.000000
21
172.000000
62
7
0
LINE
10
973.000000
20
172.000000
11
973.000000
21
172.000000
62
7
0
LINE
10
973.000000
20
172.000000
11
973.000000
21
344.000000
62
7
0
LINE
10
973.000000
20
344.000000
11
963.000000
21
344.000000
62
7
0
LINE
10
963.000000
20
344.000000
11
963.000000
21
353.000000
62
7
0
LINE
10
963.000000
20
353.000000
11
953.000000
21
353.000000
62
7
0
LINE
10
953.000000
20
353.000000
11
953.000000
21
344.000000
62
7
0
LINE
10
953.000000
20
344.000000
11
943.000000
21
344.000000
62
7
0
LINE
10
943.000000
20
344.000000
11
943.000000
21
353.000000
62
7
0
LINE
10
943.000000
20
353.000000
11
933.000000
21
353.000000
62
7
0
LINE
10
933.000000
20
353.000000
11
933.000000
21
344.000000
62
7
0
LINE
10
933.000000
20
344.000000
11
923.000000
21
344.000000
62
7
0
LINE
10
923.000000
20
353.000000
11
923.000000
21
363.000000
62
7
0
LINE
10
923.000000
20
363.000000
11
914.000000
21
363.000000
62
7
0
LINE
10
914.000000
20
363.000000
11
914.000000
21
373.000000
62
7
0
LINE
10
914.000000
20
373.000000
11
923.000000
21
373.000000
62
7
0
LINE
10
923.000000
20
373.000000
11
923.000000
21
383.000000
62
7
0
LINE
10
923.000000
20
383.000000
11
914.000000
21
383.000000
62
7
0
LINE
10
914.000000
20
383.000000
11
914.000000
21
393.000000
62
7
0
LINE
10
914.000000
20
393.000000
11
923.000000
21
393.000000
62
7
0
LINE
10
923.000000
20
393.000000
11
923.000000
21
403.000000
62
7
0
LINE
10
923.000000
20
403.000000
11
50.000000
21
403.000000
62
7
0
LINE
10
50.000000
20
403.000000
11
50.000000
21
393.000000
62
7
0
LINE
10
50.000000
20
393.000000
11
59.000000
21
393.000000
62
7
0
LINE
10
59.000000
20
393.000000
11
59.000000
21
383.000000
62
7
0
LINE
10
59.000000
20
383.000000
11
50.000000
21
383.000000
62
7
0
LINE
10
50.000000
20
383.000000
11
50.000000
21
373.000000
62
7
0
LINE
10
50.000000
20
373.000000
11
59.000000
21
373.000000
62
7
0
LINE
10
59.000000
20
373.000000
11
59.000000
21
363.000000
62
7
0
LINE
10
59.000000
20
363.000000
11
50.000000
21
363.000000
62
7
0
LINE
10
50.000000
20
363.000000
11
50.000000
21
353.000000
62
7
0
LINE
10
50.000000
20
344.000000
11
40.000000
21
344.000000
62
7
0
LINE
10
40.000000
20
344.000000
11
40.000000
21
353.000000
62
7
0
LINE
10
40.000000
20
353.000000
11
30.000000
21
353.000000
62
7
0
LINE
10
30.000000
20
353.000000
11
30.000000
21
344.000000
62
7
0
LINE
10
30.000000
20
344.000000
11
20.000000
21
344.000000
62
7
0
LINE
10
20.000000
20
344.000000
11
20.000000
21
353.000000
62
7
0
LINE
10
20.000000
20
353.000000
11
10.000000
21
353.000000
62
7
0
LINE
10
10.000000
20
353.000000
11
10.000000
21
344.000000
62
7
0
LINE
10
10.000000
20
344.000000
11
0.000000
21
344.000000
62
7
0
LINE
10
0.000000
20
344.000000
11
0.000000
21
172.000000
62
7
0
LINE
10
0.000000
20
172.000000
11
0.000000
21
172.000000
62
7
0
LINE
10
0.000000
20
172.000000
11
0.000000
21
27.000000
62
7
0
LINE
10
14.000000
20
27.000000
11
23.000000
21
27.000000
62
7
0
LINE
10
23.000000
20
27.000000
11
23.000000
21
36.000000
62
7
0
LINE
10
23.000000
20
36.000000
11
32.000000
21
36.000000
62
7
0
LINE
10
32.000000
20
36.000000
11
32.000000
21
27.000000
62
7
0
LINE
10
32.000000
20
27.000000
11
41.000000
21
27.000000
62
7
0
LINE
10
41.000000
20
27.000000
11
41.000000
21
36.000000
62
7
0
LINE
10
41.000000
20
36.000000
11
50.000000
21
36.000000
62
7
0
ENDSEC
0
EOF
