0
SECTION
2
ENTITIES
0
CIRCLE
10
67.759979
20
15.500000
40
1.000000
62
7
0
LINE
10
74.479980
20
8.250000
11
88.979980
21
8.250000
62
7
0
LINE
10
88.979980
20
8.250000
11
88.979980
21
22.750000
62
7
0
LINE
10
88.979980
20
22.750000
11
74.479980
21
22.750000
62
7
0
LINE
10
74.479980
20
22.750000
11
74.479980
21
8.250000
62
7
0
LINE
10
80.729980
20
15.500000
11
82.729980
21
15.500000
62
7
0
LINE
10
81.729980
20
14.500000
11
81.729980
21
16.500000
62
7
0
CIRCLE
10
95.699982
20
15.500000
40
1.000000
62
7
0
LINE
10
102.419983
20
8.250000
11
116.919983
21
8.250000
62
7
0
LINE
10
116.919983
20
8.250000
11
116.919983
21
22.750000
62
7
0
LINE
10
116.919983
20
22.750000
11
102.419983
21
22.750000
62
7
0
LINE
10
102.419983
20
22.750000
11
102.419983
21
8.250000
62
7
0
LINE
10
108.669983
20
15.500000
11
110.669983
21
15.500000
62
7
0
LINE
10
109.669983
20
14.500000
11
109.669983
21
16.500000
62
7
0
CIRCLE
10
123.639984
20
15.500000
40
1.000000
62
7
0
LINE
10
130.359985
20
8.250000
11
144.859985
21
8.250000
62
7
0
LINE
10
144.859985
20
8.250000
11
144.859985
21
22.750000
62
7
0
LINE
10
144.859985
20
22.750000
11
130.359985
21
22.750000
62
7
0
LINE
10
130.359985
20
22.750000
11
130.359985
21
8.250000
62
7
0
LINE
10
136.609985
20
15.500000
11
138.609985
21
15.500000
62
7
0
LINE
10
137.609985
20
14.500000
11
137.609985
21
16.500000
62
7
0
CIRCLE
10
151.579987
20
15.500000
40
1.000000
62
7
0
LINE
10
158.299988
20
8.250000
11
172.799988
21
8.250000
62
7
0
LINE
10
172.799988
20
8.250000
11
172.799988
21
22.750000
62
7
0
LINE
10
172.799988
20
22.750000
11
158.299988
21
22.750000
62
7
0
LINE
10
158.299988
20
22.750000
11
158.299988
21
8.250000
62
7
0
LINE
10
164.549988
20
15.500000
11
166.549988
21
15.500000
62
7
0
LINE
10
165.549988
20
14.500000
11
165.549988
21
16.500000
62
7
0
CIRCLE
10
179.519989
20
15.500000
40
1.000000
62
7
0
LINE
10
186.239990
20
8.250000
11
200.739990
21
8.250000
62
7
0
LINE
10
200.739990
20
8.250000
11
200.739990
21
22.750000
62
7
0
LINE
10
200.739990
20
22.750000
11
186.239990
21
22.750000
62
7
0
LINE
10
186.239990
20
22.750000
11
186.239990
21
8.250000
62
7
0
LINE
10
192.489990
20
15.500000
11
194.489990
21
15.500000
62
7
0
LINE
10
193.489990
20
14.500000
11
193.489990
21
16.500000
62
7
0
CIRCLE
10
207.459991
20
15.500000
40
1.000000
62
7
0
LINE
10
214.179993
20
8.250000
11
228.679993
21
8.250000
62
7
0
LINE
10
228.679993
20
8.250000
11
228.679993
21
22.750000
62
7
0
LINE
10
228.679993
20
22.750000
11
214.179993
21
22.750000
62
7
0
LINE
10
214.179993
20
22.750000
11
214.179993
21
8.250000
62
7
0
LINE
10
220.429993
20
15.500000
11
222.429993
21
15.500000
62
7
0
LINE
10
221.429993
20
14.500000
11
221.429993
21
16.500000
62
7
0
CIRCLE
10
235.399979
20
15.500000
40
1.000000
62
7
0
LINE
10
242.119980
20
8.250000
11
256.619995
21
8.250000
62
7
0
LINE
10
256.619995
20
8.250000
11
256.619995
21
22.750000
62
7
0
LINE
10
256.619995
20
22.750000
11
242.119980
21
22.750000
62
7
0
LINE
10
242.119980
20
22.750000
11
242.119980
21
8.250000
62
7
0
LINE
10
248.369980
20
15.500000
11
250.369980
21
15.500000
62
7
0
LINE
10
249.369980
20
14.500000
11
249.369980
21
16.500000
62
7
0
CIRCLE
10
263.339966
20
15.500000
40
1.000000
62
7
0
LINE
10
270.059967
20
8.250000
11
284.559967
21
8.250000
62
7
0
LINE
10
284.559967
20
8.250000
11
284.559967
21
22.750000
62
7
0
LINE
10
284.559967
20
22.750000
11
270.059967
21
22.750000
62
7
0
LINE
10
270.059967
20
22.750000
11
270.059967
21
8.250000
62
7
0
LINE
10
276.309967
20
15.500000
11
278.309967
21
15.500000
62
7
0
LINE
10
277.309967
20
14.500000
11
277.309967
21
16.500000
62
7
0
CIRCLE
10
291.279968
20
15.500000
40
1.000000
62
7
0
LINE
10
297.999969
20
8.250000
11
312.499969
21
8.250000
62
7
0
LINE
10
312.499969
20
8.250000
11
312.499969
21
22.750000
62
7
0
LINE
10
312.499969
20
22.750000
11
297.999969
21
22.750000
62
7
0
LINE
10
297.999969
20
22.750000
11
297.999969
21
8.250000
62
7
0
LINE
10
304.249969
20
15.500000
11
306.249969
21
15.500000
62
7
0
LINE
10
305.249969
20
14.500000
11
305.249969
21
16.500000
62
7
0
CIRCLE
10
319.219971
20
15.500000
40
1.000000
62
7
0
LINE
10
325.939972
20
8.250000
11
340.439972
21
8.250000
62
7
0
LINE
10
340.439972
20
8.250000
11
340.439972
21
22.750000
62
7
0
LINE
10
340.439972
20
22.750000
11
325.939972
21
22.750000
62
7
0
LINE
10
325.939972
20
22.750000
11
325.939972
21
8.250000
62
7
0
LINE
10
332.189972
20
15.500000
11
334.189972
21
15.500000
62
7
0
LINE
10
333.189972
20
14.500000
11
333.189972
21
16.500000
62
7
0
CIRCLE
10
347.159973
20
15.500000
40
1.000000
62
7
0
LINE
10
353.879974
20
8.250000
11
368.379974
21
8.250000
62
7
0
LINE
10
368.379974
20
8.250000
11
368.379974
21
22.750000
62
7
0
LINE
10
368.379974
20
22.750000
11
353.879974
21
22.750000
62
7
0
LINE
10
353.879974
20
22.750000
11
353.879974
21
8.250000
62
7
0
LINE
10
360.129974
20
15.500000
11
362.129974
21
15.500000
62
7
0
LINE
10
361.129974
20
14.500000
11
361.129974
21
16.500000
62
7
0
CIRCLE
10
375.099976
20
15.500000
40
1.000000
62
7
0
LINE
10
381.819977
20
8.250000
11
396.319977
21
8.250000
62
7
0
LINE
10
396.319977
20
8.250000
11
396.319977
21
22.750000
62
7
0
LINE
10
396.319977
20
22.750000
11
381.819977
21
22.750000
62
7
0
LINE
10
381.819977
20
22.750000
11
381.819977
21
8.250000
62
7
0
LINE
10
388.069977
20
15.500000
11
390.069977
21
15.500000
62
7
0
LINE
10
389.069977
20
14.500000
11
389.069977
21
16.500000
62
7
0
CIRCLE
10
403.039978
20
15.500000
40
1.000000
62
7
0
LINE
10
409.759979
20
8.250000
11
424.259979
21
8.250000
62
7
0
LINE
10
424.259979
20
8.250000
11
424.259979
21
22.750000
62
7
0
LINE
10
424.259979
20
22.750000
11
409.759979
21
22.750000
62
7
0
LINE
10
409.759979
20
22.750000
11
409.759979
21
8.250000
62
7
0
LINE
10
416.009979
20
15.500000
11
418.009979
21
15.500000
62
7
0
LINE
10
417.009979
20
14.500000
11
417.009979
21
16.500000
62
7
0
CIRCLE
10
430.979980
20
15.500000
40
1.000000
62
7
0
LINE
10
437.699982
20
8.250000
11
452.199982
21
8.250000
62
7
0
LINE
10
452.199982
20
8.250000
11
452.199982
21
22.750000
62
7
0
LINE
10
452.199982
20
22.750000
11
437.699982
21
22.750000
62
7
0
LINE
10
437.699982
20
22.750000
11
437.699982
21
8.250000
62
7
0
LINE
10
443.949982
20
15.500000
11
445.949982
21
15.500000
62
7
0
LINE
10
444.949982
20
14.500000
11
444.949982
21
16.500000
62
7
0
CIRCLE
10
458.919983
20
15.500000
40
1.000000
62
7
0
LINE
10
465.639984
20
8.250000
11
480.139984
21
8.250000
62
7
0
LINE
10
480.139984
20
8.250000
11
480.139984
21
22.750000
62
7
0
LINE
10
480.139984
20
22.750000
11
465.639984
21
22.750000
62
7
0
LINE
10
465.639984
20
22.750000
11
465.639984
21
8.250000
62
7
0
LINE
10
471.889984
20
15.500000
11
473.889984
21
15.500000
62
7
0
LINE
10
472.889984
20
14.500000
11
472.889984
21
16.500000
62
7
0
CIRCLE
10
486.859985
20
15.500000
40
1.000000
62
7
0
LINE
10
493.579987
20
8.250000
11
508.079987
21
8.250000
62
7
0
LINE
10
508.079987
20
8.250000
11
508.079987
21
22.750000
62
7
0
LINE
10
508.079987
20
22.750000
11
493.579987
21
22.750000
62
7
0
LINE
10
493.579987
20
22.750000
11
493.579987
21
8.250000
62
7
0
LINE
10
499.829987
20
15.500000
11
501.829987
21
15.500000
62
7
0
LINE
10
500.829987
20
14.500000
11
500.829987
21
16.500000
62
7
0
CIRCLE
10
514.799988
20
15.500000
40
1.000000
62
7
0
LINE
10
521.519958
20
8.250000
11
536.019958
21
8.250000
62
7
0
LINE
10
536.019958
20
8.250000
11
536.019958
21
22.750000
62
7
0
LINE
10
536.019958
20
22.750000
11
521.519958
21
22.750000
62
7
0
LINE
10
521.519958
20
22.750000
11
521.519958
21
8.250000
62
7
0
LINE
10
527.769958
20
15.500000
11
529.769958
21
15.500000
62
7
0
LINE
10
528.769958
20
14.500000
11
528.769958
21
16.500000
62
7
0
CIRCLE
10
542.739990
20
15.500000
40
1.000000
62
7
0
LINE
10
549.459961
20
8.250000
11
563.959961
21
8.250000
62
7
0
LINE
10
563.959961
20
8.250000
11
563.959961
21
22.750000
62
7
0
LINE
10
563.959961
20
22.750000
11
549.459961
21
22.750000
62
7
0
LINE
10
549.459961
20
22.750000
11
549.459961
21
8.250000
62
7
0
LINE
10
555.709961
20
15.500000
11
557.709961
21
15.500000
62
7
0
LINE
10
556.709961
20
14.500000
11
556.709961
21
16.500000
62
7
0
CIRCLE
10
570.679993
20
15.500000
40
1.000000
62
7
0
LINE
10
577.399963
20
8.250000
11
591.899963
21
8.250000
62
7
0
LINE
10
591.899963
20
8.250000
11
591.899963
21
22.750000
62
7
0
LINE
10
591.899963
20
22.750000
11
577.399963
21
22.750000
62
7
0
LINE
10
577.399963
20
22.750000
11
577.399963
21
8.250000
62
7
0
LINE
10
583.649963
20
15.500000
11
585.649963
21
15.500000
62
7
0
LINE
10
584.649963
20
14.500000
11
584.649963
21
16.500000
62
7
0
CIRCLE
10
598.619995
20
15.500000
40
1.000000
62
7
0
LINE
10
605.339966
20
8.250000
11
619.839966
21
8.250000
62
7
0
LINE
10
619.839966
20
8.250000
11
619.839966
21
22.750000
62
7
0
LINE
10
619.839966
20
22.750000
11
605.339966
21
22.750000
62
7
0
LINE
10
605.339966
20
22.750000
11
605.339966
21
8.250000
62
7
0
LINE
10
611.589966
20
15.500000
11
613.589966
21
15.500000
62
7
0
LINE
10
612.589966
20
14.500000
11
612.589966
21
16.500000
62
7
0
CIRCLE
10
626.559998
20
15.500000
40
1.000000
62
7
0
LINE
10
633.279968
20
8.250000
11
647.779968
21
8.250000
62
7
0
LINE
10
647.779968
20
8.250000
11
647.779968
21
22.750000
62
7
0
LINE
10
647.779968
20
22.750000
11
633.279968
21
22.750000
62
7
0
LINE
10
633.279968
20
22.750000
11
633.279968
21
8.250000
62
7
0
LINE
10
639.529968
20
15.500000
11
641.529968
21
15.500000
62
7
0
LINE
10
640.529968
20
14.500000
11
640.529968
21
16.500000
62
7
0
CIRCLE
10
654.500000
20
15.500000
40
1.000000
62
7
0
LINE
10
661.219971
20
8.250000
11
675.719971
21
8.250000
62
7
0
LINE
10
675.719971
20
8.250000
11
675.719971
21
22.750000
62
7
0
LINE
10
675.719971
20
22.750000
11
661.219971
21
22.750000
62
7
0
LINE
10
661.219971
20
22.750000
11
661.219971
21
8.250000
62
7
0
LINE
10
667.469971
20
15.500000
11
669.469971
21
15.500000
62
7
0
LINE
10
668.469971
20
14.500000
11
668.469971
21
16.500000
62
7
0
CIRCLE
10
682.440002
20
15.500000
40
1.000000
62
7
0
LINE
10
689.159973
20
8.250000
11
703.659973
21
8.250000
62
7
0
LINE
10
703.659973
20
8.250000
11
703.659973
21
22.750000
62
7
0
LINE
10
703.659973
20
22.750000
11
689.159973
21
22.750000
62
7
0
LINE
10
689.159973
20
22.750000
11
689.159973
21
8.250000
62
7
0
LINE
10
695.409973
20
15.500000
11
697.409973
21
15.500000
62
7
0
LINE
10
696.409973
20
14.500000
11
696.409973
21
16.500000
62
7
0
CIRCLE
10
710.380005
20
15.500000
40
1.000000
62
7
0
LINE
10
717.099976
20
8.250000
11
731.599976
21
8.250000
62
7
0
LINE
10
731.599976
20
8.250000
11
731.599976
21
22.750000
62
7
0
LINE
10
731.599976
20
22.750000
11
717.099976
21
22.750000
62
7
0
LINE
10
717.099976
20
22.750000
11
717.099976
21
8.250000
62
7
0
LINE
10
723.349976
20
15.500000
11
725.349976
21
15.500000
62
7
0
LINE
10
724.349976
20
14.500000
11
724.349976
21
16.500000
62
7
0
CIRCLE
10
738.320007
20
15.500000
40
1.000000
62
7
0
LINE
10
745.039978
20
8.250000
11
759.539978
21
8.250000
62
7
0
LINE
10
759.539978
20
8.250000
11
759.539978
21
22.750000
62
7
0
LINE
10
759.539978
20
22.750000
11
745.039978
21
22.750000
62
7
0
LINE
10
745.039978
20
22.750000
11
745.039978
21
8.250000
62
7
0
LINE
10
751.289978
20
15.500000
11
753.289978
21
15.500000
62
7
0
LINE
10
752.289978
20
14.500000
11
752.289978
21
16.500000
62
7
0
CIRCLE
10
766.260010
20
15.500000
40
1.000000
62
7
0
LINE
10
772.979980
20
8.250000
11
787.479980
21
8.250000
62
7
0
LINE
10
787.479980
20
8.250000
11
787.479980
21
22.750000
62
7
0
LINE
10
787.479980
20
22.750000
11
772.979980
21
22.750000
62
7
0
LINE
10
772.979980
20
22.750000
11
772.979980
21
8.250000
62
7
0
LINE
10
779.229980
20
15.500000
11
781.229980
21
15.500000
62
7
0
LINE
10
780.229980
20
14.500000
11
780.229980
21
16.500000
62
7
0
CIRCLE
10
794.199951
20
15.500000
40
1.000000
62
7
0
LINE
10
800.919922
20
8.250000
11
815.419922
21
8.250000
62
7
0
LINE
10
815.419922
20
8.250000
11
815.419922
21
22.750000
62
7
0
LINE
10
815.419922
20
22.750000
11
800.919922
21
22.750000
62
7
0
LINE
10
800.919922
20
22.750000
11
800.919922
21
8.250000
62
7
0
LINE
10
807.169922
20
15.500000
11
809.169922
21
15.500000
62
7
0
LINE
10
808.169922
20
14.500000
11
808.169922
21
16.500000
62
7
0
CIRCLE
10
822.140015
20
15.500000
40
1.000000
62
7
0
LINE
10
828.859985
20
8.250000
11
843.359985
21
8.250000
62
7
0
LINE
10
843.359985
20
8.250000
11
843.359985
21
22.750000
62
7
0
LINE
10
843.359985
20
22.750000
11
828.859985
21
22.750000
62
7
0
LINE
10
828.859985
20
22.750000
11
828.859985
21
8.250000
62
7
0
LINE
10
835.109985
20
15.500000
11
837.109985
21
15.500000
62
7
0
LINE
10
836.109985
20
14.500000
11
836.109985
21
16.500000
62
7
0
CIRCLE
10
850.079956
20
15.500000
40
1.000000
62
7
0
LINE
10
856.799927
20
8.250000
11
871.299927
21
8.250000
62
7
0
LINE
10
871.299927
20
8.250000
11
871.299927
21
22.750000
62
7
0
LINE
10
871.299927
20
22.750000
11
856.799927
21
22.750000
62
7
0
LINE
10
856.799927
20
22.750000
11
856.799927
21
8.250000
62
7
0
LINE
10
863.049927
20
15.500000
11
865.049927
21
15.500000
62
7
0
LINE
10
864.049927
20
14.500000
11
864.049927
21
16.500000
62
7
0
CIRCLE
10
878.020020
20
15.500000
40
1.000000
62
7
0
LINE
10
884.739990
20
8.250000
11
899.239990
21
8.250000
62
7
0
LINE
10
899.239990
20
8.250000
11
899.239990
21
22.750000
62
7
0
LINE
10
899.239990
20
22.750000
11
884.739990
21
22.750000
62
7
0
LINE
10
884.739990
20
22.750000
11
884.739990
21
8.250000
62
7
0
LINE
10
890.989990
20
15.500000
11
892.989990
21
15.500000
62
7
0
LINE
10
891.989990
20
14.500000
11
891.989990
21
16.500000
62
7
0
CIRCLE
10
905.959961
20
15.500000
40
1.000000
62
7
0
CIRCLE
10
86.859985
20
242.720001
40
1.000000
62
7
0
CIRCLE
10
186.859985
20
242.720001
40
1.000000
62
7
0
CIRCLE
10
286.859985
20
242.720001
40
1.000000
62
7
0
CIRCLE
10
386.859985
20
242.720001
40
1.000000
62
7
0
CIRCLE
10
486.859985
20
242.720001
40
1.000000
62
7
0
CIRCLE
10
586.859985
20
242.720001
40
1.000000
62
7
0
CIRCLE
10
686.859985
20
242.720001
40
1.000000
62
7
0
CIRCLE
10
786.859985
20
242.720001
40
1.000000
62
7
0
CIRCLE
10
886.859985
20
242.720001
40
1.000000
62
7
0
CIRCLE
10
60.360001
20
37.360001
40
1.000000
62
7
0
LINE
10
50.000000
20
27.000000
11
50.000000
21
0.000001
62
7
0
LINE
10
50.000000
20
0.000001
11
0.000000
21
0.000001
62
7
0
LINE
10
0.000000
20
0.000001
11
0.000000
21
27.000000
62
7
0
LINE
10
0.000000
20
27.000000
11
50.000000
21
27.000000
62
7
0
CIRCLE
10
913.359985
20
37.360001
40
1.000000
62
7
0
LINE
10
923.719971
20
27.000000
11
923.719971
21
0.000001
62
7
0
LINE
10
923.719971
20
0.000001
11
973.719971
21
0.000001
62
7
0
LINE
10
973.719971
20
0.000001
11
973.719971
21
27.000000
62
7
0
LINE
10
973.719971
20
27.000000
11
923.719971
21
27.000000
62
7
0
CIRCLE
10
60.360001
20
207.360001
40
1.000000
62
7
0
LINE
10
0.000000
20
217.720001
11
50.000000
21
217.720001
62
7
0
LINE
10
50.000000
20
217.720001
11
50.000000
21
267.720001
62
7
0
LINE
10
50.000000
20
267.720001
11
0.000000
21
267.720001
62
7
0
LINE
10
0.000000
20
267.720001
11
0.000000
21
217.720001
62
7
0
LINE
10
0.000001
20
242.720001
11
50.000000
21
242.720001
62
7
0
LINE
10
134.360001
20
226.720001
11
144.360001
21
226.720001
62
7
0
LINE
10
134.360001
20
234.720001
11
144.360001
21
234.720001
62
7
0
ARC
10
134.360001
20
230.720001
40
4.000000
50
90.000000
51
270.000000
62
7
0
ARC
10
144.360001
20
230.720001
40
4.000000
50
270.000000
51
90.000000
62
7
0
CIRCLE
10
913.359985
20
207.360001
40
1.000000
62
7
0
LINE
10
923.719971
20
217.720001
11
973.719971
21
217.720001
62
7
0
LINE
10
973.719971
20
217.720001
11
973.719971
21
267.720001
62
7
0
LINE
10
973.719971
20
267.720001
11
923.719971
21
267.720001
62
7
0
LINE
10
923.719971
20
267.720001
11
923.719971
21
217.720001
62
7
0
LINE
10
923.719971
20
242.720001
11
973.719971
21
242.720001
62
7
0
CIRCLE
10
96.860001
20
108.860001
40
2.000000
62
7
0
CIRCLE
10
96.860001
20
183.360001
40
2.000000
62
7
0
CIRCLE
10
248.360001
20
108.860001
40
2.000000
62
7
0
CIRCLE
10
248.360001
20
183.360001
40
2.000000
62
7
0
CIRCLE
10
385.859985
20
108.860001
40
0.500000
62
7
0
CIRCLE
10
385.859985
20
183.360001
40
0.500000
62
7
0
CIRCLE
10
413.359985
20
108.860001
40
2.000000
62
7
0
CIRCLE
10
413.359985
20
183.360001
40
2.000000
62
7
0
CIRCLE
10
550.359985
20
108.860001
40
2.000000
62
7
0
CIRCLE
10
550.359985
20
183.360001
40
2.000000
62
7
0
CIRCLE
10
730.359985
20
108.860001
40
2.000000
62
7
0
CIRCLE
10
730.359985
20
183.360001
40
2.000000
62
7
0
CIRCLE
10
895.359985
20
108.860001
40
2.000000
62
7
0
CIRCLE
10
895.359985
20
183.360001
40
2.000000
62
7
0
LINE
10
50.000000
20
27.000000
11
69.202637
21
27.000000
62
7
0
LINE
10
69.202637
20
27.000000
11
69.202637
21
36.360001
62
7
0
LINE
10
69.202637
20
36.360001
11
78.803955
21
36.360001
62
7
0
LINE
10
78.803955
20
36.360001
11
78.803955
21
27.000000
62
7
0
LINE
10
78.803955
20
27.000000
11
88.405273
21
27.000000
62
7
0
LINE
10
88.405273
20
27.000000
11
88.405273
21
36.360001
62
7
0
LINE
10
88.405273
20
36.360001
11
98.006592
21
36.360001
62
7
0
LINE
10
98.006592
20
36.360001
11
98.006592
21
27.000000
62
7
0
LINE
10
98.006592
20
27.000000
11
107.607910
21
27.000000
62
7
0
LINE
10
107.607910
20
27.000000
11
107.607910
21
36.360001
62
7
0
LINE
10
107.607910
20
36.360001
11
117.209229
21
36.360001
62
7
0
LINE
10
117.209229
20
36.360001
11
117.209229
21
27.000000
62
7
0
LINE
10
117.209229
20
27.000000
11
126.810547
21
27.000000
62
7
0
LINE
10
126.810547
20
27.000000
11
126.810547
21
36.360001
62
7
0
LINE
10
126.810547
20
36.360001
11
136.411865
21
36.360001
62
7
0
LINE
10
136.411865
20
36.360001
11
136.411865
21
27.000000
62
7
0
LINE
10
136.411865
20
27.000000
11
146.013184
21
27.000000
62
7
0
LINE
10
146.013184
20
27.000000
11
146.013184
21
36.360001
62
7
0
LINE
10
146.013184
20
36.360001
11
155.614502
21
36.360001
62
7
0
LINE
10
155.614502
20
36.360001
11
155.614502
21
27.000000
62
7
0
LINE
10
155.614502
20
27.000000
11
165.215820
21
27.000000
62
7
0
LINE
10
165.215820
20
27.000000
11
165.215820
21
36.360001
62
7
0
LINE
10
165.215820
20
36.360001
11
174.817139
21
36.360001
62
7
0
LINE
10
174.817139
20
36.360001
11
174.817139
21
27.000000
62
7
0
LINE
10
174.817139
20
27.000000
11
184.418457
21
27.000000
62
7
0
LINE
10
184.418457
20
27.000000
11
184.418457
21
36.360001
62
7
0
LINE
10
184.418457
20
36.360001
11
194.019775
21
36.360001
62
7
0
LINE
10
194.019775
20
36.360001
11
194.019775
21
27.000000
62
7
0
LINE
10
194.019775
20
27.000000
11
203.621094
21
27.000000
62
7
0
LINE
10
203.621094
20
27.000000
11
203.621094
21
36.360001
62
7
0
LINE
10
203.621094
20
36.360001
11
213.222412
21
36.360001
62
7
0
LINE
10
213.222412
20
36.360001
11
213.222412
21
27.000000
62
7
0
LINE
10
213.222412
20
27.000000
11
222.823730
21
27.000000
62
7
0
LINE
10
222.823730
20
27.000000
11
222.823730
21
36.360001
62
7
0
LINE
10
222.823730
20
36.360001
11
232.425049
21
36.360001
62
7
0
LINE
10
232.425049
20
36.360001
11
232.425049
21
27.000000
62
7
0
LINE
10
232.425049
20
27.000000
11
242.026367
21
27.000000
62
7
0
LINE
10
242.026367
20
27.000000
11
242.026367
21
36.360001
62
7
0
LINE
10
242.026367
20
36.360001
11
251.627686
21
36.360001
62
7
0
LINE
10
251.627686
20
36.360001
11
251.627686
21
27.000000
62
7
0
LINE
10
251.627686
20
27.000000
11
261.229004
21
27.000000
62
7
0
LINE
10
261.229004
20
27.000000
11
261.229004
21
36.360001
62
7
0
LINE
10
261.229004
20
36.360001
11
270.830322
21
36.360001
62
7
0
LINE
10
270.830322
20
36.360001
11
270.830322
21
27.000000
62
7
0
LINE
10
270.830322
20
27.000000
11
280.431641
21
27.000000
62
7
0
LINE
10
280.431641
20
27.000000
11
280.431641
21
36.360001
62
7
0
LINE
10
280.431641
20
36.360001
11
290.032959
21
36.360001
62
7
0
LINE
10
290.032959
20
36.360001
11
290.032959
21
27.000000
62
7
0
LINE
10
290.032959
20
27.000000
11
299.634277
21
27.000000
62
7
0
LINE
10
299.634277
20
27.000000
11
299.634277
21
36.360001
62
7
0
LINE
10
299.634277
20
36.360001
11
309.235596
21
36.360001
62
7
0
LINE
10
309.235596
20
36.360001
11
309.235596
21
27.000000
62
7
0
LINE
10
309.235596
20
27.000000
11
318.836914
21
27.000000
62
7
0
LINE
10
318.836914
20
27.000000
11
318.836914
21
36.360001
62
7
0
LINE
10
318.836914
20
36.360001
11
328.438232
21
36.360001
62
7
0
LINE
10
328.438232
20
36.360001
11
328.438232
21
27.000000
62
7
0
LINE
10
328.438232
20
27.000000
11
338.039551
21
27.000000
62
7
0
LINE
10
338.039551
20
27.000000
11
338.039551
21
36.360001
62
7
0
LINE
10
338.039551
20
36.360001
11
347.640869
21
36.360001
62
7
0
LINE
10
347.640869
20
36.360001
11
347.640869
21
27.000000
62
7
0
LINE
10
347.640869
20
27.000000
11
357.242188
21
27.000000
62
7
0
LINE
10
357.242188
20
27.000000
11
357.242188
21
36.360001
62
7
0
LINE
10
357.242188
20
36.360001
11
366.843506
21
36.360001
62
7
0
LINE
10
366.843506
20
36.360001
11
366.843506
21
27.000000
62
7
0
LINE
10
366.843506
20
27.000000
11
376.444824
21
27.000000
62
7
0
LINE
10
376.444824
20
27.000000
11
376.444824
21
36.360001
62
7
0
LINE
10
376.444824
20
36.360001
11
386.046143
21
36.360001
62
7
0
LINE
10
386.046143
20
36.360001
11
386.046143
21
27.000000
62
7
0
LINE
10
386.046143
20
27.000000
11
395.647461
21
27.000000
62
7
0
LINE
10
395.647461
20
27.000000
11
395.647461
21
36.360001
62
7
0
LINE
10
395.647461
20
36.360001
11
405.248779
21
36.360001
62
7
0
LINE
10
405.248779
20
36.360001
11
405.248779
21
27.000000
62
7
0
LINE
10
405.248779
20
27.000000
11
414.850098
21
27.000000
62
7
0
LINE
10
414.850098
20
27.000000
11
414.850098
21
36.360001
62
7
0
LINE
10
414.850098
20
36.360001
11
424.451416
21
36.360001
62
7
0
LINE
10
424.451416
20
36.360001
11
424.451416
21
27.000000
62
7
0
LINE
10
424.451416
20
27.000000
11
434.052734
21
27.000000
62
7
0
LINE
10
434.052734
20
27.000000
11
434.052734
21
36.360001
62
7
0
LINE
10
434.052734
20
36.360001
11
443.654053
21
36.360001
62
7
0
LINE
10
443.654053
20
36.360001
11
443.654053
21
27.000000
62
7
0
LINE
10
443.654053
20
27.000000
11
453.255371
21
27.000000
62
7
0
LINE
10
453.255371
20
27.000000
11
453.255371
21
36.360001
62
7
0
LINE
10
453.255371
20
36.360001
11
462.856689
21
36.360001
62
7
0
LINE
10
462.856689
20
36.360001
11
462.856689
21
27.000000
62
7
0
LINE
10
462.856689
20
27.000000
11
472.458008
21
27.000000
62
7
0
LINE
10
472.458008
20
27.000000
11
472.458008
21
36.360001
62
7
0
LINE
10
472.458008
20
36.360001
11
482.059326
21
36.360001
62
7
0
LINE
10
482.059326
20
36.360001
11
482.059326
21
27.000000
62
7
0
LINE
10
482.059326
20
27.000000
11
491.660645
21
27.000000
62
7
0
LINE
10
491.660645
20
27.000000
11
491.660645
21
36.360001
62
7
0
LINE
10
491.660645
20
36.360001
11
501.261963
21
36.360001
62
7
0
LINE
10
501.261963
20
36.360001
11
501.261963
21
27.000000
62
7
0
LINE
10
501.261963
20
27.000000
11
510.863281
21
27.000000
62
7
0
LINE
10
510.863281
20
27.000000
11
510.863281
21
36.360001
62
7
0
LINE
10
510.863281
20
36.360001
11
520.464600
21
36.360001
62
7
0
LINE
10
520.464600
20
36.360001
11
520.464600
21
27.000000
62
7
0
LINE
10
520.464600
20
27.000000
11
530.065918
21
27.000000
62
7
0
LINE
10
530.065918
20
27.000000
11
530.065918
21
36.360001
62
7
0
LINE
10
530.065918
20
36.360001
11
539.667236
21
36.360001
62
7
0
LINE
10
539.667236
20
36.360001
11
539.667236
21
27.000000
62
7
0
LINE
10
539.667236
20
27.000000
11
549.268555
21
27.000000
62
7
0
LINE
10
549.268555
20
27.000000
11
549.268555
21
36.360001
62
7
0
LINE
10
549.268555
20
36.360001
11
558.869873
21
36.360001
62
7
0
LINE
10
558.869873
20
36.360001
11
558.869873
21
27.000000
62
7
0
LINE
10
558.869873
20
27.000000
11
568.471191
21
27.000000
62
7
0
LINE
10
568.471191
20
27.000000
11
568.471191
21
36.360001
62
7
0
LINE
10
568.471191
20
36.360001
11
578.072510
21
36.360001
62
7
0
LINE
10
578.072510
20
36.360001
11
578.072510
21
27.000000
62
7
0
LINE
10
578.072510
20
27.000000
11
587.673828
21
27.000000
62
7
0
LINE
10
587.673828
20
27.000000
11
587.673828
21
36.360001
62
7
0
LINE
10
587.673828
20
36.360001
11
597.275146
21
36.360001
62
7
0
LINE
10
597.275146
20
36.360001
11
597.275146
21
27.000000
62
7
0
LINE
10
597.275146
20
27.000000
11
606.876465
21
27.000000
62
7
0
LINE
10
606.876465
20
27.000000
11
606.876465
21
36.360001
62
7
0
LINE
10
606.876465
20
36.360001
11
616.477783
21
36.360001
62
7
0
LINE
10
616.477783
20
36.360001
11
616.477783
21
27.000000
62
7
0
LINE
10
616.477783
20
27.000000
11
626.079102
21
27.000000
62
7
0
LINE
10
626.079102
20
27.000000
11
626.079102
21
36.360001
62
7
0
LINE
10
626.079102
20
36.360001
11
635.680420
21
36.360001
62
7
0
LINE
10
635.680420
20
36.360001
11
635.680420
21
27.000000
62
7
0
LINE
10
635.680420
20
27.000000
11
645.281738
21
27.000000
62
7
0
LINE
10
645.281738
20
27.000000
11
645.281738
21
36.360001
62
7
0
LINE
10
645.281738
20
36.360001
11
654.883057
21
36.360001
62
7
0
LINE
10
654.883057
20
36.360001
11
654.883057
21
27.000000
62
7
0
LINE
10
654.883057
20
27.000000
11
664.484375
21
27.000000
62
7
0
LINE
10
664.484375
20
27.000000
11
664.484375
21
36.360001
62
7
0
LINE
10
664.484375
20
36.360001
11
674.085693
21
36.360001
62
7
0
LINE
10
674.085693
20
36.360001
11
674.085693
21
27.000000
62
7
0
LINE
10
674.085693
20
27.000000
11
683.687012
21
27.000000
62
7
0
LINE
10
683.687012
20
27.000000
11
683.687012
21
36.360001
62
7
0
LINE
10
683.687012
20
36.360001
11
693.288330
21
36.360001
62
7
0
LINE
10
693.288330
20
36.360001
11
693.288330
21
27.000000
62
7
0
LINE
10
693.288330
20
27.000000
11
702.889648
21
27.000000
62
7
0
LINE
10
702.889648
20
27.000000
11
702.889648
21
36.360001
62
7
0
LINE
10
702.889648
20
36.360001
11
712.490967
21
36.360001
62
7
0
LINE
10
712.490967
20
36.360001
11
712.490967
21
27.000000
62
7
0
LINE
10
712.490967
20
27.000000
11
722.092285
21
27.000000
62
7
0
LINE
10
722.092285
20
27.000000
11
722.092285
21
36.360001
62
7
0
LINE
10
722.092285
20
36.360001
11
731.693604
21
36.360001
62
7
0
LINE
10
731.693604
20
36.360001
11
731.693604
21
27.000000
62
7
0
LINE
10
731.693604
20
27.000000
11
741.294922
21
27.000000
62
7
0
LINE
10
741.294922
20
27.000000
11
741.294922
21
36.360001
62
7
0
LINE
10
741.294922
20
36.360001
11
750.896240
21
36.360001
62
7
0
LINE
10
750.896240
20
36.360001
11
750.896240
21
27.000000
62
7
0
LINE
10
750.896240
20
27.000000
11
760.497559
21
27.000000
62
7
0
LINE
10
760.497559
20
27.000000
11
760.497559
21
36.360001
62
7
0
LINE
10
760.497559
20
36.360001
11
770.098877
21
36.360001
62
7
0
LINE
10
770.098877
20
36.360001
11
770.098877
21
27.000000
62
7
0
LINE
10
770.098877
20
27.000000
11
779.700195
21
27.000000
62
7
0
LINE
10
779.700195
20
27.000000
11
779.700195
21
36.360001
62
7
0
LINE
10
779.700195
20
36.360001
11
789.301514
21
36.360001
62
7
0
LINE
10
789.301514
20
36.360001
11
789.301514
21
27.000000
62
7
0
LINE
10
789.301514
20
27.000000
11
798.902832
21
27.000000
62
7
0
LINE
10
798.902832
20
27.000000
11
798.902832
21
36.360001
62
7
0
LINE
10
798.902832
20
36.360001
11
808.504150
21
36.360001
62
7
0
LINE
10
808.504150
20
36.360001
11
808.504150
21
27.000000
62
7
0
LINE
10
808.504150
20
27.000000
11
818.105469
21
27.000000
62
7
0
LINE
10
818.105469
20
27.000000
11
818.105469
21
36.360001
62
7
0
LINE
10
818.105469
20
36.360001
11
827.706787
21
36.360001
62
7
0
LINE
10
827.706787
20
36.360001
11
827.706787
21
27.000000
62
7
0
LINE
10
827.706787
20
27.000000
11
837.308105
21
27.000000
62
7
0
LINE
10
837.308105
20
27.000000
11
837.308105
21
36.360001
62
7
0
LINE
10
837.308105
20
36.360001
11
846.909424
21
36.360001
62
7
0
LINE
10
846.909424
20
36.360001
11
846.909424
21
27.000000
62
7
0
LINE
10
846.909424
20
27.000000
11
856.510742
21
27.000000
62
7
0
LINE
10
856.510742
20
27.000000
11
856.510742
21
36.360001
62
7
0
LINE
10
856.510742
20
36.360001
11
866.112061
21
36.360001
62
7
0
LINE
10
866.112061
20
36.360001
11
866.112061
21
27.000000
62
7
0
LINE
10
866.112061
20
27.000000
11
875.713379
21
27.000000
62
7
0
LINE
10
875.713379
20
27.000000
11
875.713379
21
36.360001
62
7
0
LINE
10
875.713379
20
36.360001
11
885.314697
21
36.360001
62
7
0
LINE
10
885.314697
20
36.360001
11
885.314697
21
27.000000
62
7
0
LINE
10
885.314697
20
27.000000
11
894.916016
21
27.000000
62
7
0
LINE
10
894.916016
20
27.000000
11
894.916016
21
36.360001
62
7
0
LINE
10
894.916016
20
36.360001
11
904.517334
21
36.360001
62
7
0
LINE
10
904.517334
20
36.360001
11
904.517334
21
27.000000
62
7
0
LINE
10
904.517334
20
27.000000
11
923.719971
21
27.000000
62
7
0
LINE
10
923.719971
20
27.000000
11
923.719971
21
18.000000
62
7
0
LINE
10
923.719971
20
18.000000
11
914.359985
21
18.000000
62
7
0
LINE
10
914.359985
20
18.000000
11
914.359985
21
9.000000
62
7
0
LINE
10
914.359985
20
9.000000
11
923.719971
21
9.000000
62
7
0
LINE
10
923.719971
20
9.000000
11
923.719971
21
0.000000
62
7
0
LINE
10
923.719971
20
0.000001
11
50.000000
21
0.000001
62
7
0
LINE
10
50.000000
20
0.000001
11
50.000000
21
9.000001
62
7
0
LINE
10
50.000000
20
9.000001
11
59.360001
21
9.000001
62
7
0
LINE
10
59.360001
20
9.000001
11
59.360001
21
18.000000
62
7
0
LINE
10
59.360001
20
18.000000
11
50.000000
21
18.000000
62
7
0
LINE
10
50.000000
20
18.000000
11
50.000000
21
27.000000
62
7
0
LINE
10
50.000000
20
27.000000
11
50.000000
21
47.075790
62
7
0
LINE
10
50.000000
20
47.075790
11
59.360001
21
47.075790
62
7
0
LINE
10
59.360001
20
47.075790
11
59.360001
21
57.113686
62
7
0
LINE
10
59.360001
20
57.113686
11
50.000000
21
57.113686
62
7
0
LINE
10
50.000000
20
57.113686
11
50.000000
21
67.151581
62
7
0
LINE
10
50.000000
20
67.151581
11
59.360001
21
67.151581
62
7
0
LINE
10
59.360001
20
67.151581
11
59.360001
21
77.189476
62
7
0
LINE
10
59.360001
20
77.189476
11
50.000000
21
77.189476
62
7
0
LINE
10
50.000000
20
77.189476
11
50.000000
21
87.227371
62
7
0
LINE
10
50.000000
20
87.227371
11
59.360001
21
87.227371
62
7
0
LINE
10
59.360001
20
87.227371
11
59.360001
21
97.265266
62
7
0
LINE
10
59.360001
20
97.265266
11
50.000000
21
97.265266
62
7
0
LINE
10
50.000000
20
97.265266
11
50.000000
21
107.303162
62
7
0
LINE
10
50.000000
20
107.303162
11
59.360001
21
107.303162
62
7
0
LINE
10
59.360001
20
107.303162
11
59.360001
21
117.341057
62
7
0
LINE
10
59.360001
20
117.341057
11
50.000000
21
117.341057
62
7
0
LINE
10
50.000000
20
117.341057
11
50.000000
21
127.378952
62
7
0
LINE
10
50.000000
20
127.378952
11
59.360001
21
127.378952
62
7
0
LINE
10
59.360001
20
127.378952
11
59.360001
21
137.416840
62
7
0
LINE
10
59.360001
20
137.416840
11
50.000000
21
137.416840
62
7
0
LINE
10
50.000000
20
137.416840
11
50.000000
21
147.454742
62
7
0
LINE
10
50.000000
20
147.454742
11
59.360001
21
147.454742
62
7
0
LINE
10
59.360001
20
147.454742
11
59.360001
21
157.492645
62
7
0
LINE
10
59.360001
20
157.492645
11
50.000000
21
157.492645
62
7
0
LINE
10
50.000000
20
157.492645
11
50.000000
21
167.530548
62
7
0
LINE
10
50.000000
20
167.530548
11
59.360001
21
167.530548
62
7
0
LINE
10
59.360001
20
167.530548
11
59.360001
21
177.568451
62
7
0
LINE
10
59.360001
20
177.568451
11
50.000000
21
177.568451
62
7
0
LINE
10
50.000000
20
177.568451
11
50.000000
21
187.606354
62
7
0
LINE
10
50.000000
20
187.606354
11
59.360001
21
187.606354
62
7
0
LINE
10
59.360001
20
187.606354
11
59.360001
21
197.644257
62
7
0
LINE
10
59.360001
20
197.644257
11
50.000000
21
197.644257
62
7
0
LINE
10
50.000000
20
197.644257
11
50.000000
21
217.720062
62
7
0
LINE
10
50.000000
20
217.720001
11
69.202637
21
217.720001
62
7
0
LINE
10
69.202637
20
217.720001
11
69.202637
21
208.360001
62
7
0
LINE
10
69.202637
20
208.360001
11
78.803955
21
208.360001
62
7
0
LINE
10
78.803955
20
208.360001
11
78.803955
21
217.720001
62
7
0
LINE
10
78.803955
20
217.720001
11
88.405273
21
217.720001
62
7
0
LINE
10
88.405273
20
217.720001
11
88.405273
21
208.360001
62
7
0
LINE
10
88.405273
20
208.360001
11
98.006592
21
208.360001
62
7
0
LINE
10
98.006592
20
208.360001
11
98.006592
21
217.720001
62
7
0
LINE
10
98.006592
20
217.720001
11
107.607910
21
217.720001
62
7
0
LINE
10
107.607910
20
217.720001
11
107.607910
21
208.360001
62
7
0
LINE
10
107.607910
20
208.360001
11
117.209229
21
208.360001
62
7
0
LINE
10
117.209229
20
208.360001
11
117.209229
21
217.720001
62
7
0
LINE
10
117.209229
20
217.720001
11
126.810547
21
217.720001
62
7
0
LINE
10
126.810547
20
217.720001
11
126.810547
21
208.360001
62
7
0
LINE
10
126.810547
20
208.360001
11
136.411865
21
208.360001
62
7
0
LINE
10
136.411865
20
208.360001
11
136.411865
21
217.720001
62
7
0
LINE
10
136.411865
20
217.720001
11
146.013184
21
217.720001
62
7
0
LINE
10
146.013184
20
217.720001
11
146.013184
21
208.360001
62
7
0
LINE
10
146.013184
20
208.360001
11
155.614502
21
208.360001
62
7
0
LINE
10
155.614502
20
208.360001
11
155.614502
21
217.720001
62
7
0
LINE
10
155.614502
20
217.720001
11
165.215820
21
217.720001
62
7
0
LINE
10
165.215820
20
217.720001
11
165.215820
21
208.360001
62
7
0
LINE
10
165.215820
20
208.360001
11
174.817139
21
208.360001
62
7
0
LINE
10
174.817139
20
208.360001
11
174.817139
21
217.720001
62
7
0
LINE
10
174.817139
20
217.720001
11
184.418457
21
217.720001
62
7
0
LINE
10
184.418457
20
217.720001
11
184.418457
21
208.360001
62
7
0
LINE
10
184.418457
20
208.360001
11
194.019775
21
208.360001
62
7
0
LINE
10
194.019775
20
208.360001
11
194.019775
21
217.720001
62
7
0
LINE
10
194.019775
20
217.720001
11
203.621094
21
217.720001
62
7
0
LINE
10
203.621094
20
217.720001
11
203.621094
21
208.360001
62
7
0
LINE
10
203.621094
20
208.360001
11
213.222412
21
208.360001
62
7
0
LINE
10
213.222412
20
208.360001
11
213.222412
21
217.720001
62
7
0
LINE
10
213.222412
20
217.720001
11
222.823730
21
217.720001
62
7
0
LINE
10
222.823730
20
217.720001
11
222.823730
21
208.360001
62
7
0
LINE
10
222.823730
20
208.360001
11
232.425049
21
208.360001
62
7
0
LINE
10
232.425049
20
208.360001
11
232.425049
21
217.720001
62
7
0
LINE
10
232.425049
20
217.720001
11
242.026367
21
217.720001
62
7
0
LINE
10
242.026367
20
217.720001
11
242.026367
21
208.360001
62
7
0
LINE
10
242.026367
20
208.360001
11
251.627686
21
208.360001
62
7
0
LINE
10
251.627686
20
208.360001
11
251.627686
21
217.720001
62
7
0
LINE
10
251.627686
20
217.720001
11
261.229004
21
217.720001
62
7
0
LINE
10
261.229004
20
217.720001
11
261.229004
21
208.360001
62
7
0
LINE
10
261.229004
20
208.360001
11
270.830322
21
208.360001
62
7
0
LINE
10
270.830322
20
208.360001
11
270.830322
21
217.720001
62
7
0
LINE
10
270.830322
20
217.720001
11
280.431641
21
217.720001
62
7
0
LINE
10
280.431641
20
217.720001
11
280.431641
21
208.360001
62
7
0
LINE
10
280.431641
20
208.360001
11
290.032959
21
208.360001
62
7
0
LINE
10
290.032959
20
208.360001
11
290.032959
21
217.720001
62
7
0
LINE
10
290.032959
20
217.720001
11
299.634277
21
217.720001
62
7
0
LINE
10
299.634277
20
217.720001
11
299.634277
21
208.360001
62
7
0
LINE
10
299.634277
20
208.360001
11
309.235596
21
208.360001
62
7
0
LINE
10
309.235596
20
208.360001
11
309.235596
21
217.720001
62
7
0
LINE
10
309.235596
20
217.720001
11
318.836914
21
217.720001
62
7
0
LINE
10
318.836914
20
217.720001
11
318.836914
21
208.360001
62
7
0
LINE
10
318.836914
20
208.360001
11
328.438232
21
208.360001
62
7
0
LINE
10
328.438232
20
208.360001
11
328.438232
21
217.720001
62
7
0
LINE
10
328.438232
20
217.720001
11
338.039551
21
217.720001
62
7
0
LINE
10
338.039551
20
217.720001
11
338.039551
21
208.360001
62
7
0
LINE
10
338.039551
20
208.360001
11
347.640869
21
208.360001
62
7
0
LINE
10
347.640869
20
208.360001
11
347.640869
21
217.720001
62
7
0
LINE
10
347.640869
20
217.720001
11
357.242188
21
217.720001
62
7
0
LINE
10
357.242188
20
217.720001
11
357.242188
21
208.360001
62
7
0
LINE
10
357.242188
20
208.360001
11
366.843506
21
208.360001
62
7
0
LINE
10
366.843506
20
208.360001
11
366.843506
21
217.720001
62
7
0
LINE
10
366.843506
20
217.720001
11
376.444824
21
217.720001
62
7
0
LINE
10
376.444824
20
217.720001
11
376.444824
21
208.360001
62
7
0
LINE
10
376.444824
20
208.360001
11
386.046143
21
208.360001
62
7
0
LINE
10
386.046143
20
208.360001
11
386.046143
21
217.720001
62
7
0
LINE
10
386.046143
20
217.720001
11
395.647461
21
217.720001
62
7
0
LINE
10
395.647461
20
217.720001
11
395.647461
21
208.360001
62
7
0
LINE
10
395.647461
20
208.360001
11
405.248779
21
208.360001
62
7
0
LINE
10
405.248779
20
208.360001
11
405.248779
21
217.720001
62
7
0
LINE
10
405.248779
20
217.720001
11
414.850098
21
217.720001
62
7
0
LINE
10
414.850098
20
217.720001
11
414.850098
21
208.360001
62
7
0
LINE
10
414.850098
20
208.360001
11
424.451416
21
208.360001
62
7
0
LINE
10
424.451416
20
208.360001
11
424.451416
21
217.720001
62
7
0
LINE
10
424.451416
20
217.720001
11
434.052734
21
217.720001
62
7
0
LINE
10
434.052734
20
217.720001
11
434.052734
21
208.360001
62
7
0
LINE
10
434.052734
20
208.360001
11
443.654053
21
208.360001
62
7
0
LINE
10
443.654053
20
208.360001
11
443.654053
21
217.720001
62
7
0
LINE
10
443.654053
20
217.720001
11
453.255371
21
217.720001
62
7
0
LINE
10
453.255371
20
217.720001
11
453.255371
21
208.360001
62
7
0
LINE
10
453.255371
20
208.360001
11
462.856689
21
208.360001
62
7
0
LINE
10
462.856689
20
208.360001
11
462.856689
21
217.720001
62
7
0
LINE
10
462.856689
20
217.720001
11
472.458008
21
217.720001
62
7
0
LINE
10
472.458008
20
217.720001
11
472.458008
21
208.360001
62
7
0
LINE
10
472.458008
20
208.360001
11
482.059326
21
208.360001
62
7
0
LINE
10
482.059326
20
208.360001
11
482.059326
21
217.720001
62
7
0
LINE
10
482.059326
20
217.720001
11
491.660645
21
217.720001
62
7
0
LINE
10
491.660645
20
217.720001
11
491.660645
21
208.360001
62
7
0
LINE
10
491.660645
20
208.360001
11
501.261963
21
208.360001
62
7
0
LINE
10
501.261963
20
208.360001
11
501.261963
21
217.720001
62
7
0
LINE
10
501.261963
20
217.720001
11
510.863281
21
217.720001
62
7
0
LINE
10
510.863281
20
217.720001
11
510.863281
21
208.360001
62
7
0
LINE
10
510.863281
20
208.360001
11
520.464600
21
208.360001
62
7
0
LINE
10
520.464600
20
208.360001
11
520.464600
21
217.720001
62
7
0
LINE
10
520.464600
20
217.720001
11
530.065918
21
217.720001
62
7
0
LINE
10
530.065918
20
217.720001
11
530.065918
21
208.360001
62
7
0
LINE
10
530.065918
20
208.360001
11
539.667236
21
208.360001
62
7
0
LINE
10
539.667236
20
208.360001
11
539.667236
21
217.720001
62
7
0
LINE
10
539.667236
20
217.720001
11
549.268555
21
217.720001
62
7
0
LINE
10
549.268555
20
217.720001
11
549.268555
21
208.360001
62
7
0
LINE
10
549.268555
20
208.360001
11
558.869873
21
208.360001
62
7
0
LINE
10
558.869873
20
208.360001
11
558.869873
21
217.720001
62
7
0
LINE
10
558.869873
20
217.720001
11
568.471191
21
217.720001
62
7
0
LINE
10
568.471191
20
217.720001
11
568.471191
21
208.360001
62
7
0
LINE
10
568.471191
20
208.360001
11
578.072510
21
208.360001
62
7
0
LINE
10
578.072510
20
208.360001
11
578.072510
21
217.720001
62
7
0
LINE
10
578.072510
20
217.720001
11
587.673828
21
217.720001
62
7
0
LINE
10
587.673828
20
217.720001
11
587.673828
21
208.360001
62
7
0
LINE
10
587.673828
20
208.360001
11
597.275146
21
208.360001
62
7
0
LINE
10
597.275146
20
208.360001
11
597.275146
21
217.720001
62
7
0
LINE
10
597.275146
20
217.720001
11
606.876465
21
217.720001
62
7
0
LINE
10
606.876465
20
217.720001
11
606.876465
21
208.360001
62
7
0
LINE
10
606.876465
20
208.360001
11
616.477783
21
208.360001
62
7
0
LINE
10
616.477783
20
208.360001
11
616.477783
21
217.720001
62
7
0
LINE
10
616.477783
20
217.720001
11
626.079102
21
217.720001
62
7
0
LINE
10
626.079102
20
217.720001
11
626.079102
21
208.360001
62
7
0
LINE
10
626.079102
20
208.360001
11
635.680420
21
208.360001
62
7
0
LINE
10
635.680420
20
208.360001
11
635.680420
21
217.720001
62
7
0
LINE
10
635.680420
20
217.720001
11
645.281738
21
217.720001
62
7
0
LINE
10
645.281738
20
217.720001
11
645.281738
21
208.360001
62
7
0
LINE
10
645.281738
20
208.360001
11
654.883057
21
208.360001
62
7
0
LINE
10
654.883057
20
208.360001
11
654.883057
21
217.720001
62
7
0
LINE
10
654.883057
20
217.720001
11
664.484375
21
217.720001
62
7
0
LINE
10
664.484375
20
217.720001
11
664.484375
21
208.360001
62
7
0
LINE
10
664.484375
20
208.360001
11
674.085693
21
208.360001
62
7
0
LINE
10
674.085693
20
208.360001
11
674.085693
21
217.720001
62
7
0
LINE
10
674.085693
20
217.720001
11
683.687012
21
217.720001
62
7
0
LINE
10
683.687012
20
217.720001
11
683.687012
21
208.360001
62
7
0
LINE
10
683.687012
20
208.360001
11
693.288330
21
208.360001
62
7
0
LINE
10
693.288330
20
208.360001
11
693.288330
21
217.720001
62
7
0
LINE
10
693.288330
20
217.720001
11
702.889648
21
217.720001
62
7
0
LINE
10
702.889648
20
217.720001
11
702.889648
21
208.360001
62
7
0
LINE
10
702.889648
20
208.360001
11
712.490967
21
208.360001
62
7
0
LINE
10
712.490967
20
208.360001
11
712.490967
21
217.720001
62
7
0
LINE
10
712.490967
20
217.720001
11
722.092285
21
217.720001
62
7
0
LINE
10
722.092285
20
217.720001
11
722.092285
21
208.360001
62
7
0
LINE
10
722.092285
20
208.360001
11
731.693604
21
208.360001
62
7
0
LINE
10
731.693604
20
208.360001
11
731.693604
21
217.720001
62
7
0
LINE
10
731.693604
20
217.720001
11
741.294922
21
217.720001
62
7
0
LINE
10
741.294922
20
217.720001
11
741.294922
21
208.360001
62
7
0
LINE
10
741.294922
20
208.360001
11
750.896240
21
208.360001
62
7
0
LINE
10
750.896240
20
208.360001
11
750.896240
21
217.720001
62
7
0
LINE
10
750.896240
20
217.720001
11
760.497559
21
217.720001
62
7
0
LINE
10
760.497559
20
217.720001
11
760.497559
21
208.360001
62
7
0
LINE
10
760.497559
20
208.360001
11
770.098877
21
208.360001
62
7
0
LINE
10
770.098877
20
208.360001
11
770.098877
21
217.720001
62
7
0
LINE
10
770.098877
20
217.720001
11
779.700195
21
217.720001
62
7
0
LINE
10
779.700195
20
217.720001
11
779.700195
21
208.360001
62
7
0
LINE
10
779.700195
20
208.360001
11
789.301514
21
208.360001
62
7
0
LINE
10
789.301514
20
208.360001
11
789.301514
21
217.720001
62
7
0
LINE
10
789.301514
20
217.720001
11
798.902832
21
217.720001
62
7
0
LINE
10
798.902832
20
217.720001
11
798.902832
21
208.360001
62
7
0
LINE
10
798.902832
20
208.360001
11
808.504150
21
208.360001
62
7
0
LINE
10
808.504150
20
208.360001
11
808.504150
21
217.720001
62
7
0
LINE
10
808.504150
20
217.720001
11
818.105469
21
217.720001
62
7
0
LINE
10
818.105469
20
217.720001
11
818.105469
21
208.360001
62
7
0
LINE
10
818.105469
20
208.360001
11
827.706787
21
208.360001
62
7
0
LINE
10
827.706787
20
208.360001
11
827.706787
21
217.720001
62
7
0
LINE
10
827.706787
20
217.720001
11
837.308105
21
217.720001
62
7
0
LINE
10
837.308105
20
217.720001
11
837.308105
21
208.360001
62
7
0
LINE
10
837.308105
20
208.360001
11
846.909424
21
208.360001
62
7
0
LINE
10
846.909424
20
208.360001
11
846.909424
21
217.720001
62
7
0
LINE
10
846.909424
20
217.720001
11
856.510742
21
217.720001
62
7
0
LINE
10
856.510742
20
217.720001
11
856.510742
21
208.360001
62
7
0
LINE
10
856.510742
20
208.360001
11
866.112061
21
208.360001
62
7
0
LINE
10
866.112061
20
208.360001
11
866.112061
21
217.720001
62
7
0
LINE
10
866.112061
20
217.720001
11
875.713379
21
217.720001
62
7
0
LINE
10
875.713379
20
217.720001
11
875.713379
21
208.360001
62
7
0
LINE
10
875.713379
20
208.360001
11
885.314697
21
208.360001
62
7
0
LINE
10
885.314697
20
208.360001
11
885.314697
21
217.720001
62
7
0
LINE
10
885.314697
20
217.720001
11
894.916016
21
217.720001
62
7
0
LINE
10
894.916016
20
217.720001
11
894.916016
21
208.360001
62
7
0
LINE
10
894.916016
20
208.360001
11
904.517334
21
208.360001
62
7
0
LINE
10
904.517334
20
208.360001
11
904.517334
21
217.720001
62
7
0
LINE
10
904.517334
20
217.720001
11
923.719971
21
217.720001
62
7
0
LINE
10
923.719971
20
217.720001
11
923.719971
21
197.644196
62
7
0
LINE
10
923.719971
20
197.644196
11
914.359985
21
197.644196
62
7
0
LINE
10
914.359985
20
197.644196
11
914.359985
21
187.606293
62
7
0
LINE
10
914.359985
20
187.606293
11
923.719971
21
187.606293
62
7
0
LINE
10
923.719971
20
187.606293
11
923.719971
21
177.568390
62
7
0
LINE
10
923.719971
20
177.568390
11
914.359985
21
177.568390
62
7
0
LINE
10
914.359985
20
177.568390
11
914.359985
21
167.530487
62
7
0
LINE
10
914.359985
20
167.530487
11
923.719971
21
167.530487
62
7
0
LINE
10
923.719971
20
167.530487
11
923.719971
21
157.492584
62
7
0
LINE
10
923.719971
20
157.492584
11
914.359985
21
157.492584
62
7
0
LINE
10
914.359985
20
157.492584
11
914.359985
21
147.454681
62
7
0
LINE
10
914.359985
20
147.454681
11
923.719971
21
147.454681
62
7
0
LINE
10
923.719971
20
147.454681
11
923.719971
21
137.416779
62
7
0
LINE
10
923.719971
20
137.416779
11
914.359985
21
137.416779
62
7
0
LINE
10
914.359985
20
137.416779
11
914.359985
21
127.378883
62
7
0
LINE
10
914.359985
20
127.378883
11
923.719971
21
127.378883
62
7
0
LINE
10
923.719971
20
127.378883
11
923.719971
21
117.340988
62
7
0
LINE
10
923.719971
20
117.340988
11
914.359985
21
117.340988
62
7
0
LINE
10
914.359985
20
117.340988
11
914.359985
21
107.303093
62
7
0
LINE
10
914.359985
20
107.303093
11
923.719971
21
107.303093
62
7
0
LINE
10
923.719971
20
107.303093
11
923.719971
21
97.265198
62
7
0
LINE
10
923.719971
20
97.265198
11
914.359985
21
97.265198
62
7
0
LINE
10
914.359985
20
97.265198
11
914.359985
21
87.227303
62
7
0
LINE
10
914.359985
20
87.227303
11
923.719971
21
87.227303
62
7
0
LINE
10
923.719971
20
87.227303
11
923.719971
21
77.189407
62
7
0
LINE
10
923.719971
20
77.189407
11
914.359985
21
77.189407
62
7
0
LINE
10
914.359985
20
77.189407
11
914.359985
21
67.151512
62
7
0
LINE
10
914.359985
20
67.151512
11
923.719971
21
67.151512
62
7
0
LINE
10
923.719971
20
67.151512
11
923.719971
21
57.113617
62
7
0
LINE
10
923.719971
20
57.113617
11
914.359985
21
57.113617
62
7
0
LINE
10
914.359985
20
57.113617
11
914.359985
21
47.075722
62
7
0
LINE
10
914.359985
20
47.075722
11
923.719971
21
47.075722
62
7
0
LINE
10
923.719971
20
47.075722
11
923.719971
21
26.999931
62
7
0
LINE
10
923.719971
20
36.360001
11
932.719971
21
36.360001
62
7
0
LINE
10
932.719971
20
36.360001
11
932.719971
21
27.000000
62
7
0
LINE
10
932.719971
20
27.000000
11
941.719971
21
27.000000
62
7
0
LINE
10
941.719971
20
27.000000
11
941.719971
21
36.360001
62
7
0
LINE
10
941.719971
20
36.360001
11
950.719971
21
36.360001
62
7
0
LINE
10
950.719971
20
36.360001
11
950.719971
21
27.000000
62
7
0
LINE
10
950.719971
20
27.000000
11
968.719971
21
27.000000
62
7
0
LINE
10
973.719971
20
27.000000
11
973.719971
21
172.360001
62
7
0
LINE
10
973.719971
20
172.360001
11
973.719971
21
172.360001
62
7
0
LINE
10
973.719971
20
172.360001
11
973.719971
21
208.360001
62
7
0
LINE
10
973.719971
20
208.360001
11
963.719971
21
208.360001
62
7
0
LINE
10
963.719971
20
208.360001
11
963.719971
21
217.720001
62
7
0
LINE
10
963.719971
20
217.720001
11
953.719971
21
217.720001
62
7
0
LINE
10
953.719971
20
217.720001
11
953.719971
21
208.360001
62
7
0
LINE
10
953.719971
20
208.360001
11
943.719971
21
208.360001
62
7
0
LINE
10
943.719971
20
208.360001
11
943.719971
21
217.720001
62
7
0
LINE
10
943.719971
20
217.720001
11
933.719971
21
217.720001
62
7
0
LINE
10
933.719971
20
217.720001
11
933.719971
21
208.360001
62
7
0
LINE
10
933.719971
20
208.360001
11
923.719971
21
208.360001
62
7
0
LINE
10
923.719971
20
217.720001
11
923.719971
21
227.720001
62
7
0
LINE
10
923.719971
20
227.720001
11
914.359985
21
227.720001
62
7
0
LINE
10
914.359985
20
227.720001
11
914.359985
21
237.720001
62
7
0
LINE
10
914.359985
20
237.720001
11
923.719971
21
237.720001
62
7
0
LINE
10
923.719971
20
237.720001
11
923.719971
21
247.720001
62
7
0
LINE
10
923.719971
20
247.720001
11
914.359985
21
247.720001
62
7
0
LINE
10
914.359985
20
247.720001
11
914.359985
21
257.720001
62
7
0
LINE
10
914.359985
20
257.720001
11
923.719971
21
257.720001
62
7
0
LINE
10
923.719971
20
257.720001
11
923.719971
21
267.720001
62
7
0
LINE
10
914.359985
20
361.440002
11
914.359985
21
371.440002
62
7
0
LINE
10
914.359985
20
371.440002
11
923.719971
21
371.440002
62
7
0
LINE
10
923.719971
20
371.440002
11
923.719971
21
381.440002
62
7
0
LINE
10
923.719971
20
381.440002
11
914.359985
21
381.440002
62
7
0
LINE
10
914.359985
20
381.440002
11
914.359985
21
391.440002
62
7
0
LINE
10
914.359985
20
391.440002
11
923.719971
21
391.440002
62
7
0
LINE
10
923.719971
20
391.440002
11
923.719971
21
401.440002
62
7
0
LINE
10
923.719971
20
401.440002
11
914.359985
21
401.440002
62
7
0
LINE
10
914.359985
20
401.440002
11
914.359985
21
411.440002
62
7
0
LINE
10
923.719971
20
317.719971
11
923.719971
21
335.207947
62
7
0
LINE
10
923.719971
20
335.207947
11
914.359985
21
335.207947
62
7
0
LINE
10
914.359985
20
335.207947
11
914.359985
21
343.951935
62
7
0
LINE
10
914.359985
20
343.951935
11
923.719971
21
343.951935
62
7
0
LINE
10
923.719971
20
343.951935
11
923.719971
21
361.439911
62
7
0
LINE
10
923.719971
20
361.439972
11
923.719971
21
411.439972
62
7
0
LINE
10
973.719971
20
411.439972
11
973.719971
21
317.719971
62
7
0
LINE
10
923.719971
20
267.720001
11
923.719971
21
317.720001
62
7
0
LINE
10
923.719971
20
317.720001
11
973.719971
21
317.720001
62
7
0
LINE
10
973.719971
20
317.720001
11
973.719971
21
267.720001
62
7
0
LINE
10
973.719971
20
267.720001
11
923.719971
21
267.720001
62
7
0
LINE
10
923.719971
20
317.720001
11
904.517334
21
317.720001
62
7
0
LINE
10
904.517334
20
317.720001
11
904.517334
21
327.079987
62
7
0
LINE
10
904.517334
20
327.079987
11
894.916016
21
327.079987
62
7
0
LINE
10
894.916016
20
327.079987
11
894.916016
21
317.720001
62
7
0
LINE
10
894.916016
20
317.720001
11
885.314697
21
317.720001
62
7
0
LINE
10
885.314697
20
317.720001
11
885.314697
21
327.079987
62
7
0
LINE
10
885.314697
20
327.079987
11
875.713379
21
327.079987
62
7
0
LINE
10
875.713379
20
327.079987
11
875.713379
21
317.720001
62
7
0
LINE
10
875.713379
20
317.720001
11
866.112061
21
317.720001
62
7
0
LINE
10
866.112061
20
317.720001
11
866.112061
21
327.079987
62
7
0
LINE
10
866.112061
20
327.079987
11
856.510742
21
327.079987
62
7
0
LINE
10
856.510742
20
327.079987
11
856.510742
21
317.720001
62
7
0
LINE
10
856.510742
20
317.720001
11
846.909424
21
317.720001
62
7
0
LINE
10
846.909424
20
317.720001
11
846.909424
21
327.079987
62
7
0
LINE
10
846.909424
20
327.079987
11
837.308105
21
327.079987
62
7
0
LINE
10
837.308105
20
327.079987
11
837.308105
21
317.720001
62
7
0
LINE
10
837.308105
20
317.720001
11
827.706787
21
317.720001
62
7
0
LINE
10
827.706787
20
317.720001
11
827.706787
21
327.079987
62
7
0
LINE
10
827.706787
20
327.079987
11
818.105469
21
327.079987
62
7
0
LINE
10
818.105469
20
327.079987
11
818.105469
21
317.720001
62
7
0
LINE
10
818.105469
20
317.720001
11
808.504150
21
317.720001
62
7
0
LINE
10
808.504150
20
317.720001
11
808.504150
21
327.079987
62
7
0
LINE
10
808.504150
20
327.079987
11
798.902832
21
327.079987
62
7
0
LINE
10
798.902832
20
327.079987
11
798.902832
21
317.720001
62
7
0
LINE
10
798.902832
20
317.720001
11
789.301514
21
317.720001
62
7
0
LINE
10
789.301514
20
317.720001
11
789.301514
21
327.079987
62
7
0
LINE
10
789.301514
20
327.079987
11
779.700195
21
327.079987
62
7
0
LINE
10
779.700195
20
327.079987
11
779.700195
21
317.720001
62
7
0
LINE
10
779.700195
20
317.720001
11
770.098877
21
317.720001
62
7
0
LINE
10
770.098877
20
317.720001
11
770.098877
21
327.079987
62
7
0
LINE
10
770.098877
20
327.079987
11
760.497559
21
327.079987
62
7
0
LINE
10
760.497559
20
327.079987
11
760.497559
21
317.720001
62
7
0
LINE
10
760.497559
20
317.720001
11
750.896240
21
317.720001
62
7
0
LINE
10
750.896240
20
317.720001
11
750.896240
21
327.079987
62
7
0
LINE
10
750.896240
20
327.079987
11
741.294922
21
327.079987
62
7
0
LINE
10
741.294922
20
327.079987
11
741.294922
21
317.720001
62
7
0
LINE
10
741.294922
20
317.720001
11
731.693604
21
317.720001
62
7
0
LINE
10
731.693604
20
317.720001
11
731.693604
21
327.079987
62
7
0
LINE
10
731.693604
20
327.079987
11
722.092285
21
327.079987
62
7
0
LINE
10
722.092285
20
327.079987
11
722.092285
21
317.720001
62
7
0
LINE
10
722.092285
20
317.720001
11
712.490967
21
317.720001
62
7
0
LINE
10
712.490967
20
317.720001
11
712.490967
21
327.079987
62
7
0
LINE
10
712.490967
20
327.079987
11
702.889648
21
327.079987
62
7
0
LINE
10
702.889648
20
327.079987
11
702.889648
21
317.720001
62
7
0
LINE
10
702.889648
20
317.720001
11
693.288330
21
317.720001
62
7
0
LINE
10
693.288330
20
317.720001
11
693.288330
21
327.079987
62
7
0
LINE
10
693.288330
20
327.079987
11
683.687012
21
327.079987
62
7
0
LINE
10
683.687012
20
327.079987
11
683.687012
21
317.720001
62
7
0
LINE
10
683.687012
20
317.720001
11
674.085693
21
317.720001
62
7
0
LINE
10
674.085693
20
317.720001
11
674.085693
21
327.079987
62
7
0
LINE
10
674.085693
20
327.079987
11
664.484375
21
327.079987
62
7
0
LINE
10
664.484375
20
327.079987
11
664.484375
21
317.720001
62
7
0
LINE
10
664.484375
20
317.720001
11
654.883057
21
317.720001
62
7
0
LINE
10
654.883057
20
317.720001
11
654.883057
21
327.079987
62
7
0
LINE
10
654.883057
20
327.079987
11
645.281738
21
327.079987
62
7
0
LINE
10
645.281738
20
327.079987
11
645.281738
21
317.720001
62
7
0
LINE
10
645.281738
20
317.720001
11
635.680420
21
317.720001
62
7
0
LINE
10
635.680420
20
317.720001
11
635.680420
21
327.079987
62
7
0
LINE
10
635.680420
20
327.079987
11
626.079102
21
327.079987
62
7
0
LINE
10
626.079102
20
327.079987
11
626.079102
21
317.720001
62
7
0
LINE
10
626.079102
20
317.720001
11
616.477783
21
317.720001
62
7
0
LINE
10
616.477783
20
317.720001
11
616.477783
21
327.079987
62
7
0
LINE
10
616.477783
20
327.079987
11
606.876465
21
327.079987
62
7
0
LINE
10
606.876465
20
327.079987
11
606.876465
21
317.720001
62
7
0
LINE
10
606.876465
20
317.720001
11
597.275146
21
317.720001
62
7
0
LINE
10
597.275146
20
317.720001
11
597.275146
21
327.079987
62
7
0
LINE
10
597.275146
20
327.079987
11
587.673828
21
327.079987
62
7
0
LINE
10
587.673828
20
327.079987
11
587.673828
21
317.720001
62
7
0
LINE
10
587.673828
20
317.720001
11
578.072510
21
317.720001
62
7
0
LINE
10
578.072510
20
317.720001
11
578.072510
21
327.079987
62
7
0
LINE
10
578.072510
20
327.079987
11
568.471191
21
327.079987
62
7
0
LINE
10
568.471191
20
327.079987
11
568.471191
21
317.720001
62
7
0
LINE
10
568.471191
20
317.720001
11
558.869873
21
317.720001
62
7
0
LINE
10
558.869873
20
317.720001
11
558.869873
21
327.079987
62
7
0
LINE
10
558.869873
20
327.079987
11
549.268555
21
327.079987
62
7
0
LINE
10
549.268555
20
327.079987
11
549.268555
21
317.720001
62
7
0
LINE
10
549.268555
20
317.720001
11
539.667236
21
317.720001
62
7
0
LINE
10
539.667236
20
317.720001
11
539.667236
21
327.079987
62
7
0
LINE
10
539.667236
20
327.079987
11
530.065918
21
327.079987
62
7
0
LINE
10
530.065918
20
327.079987
11
530.065918
21
317.720001
62
7
0
LINE
10
530.065918
20
317.720001
11
520.464600
21
317.720001
62
7
0
LINE
10
520.464600
20
317.720001
11
520.464600
21
327.079987
62
7
0
LINE
10
520.464600
20
327.079987
11
510.863281
21
327.079987
62
7
0
LINE
10
510.863281
20
327.079987
11
510.863281
21
317.720001
62
7
0
LINE
10
510.863281
20
317.720001
11
501.261963
21
317.720001
62
7
0
LINE
10
501.261963
20
317.720001
11
501.261963
21
327.079987
62
7
0
LINE
10
501.261963
20
327.079987
11
491.660645
21
327.079987
62
7
0
LINE
10
491.660645
20
327.079987
11
491.660645
21
317.720001
62
7
0
LINE
10
491.660645
20
317.720001
11
482.059326
21
317.720001
62
7
0
LINE
10
482.059326
20
317.720001
11
482.059326
21
327.079987
62
7
0
LINE
10
482.059326
20
327.079987
11
472.458008
21
327.079987
62
7
0
LINE
10
472.458008
20
327.079987
11
472.458008
21
317.720001
62
7
0
LINE
10
472.458008
20
317.720001
11
462.856689
21
317.720001
62
7
0
LINE
10
462.856689
20
317.720001
11
462.856689
21
327.079987
62
7
0
LINE
10
462.856689
20
327.079987
11
453.255371
21
327.079987
62
7
0
LINE
10
453.255371
20
327.079987
11
453.255371
21
317.720001
62
7
0
LINE
10
453.255371
20
317.720001
11
443.654053
21
317.720001
62
7
0
LINE
10
443.654053
20
317.720001
11
443.654053
21
327.079987
62
7
0
LINE
10
443.654053
20
327.079987
11
434.052734
21
327.079987
62
7
0
LINE
10
434.052734
20
327.079987
11
434.052734
21
317.720001
62
7
0
LINE
10
434.052734
20
317.720001
11
424.451416
21
317.720001
62
7
0
LINE
10
424.451416
20
317.720001
11
424.451416
21
327.079987
62
7
0
LINE
10
424.451416
20
327.079987
11
414.850098
21
327.079987
62
7
0
LINE
10
414.850098
20
327.079987
11
414.850098
21
317.720001
62
7
0
LINE
10
414.850098
20
317.720001
11
405.248779
21
317.720001
62
7
0
LINE
10
405.248779
20
317.720001
11
405.248779
21
327.079987
62
7
0
LINE
10
405.248779
20
327.079987
11
395.647461
21
327.079987
62
7
0
LINE
10
395.647461
20
327.079987
11
395.647461
21
317.720001
62
7
0
LINE
10
395.647461
20
317.720001
11
386.046143
21
317.720001
62
7
0
LINE
10
386.046143
20
317.720001
11
386.046143
21
327.079987
62
7
0
LINE
10
386.046143
20
327.079987
11
376.444824
21
327.079987
62
7
0
LINE
10
376.444824
20
327.079987
11
376.444824
21
317.720001
62
7
0
LINE
10
376.444824
20
317.720001
11
366.843506
21
317.720001
62
7
0
LINE
10
366.843506
20
317.720001
11
366.843506
21
327.079987
62
7
0
LINE
10
366.843506
20
327.079987
11
357.242188
21
327.079987
62
7
0
LINE
10
357.242188
20
327.079987
11
357.242188
21
317.720001
62
7
0
LINE
10
357.242188
20
317.720001
11
347.640869
21
317.720001
62
7
0
LINE
10
347.640869
20
317.720001
11
347.640869
21
327.079987
62
7
0
LINE
10
347.640869
20
327.079987
11
338.039551
21
327.079987
62
7
0
LINE
10
338.039551
20
327.079987
11
338.039551
21
317.720001
62
7
0
LINE
10
338.039551
20
317.720001
11
328.438232
21
317.720001
62
7
0
LINE
10
328.438232
20
317.720001
11
328.438232
21
327.079987
62
7
0
LINE
10
328.438232
20
327.079987
11
318.836914
21
327.079987
62
7
0
LINE
10
318.836914
20
327.079987
11
318.836914
21
317.720001
62
7
0
LINE
10
318.836914
20
317.720001
11
309.235596
21
317.720001
62
7
0
LINE
10
309.235596
20
317.720001
11
309.235596
21
327.079987
62
7
0
LINE
10
309.235596
20
327.079987
11
299.634277
21
327.079987
62
7
0
LINE
10
299.634277
20
327.079987
11
299.634277
21
317.720001
62
7
0
LINE
10
299.634277
20
317.720001
11
290.032959
21
317.720001
62
7
0
LINE
10
290.032959
20
317.720001
11
290.032959
21
327.079987
62
7
0
LINE
10
290.032959
20
327.079987
11
280.431641
21
327.079987
62
7
0
LINE
10
280.431641
20
327.079987
11
280.431641
21
317.720001
62
7
0
LINE
10
280.431641
20
317.720001
11
270.830322
21
317.720001
62
7
0
LINE
10
270.830322
20
317.720001
11
270.830322
21
327.079987
62
7
0
LINE
10
270.830322
20
327.079987
11
261.229004
21
327.079987
62
7
0
LINE
10
261.229004
20
327.079987
11
261.229004
21
317.720001
62
7
0
LINE
10
261.229004
20
317.720001
11
251.627686
21
317.720001
62
7
0
LINE
10
251.627686
20
317.720001
11
251.627686
21
327.079987
62
7
0
LINE
10
251.627686
20
327.079987
11
242.026367
21
327.079987
62
7
0
LINE
10
242.026367
20
327.079987
11
242.026367
21
317.720001
62
7
0
LINE
10
242.026367
20
317.720001
11
232.425049
21
317.720001
62
7
0
LINE
10
232.425049
20
317.720001
11
232.425049
21
327.079987
62
7
0
LINE
10
232.425049
20
327.079987
11
222.823730
21
327.079987
62
7
0
LINE
10
222.823730
20
327.079987
11
222.823730
21
317.720001
62
7
0
LINE
10
222.823730
20
317.720001
11
213.222412
21
317.720001
62
7
0
LINE
10
213.222412
20
317.720001
11
213.222412
21
327.079987
62
7
0
LINE
10
213.222412
20
327.079987
11
203.621094
21
327.079987
62
7
0
LINE
10
203.621094
20
327.079987
11
203.621094
21
317.720001
62
7
0
LINE
10
203.621094
20
317.720001
11
194.019775
21
317.720001
62
7
0
LINE
10
194.019775
20
317.720001
11
194.019775
21
327.079987
62
7
0
LINE
10
194.019775
20
327.079987
11
184.418457
21
327.079987
62
7
0
LINE
10
184.418457
20
327.079987
11
184.418457
21
317.720001
62
7
0
LINE
10
184.418457
20
317.720001
11
174.817139
21
317.720001
62
7
0
LINE
10
174.817139
20
317.720001
11
174.817139
21
327.079987
62
7
0
LINE
10
174.817139
20
327.079987
11
165.215820
21
327.079987
62
7
0
LINE
10
165.215820
20
327.079987
11
165.215820
21
317.720001
62
7
0
LINE
10
165.215820
20
317.720001
11
155.614502
21
317.720001
62
7
0
LINE
10
155.614502
20
317.720001
11
155.614502
21
327.079987
62
7
0
LINE
10
155.614502
20
327.079987
11
146.013184
21
327.079987
62
7
0
LINE
10
146.013184
20
327.079987
11
146.013184
21
317.720001
62
7
0
LINE
10
146.013184
20
317.720001
11
136.411865
21
317.720001
62
7
0
LINE
10
136.411865
20
317.720001
11
136.411865
21
327.079987
62
7
0
LINE
10
136.411865
20
327.079987
11
126.810547
21
327.079987
62
7
0
LINE
10
126.810547
20
327.079987
11
126.810547
21
317.720001
62
7
0
LINE
10
126.810547
20
317.720001
11
117.209229
21
317.720001
62
7
0
LINE
10
117.209229
20
317.720001
11
117.209229
21
327.079987
62
7
0
LINE
10
117.209229
20
327.079987
11
107.607910
21
327.079987
62
7
0
LINE
10
107.607910
20
327.079987
11
107.607910
21
317.720001
62
7
0
LINE
10
107.607910
20
317.720001
11
98.006592
21
317.720001
62
7
0
LINE
10
98.006592
20
317.720001
11
98.006592
21
327.079987
62
7
0
LINE
10
98.006592
20
327.079987
11
88.405273
21
327.079987
62
7
0
LINE
10
88.405273
20
327.079987
11
88.405273
21
317.720001
62
7
0
LINE
10
88.405273
20
317.720001
11
78.803955
21
317.720001
62
7
0
LINE
10
78.803955
20
317.720001
11
78.803955
21
327.079987
62
7
0
LINE
10
78.803955
20
327.079987
11
69.202637
21
327.079987
62
7
0
LINE
10
69.202637
20
327.079987
11
69.202637
21
317.720001
62
7
0
LINE
10
69.202637
20
317.720001
11
50.000000
21
317.720001
62
7
0
LINE
10
50.000000
20
361.440002
11
69.202637
21
361.440002
62
7
0
LINE
10
69.202637
20
361.440002
11
69.202637
21
352.080017
62
7
0
LINE
10
69.202637
20
352.080017
11
78.803955
21
352.080017
62
7
0
LINE
10
78.803955
20
352.080017
11
78.803955
21
361.440002
62
7
0
LINE
10
78.803955
20
361.440002
11
88.405273
21
361.440002
62
7
0
LINE
10
88.405273
20
361.440002
11
88.405273
21
352.080017
62
7
0
LINE
10
88.405273
20
352.080017
11
98.006592
21
352.080017
62
7
0
LINE
10
98.006592
20
352.080017
11
98.006592
21
361.440002
62
7
0
LINE
10
98.006592
20
361.440002
11
107.607910
21
361.440002
62
7
0
LINE
10
107.607910
20
361.440002
11
107.607910
21
352.080017
62
7
0
LINE
10
107.607910
20
352.080017
11
117.209229
21
352.080017
62
7
0
LINE
10
117.209229
20
352.080017
11
117.209229
21
361.440002
62
7
0
LINE
10
117.209229
20
361.440002
11
126.810547
21
361.440002
62
7
0
LINE
10
126.810547
20
361.440002
11
126.810547
21
352.080017
62
7
0
LINE
10
126.810547
20
352.080017
11
136.411865
21
352.080017
62
7
0
LINE
10
136.411865
20
352.080017
11
136.411865
21
361.440002
62
7
0
LINE
10
136.411865
20
361.440002
11
146.013184
21
361.440002
62
7
0
LINE
10
146.013184
20
361.440002
11
146.013184
21
352.080017
62
7
0
LINE
10
146.013184
20
352.080017
11
155.614502
21
352.080017
62
7
0
LINE
10
155.614502
20
352.080017
11
155.614502
21
361.440002
62
7
0
LINE
10
155.614502
20
361.440002
11
165.215820
21
361.440002
62
7
0
LINE
10
165.215820
20
361.440002
11
165.215820
21
352.080017
62
7
0
LINE
10
165.215820
20
352.080017
11
174.817139
21
352.080017
62
7
0
LINE
10
174.817139
20
352.080017
11
174.817139
21
361.440002
62
7
0
LINE
10
174.817139
20
361.440002
11
184.418457
21
361.440002
62
7
0
LINE
10
184.418457
20
361.440002
11
184.418457
21
352.080017
62
7
0
LINE
10
184.418457
20
352.080017
11
194.019775
21
352.080017
62
7
0
LINE
10
194.019775
20
352.080017
11
194.019775
21
361.440002
62
7
0
LINE
10
194.019775
20
361.440002
11
203.621094
21
361.440002
62
7
0
LINE
10
203.621094
20
361.440002
11
203.621094
21
352.080017
62
7
0
LINE
10
203.621094
20
352.080017
11
213.222412
21
352.080017
62
7
0
LINE
10
213.222412
20
352.080017
11
213.222412
21
361.440002
62
7
0
LINE
10
213.222412
20
361.440002
11
222.823730
21
361.440002
62
7
0
LINE
10
222.823730
20
361.440002
11
222.823730
21
352.080017
62
7
0
LINE
10
222.823730
20
352.080017
11
232.425049
21
352.080017
62
7
0
LINE
10
232.425049
20
352.080017
11
232.425049
21
361.440002
62
7
0
LINE
10
232.425049
20
361.440002
11
242.026367
21
361.440002
62
7
0
LINE
10
242.026367
20
361.440002
11
242.026367
21
352.080017
62
7
0
LINE
10
242.026367
20
352.080017
11
251.627686
21
352.080017
62
7
0
LINE
10
251.627686
20
352.080017
11
251.627686
21
361.440002
62
7
0
LINE
10
251.627686
20
361.440002
11
261.229004
21
361.440002
62
7
0
LINE
10
261.229004
20
361.440002
11
261.229004
21
352.080017
62
7
0
LINE
10
261.229004
20
352.080017
11
270.830322
21
352.080017
62
7
0
LINE
10
270.830322
20
352.080017
11
270.830322
21
361.440002
62
7
0
LINE
10
270.830322
20
361.440002
11
280.431641
21
361.440002
62
7
0
LINE
10
280.431641
20
361.440002
11
280.431641
21
352.080017
62
7
0
LINE
10
280.431641
20
352.080017
11
290.032959
21
352.080017
62
7
0
LINE
10
290.032959
20
352.080017
11
290.032959
21
361.440002
62
7
0
LINE
10
290.032959
20
361.440002
11
299.634277
21
361.440002
62
7
0
LINE
10
299.634277
20
361.440002
11
299.634277
21
352.080017
62
7
0
LINE
10
299.634277
20
352.080017
11
309.235596
21
352.080017
62
7
0
LINE
10
309.235596
20
352.080017
11
309.235596
21
361.440002
62
7
0
LINE
10
309.235596
20
361.440002
11
318.836914
21
361.440002
62
7
0
LINE
10
318.836914
20
361.440002
11
318.836914
21
352.080017
62
7
0
LINE
10
318.836914
20
352.080017
11
328.438232
21
352.080017
62
7
0
LINE
10
328.438232
20
352.080017
11
328.438232
21
361.440002
62
7
0
LINE
10
328.438232
20
361.440002
11
338.039551
21
361.440002
62
7
0
LINE
10
338.039551
20
361.440002
11
338.039551
21
352.080017
62
7
0
LINE
10
338.039551
20
352.080017
11
347.640869
21
352.080017
62
7
0
LINE
10
347.640869
20
352.080017
11
347.640869
21
361.440002
62
7
0
LINE
10
347.640869
20
361.440002
11
357.242188
21
361.440002
62
7
0
LINE
10
357.242188
20
361.440002
11
357.242188
21
352.080017
62
7
0
LINE
10
357.242188
20
352.080017
11
366.843506
21
352.080017
62
7
0
LINE
10
366.843506
20
352.080017
11
366.843506
21
361.440002
62
7
0
LINE
10
366.843506
20
361.440002
11
376.444824
21
361.440002
62
7
0
LINE
10
376.444824
20
361.440002
11
376.444824
21
352.080017
62
7
0
LINE
10
376.444824
20
352.080017
11
386.046143
21
352.080017
62
7
0
LINE
10
386.046143
20
352.080017
11
386.046143
21
361.440002
62
7
0
LINE
10
386.046143
20
361.440002
11
395.647461
21
361.440002
62
7
0
LINE
10
395.647461
20
361.440002
11
395.647461
21
352.080017
62
7
0
LINE
10
395.647461
20
352.080017
11
405.248779
21
352.080017
62
7
0
LINE
10
405.248779
20
352.080017
11
405.248779
21
361.440002
62
7
0
LINE
10
405.248779
20
361.440002
11
414.850098
21
361.440002
62
7
0
LINE
10
414.850098
20
361.440002
11
414.850098
21
352.080017
62
7
0
LINE
10
414.850098
20
352.080017
11
424.451416
21
352.080017
62
7
0
LINE
10
424.451416
20
352.080017
11
424.451416
21
361.440002
62
7
0
LINE
10
424.451416
20
361.440002
11
434.052734
21
361.440002
62
7
0
LINE
10
434.052734
20
361.440002
11
434.052734
21
352.080017
62
7
0
LINE
10
434.052734
20
352.080017
11
443.654053
21
352.080017
62
7
0
LINE
10
443.654053
20
352.080017
11
443.654053
21
361.440002
62
7
0
LINE
10
443.654053
20
361.440002
11
453.255371
21
361.440002
62
7
0
LINE
10
453.255371
20
361.440002
11
453.255371
21
352.080017
62
7
0
LINE
10
453.255371
20
352.080017
11
462.856689
21
352.080017
62
7
0
LINE
10
462.856689
20
352.080017
11
462.856689
21
361.440002
62
7
0
LINE
10
462.856689
20
361.440002
11
472.458008
21
361.440002
62
7
0
LINE
10
472.458008
20
361.440002
11
472.458008
21
352.080017
62
7
0
LINE
10
472.458008
20
352.080017
11
482.059326
21
352.080017
62
7
0
LINE
10
482.059326
20
352.080017
11
482.059326
21
361.440002
62
7
0
LINE
10
482.059326
20
361.440002
11
491.660645
21
361.440002
62
7
0
LINE
10
491.660645
20
361.440002
11
491.660645
21
352.080017
62
7
0
LINE
10
491.660645
20
352.080017
11
501.261963
21
352.080017
62
7
0
LINE
10
501.261963
20
352.080017
11
501.261963
21
361.440002
62
7
0
LINE
10
501.261963
20
361.440002
11
510.863281
21
361.440002
62
7
0
LINE
10
510.863281
20
361.440002
11
510.863281
21
352.080017
62
7
0
LINE
10
510.863281
20
352.080017
11
520.464600
21
352.080017
62
7
0
LINE
10
520.464600
20
352.080017
11
520.464600
21
361.440002
62
7
0
LINE
10
520.464600
20
361.440002
11
530.065918
21
361.440002
62
7
0
LINE
10
530.065918
20
361.440002
11
530.065918
21
352.080017
62
7
0
LINE
10
530.065918
20
352.080017
11
539.667236
21
352.080017
62
7
0
LINE
10
539.667236
20
352.080017
11
539.667236
21
361.440002
62
7
0
LINE
10
539.667236
20
361.440002
11
549.268555
21
361.440002
62
7
0
LINE
10
549.268555
20
361.440002
11
549.268555
21
352.080017
62
7
0
LINE
10
549.268555
20
352.080017
11
558.869873
21
352.080017
62
7
0
LINE
10
558.869873
20
352.080017
11
558.869873
21
361.440002
62
7
0
LINE
10
558.869873
20
361.440002
11
568.471191
21
361.440002
62
7
0
LINE
10
568.471191
20
361.440002
11
568.471191
21
352.080017
62
7
0
LINE
10
568.471191
20
352.080017
11
578.072510
21
352.080017
62
7
0
LINE
10
578.072510
20
352.080017
11
578.072510
21
361.440002
62
7
0
LINE
10
578.072510
20
361.440002
11
587.673828
21
361.440002
62
7
0
LINE
10
587.673828
20
361.440002
11
587.673828
21
352.080017
62
7
0
LINE
10
587.673828
20
352.080017
11
597.275146
21
352.080017
62
7
0
LINE
10
597.275146
20
352.080017
11
597.275146
21
361.440002
62
7
0
LINE
10
597.275146
20
361.440002
11
606.876465
21
361.440002
62
7
0
LINE
10
606.876465
20
361.440002
11
606.876465
21
352.080017
62
7
0
LINE
10
606.876465
20
352.080017
11
616.477783
21
352.080017
62
7
0
LINE
10
616.477783
20
352.080017
11
616.477783
21
361.440002
62
7
0
LINE
10
616.477783
20
361.440002
11
626.079102
21
361.440002
62
7
0
LINE
10
626.079102
20
361.440002
11
626.079102
21
352.080017
62
7
0
LINE
10
626.079102
20
352.080017
11
635.680420
21
352.080017
62
7
0
LINE
10
635.680420
20
352.080017
11
635.680420
21
361.440002
62
7
0
LINE
10
635.680420
20
361.440002
11
645.281738
21
361.440002
62
7
0
LINE
10
645.281738
20
361.440002
11
645.281738
21
352.080017
62
7
0
LINE
10
645.281738
20
352.080017
11
654.883057
21
352.080017
62
7
0
LINE
10
654.883057
20
352.080017
11
654.883057
21
361.440002
62
7
0
LINE
10
654.883057
20
361.440002
11
664.484375
21
361.440002
62
7
0
LINE
10
664.484375
20
361.440002
11
664.484375
21
352.080017
62
7
0
LINE
10
664.484375
20
352.080017
11
674.085693
21
352.080017
62
7
0
LINE
10
674.085693
20
352.080017
11
674.085693
21
361.440002
62
7
0
LINE
10
674.085693
20
361.440002
11
683.687012
21
361.440002
62
7
0
LINE
10
683.687012
20
361.440002
11
683.687012
21
352.080017
62
7
0
LINE
10
683.687012
20
352.080017
11
693.288330
21
352.080017
62
7
0
LINE
10
693.288330
20
352.080017
11
693.288330
21
361.440002
62
7
0
LINE
10
693.288330
20
361.440002
11
702.889648
21
361.440002
62
7
0
LINE
10
702.889648
20
361.440002
11
702.889648
21
352.080017
62
7
0
LINE
10
702.889648
20
352.080017
11
712.490967
21
352.080017
62
7
0
LINE
10
712.490967
20
352.080017
11
712.490967
21
361.440002
62
7
0
LINE
10
712.490967
20
361.440002
11
722.092285
21
361.440002
62
7
0
LINE
10
722.092285
20
361.440002
11
722.092285
21
352.080017
62
7
0
LINE
10
722.092285
20
352.080017
11
731.693604
21
352.080017
62
7
0
LINE
10
731.693604
20
352.080017
11
731.693604
21
361.440002
62
7
0
LINE
10
731.693604
20
361.440002
11
741.294922
21
361.440002
62
7
0
LINE
10
741.294922
20
361.440002
11
741.294922
21
352.080017
62
7
0
LINE
10
741.294922
20
352.080017
11
750.896240
21
352.080017
62
7
0
LINE
10
750.896240
20
352.080017
11
750.896240
21
361.440002
62
7
0
LINE
10
750.896240
20
361.440002
11
760.497559
21
361.440002
62
7
0
LINE
10
760.497559
20
361.440002
11
760.497559
21
352.080017
62
7
0
LINE
10
760.497559
20
352.080017
11
770.098877
21
352.080017
62
7
0
LINE
10
770.098877
20
352.080017
11
770.098877
21
361.440002
62
7
0
LINE
10
770.098877
20
361.440002
11
779.700195
21
361.440002
62
7
0
LINE
10
779.700195
20
361.440002
11
779.700195
21
352.080017
62
7
0
LINE
10
779.700195
20
352.080017
11
789.301514
21
352.080017
62
7
0
LINE
10
789.301514
20
352.080017
11
789.301514
21
361.440002
62
7
0
LINE
10
789.301514
20
361.440002
11
798.902832
21
361.440002
62
7
0
LINE
10
798.902832
20
361.440002
11
798.902832
21
352.080017
62
7
0
LINE
10
798.902832
20
352.080017
11
808.504150
21
352.080017
62
7
0
LINE
10
808.504150
20
352.080017
11
808.504150
21
361.440002
62
7
0
LINE
10
808.504150
20
361.440002
11
818.105469
21
361.440002
62
7
0
LINE
10
818.105469
20
361.440002
11
818.105469
21
352.080017
62
7
0
LINE
10
818.105469
20
352.080017
11
827.706787
21
352.080017
62
7
0
LINE
10
827.706787
20
352.080017
11
827.706787
21
361.440002
62
7
0
LINE
10
827.706787
20
361.440002
11
837.308105
21
361.440002
62
7
0
LINE
10
837.308105
20
361.440002
11
837.308105
21
352.080017
62
7
0
LINE
10
837.308105
20
352.080017
11
846.909424
21
352.080017
62
7
0
LINE
10
846.909424
20
352.080017
11
846.909424
21
361.440002
62
7
0
LINE
10
846.909424
20
361.440002
11
856.510742
21
361.440002
62
7
0
LINE
10
856.510742
20
361.440002
11
856.510742
21
352.080017
62
7
0
LINE
10
856.510742
20
352.080017
11
866.112061
21
352.080017
62
7
0
LINE
10
866.112061
20
352.080017
11
866.112061
21
361.440002
62
7
0
LINE
10
866.112061
20
361.440002
11
875.713379
21
361.440002
62
7
0
LINE
10
875.713379
20
361.440002
11
875.713379
21
352.080017
62
7
0
LINE
10
875.713379
20
352.080017
11
885.314697
21
352.080017
62
7
0
LINE
10
885.314697
20
352.080017
11
885.314697
21
361.440002
62
7
0
LINE
10
885.314697
20
361.440002
11
894.916016
21
361.440002
62
7
0
LINE
10
894.916016
20
361.440002
11
894.916016
21
352.080017
62
7
0
LINE
10
894.916016
20
352.080017
11
904.517334
21
352.080017
62
7
0
LINE
10
904.517334
20
352.080017
11
904.517334
21
361.440002
62
7
0
LINE
10
904.517334
20
361.440002
11
923.719971
21
361.440002
62
7
0
LINE
10
973.719971
20
411.440002
11
0.000000
21
411.440002
62
7
0
LINE
10
59.360001
20
361.440002
11
59.360001
21
371.440002
62
7
0
LINE
10
59.360001
20
371.440002
11
50.000000
21
371.440002
62
7
0
LINE
10
50.000000
20
371.440002
11
50.000000
21
381.440002
62
7
0
LINE
10
50.000000
20
381.440002
11
59.360001
21
381.440002
62
7
0
LINE
10
59.360001
20
381.440002
11
59.360001
21
391.440002
62
7
0
LINE
10
59.360001
20
391.440002
11
50.000000
21
391.440002
62
7
0
LINE
10
50.000000
20
391.440002
11
50.000000
21
401.440002
62
7
0
LINE
10
50.000000
20
401.440002
11
59.360001
21
401.440002
62
7
0
LINE
10
59.360001
20
401.440002
11
59.360001
21
411.440002
62
7
0
LINE
10
50.000000
20
317.719971
11
50.000000
21
335.207947
62
7
0
LINE
10
50.000000
20
335.207947
11
59.360001
21
335.207947
62
7
0
LINE
10
59.360001
20
335.207947
11
59.360001
21
343.951935
62
7
0
LINE
10
59.360001
20
343.951935
11
50.000000
21
343.951935
62
7
0
LINE
10
50.000000
20
343.951935
11
50.000000
21
361.439911
62
7
0
LINE
10
50.000000
20
361.439972
11
50.000000
21
411.439972
62
7
0
LINE
10
0.000000
20
411.439972
11
0.000000
21
317.719971
62
7
0
LINE
10
50.000000
20
267.720001
11
50.000000
21
317.720001
62
7
0
LINE
10
50.000000
20
317.720001
11
0.000000
21
317.720001
62
7
0
LINE
10
0.000000
20
317.720001
11
0.000000
21
267.720001
62
7
0
LINE
10
0.000000
20
267.720001
11
50.000000
21
267.720001
62
7
0
LINE
10
50.000000
20
317.720001
11
40.000000
21
317.720001
62
7
0
LINE
10
40.000000
20
317.720001
11
40.000000
21
327.079987
62
7
0
LINE
10
40.000000
20
327.079987
11
30.000000
21
327.079987
62
7
0
LINE
10
30.000000
20
327.079987
11
30.000000
21
317.720001
62
7
0
LINE
10
30.000000
20
317.720001
11
20.000000
21
317.720001
62
7
0
LINE
10
20.000000
20
317.720001
11
20.000000
21
327.079987
62
7
0
LINE
10
20.000000
20
327.079987
11
10.000000
21
327.079987
62
7
0
LINE
10
10.000000
20
327.079987
11
10.000000
21
317.720001
62
7
0
LINE
10
10.000000
20
317.720001
11
0.000000
21
317.720001
62
7
0
LINE
10
50.000000
20
352.079987
11
0.000000
21
352.079987
62
7
0
LINE
10
50.000000
20
377.079987
11
0.000000
21
377.079987
62
7
0
LINE
10
50.000000
20
386.440002
11
0.000000
21
386.440002
62
7
0
LINE
10
20.320002
20
411.440002
11
20.320002
21
406.440002
62
7
0
LINE
10
20.320002
20
406.440002
11
29.680000
21
406.440002
62
7
0
LINE
10
29.680000
20
406.440002
11
29.680000
21
401.440002
62
7
0
LINE
10
29.680000
20
401.440002
11
20.320002
21
401.440002
62
7
0
LINE
10
20.320002
20
401.440002
11
20.320002
21
396.440002
62
7
0
LINE
10
20.320002
20
396.440002
11
29.680000
21
396.440002
62
7
0
LINE
10
29.680000
20
396.440002
11
29.680000
21
391.440002
62
7
0
LINE
10
29.680000
20
391.440002
11
20.320002
21
391.440002
62
7
0
LINE
10
20.320002
20
391.440002
11
20.320002
21
386.440002
62
7
0
LINE
10
144.669983
20
396.440002
11
144.669983
21
376.440002
62
7
0
LINE
10
144.669983
20
376.440002
11
68.669983
21
376.440002
62
7
0
LINE
10
68.669983
20
376.440002
11
68.669983
21
396.440002
62
7
0
LINE
10
68.669983
20
396.440002
11
144.669983
21
396.440002
62
7
0
CIRCLE
10
148.669983
20
396.440002
40
1.000000
62
7
0
CIRCLE
10
64.669983
20
396.440002
40
1.000000
62
7
0
CIRCLE
10
64.669983
20
376.440002
40
1.000000
62
7
0
CIRCLE
10
148.669983
20
376.440002
40
1.000000
62
7
0
LINE
10
227.489990
20
398.940002
11
227.489990
21
373.940002
62
7
0
LINE
10
227.489990
20
373.940002
11
155.489990
21
373.940002
62
7
0
LINE
10
155.489990
20
373.940002
11
155.489990
21
398.940002
62
7
0
LINE
10
155.489990
20
398.940002
11
227.489990
21
398.940002
62
7
0
CIRCLE
10
228.989990
20
401.940002
40
1.000000
62
7
0
CIRCLE
10
153.989990
20
401.940002
40
1.000000
62
7
0
CIRCLE
10
153.989990
20
370.940002
40
1.000000
62
7
0
CIRCLE
10
228.989990
20
370.940002
40
1.000000
62
7
0
CIRCLE
10
235.399979
20
386.440002
40
1.000000
62
7
0
LINE
10
242.119980
20
379.190002
11
256.619995
21
379.190002
62
7
0
LINE
10
256.619995
20
379.190002
11
256.619995
21
393.690002
62
7
0
LINE
10
256.619995
20
393.690002
11
242.119980
21
393.690002
62
7
0
LINE
10
242.119980
20
393.690002
11
242.119980
21
379.190002
62
7
0
LINE
10
248.369980
20
386.440002
11
250.369980
21
386.440002
62
7
0
LINE
10
249.369980
20
385.440002
11
249.369980
21
387.440002
62
7
0
CIRCLE
10
263.339966
20
386.440002
40
1.000000
62
7
0
LINE
10
270.059967
20
379.190002
11
284.559967
21
379.190002
62
7
0
LINE
10
284.559967
20
379.190002
11
284.559967
21
393.690002
62
7
0
LINE
10
284.559967
20
393.690002
11
270.059967
21
393.690002
62
7
0
LINE
10
270.059967
20
393.690002
11
270.059967
21
379.190002
62
7
0
LINE
10
276.309967
20
386.440002
11
278.309967
21
386.440002
62
7
0
LINE
10
277.309967
20
385.440002
11
277.309967
21
387.440002
62
7
0
CIRCLE
10
291.279968
20
386.440002
40
1.000000
62
7
0
LINE
10
297.999969
20
379.190002
11
312.499969
21
379.190002
62
7
0
LINE
10
312.499969
20
379.190002
11
312.499969
21
393.690002
62
7
0
LINE
10
312.499969
20
393.690002
11
297.999969
21
393.690002
62
7
0
LINE
10
297.999969
20
393.690002
11
297.999969
21
379.190002
62
7
0
LINE
10
304.249969
20
386.440002
11
306.249969
21
386.440002
62
7
0
LINE
10
305.249969
20
385.440002
11
305.249969
21
387.440002
62
7
0
CIRCLE
10
319.219971
20
386.440002
40
1.000000
62
7
0
LINE
10
325.939972
20
379.190002
11
340.439972
21
379.190002
62
7
0
LINE
10
340.439972
20
379.190002
11
340.439972
21
393.690002
62
7
0
LINE
10
340.439972
20
393.690002
11
325.939972
21
393.690002
62
7
0
LINE
10
325.939972
20
393.690002
11
325.939972
21
379.190002
62
7
0
LINE
10
332.189972
20
386.440002
11
334.189972
21
386.440002
62
7
0
LINE
10
333.189972
20
385.440002
11
333.189972
21
387.440002
62
7
0
CIRCLE
10
347.159973
20
386.440002
40
1.000000
62
7
0
LINE
10
353.879974
20
379.190002
11
368.379974
21
379.190002
62
7
0
LINE
10
368.379974
20
379.190002
11
368.379974
21
393.690002
62
7
0
LINE
10
368.379974
20
393.690002
11
353.879974
21
393.690002
62
7
0
LINE
10
353.879974
20
393.690002
11
353.879974
21
379.190002
62
7
0
LINE
10
360.129974
20
386.440002
11
362.129974
21
386.440002
62
7
0
LINE
10
361.129974
20
385.440002
11
361.129974
21
387.440002
62
7
0
CIRCLE
10
375.099976
20
386.440002
40
1.000000
62
7
0
LINE
10
381.819977
20
379.190002
11
396.319977
21
379.190002
62
7
0
LINE
10
396.319977
20
379.190002
11
396.319977
21
393.690002
62
7
0
LINE
10
396.319977
20
393.690002
11
381.819977
21
393.690002
62
7
0
LINE
10
381.819977
20
393.690002
11
381.819977
21
379.190002
62
7
0
LINE
10
388.069977
20
386.440002
11
390.069977
21
386.440002
62
7
0
LINE
10
389.069977
20
385.440002
11
389.069977
21
387.440002
62
7
0
CIRCLE
10
403.039978
20
386.440002
40
1.000000
62
7
0
LINE
10
409.759979
20
379.190002
11
424.259979
21
379.190002
62
7
0
LINE
10
424.259979
20
379.190002
11
424.259979
21
393.690002
62
7
0
LINE
10
424.259979
20
393.690002
11
409.759979
21
393.690002
62
7
0
LINE
10
409.759979
20
393.690002
11
409.759979
21
379.190002
62
7
0
LINE
10
416.009979
20
386.440002
11
418.009979
21
386.440002
62
7
0
LINE
10
417.009979
20
385.440002
11
417.009979
21
387.440002
62
7
0
CIRCLE
10
430.979980
20
386.440002
40
1.000000
62
7
0
LINE
10
437.699982
20
379.190002
11
452.199982
21
379.190002
62
7
0
LINE
10
452.199982
20
379.190002
11
452.199982
21
393.690002
62
7
0
LINE
10
452.199982
20
393.690002
11
437.699982
21
393.690002
62
7
0
LINE
10
437.699982
20
393.690002
11
437.699982
21
379.190002
62
7
0
LINE
10
443.949982
20
386.440002
11
445.949982
21
386.440002
62
7
0
LINE
10
444.949982
20
385.440002
11
444.949982
21
387.440002
62
7
0
CIRCLE
10
458.919983
20
386.440002
40
1.000000
62
7
0
LINE
10
465.639984
20
379.190002
11
480.139984
21
379.190002
62
7
0
LINE
10
480.139984
20
379.190002
11
480.139984
21
393.690002
62
7
0
LINE
10
480.139984
20
393.690002
11
465.639984
21
393.690002
62
7
0
LINE
10
465.639984
20
393.690002
11
465.639984
21
379.190002
62
7
0
LINE
10
471.889984
20
386.440002
11
473.889984
21
386.440002
62
7
0
LINE
10
472.889984
20
385.440002
11
472.889984
21
387.440002
62
7
0
CIRCLE
10
486.859985
20
386.440002
40
1.000000
62
7
0
LINE
10
493.579987
20
379.190002
11
508.079987
21
379.190002
62
7
0
LINE
10
508.079987
20
379.190002
11
508.079987
21
393.690002
62
7
0
LINE
10
508.079987
20
393.690002
11
493.579987
21
393.690002
62
7
0
LINE
10
493.579987
20
393.690002
11
493.579987
21
379.190002
62
7
0
LINE
10
499.829987
20
386.440002
11
501.829987
21
386.440002
62
7
0
LINE
10
500.829987
20
385.440002
11
500.829987
21
387.440002
62
7
0
CIRCLE
10
514.799988
20
386.440002
40
1.000000
62
7
0
LINE
10
521.519958
20
379.190002
11
536.019958
21
379.190002
62
7
0
LINE
10
536.019958
20
379.190002
11
536.019958
21
393.690002
62
7
0
LINE
10
536.019958
20
393.690002
11
521.519958
21
393.690002
62
7
0
LINE
10
521.519958
20
393.690002
11
521.519958
21
379.190002
62
7
0
LINE
10
527.769958
20
386.440002
11
529.769958
21
386.440002
62
7
0
LINE
10
528.769958
20
385.440002
11
528.769958
21
387.440002
62
7
0
CIRCLE
10
542.739990
20
386.440002
40
1.000000
62
7
0
LINE
10
549.459961
20
379.190002
11
563.959961
21
379.190002
62
7
0
LINE
10
563.959961
20
379.190002
11
563.959961
21
393.690002
62
7
0
LINE
10
563.959961
20
393.690002
11
549.459961
21
393.690002
62
7
0
LINE
10
549.459961
20
393.690002
11
549.459961
21
379.190002
62
7
0
LINE
10
555.709961
20
386.440002
11
557.709961
21
386.440002
62
7
0
LINE
10
556.709961
20
385.440002
11
556.709961
21
387.440002
62
7
0
CIRCLE
10
570.679993
20
386.440002
40
1.000000
62
7
0
LINE
10
577.399963
20
379.190002
11
591.899963
21
379.190002
62
7
0
LINE
10
591.899963
20
379.190002
11
591.899963
21
393.690002
62
7
0
LINE
10
591.899963
20
393.690002
11
577.399963
21
393.690002
62
7
0
LINE
10
577.399963
20
393.690002
11
577.399963
21
379.190002
62
7
0
LINE
10
583.649963
20
386.440002
11
585.649963
21
386.440002
62
7
0
LINE
10
584.649963
20
385.440002
11
584.649963
21
387.440002
62
7
0
CIRCLE
10
598.619995
20
386.440002
40
1.000000
62
7
0
LINE
10
605.339966
20
379.190002
11
619.839966
21
379.190002
62
7
0
LINE
10
619.839966
20
379.190002
11
619.839966
21
393.690002
62
7
0
LINE
10
619.839966
20
393.690002
11
605.339966
21
393.690002
62
7
0
LINE
10
605.339966
20
393.690002
11
605.339966
21
379.190002
62
7
0
LINE
10
611.589966
20
386.440002
11
613.589966
21
386.440002
62
7
0
LINE
10
612.589966
20
385.440002
11
612.589966
21
387.440002
62
7
0
CIRCLE
10
626.559998
20
386.440002
40
1.000000
62
7
0
LINE
10
633.279968
20
379.190002
11
647.779968
21
379.190002
62
7
0
LINE
10
647.779968
20
379.190002
11
647.779968
21
393.690002
62
7
0
LINE
10
647.779968
20
393.690002
11
633.279968
21
393.690002
62
7
0
LINE
10
633.279968
20
393.690002
11
633.279968
21
379.190002
62
7
0
LINE
10
639.529968
20
386.440002
11
641.529968
21
386.440002
62
7
0
LINE
10
640.529968
20
385.440002
11
640.529968
21
387.440002
62
7
0
CIRCLE
10
654.500000
20
386.440002
40
1.000000
62
7
0
LINE
10
661.219971
20
379.190002
11
675.719971
21
379.190002
62
7
0
LINE
10
675.719971
20
379.190002
11
675.719971
21
393.690002
62
7
0
LINE
10
675.719971
20
393.690002
11
661.219971
21
393.690002
62
7
0
LINE
10
661.219971
20
393.690002
11
661.219971
21
379.190002
62
7
0
LINE
10
667.469971
20
386.440002
11
669.469971
21
386.440002
62
7
0
LINE
10
668.469971
20
385.440002
11
668.469971
21
387.440002
62
7
0
CIRCLE
10
682.440002
20
386.440002
40
1.000000
62
7
0
LINE
10
689.159973
20
379.190002
11
703.659973
21
379.190002
62
7
0
LINE
10
703.659973
20
379.190002
11
703.659973
21
393.690002
62
7
0
LINE
10
703.659973
20
393.690002
11
689.159973
21
393.690002
62
7
0
LINE
10
689.159973
20
393.690002
11
689.159973
21
379.190002
62
7
0
LINE
10
695.409973
20
386.440002
11
697.409973
21
386.440002
62
7
0
LINE
10
696.409973
20
385.440002
11
696.409973
21
387.440002
62
7
0
CIRCLE
10
710.380005
20
386.440002
40
1.000000
62
7
0
LINE
10
717.099976
20
379.190002
11
731.599976
21
379.190002
62
7
0
LINE
10
731.599976
20
379.190002
11
731.599976
21
393.690002
62
7
0
LINE
10
731.599976
20
393.690002
11
717.099976
21
393.690002
62
7
0
LINE
10
717.099976
20
393.690002
11
717.099976
21
379.190002
62
7
0
LINE
10
723.349976
20
386.440002
11
725.349976
21
386.440002
62
7
0
LINE
10
724.349976
20
385.440002
11
724.349976
21
387.440002
62
7
0
CIRCLE
10
738.319946
20
386.440002
40
1.000000
62
7
0
LINE
10
819.229980
20
398.940002
11
819.229980
21
373.940002
62
7
0
LINE
10
819.229980
20
373.940002
11
747.229980
21
373.940002
62
7
0
LINE
10
747.229980
20
373.940002
11
747.229980
21
398.940002
62
7
0
LINE
10
747.229980
20
398.940002
11
819.229980
21
398.940002
62
7
0
CIRCLE
10
820.729980
20
401.940002
40
1.000000
62
7
0
CIRCLE
10
745.729980
20
401.940002
40
1.000000
62
7
0
CIRCLE
10
745.729980
20
370.940002
40
1.000000
62
7
0
CIRCLE
10
820.729980
20
370.940002
40
1.000000
62
7
0
LINE
10
903.049927
20
398.940002
11
903.049927
21
373.940002
62
7
0
LINE
10
903.049927
20
373.940002
11
831.049927
21
373.940002
62
7
0
LINE
10
831.049927
20
373.940002
11
831.049927
21
398.940002
62
7
0
LINE
10
831.049927
20
398.940002
11
903.049927
21
398.940002
62
7
0
CIRCLE
10
904.549927
20
401.940002
40
1.000000
62
7
0
CIRCLE
10
829.549927
20
401.940002
40
1.000000
62
7
0
CIRCLE
10
829.549927
20
370.940002
40
1.000000
62
7
0
CIRCLE
10
904.549927
20
370.940002
40
1.000000
62
7
0
LINE
10
923.719971
20
317.720001
11
933.719971
21
317.720001
62
7
0
LINE
10
933.719971
20
317.720001
11
933.719971
21
327.079987
62
7
0
LINE
10
933.719971
20
327.079987
11
943.719971
21
327.079987
62
7
0
LINE
10
943.719971
20
327.079987
11
943.719971
21
317.720001
62
7
0
LINE
10
943.719971
20
317.720001
11
953.719971
21
317.720001
62
7
0
LINE
10
953.719971
20
317.720001
11
953.719971
21
327.079987
62
7
0
LINE
10
953.719971
20
327.079987
11
963.719971
21
327.079987
62
7
0
LINE
10
963.719971
20
327.079987
11
963.719971
21
317.720001
62
7
0
LINE
10
963.719971
20
317.720001
11
973.719971
21
317.720001
62
7
0
LINE
10
923.719971
20
352.079987
11
973.719971
21
352.079987
62
7
0
LINE
10
923.719971
20
377.079987
11
973.719971
21
377.079987
62
7
0
LINE
10
923.719971
20
386.440002
11
973.719971
21
386.440002
62
7
0
LINE
10
953.399963
20
411.440002
11
953.399963
21
406.440002
62
7
0
LINE
10
953.399963
20
406.440002
11
944.039978
21
406.440002
62
7
0
LINE
10
944.039978
20
406.440002
11
944.039978
21
401.440002
62
7
0
LINE
10
944.039978
20
401.440002
11
953.399963
21
401.440002
62
7
0
LINE
10
953.399963
20
401.440002
11
953.399963
21
396.440002
62
7
0
LINE
10
953.399963
20
396.440002
11
944.039978
21
396.440002
62
7
0
LINE
10
944.039978
20
396.440002
11
944.039978
21
391.440002
62
7
0
LINE
10
944.039978
20
391.440002
11
953.399963
21
391.440002
62
7
0
LINE
10
953.399963
20
391.440002
11
953.399963
21
386.440002
62
7
0
LINE
10
50.000000
20
267.720001
11
50.000000
21
257.720001
62
7
0
LINE
10
50.000000
20
257.720001
11
59.360001
21
257.720001
62
7
0
LINE
10
59.360001
20
257.720001
11
59.360001
21
247.720001
62
7
0
LINE
10
59.360001
20
247.720001
11
50.000000
21
247.720001
62
7
0
LINE
10
50.000000
20
247.720001
11
50.000000
21
237.720001
62
7
0
LINE
10
50.000000
20
237.720001
11
59.360001
21
237.720001
62
7
0
LINE
10
59.360001
20
237.720001
11
59.360001
21
227.720001
62
7
0
LINE
10
59.360001
20
227.720001
11
50.000000
21
227.720001
62
7
0
LINE
10
50.000000
20
227.720001
11
50.000000
21
217.720001
62
7
0
LINE
10
50.000000
20
208.360001
11
40.000000
21
208.360001
62
7
0
LINE
10
40.000000
20
208.360001
11
40.000000
21
217.720001
62
7
0
LINE
10
40.000000
20
217.720001
11
30.000000
21
217.720001
62
7
0
LINE
10
30.000000
20
217.720001
11
30.000000
21
208.360001
62
7
0
LINE
10
30.000000
20
208.360001
11
20.000000
21
208.360001
62
7
0
LINE
10
20.000000
20
208.360001
11
20.000000
21
217.720001
62
7
0
LINE
10
20.000000
20
217.720001
11
10.000000
21
217.720001
62
7
0
LINE
10
10.000000
20
217.720001
11
10.000000
21
208.360001
62
7
0
LINE
10
10.000000
20
208.360001
11
0.000000
21
208.360001
62
7
0
LINE
10
0.000000
20
208.360001
11
0.000000
21
172.360001
62
7
0
LINE
10
0.000000
20
172.360001
11
0.000000
21
172.360001
62
7
0
LINE
10
0.000000
20
172.360001
11
0.000000
21
27.000000
62
7
0
LINE
10
14.000000
20
27.000000
11
23.000000
21
27.000000
62
7
0
LINE
10
23.000000
20
27.000000
11
23.000000
21
36.360001
62
7
0
LINE
10
23.000000
20
36.360001
11
32.000000
21
36.360001
62
7
0
LINE
10
32.000000
20
36.360001
11
32.000000
21
27.000000
62
7
0
LINE
10
32.000000
20
27.000000
11
41.000000
21
27.000000
62
7
0
LINE
10
41.000000
20
27.000000
11
41.000000
21
36.360001
62
7
0
LINE
10
41.000000
20
36.360001
11
50.000000
21
36.360001
62
7
0
CIRCLE
10
70.000000
20
485.440002
40
1.600000
62
7
0
CIRCLE
10
70.000000
20
485.440002
40
4.000000
62
7
0
CIRCLE
10
55.000000
20
493.440002
40
1.600000
62
7
0
CIRCLE
10
55.000000
20
493.440002
40
4.000000
62
7
0
CIRCLE
10
166.000000
20
451.440002
40
1.350000
62
7
0
CIRCLE
10
166.000000
20
451.440002
40
4.000000
62
7
0
CIRCLE
10
145.000000
20
459.440002
40
1.350000
62
7
0
CIRCLE
10
145.000000
20
459.440002
40
4.000000
62
7
0
CIRCLE
10
120.000000
20
467.440002
40
1.350000
62
7
0
CIRCLE
10
120.000000
20
467.440002
40
4.000000
62
7
0
CIRCLE
10
78.000000
20
485.440002
40
1.600000
62
7
0
CIRCLE
10
78.000000
20
485.440002
40
4.000000
62
7
0
CIRCLE
10
63.000000
20
493.440002
40
1.600000
62
7
0
CIRCLE
10
63.000000
20
493.440002
40
4.000000
62
7
0
CIRCLE
10
174.000000
20
451.440002
40
1.350000
62
7
0
CIRCLE
10
174.000000
20
451.440002
40
4.000000
62
7
0
CIRCLE
10
153.000000
20
459.440002
40
1.350000
62
7
0
CIRCLE
10
153.000000
20
459.440002
40
4.000000
62
7
0
CIRCLE
10
128.000000
20
467.440002
40
1.350000
62
7
0
CIRCLE
10
128.000000
20
467.440002
40
4.000000
62
7
0
CIRCLE
10
86.000000
20
485.440002
40
1.600000
62
7
0
CIRCLE
10
86.000000
20
485.440002
40
4.000000
62
7
0
CIRCLE
10
71.000000
20
493.440002
40
1.600000
62
7
0
CIRCLE
10
71.000000
20
493.440002
40
4.000000
62
7
0
CIRCLE
10
182.000000
20
451.440002
40
1.350000
62
7
0
CIRCLE
10
182.000000
20
451.440002
40
4.000000
62
7
0
CIRCLE
10
161.000000
20
459.440002
40
1.350000
62
7
0
CIRCLE
10
161.000000
20
459.440002
40
4.000000
62
7
0
CIRCLE
10
136.000000
20
467.440002
40
1.350000
62
7
0
CIRCLE
10
136.000000
20
467.440002
40
4.000000
62
7
0
CIRCLE
10
94.000000
20
485.440002
40
1.600000
62
7
0
CIRCLE
10
94.000000
20
485.440002
40
4.000000
62
7
0
CIRCLE
10
79.000000
20
493.440002
40
1.600000
62
7
0
CIRCLE
10
79.000000
20
493.440002
40
4.000000
62
7
0
CIRCLE
10
190.000000
20
451.440002
40
1.350000
62
7
0
CIRCLE
10
190.000000
20
451.440002
40
4.000000
62
7
0
CIRCLE
10
169.000000
20
459.440002
40
1.350000
62
7
0
CIRCLE
10
169.000000
20
459.440002
40
4.000000
62
7
0
CIRCLE
10
144.000000
20
467.440002
40
1.350000
62
7
0
CIRCLE
10
144.000000
20
467.440002
40
4.000000
62
7
0
CIRCLE
10
87.000000
20
493.440002
40
1.600000
62
7
0
CIRCLE
10
87.000000
20
493.440002
40
4.000000
62
7
0
CIRCLE
10
177.000000
20
459.440002
40
1.350000
62
7
0
CIRCLE
10
177.000000
20
459.440002
40
4.000000
62
7
0
CIRCLE
10
152.000000
20
467.440002
40
1.350000
62
7
0
CIRCLE
10
152.000000
20
467.440002
40
4.000000
62
7
0
CIRCLE
10
95.000000
20
493.440002
40
1.600000
62
7
0
CIRCLE
10
95.000000
20
493.440002
40
4.000000
62
7
0
CIRCLE
10
185.000000
20
459.440002
40
1.350000
62
7
0
CIRCLE
10
185.000000
20
459.440002
40
4.000000
62
7
0
CIRCLE
10
160.000000
20
467.440002
40
1.350000
62
7
0
CIRCLE
10
160.000000
20
467.440002
40
4.000000
62
7
0
CIRCLE
10
193.000000
20
459.440002
40
1.350000
62
7
0
CIRCLE
10
193.000000
20
459.440002
40
4.000000
62
7
0
CIRCLE
10
168.000000
20
467.440002
40
1.350000
62
7
0
CIRCLE
10
168.000000
20
467.440002
40
4.000000
62
7
0
CIRCLE
10
176.000000
20
467.440002
40
1.350000
62
7
0
CIRCLE
10
176.000000
20
467.440002
40
4.000000
62
7
0
CIRCLE
10
184.000000
20
467.440002
40
1.350000
62
7
0
CIRCLE
10
184.000000
20
467.440002
40
4.000000
62
7
0
CIRCLE
10
192.000000
20
467.440002
40
1.350000
62
7
0
CIRCLE
10
192.000000
20
467.440002
40
4.000000
62
7
0
LINE
10
0.000000
20
431.440002
11
10.144150
21
460.012695
62
7
0
LINE
10
10.144150
20
460.012695
11
47.838993
21
446.629913
62
7
0
LINE
10
47.838993
20
446.629913
11
50.970562
21
455.450500
62
7
0
LINE
10
50.970562
20
455.450500
11
13.275722
21
468.833282
62
7
0
LINE
10
13.275722
20
468.833282
11
23.419872
21
497.405975
62
7
0
LINE
10
23.419872
20
497.405975
11
189.936829
21
438.287537
62
7
0
LINE
10
0.000000
20
411.440002
11
10.000000
21
411.440002
62
7
0
LINE
10
10.000000
20
411.440002
11
10.000000
21
420.799988
62
7
0
LINE
10
10.000000
20
420.799988
11
20.000000
21
420.799988
62
7
0
LINE
10
20.000000
20
420.799988
11
20.000000
21
411.440002
62
7
0
LINE
10
20.000000
20
411.440002
11
30.000000
21
411.440002
62
7
0
LINE
10
30.000000
20
411.440002
11
30.000000
21
420.799988
62
7
0
LINE
10
30.000000
20
420.799988
11
40.000000
21
420.799988
62
7
0
LINE
10
40.000000
20
420.799988
11
40.000000
21
411.440002
62
7
0
LINE
10
40.000000
20
411.440002
11
50.000000
21
411.440002
62
7
0
LINE
10
50.000000
20
411.440002
11
50.000000
21
420.799988
62
7
0
LINE
10
50.000000
20
420.799988
11
60.000000
21
420.799988
62
7
0
LINE
10
60.000000
20
420.799988
11
60.000000
21
411.440002
62
7
0
LINE
10
60.000000
20
411.440002
11
70.000000
21
411.440002
62
7
0
LINE
10
70.000000
20
411.440002
11
70.000000
21
420.799988
62
7
0
LINE
10
70.000000
20
420.799988
11
80.000000
21
420.799988
62
7
0
LINE
10
80.000000
20
420.799988
11
80.000000
21
411.440002
62
7
0
LINE
10
80.000000
20
411.440002
11
90.000000
21
411.440002
62
7
0
LINE
10
90.000000
20
411.440002
11
90.000000
21
420.799988
62
7
0
LINE
10
90.000000
20
420.799988
11
100.000000
21
420.799988
62
7
0
LINE
10
100.000000
20
420.799988
11
100.000000
21
411.440002
62
7
0
LINE
10
100.000000
20
411.440002
11
110.000000
21
411.440002
62
7
0
LINE
10
110.000000
20
411.440002
11
110.000000
21
420.799988
62
7
0
LINE
10
110.000000
20
420.799988
11
120.000000
21
420.799988
62
7
0
LINE
10
120.000000
20
420.799988
11
120.000000
21
411.440002
62
7
0
LINE
10
120.000000
20
411.440002
11
130.000000
21
411.440002
62
7
0
LINE
10
130.000000
20
411.440002
11
130.000000
21
420.799988
62
7
0
LINE
10
130.000000
20
420.799988
11
140.000000
21
420.799988
62
7
0
LINE
10
140.000000
20
420.799988
11
140.000000
21
411.440002
62
7
0
LINE
10
140.000000
20
411.440002
11
150.000000
21
411.440002
62
7
0
LINE
10
150.000000
20
411.440002
11
150.000000
21
420.799988
62
7
0
LINE
10
150.000000
20
420.799988
11
160.000000
21
420.799988
62
7
0
LINE
10
160.000000
20
420.799988
11
160.000000
21
411.440002
62
7
0
LINE
10
160.000000
20
411.440002
11
170.000000
21
411.440002
62
7
0
LINE
10
170.000000
20
411.440002
11
170.000000
21
420.799988
62
7
0
LINE
10
170.000000
20
420.799988
11
180.000000
21
420.799988
62
7
0
LINE
10
180.000000
20
420.799988
11
180.000000
21
411.440002
62
7
0
LINE
10
180.000000
20
411.440002
11
190.000000
21
411.440002
62
7
0
LINE
10
190.000000
20
411.440002
11
190.000000
21
438.540009
62
7
0
LINE
10
0.000000
20
411.440002
11
0.000000
21
431.440002
62
7
0
LINE
10
100.000000
20
471.440002
11
100.000000
21
496.440002
62
7
0
LINE
10
100.000000
20
496.440002
11
200.000000
21
496.440002
62
7
0
LINE
10
200.000000
20
496.440002
11
200.000000
21
471.440002
62
7
0
LINE
10
200.000000
20
471.440002
11
100.000000
21
471.440002
62
7
0
LINE
10
170.320007
20
471.440002
11
170.320007
21
476.440002
62
7
0
LINE
10
170.320007
20
476.440002
11
179.680008
21
476.440002
62
7
0
LINE
10
179.680008
20
476.440002
11
179.680008
21
481.440002
62
7
0
LINE
10
179.680008
20
481.440002
11
170.320007
21
481.440002
62
7
0
LINE
10
170.320007
20
481.440002
11
170.320007
21
486.440002
62
7
0
LINE
10
170.320007
20
486.440002
11
179.680008
21
486.440002
62
7
0
LINE
10
179.680008
20
486.440002
11
179.680008
21
491.440002
62
7
0
LINE
10
179.680008
20
491.440002
11
170.320007
21
491.440002
62
7
0
LINE
10
170.320007
20
491.440002
11
170.320007
21
496.440002
62
7
0
LINE
10
150.000000
20
471.440002
11
150.000000
21
496.440002
62
7
0
LINE
10
100.000000
20
475.440002
11
125.000000
21
475.440002
62
7
0
LINE
10
125.000000
20
475.440002
11
125.000000
21
475.940002
62
7
0
LINE
10
125.000000
20
475.940002
11
150.000000
21
475.940002
62
7
0
LINE
10
100.000000
20
480.940002
11
150.000000
21
480.940002
62
7
0
LINE
10
100.000000
20
486.940002
11
125.000000
21
486.940002
62
7
0
LINE
10
125.000000
20
486.940002
11
125.000000
21
487.440002
62
7
0
LINE
10
125.000000
20
487.440002
11
150.000000
21
487.440002
62
7
0
LINE
10
100.000000
20
494.440002
11
150.000000
21
494.440002
62
7
0
CIRCLE
10
260.000000
20
485.440002
40
1.600000
62
7
0
CIRCLE
10
260.000000
20
485.440002
40
4.000000
62
7
0
CIRCLE
10
245.000000
20
493.440002
40
1.600000
62
7
0
CIRCLE
10
245.000000
20
493.440002
40
4.000000
62
7
0
CIRCLE
10
356.000000
20
451.440002
40
1.350000
62
7
0
CIRCLE
10
356.000000
20
451.440002
40
4.000000
62
7
0
CIRCLE
10
335.000000
20
459.440002
40
1.350000
62
7
0
CIRCLE
10
335.000000
20
459.440002
40
4.000000
62
7
0
CIRCLE
10
310.000000
20
467.440002
40
1.350000
62
7
0
CIRCLE
10
310.000000
20
467.440002
40
4.000000
62
7
0
CIRCLE
10
268.000000
20
485.440002
40
1.600000
62
7
0
CIRCLE
10
268.000000
20
485.440002
40
4.000000
62
7
0
CIRCLE
10
253.000000
20
493.440002
40
1.600000
62
7
0
CIRCLE
10
253.000000
20
493.440002
40
4.000000
62
7
0
CIRCLE
10
364.000000
20
451.440002
40
1.350000
62
7
0
CIRCLE
10
364.000000
20
451.440002
40
4.000000
62
7
0
CIRCLE
10
343.000000
20
459.440002
40
1.350000
62
7
0
CIRCLE
10
343.000000
20
459.440002
40
4.000000
62
7
0
CIRCLE
10
318.000000
20
467.440002
40
1.350000
62
7
0
CIRCLE
10
318.000000
20
467.440002
40
4.000000
62
7
0
CIRCLE
10
276.000000
20
485.440002
40
1.600000
62
7
0
CIRCLE
10
276.000000
20
485.440002
40
4.000000
62
7
0
CIRCLE
10
261.000000
20
493.440002
40
1.600000
62
7
0
CIRCLE
10
261.000000
20
493.440002
40
4.000000
62
7
0
CIRCLE
10
372.000000
20
451.440002
40
1.350000
62
7
0
CIRCLE
10
372.000000
20
451.440002
40
4.000000
62
7
0
CIRCLE
10
351.000000
20
459.440002
40
1.350000
62
7
0
CIRCLE
10
351.000000
20
459.440002
40
4.000000
62
7
0
CIRCLE
10
326.000000
20
467.440002
40
1.350000
62
7
0
CIRCLE
10
326.000000
20
467.440002
40
4.000000
62
7
0
CIRCLE
10
284.000000
20
485.440002
40
1.600000
62
7
0
CIRCLE
10
284.000000
20
485.440002
40
4.000000
62
7
0
CIRCLE
10
269.000000
20
493.440002
40
1.600000
62
7
0
CIRCLE
10
269.000000
20
493.440002
40
4.000000
62
7
0
CIRCLE
10
380.000000
20
451.440002
40
1.350000
62
7
0
CIRCLE
10
380.000000
20
451.440002
40
4.000000
62
7
0
CIRCLE
10
359.000000
20
459.440002
40
1.350000
62
7
0
CIRCLE
10
359.000000
20
459.440002
40
4.000000
62
7
0
CIRCLE
10
334.000000
20
467.440002
40
1.350000
62
7
0
CIRCLE
10
334.000000
20
467.440002
40
4.000000
62
7
0
CIRCLE
10
277.000000
20
493.440002
40
1.600000
62
7
0
CIRCLE
10
277.000000
20
493.440002
40
4.000000
62
7
0
CIRCLE
10
367.000000
20
459.440002
40
1.350000
62
7
0
CIRCLE
10
367.000000
20
459.440002
40
4.000000
62
7
0
CIRCLE
10
342.000000
20
467.440002
40
1.350000
62
7
0
CIRCLE
10
342.000000
20
467.440002
40
4.000000
62
7
0
CIRCLE
10
285.000000
20
493.440002
40
1.600000
62
7
0
CIRCLE
10
285.000000
20
493.440002
40
4.000000
62
7
0
CIRCLE
10
375.000000
20
459.440002
40
1.350000
62
7
0
CIRCLE
10
375.000000
20
459.440002
40
4.000000
62
7
0
CIRCLE
10
350.000000
20
467.440002
40
1.350000
62
7
0
CIRCLE
10
350.000000
20
467.440002
40
4.000000
62
7
0
CIRCLE
10
383.000000
20
459.440002
40
1.350000
62
7
0
CIRCLE
10
383.000000
20
459.440002
40
4.000000
62
7
0
CIRCLE
10
358.000000
20
467.440002
40
1.350000
62
7
0
CIRCLE
10
358.000000
20
467.440002
40
4.000000
62
7
0
CIRCLE
10
366.000000
20
467.440002
40
1.350000
62
7
0
CIRCLE
10
366.000000
20
467.440002
40
4.000000
62
7
0
CIRCLE
10
374.000000
20
467.440002
40
1.350000
62
7
0
CIRCLE
10
374.000000
20
467.440002
40
4.000000
62
7
0
CIRCLE
10
382.000000
20
467.440002
40
1.350000
62
7
0
CIRCLE
10
382.000000
20
467.440002
40
4.000000
62
7
0
LINE
10
190.000000
20
431.440002
11
200.144150
21
460.012695
62
7
0
LINE
10
200.144150
20
460.012695
11
237.838989
21
446.629913
62
7
0
LINE
10
237.838989
20
446.629913
11
240.970566
21
455.450500
62
7
0
LINE
10
240.970566
20
455.450500
11
203.275726
21
468.833282
62
7
0
LINE
10
203.275726
20
468.833282
11
213.419876
21
497.405975
62
7
0
LINE
10
213.419876
20
497.405975
11
379.936829
21
438.287537
62
7
0
LINE
10
190.000000
20
411.440002
11
200.000000
21
411.440002
62
7
0
LINE
10
200.000000
20
411.440002
11
200.000000
21
420.799988
62
7
0
LINE
10
200.000000
20
420.799988
11
210.000000
21
420.799988
62
7
0
LINE
10
210.000000
20
420.799988
11
210.000000
21
411.440002
62
7
0
LINE
10
210.000000
20
411.440002
11
220.000000
21
411.440002
62
7
0
LINE
10
220.000000
20
411.440002
11
220.000000
21
420.799988
62
7
0
LINE
10
220.000000
20
420.799988
11
230.000000
21
420.799988
62
7
0
LINE
10
230.000000
20
420.799988
11
230.000000
21
411.440002
62
7
0
LINE
10
230.000000
20
411.440002
11
240.000000
21
411.440002
62
7
0
LINE
10
240.000000
20
411.440002
11
240.000000
21
420.799988
62
7
0
LINE
10
240.000000
20
420.799988
11
250.000000
21
420.799988
62
7
0
LINE
10
250.000000
20
420.799988
11
250.000000
21
411.440002
62
7
0
LINE
10
250.000000
20
411.440002
11
260.000000
21
411.440002
62
7
0
LINE
10
260.000000
20
411.440002
11
260.000000
21
420.799988
62
7
0
LINE
10
260.000000
20
420.799988
11
270.000000
21
420.799988
62
7
0
LINE
10
270.000000
20
420.799988
11
270.000000
21
411.440002
62
7
0
LINE
10
270.000000
20
411.440002
11
280.000000
21
411.440002
62
7
0
LINE
10
280.000000
20
411.440002
11
280.000000
21
420.799988
62
7
0
LINE
10
280.000000
20
420.799988
11
290.000000
21
420.799988
62
7
0
LINE
10
290.000000
20
420.799988
11
290.000000
21
411.440002
62
7
0
LINE
10
290.000000
20
411.440002
11
300.000000
21
411.440002
62
7
0
LINE
10
300.000000
20
411.440002
11
300.000000
21
420.799988
62
7
0
LINE
10
300.000000
20
420.799988
11
310.000000
21
420.799988
62
7
0
LINE
10
310.000000
20
420.799988
11
310.000000
21
411.440002
62
7
0
LINE
10
310.000000
20
411.440002
11
320.000000
21
411.440002
62
7
0
LINE
10
320.000000
20
411.440002
11
320.000000
21
420.799988
62
7
0
LINE
10
320.000000
20
420.799988
11
330.000000
21
420.799988
62
7
0
LINE
10
330.000000
20
420.799988
11
330.000000
21
411.440002
62
7
0
LINE
10
330.000000
20
411.440002
11
340.000000
21
411.440002
62
7
0
LINE
10
340.000000
20
411.440002
11
340.000000
21
420.799988
62
7
0
LINE
10
340.000000
20
420.799988
11
350.000000
21
420.799988
62
7
0
LINE
10
350.000000
20
420.799988
11
350.000000
21
411.440002
62
7
0
LINE
10
350.000000
20
411.440002
11
360.000000
21
411.440002
62
7
0
LINE
10
360.000000
20
411.440002
11
360.000000
21
420.799988
62
7
0
LINE
10
360.000000
20
420.799988
11
370.000000
21
420.799988
62
7
0
LINE
10
370.000000
20
420.799988
11
370.000000
21
411.440002
62
7
0
LINE
10
370.000000
20
411.440002
11
380.000000
21
411.440002
62
7
0
LINE
10
380.000000
20
411.440002
11
380.000000
21
438.540009
62
7
0
LINE
10
190.000000
20
411.440002
11
190.000000
21
431.440002
62
7
0
LINE
10
290.000000
20
471.440002
11
290.000000
21
496.440002
62
7
0
LINE
10
290.000000
20
496.440002
11
390.000000
21
496.440002
62
7
0
LINE
10
390.000000
20
496.440002
11
390.000000
21
471.440002
62
7
0
LINE
10
390.000000
20
471.440002
11
290.000000
21
471.440002
62
7
0
LINE
10
360.320007
20
471.440002
11
360.320007
21
476.440002
62
7
0
LINE
10
360.320007
20
476.440002
11
369.679993
21
476.440002
62
7
0
LINE
10
369.679993
20
476.440002
11
369.679993
21
481.440002
62
7
0
LINE
10
369.679993
20
481.440002
11
360.320007
21
481.440002
62
7
0
LINE
10
360.320007
20
481.440002
11
360.320007
21
486.440002
62
7
0
LINE
10
360.320007
20
486.440002
11
369.679993
21
486.440002
62
7
0
LINE
10
369.679993
20
486.440002
11
369.679993
21
491.440002
62
7
0
LINE
10
369.679993
20
491.440002
11
360.320007
21
491.440002
62
7
0
LINE
10
360.320007
20
491.440002
11
360.320007
21
496.440002
62
7
0
LINE
10
340.000000
20
471.440002
11
340.000000
21
496.440002
62
7
0
CIRCLE
10
450.000000
20
485.440002
40
1.600000
62
7
0
CIRCLE
10
450.000000
20
485.440002
40
4.000000
62
7
0
CIRCLE
10
435.000000
20
493.440002
40
1.600000
62
7
0
CIRCLE
10
435.000000
20
493.440002
40
4.000000
62
7
0
CIRCLE
10
546.000000
20
451.440002
40
1.350000
62
7
0
CIRCLE
10
546.000000
20
451.440002
40
4.000000
62
7
0
CIRCLE
10
525.000000
20
459.440002
40
1.350000
62
7
0
CIRCLE
10
525.000000
20
459.440002
40
4.000000
62
7
0
CIRCLE
10
500.000000
20
467.440002
40
1.350000
62
7
0
CIRCLE
10
500.000000
20
467.440002
40
4.000000
62
7
0
CIRCLE
10
458.000000
20
485.440002
40
1.600000
62
7
0
CIRCLE
10
458.000000
20
485.440002
40
4.000000
62
7
0
CIRCLE
10
443.000000
20
493.440002
40
1.600000
62
7
0
CIRCLE
10
443.000000
20
493.440002
40
4.000000
62
7
0
CIRCLE
10
554.000000
20
451.440002
40
1.350000
62
7
0
CIRCLE
10
554.000000
20
451.440002
40
4.000000
62
7
0
CIRCLE
10
533.000000
20
459.440002
40
1.350000
62
7
0
CIRCLE
10
533.000000
20
459.440002
40
4.000000
62
7
0
CIRCLE
10
508.000000
20
467.440002
40
1.350000
62
7
0
CIRCLE
10
508.000000
20
467.440002
40
4.000000
62
7
0
CIRCLE
10
466.000000
20
485.440002
40
1.600000
62
7
0
CIRCLE
10
466.000000
20
485.440002
40
4.000000
62
7
0
CIRCLE
10
451.000000
20
493.440002
40
1.600000
62
7
0
CIRCLE
10
451.000000
20
493.440002
40
4.000000
62
7
0
CIRCLE
10
562.000000
20
451.440002
40
1.350000
62
7
0
CIRCLE
10
562.000000
20
451.440002
40
4.000000
62
7
0
CIRCLE
10
541.000000
20
459.440002
40
1.350000
62
7
0
CIRCLE
10
541.000000
20
459.440002
40
4.000000
62
7
0
CIRCLE
10
516.000000
20
467.440002
40
1.350000
62
7
0
CIRCLE
10
516.000000
20
467.440002
40
4.000000
62
7
0
CIRCLE
10
474.000000
20
485.440002
40
1.600000
62
7
0
CIRCLE
10
474.000000
20
485.440002
40
4.000000
62
7
0
CIRCLE
10
459.000000
20
493.440002
40
1.600000
62
7
0
CIRCLE
10
459.000000
20
493.440002
40
4.000000
62
7
0
CIRCLE
10
570.000000
20
451.440002
40
1.350000
62
7
0
CIRCLE
10
570.000000
20
451.440002
40
4.000000
62
7
0
CIRCLE
10
549.000000
20
459.440002
40
1.350000
62
7
0
CIRCLE
10
549.000000
20
459.440002
40
4.000000
62
7
0
CIRCLE
10
524.000000
20
467.440002
40
1.350000
62
7
0
CIRCLE
10
524.000000
20
467.440002
40
4.000000
62
7
0
CIRCLE
10
467.000000
20
493.440002
40
1.600000
62
7
0
CIRCLE
10
467.000000
20
493.440002
40
4.000000
62
7
0
CIRCLE
10
557.000000
20
459.440002
40
1.350000
62
7
0
CIRCLE
10
557.000000
20
459.440002
40
4.000000
62
7
0
CIRCLE
10
532.000000
20
467.440002
40
1.350000
62
7
0
CIRCLE
10
532.000000
20
467.440002
40
4.000000
62
7
0
CIRCLE
10
475.000000
20
493.440002
40
1.600000
62
7
0
CIRCLE
10
475.000000
20
493.440002
40
4.000000
62
7
0
CIRCLE
10
565.000000
20
459.440002
40
1.350000
62
7
0
CIRCLE
10
565.000000
20
459.440002
40
4.000000
62
7
0
CIRCLE
10
540.000000
20
467.440002
40
1.350000
62
7
0
CIRCLE
10
540.000000
20
467.440002
40
4.000000
62
7
0
CIRCLE
10
573.000000
20
459.440002
40
1.350000
62
7
0
CIRCLE
10
573.000000
20
459.440002
40
4.000000
62
7
0
CIRCLE
10
548.000000
20
467.440002
40
1.350000
62
7
0
CIRCLE
10
548.000000
20
467.440002
40
4.000000
62
7
0
CIRCLE
10
556.000000
20
467.440002
40
1.350000
62
7
0
CIRCLE
10
556.000000
20
467.440002
40
4.000000
62
7
0
CIRCLE
10
564.000000
20
467.440002
40
1.350000
62
7
0
CIRCLE
10
564.000000
20
467.440002
40
4.000000
62
7
0
CIRCLE
10
572.000000
20
467.440002
40
1.350000
62
7
0
CIRCLE
10
572.000000
20
467.440002
40
4.000000
62
7
0
LINE
10
380.000000
20
431.440002
11
390.144165
21
460.012695
62
7
0
LINE
10
390.144165
20
460.012695
11
427.838989
21
446.629913
62
7
0
LINE
10
427.838989
20
446.629913
11
430.970551
21
455.450500
62
7
0
LINE
10
430.970551
20
455.450500
11
393.275726
21
468.833282
62
7
0
LINE
10
393.275726
20
468.833282
11
403.419861
21
497.405975
62
7
0
LINE
10
403.419861
20
497.405975
11
569.936829
21
438.287537
62
7
0
LINE
10
380.000000
20
411.440002
11
390.000000
21
411.440002
62
7
0
LINE
10
390.000000
20
411.440002
11
390.000000
21
420.799988
62
7
0
LINE
10
390.000000
20
420.799988
11
400.000000
21
420.799988
62
7
0
LINE
10
400.000000
20
420.799988
11
400.000000
21
411.440002
62
7
0
LINE
10
400.000000
20
411.440002
11
410.000000
21
411.440002
62
7
0
LINE
10
410.000000
20
411.440002
11
410.000000
21
420.799988
62
7
0
LINE
10
410.000000
20
420.799988
11
420.000000
21
420.799988
62
7
0
LINE
10
420.000000
20
420.799988
11
420.000000
21
411.440002
62
7
0
LINE
10
420.000000
20
411.440002
11
430.000000
21
411.440002
62
7
0
LINE
10
430.000000
20
411.440002
11
430.000000
21
420.799988
62
7
0
LINE
10
430.000000
20
420.799988
11
440.000000
21
420.799988
62
7
0
LINE
10
440.000000
20
420.799988
11
440.000000
21
411.440002
62
7
0
LINE
10
440.000000
20
411.440002
11
450.000000
21
411.440002
62
7
0
LINE
10
450.000000
20
411.440002
11
450.000000
21
420.799988
62
7
0
LINE
10
450.000000
20
420.799988
11
460.000000
21
420.799988
62
7
0
LINE
10
460.000000
20
420.799988
11
460.000000
21
411.440002
62
7
0
LINE
10
460.000000
20
411.440002
11
470.000000
21
411.440002
62
7
0
LINE
10
470.000000
20
411.440002
11
470.000000
21
420.799988
62
7
0
LINE
10
470.000000
20
420.799988
11
480.000000
21
420.799988
62
7
0
LINE
10
480.000000
20
420.799988
11
480.000000
21
411.440002
62
7
0
LINE
10
480.000000
20
411.440002
11
490.000000
21
411.440002
62
7
0
LINE
10
490.000000
20
411.440002
11
490.000000
21
420.799988
62
7
0
LINE
10
490.000000
20
420.799988
11
500.000000
21
420.799988
62
7
0
LINE
10
500.000000
20
420.799988
11
500.000000
21
411.440002
62
7
0
LINE
10
500.000000
20
411.440002
11
510.000000
21
411.440002
62
7
0
LINE
10
510.000000
20
411.440002
11
510.000000
21
420.799988
62
7
0
LINE
10
510.000000
20
420.799988
11
520.000000
21
420.799988
62
7
0
LINE
10
520.000000
20
420.799988
11
520.000000
21
411.440002
62
7
0
LINE
10
520.000000
20
411.440002
11
530.000000
21
411.440002
62
7
0
LINE
10
530.000000
20
411.440002
11
530.000000
21
420.799988
62
7
0
LINE
10
530.000000
20
420.799988
11
540.000000
21
420.799988
62
7
0
LINE
10
540.000000
20
420.799988
11
540.000000
21
411.440002
62
7
0
LINE
10
540.000000
20
411.440002
11
550.000000
21
411.440002
62
7
0
LINE
10
550.000000
20
411.440002
11
550.000000
21
420.799988
62
7
0
LINE
10
550.000000
20
420.799988
11
560.000000
21
420.799988
62
7
0
LINE
10
560.000000
20
420.799988
11
560.000000
21
411.440002
62
7
0
LINE
10
560.000000
20
411.440002
11
570.000000
21
411.440002
62
7
0
LINE
10
570.000000
20
411.440002
11
570.000000
21
438.540009
62
7
0
LINE
10
380.000000
20
411.440002
11
380.000000
21
431.440002
62
7
0
LINE
10
480.000000
20
471.440002
11
480.000000
21
496.440002
62
7
0
LINE
10
480.000000
20
496.440002
11
580.000000
21
496.440002
62
7
0
LINE
10
580.000000
20
496.440002
11
580.000000
21
471.440002
62
7
0
LINE
10
580.000000
20
471.440002
11
480.000000
21
471.440002
62
7
0
LINE
10
550.320007
20
471.440002
11
550.320007
21
476.440002
62
7
0
LINE
10
550.320007
20
476.440002
11
559.679993
21
476.440002
62
7
0
LINE
10
559.679993
20
476.440002
11
559.679993
21
481.440002
62
7
0
LINE
10
559.679993
20
481.440002
11
550.320007
21
481.440002
62
7
0
LINE
10
550.320007
20
481.440002
11
550.320007
21
486.440002
62
7
0
LINE
10
550.320007
20
486.440002
11
559.679993
21
486.440002
62
7
0
LINE
10
559.679993
20
486.440002
11
559.679993
21
491.440002
62
7
0
LINE
10
559.679993
20
491.440002
11
550.320007
21
491.440002
62
7
0
LINE
10
550.320007
20
491.440002
11
550.320007
21
496.440002
62
7
0
LINE
10
530.000000
20
471.440002
11
530.000000
21
496.440002
62
7
0
CIRCLE
10
640.000000
20
485.440002
40
1.600000
62
7
0
CIRCLE
10
640.000000
20
485.440002
40
4.000000
62
7
0
CIRCLE
10
625.000000
20
493.440002
40
1.600000
62
7
0
CIRCLE
10
625.000000
20
493.440002
40
4.000000
62
7
0
CIRCLE
10
736.000000
20
451.440002
40
1.350000
62
7
0
CIRCLE
10
736.000000
20
451.440002
40
4.000000
62
7
0
CIRCLE
10
715.000000
20
459.440002
40
1.350000
62
7
0
CIRCLE
10
715.000000
20
459.440002
40
4.000000
62
7
0
CIRCLE
10
690.000000
20
467.440002
40
1.350000
62
7
0
CIRCLE
10
690.000000
20
467.440002
40
4.000000
62
7
0
CIRCLE
10
648.000000
20
485.440002
40
1.600000
62
7
0
CIRCLE
10
648.000000
20
485.440002
40
4.000000
62
7
0
CIRCLE
10
633.000000
20
493.440002
40
1.600000
62
7
0
CIRCLE
10
633.000000
20
493.440002
40
4.000000
62
7
0
CIRCLE
10
744.000000
20
451.440002
40
1.350000
62
7
0
CIRCLE
10
744.000000
20
451.440002
40
4.000000
62
7
0
CIRCLE
10
723.000000
20
459.440002
40
1.350000
62
7
0
CIRCLE
10
723.000000
20
459.440002
40
4.000000
62
7
0
CIRCLE
10
698.000000
20
467.440002
40
1.350000
62
7
0
CIRCLE
10
698.000000
20
467.440002
40
4.000000
62
7
0
CIRCLE
10
656.000000
20
485.440002
40
1.600000
62
7
0
CIRCLE
10
656.000000
20
485.440002
40
4.000000
62
7
0
CIRCLE
10
641.000000
20
493.440002
40
1.600000
62
7
0
CIRCLE
10
641.000000
20
493.440002
40
4.000000
62
7
0
CIRCLE
10
752.000000
20
451.440002
40
1.350000
62
7
0
CIRCLE
10
752.000000
20
451.440002
40
4.000000
62
7
0
CIRCLE
10
731.000000
20
459.440002
40
1.350000
62
7
0
CIRCLE
10
731.000000
20
459.440002
40
4.000000
62
7
0
CIRCLE
10
706.000000
20
467.440002
40
1.350000
62
7
0
CIRCLE
10
706.000000
20
467.440002
40
4.000000
62
7
0
CIRCLE
10
664.000000
20
485.440002
40
1.600000
62
7
0
CIRCLE
10
664.000000
20
485.440002
40
4.000000
62
7
0
CIRCLE
10
649.000000
20
493.440002
40
1.600000
62
7
0
CIRCLE
10
649.000000
20
493.440002
40
4.000000
62
7
0
CIRCLE
10
760.000000
20
451.440002
40
1.350000
62
7
0
CIRCLE
10
760.000000
20
451.440002
40
4.000000
62
7
0
CIRCLE
10
739.000000
20
459.440002
40
1.350000
62
7
0
CIRCLE
10
739.000000
20
459.440002
40
4.000000
62
7
0
CIRCLE
10
714.000000
20
467.440002
40
1.350000
62
7
0
CIRCLE
10
714.000000
20
467.440002
40
4.000000
62
7
0
CIRCLE
10
657.000000
20
493.440002
40
1.600000
62
7
0
CIRCLE
10
657.000000
20
493.440002
40
4.000000
62
7
0
CIRCLE
10
747.000000
20
459.440002
40
1.350000
62
7
0
CIRCLE
10
747.000000
20
459.440002
40
4.000000
62
7
0
CIRCLE
10
722.000000
20
467.440002
40
1.350000
62
7
0
CIRCLE
10
722.000000
20
467.440002
40
4.000000
62
7
0
CIRCLE
10
665.000000
20
493.440002
40
1.600000
62
7
0
CIRCLE
10
665.000000
20
493.440002
40
4.000000
62
7
0
CIRCLE
10
755.000000
20
459.440002
40
1.350000
62
7
0
CIRCLE
10
755.000000
20
459.440002
40
4.000000
62
7
0
CIRCLE
10
730.000000
20
467.440002
40
1.350000
62
7
0
CIRCLE
10
730.000000
20
467.440002
40
4.000000
62
7
0
CIRCLE
10
763.000000
20
459.440002
40
1.350000
62
7
0
CIRCLE
10
763.000000
20
459.440002
40
4.000000
62
7
0
CIRCLE
10
738.000000
20
467.440002
40
1.350000
62
7
0
CIRCLE
10
738.000000
20
467.440002
40
4.000000
62
7
0
CIRCLE
10
746.000000
20
467.440002
40
1.350000
62
7
0
CIRCLE
10
746.000000
20
467.440002
40
4.000000
62
7
0
CIRCLE
10
754.000000
20
467.440002
40
1.350000
62
7
0
CIRCLE
10
754.000000
20
467.440002
40
4.000000
62
7
0
CIRCLE
10
762.000000
20
467.440002
40
1.350000
62
7
0
CIRCLE
10
762.000000
20
467.440002
40
4.000000
62
7
0
LINE
10
570.000000
20
431.440002
11
580.144165
21
460.012695
62
7
0
LINE
10
580.144165
20
460.012695
11
617.838989
21
446.629913
62
7
0
LINE
10
617.838989
20
446.629913
11
620.970581
21
455.450500
62
7
0
LINE
10
620.970581
20
455.450500
11
583.275696
21
468.833282
62
7
0
LINE
10
583.275696
20
468.833282
11
593.419861
21
497.405975
62
7
0
LINE
10
593.419861
20
497.405975
11
759.936829
21
438.287537
62
7
0
LINE
10
570.000000
20
411.440002
11
580.000000
21
411.440002
62
7
0
LINE
10
580.000000
20
411.440002
11
580.000000
21
420.799988
62
7
0
LINE
10
580.000000
20
420.799988
11
590.000000
21
420.799988
62
7
0
LINE
10
590.000000
20
420.799988
11
590.000000
21
411.440002
62
7
0
LINE
10
590.000000
20
411.440002
11
600.000000
21
411.440002
62
7
0
LINE
10
600.000000
20
411.440002
11
600.000000
21
420.799988
62
7
0
LINE
10
600.000000
20
420.799988
11
610.000000
21
420.799988
62
7
0
LINE
10
610.000000
20
420.799988
11
610.000000
21
411.440002
62
7
0
LINE
10
610.000000
20
411.440002
11
620.000000
21
411.440002
62
7
0
LINE
10
620.000000
20
411.440002
11
620.000000
21
420.799988
62
7
0
LINE
10
620.000000
20
420.799988
11
630.000000
21
420.799988
62
7
0
LINE
10
630.000000
20
420.799988
11
630.000000
21
411.440002
62
7
0
LINE
10
630.000000
20
411.440002
11
640.000000
21
411.440002
62
7
0
LINE
10
640.000000
20
411.440002
11
640.000000
21
420.799988
62
7
0
LINE
10
640.000000
20
420.799988
11
650.000000
21
420.799988
62
7
0
LINE
10
650.000000
20
420.799988
11
650.000000
21
411.440002
62
7
0
LINE
10
650.000000
20
411.440002
11
660.000000
21
411.440002
62
7
0
LINE
10
660.000000
20
411.440002
11
660.000000
21
420.799988
62
7
0
LINE
10
660.000000
20
420.799988
11
670.000000
21
420.799988
62
7
0
LINE
10
670.000000
20
420.799988
11
670.000000
21
411.440002
62
7
0
LINE
10
670.000000
20
411.440002
11
680.000000
21
411.440002
62
7
0
LINE
10
680.000000
20
411.440002
11
680.000000
21
420.799988
62
7
0
LINE
10
680.000000
20
420.799988
11
690.000000
21
420.799988
62
7
0
LINE
10
690.000000
20
420.799988
11
690.000000
21
411.440002
62
7
0
LINE
10
690.000000
20
411.440002
11
700.000000
21
411.440002
62
7
0
LINE
10
700.000000
20
411.440002
11
700.000000
21
420.799988
62
7
0
LINE
10
700.000000
20
420.799988
11
710.000000
21
420.799988
62
7
0
LINE
10
710.000000
20
420.799988
11
710.000000
21
411.440002
62
7
0
LINE
10
710.000000
20
411.440002
11
720.000000
21
411.440002
62
7
0
LINE
10
720.000000
20
411.440002
11
720.000000
21
420.799988
62
7
0
LINE
10
720.000000
20
420.799988
11
730.000000
21
420.799988
62
7
0
LINE
10
730.000000
20
420.799988
11
730.000000
21
411.440002
62
7
0
LINE
10
730.000000
20
411.440002
11
740.000000
21
411.440002
62
7
0
LINE
10
740.000000
20
411.440002
11
740.000000
21
420.799988
62
7
0
LINE
10
740.000000
20
420.799988
11
750.000000
21
420.799988
62
7
0
LINE
10
750.000000
20
420.799988
11
750.000000
21
411.440002
62
7
0
LINE
10
750.000000
20
411.440002
11
760.000000
21
411.440002
62
7
0
LINE
10
760.000000
20
411.440002
11
760.000000
21
438.540009
62
7
0
LINE
10
570.000000
20
411.440002
11
570.000000
21
431.440002
62
7
0
LINE
10
670.000000
20
471.440002
11
670.000000
21
496.440002
62
7
0
LINE
10
670.000000
20
496.440002
11
770.000000
21
496.440002
62
7
0
LINE
10
770.000000
20
496.440002
11
770.000000
21
471.440002
62
7
0
LINE
10
770.000000
20
471.440002
11
670.000000
21
471.440002
62
7
0
LINE
10
740.320007
20
471.440002
11
740.320007
21
476.440002
62
7
0
LINE
10
740.320007
20
476.440002
11
749.679993
21
476.440002
62
7
0
LINE
10
749.679993
20
476.440002
11
749.679993
21
481.440002
62
7
0
LINE
10
749.679993
20
481.440002
11
740.320007
21
481.440002
62
7
0
LINE
10
740.320007
20
481.440002
11
740.320007
21
486.440002
62
7
0
LINE
10
740.320007
20
486.440002
11
749.679993
21
486.440002
62
7
0
LINE
10
749.679993
20
486.440002
11
749.679993
21
491.440002
62
7
0
LINE
10
749.679993
20
491.440002
11
740.320007
21
491.440002
62
7
0
LINE
10
740.320007
20
491.440002
11
740.320007
21
496.440002
62
7
0
LINE
10
720.000000
20
471.440002
11
720.000000
21
496.440002
62
7
0
LINE
10
773.719971
20
411.440002
11
773.719971
21
501.440002
62
7
0
LINE
10
823.719971
20
411.440002
11
823.719971
21
501.440002
62
7
0
LINE
10
873.719971
20
411.440002
11
873.719971
21
501.440002
62
7
0
LINE
10
923.719971
20
411.440002
11
923.719971
21
501.440002
62
7
0
LINE
10
973.719971
20
411.440002
11
973.719971
21
501.440002
62
7
0
LINE
10
773.719971
20
436.440002
11
973.719971
21
436.440002
62
7
0
LINE
10
773.719971
20
461.440002
11
973.719971
21
461.440002
62
7
0
LINE
10
773.719971
20
486.440002
11
973.719971
21
486.440002
62
7
0
LINE
10
773.719971
20
501.440002
11
973.719971
21
501.440002
62
7
0
ENDSEC
0
EOF
